<svg width="80" height="80" viewBox="0 0 80 80" fill="none" xmlns="http://www.w3.org/2000/svg">
<g clip-path="url(#clip0_514_10054)">
<path d="M17.52 0H62.48C72.1561 0 80 7.84395 80 17.52V62.48C80 72.1561 72.1561 80 62.48 80H17.52C7.84395 80 0 72.1561 0 62.48V17.52C0 7.84395 7.84395 0 17.52 0Z" fill="url(#paint0_linear_514_10054)"/>
<path d="M25.639 58.0657L25.6465 58.0681L22.9113 62.8056C21.9129 64.5349 19.7015 65.1274 17.9722 64.129C16.243 63.1307 15.6505 60.9193 16.6489 59.19L18.6638 55.7L18.8572 55.3651C19.2025 54.8686 20.0547 54.0121 21.7594 54.1731C21.7594 54.1731 25.7709 54.6085 26.0611 56.6934C26.0612 56.6934 26.1008 57.3795 25.639 58.0657ZM64.4338 45.9654H55.9044C55.3236 45.9265 55.0698 45.7191 54.9703 45.5985L54.964 45.5875L45.8334 29.7731L45.8216 29.781L45.274 28.9959C44.3767 27.6235 42.9516 31.1335 42.9516 31.1335C41.2502 35.0446 43.193 39.4914 43.8705 40.8354L56.5522 62.8007C57.5505 64.53 59.7619 65.1225 61.4912 64.1241C63.2204 63.1258 63.8129 60.9144 62.8146 59.1851L59.6433 53.6925C59.582 53.5595 59.475 53.1981 60.1254 53.1966H64.4338C66.4306 53.1966 68.0494 51.5779 68.0494 49.581C68.0494 47.5842 66.4306 45.9654 64.4338 45.9654ZM47.8669 50.8807C47.8669 50.8807 48.3222 53.1966 46.5606 53.1966H44.799L15.0297 53.1966C13.0328 53.1966 11.4141 51.5779 11.4141 49.581C11.4141 47.5842 13.0328 45.9654 15.0297 45.9654H23.1359C24.4447 45.8896 24.7549 45.1341 24.7549 45.1341L24.7621 45.1377L35.3434 26.8102L35.3403 26.8096C35.5332 26.4555 35.3726 26.121 35.3446 26.068L31.8501 20.0154C30.8517 18.2861 31.4442 16.0748 33.1735 15.0765C34.9028 14.078 37.1141 14.6705 38.1125 16.3998L39.7332 19.207L41.351 16.4048C42.3494 14.6755 44.5607 14.083 46.29 15.0814C48.0193 16.0799 48.6119 18.2912 47.6134 20.0204L32.8891 45.5235C32.8248 45.6788 32.8051 45.9225 33.2841 45.9654H42.0854L42.0873 46.0512C42.0873 46.0512 47.1742 46.1303 47.8669 50.8807Z" fill="white"/>
</g>
<defs>
<linearGradient id="paint0_linear_514_10054" x1="40" y1="0" x2="40" y2="80" gradientUnits="userSpaceOnUse">
<stop stop-color="#17C9FB"/>
<stop offset="1" stop-color="#1A74E8"/>
</linearGradient>
<clipPath id="clip0_514_10054">
<rect width="80" height="80" fill="white"/>
</clipPath>
</defs>
</svg>
