<svg width="20" height="21" viewBox="0 0 20 21" fill="none" xmlns="http://www.w3.org/2000/svg">
<path d="M11.4392 10.1523L1.51537 19.8899C0.988903 19.4864 0.681772 18.8597 0.685582 18.1964V2.12511C0.681851 1.46187 0.988903 0.835063 1.51537 0.431641L11.4392 10.1523Z" fill="#2196F3"/>
<path d="M19.3142 10.1527C19.3143 10.9235 18.9005 11.6348 18.2304 12.0156L15.1144 13.743L11.4395 10.1527L15.1143 6.5625L18.2303 8.30677C18.8962 8.6836 19.3097 9.38772 19.3142 10.1527Z" fill="#FFC107"/>
<path d="M15.1144 13.7426L3.80184 20.0593C3.48852 20.2245 3.13995 20.3116 2.78575 20.3133C2.41535 20.3204 2.05082 20.2204 1.73575 20.0254C1.6601 19.984 1.58659 19.9388 1.51562 19.8899L11.4396 10.1523L15.1144 13.7426Z" fill="#F44336"/>
<path d="M15.1143 6.56267L11.4395 10.1528L1.51562 0.432197C1.58667 0.383297 1.6601 0.338049 1.73575 0.29669C2.36796 -0.0864098 3.15742 -0.0993492 3.80184 0.262794L15.1143 6.56267Z" fill="#4CAF50"/>
</svg>
