<?xml version="1.0" encoding="UTF-8"?>
<svg xmlns="http://www.w3.org/2000/svg" version="1.1" width="1024" height="1024" viewBox="0 0 500 500"><rect x="0" y="0" width="500" height="500" fill="#ffffff"/><g transform="scale(18.519)"><g transform="translate(1,1)"><g><g transform="translate(3.5,3.5)"><path fill-rule="evenodd" d="M-3.5 0C-3.5 3.5 -3.5 3.5 0 3.5C3.5 3.5 3.5 3.5 3.5 0C3.5 -3.5 3.5 -3.5 0 -3.5C-3.5 -3.5 -3.5 -3.5 -3.5 0ZM-2.5 0L-2.5 -1.5A1 1 0 0 1 -1.5 -2.5L1.5 -2.5A1 1 0 0 1 2.5 -1.5L2.5 1.5A1 1 0 0 1 1.5 2.5L-1.5 2.5A1 1 0 0 1 -2.5 1.5Z" fill="#000000"/><path fill-rule="evenodd" d="M-1.5 -1.5L1.5 -1.5L1.5 1.5L-1.5 1.5Z" fill="#000000"/></g></g><g><g transform="translate(21.5,3.5)"><g transform="rotate(90)"><path fill-rule="evenodd" d="M-3.5 0C-3.5 3.5 -3.5 3.5 0 3.5C3.5 3.5 3.5 3.5 3.5 0C3.5 -3.5 3.5 -3.5 0 -3.5C-3.5 -3.5 -3.5 -3.5 -3.5 0ZM-2.5 0L-2.5 -1.5A1 1 0 0 1 -1.5 -2.5L1.5 -2.5A1 1 0 0 1 2.5 -1.5L2.5 1.5A1 1 0 0 1 1.5 2.5L-1.5 2.5A1 1 0 0 1 -2.5 1.5Z" fill="#000000"/><path fill-rule="evenodd" d="M-1.5 -1.5L1.5 -1.5L1.5 1.5L-1.5 1.5Z" fill="#000000"/></g></g></g><g><g transform="translate(3.5,21.5)"><g transform="rotate(-90)"><path fill-rule="evenodd" d="M-3.5 0C-3.5 3.5 -3.5 3.5 0 3.5C3.5 3.5 3.5 3.5 3.5 0C3.5 -3.5 3.5 -3.5 0 -3.5C-3.5 -3.5 -3.5 -3.5 -3.5 0ZM-2.5 0L-2.5 -1.5A1 1 0 0 1 -1.5 -2.5L1.5 -2.5A1 1 0 0 1 2.5 -1.5L2.5 1.5A1 1 0 0 1 1.5 2.5L-1.5 2.5A1 1 0 0 1 -2.5 1.5Z" fill="#000000"/><path fill-rule="evenodd" d="M-1.5 -1.5L1.5 -1.5L1.5 1.5L-1.5 1.5Z" fill="#000000"/></g></g></g><path fill-rule="evenodd" d="M8 0L8 2L9 2L9 3L8 3L8 4L10 4L10 5L9 5L9 6L8 6L8 8L5 8L5 10L3 10L3 9L4 9L4 8L2 8L2 9L1 9L1 8L0 8L0 9L1 9L1 11L2 11L2 12L3 12L3 15L4 15L4 16L3 16L3 17L4 17L4 16L5 16L5 15L7 15L7 14L6 14L6 13L8 13L8 14L9 14L9 15L8 15L8 16L6 16L6 17L8 17L8 20L9 20L9 21L8 21L8 23L9 23L9 24L8 24L8 25L11 25L11 23L12 23L12 25L13 25L13 24L15 24L15 25L16 25L16 24L18 24L18 23L19 23L19 21L20 21L20 22L21 22L21 23L20 23L20 24L21 24L21 23L22 23L22 25L25 25L25 23L24 23L24 22L25 22L25 18L23 18L23 17L24 17L24 16L25 16L25 14L24 14L24 13L25 13L25 8L23 8L23 9L24 9L24 10L21 10L21 9L22 9L22 8L21 8L21 9L19 9L19 8L18 8L18 9L17 9L17 5L16 5L16 7L15 7L15 6L14 6L14 7L13 7L13 6L12 6L12 4L13 4L13 3L14 3L14 4L17 4L17 3L16 3L16 2L15 2L15 3L14 3L14 1L15 1L15 0L14 0L14 1L10 1L10 2L9 2L9 0ZM16 0L16 1L17 1L17 0ZM11 2L11 4L12 4L12 2ZM10 5L10 6L9 6L9 8L8 8L8 10L7 10L7 9L6 9L6 10L5 10L5 12L4 12L4 15L5 15L5 12L8 12L8 10L9 10L9 8L11 8L11 9L10 9L10 11L11 11L11 13L10 13L10 12L9 12L9 14L11 14L11 15L9 15L9 16L8 16L8 17L11 17L11 20L10 20L10 18L9 18L9 20L10 20L10 21L9 21L9 23L11 23L11 21L12 21L12 22L15 22L15 21L12 21L12 19L13 19L13 20L15 20L15 19L16 19L16 16L21 16L21 17L23 17L23 15L24 15L24 14L23 14L23 12L24 12L24 11L23 11L23 12L22 12L22 15L19 15L19 14L18 14L18 12L17 12L17 11L20 11L20 12L21 12L21 10L19 10L19 9L18 9L18 10L17 10L17 9L16 9L16 8L15 8L15 9L16 9L16 10L14 10L14 8L13 8L13 7L12 7L12 6L11 6L11 5ZM10 6L10 7L11 7L11 8L12 8L12 7L11 7L11 6ZM12 9L12 10L11 10L11 11L12 11L12 13L11 13L11 14L12 14L12 13L13 13L13 12L14 12L14 13L15 13L15 15L14 15L14 17L13 17L13 19L15 19L15 15L18 15L18 14L17 14L17 13L16 13L16 11L17 11L17 10L16 10L16 11L15 11L15 12L14 12L14 11L13 11L13 9ZM2 10L2 11L3 11L3 10ZM6 10L6 11L7 11L7 10ZM20 13L20 14L21 14L21 13ZM1 14L1 15L0 15L0 16L1 16L1 15L2 15L2 14ZM12 15L12 16L11 16L11 17L12 17L12 16L13 16L13 15ZM17 17L17 20L20 20L20 17ZM18 18L18 19L19 19L19 18ZM21 18L21 22L23 22L23 21L24 21L24 20L23 20L23 19L22 19L22 18ZM22 20L22 21L23 21L23 20ZM17 21L17 22L16 22L16 23L18 23L18 21Z" fill="#000000"/></g></g></svg>
