<svg width="210" height="212" viewBox="0 0 210 212" fill="none" xmlns="http://www.w3.org/2000/svg">
<g clip-path="url(#clip0_495_8455)">
<path d="M4.482 104.731C4.47669 122.544 9.12311 139.936 17.9577 155.265L3.63672 207.643L57.1471 193.588C71.8891 201.637 88.4886 205.885 105.382 205.89H105.426C161.056 205.89 206.34 160.545 206.363 104.811C206.374 77.8036 195.884 52.4083 176.825 33.3022C157.769 14.1972 132.425 3.67016 105.422 3.65845C49.7862 3.65845 4.5054 49.0001 4.482 104.731Z" fill="url(#paint0_linear_495_8455)"/>
<path d="M0.878247 104.698C0.871868 123.152 5.68522 141.166 14.8345 157.044L0 211.299L55.4295 196.741C70.7021 205.082 87.897 209.48 105.395 209.486H105.44C163.065 209.486 209.976 162.511 210 104.783C210.01 76.8046 199.142 50.4966 179.403 30.7056C159.66 10.9169 133.41 0.0117156 105.44 0C47.8039 0 0.901639 46.968 0.878247 104.698ZM33.887 154.31L31.8179 151.019C23.1173 137.161 18.5251 121.148 18.5314 104.705C18.5506 56.7218 57.5348 17.6842 105.473 17.6842C128.687 17.6938 150.505 26.7585 166.914 43.2062C183.323 59.655 192.352 81.5207 192.346 104.776C192.324 152.76 153.339 191.803 105.44 191.803H105.406C89.8088 191.795 74.5128 187.599 61.1722 179.671L57.9973 177.785L25.1045 186.424L33.887 154.31Z" fill="url(#paint1_linear_495_8455)"/>
<path d="M79.3057 60.9282C77.3482 56.5699 75.2887 56.4826 73.4269 56.4059C71.9033 56.3409 70.1606 56.3451 68.4201 56.3451C66.6774 56.3451 63.847 57.0013 61.4536 59.6192C59.0581 62.2382 52.3086 68.5689 52.3086 81.4444C52.3086 94.3209 61.6716 106.763 62.9762 108.511C64.283 110.255 81.0505 137.523 107.605 148.013C129.675 156.73 134.166 154.996 138.956 154.56C143.746 154.124 154.414 148.231 156.59 142.12C158.768 136.009 158.768 130.772 158.115 129.678C157.462 128.587 155.72 127.932 153.107 126.624C150.494 125.315 137.65 118.983 135.255 118.11C132.86 117.238 131.118 116.802 129.375 119.422C127.634 122.039 122.63 127.932 121.105 129.678C119.582 131.427 118.057 131.645 115.445 130.336C112.831 129.023 104.417 126.262 94.4347 117.348C86.6676 110.411 81.4247 101.845 79.9 99.2245C78.3764 96.6076 79.7373 95.19 81.0473 93.8853C82.2211 92.7127 83.6607 90.8297 84.9675 89.3024C86.271 87.774 86.7059 86.6834 87.5767 84.9378C88.4486 83.1911 88.0126 81.6627 87.3598 80.3538C86.7059 79.0448 81.6289 66.1033 79.3057 60.9282Z" fill="white"/>
</g>
<defs>
<linearGradient id="paint0_linear_495_8455" x1="105" y1="207.643" x2="105" y2="3.65854" gradientUnits="userSpaceOnUse">
<stop stop-color="#1FAF38"/>
<stop offset="1" stop-color="#60D669"/>
</linearGradient>
<linearGradient id="paint1_linear_495_8455" x1="105" y1="211.299" x2="105" y2="-0.000277078" gradientUnits="userSpaceOnUse">
<stop stop-color="#F9F9F9"/>
<stop offset="1" stop-color="white"/>
</linearGradient>
<clipPath id="clip0_495_8455">
<rect width="210" height="212" fill="white"/>
</clipPath>
</defs>
</svg>
