<svg width="197" height="49" viewBox="0 0 197 49" fill="none" xmlns="http://www.w3.org/2000/svg">
<path d="M47.8475 40.5591C47.692 40.2747 47.5655 39.9123 47.4775 39.481C47.39 39.0496 47.3315 38.5986 47.2925 38.1285C47.283 37.9519 47.283 36.4817 47.283 33.7179V15.2529C47.283 12.4887 47.283 11.0184 47.2925 10.8423C47.322 10.3717 47.39 9.92069 47.4775 9.49941C47.5655 9.06806 47.692 8.71522 47.8475 8.43135C48.0035 8.14697 48.2175 8 48.471 8H36.641C35.726 8 34.83 8.08808 33.944 8.25468C32.7465 8.48017 31.617 8.84257 30.556 9.34287C29.047 10.0485 27.674 11.0184 26.428 12.2632C26.2737 12.4185 26.2616 12.6674 26.3879 12.8462C26.6163 13.1695 26.8322 13.4999 27.0315 13.8416C27.3625 14.4098 27.6545 15.0078 27.9075 15.6254C27.9816 15.7946 28.2252 15.8037 28.306 15.6375C28.8331 14.5526 29.4714 13.5565 30.215 12.6356C31.2085 11.4105 32.357 10.3817 33.662 9.54873C33.808 9.46015 33.954 9.3625 34.1 9.27392C34.275 9.17627 34.46 9.08769 34.6355 9.00967C34.908 8.89189 35.1805 8.79374 35.4535 8.73485C35.901 8.62714 36.271 8.55869 36.573 8.52899C36.914 8.4998 37.274 8.48974 37.644 8.48974H42.853C42.8625 8.48974 42.8725 8.50937 42.882 8.53906C42.892 8.56825 42.9115 8.60751 42.931 8.65684C42.9505 8.70566 42.97 8.74492 42.989 8.78418C43.0202 8.84705 43.0392 8.91552 43.0595 8.98271C43.0624 8.99204 43.0649 9.00109 43.067 9.00967C43.223 9.51903 43.3205 10.0974 43.369 10.7346C43.3885 10.9404 43.398 11.1362 43.408 11.3224V15.4291C43.408 18.0066 43.408 20.9863 43.4175 24.3676C43.4175 27.749 43.4275 32.0715 43.4275 37.3343C43.4275 37.364 43.4275 37.4425 43.4175 37.5598C43.408 37.6776 43.398 37.7953 43.3885 37.9227C43.3785 38.0399 43.3785 38.1381 43.3785 38.2166C43.33 38.9026 43.213 39.5202 43.038 40.0689C43.0185 40.1182 42.999 40.1766 42.9795 40.2355C42.9505 40.2943 42.931 40.3532 42.9115 40.3925C42.8913 40.4331 42.847 40.4513 42.8016 40.4511L40.1755 40.4413L36.651 40.4317C36.398 40.4317 36.1445 40.4217 35.8915 40.4021C35.6385 40.3824 35.4145 40.3729 35.2295 40.3532C35.016 40.3306 34.8015 40.3038 34.5935 40.251C34.1235 40.1315 33.7139 39.9781 33.37 39.785C32.951 39.5494 32.688 39.3929 32.581 39.3043L32.552 39.2751C32.552 39.2751 32.5263 39.2601 32.5149 39.2511C31.3343 38.3134 30.3082 37.2107 29.446 35.9426C28.5846 34.6761 27.906 33.2739 27.4294 31.7551C27.4238 31.7372 27.4165 31.7201 27.4106 31.7024C27.4054 31.6869 27.399 31.6716 27.3942 31.656C27.1631 30.9124 26.9904 30.1505 26.8738 29.3704C26.7268 28.3879 26.798 27.39 26.798 26.3965V22.535C26.798 22.1329 26.7785 21.7312 26.749 21.3296C26.632 19.8201 26.2815 18.3695 25.7075 16.9677C25.6195 16.7523 25.5225 16.5369 25.425 16.321C25.1525 15.7426 24.841 15.184 24.5 14.6449C24.1785 14.1552 23.828 13.675 23.4485 13.2139C23.176 12.8807 22.874 12.5576 22.5625 12.244C21.764 11.4498 20.927 10.7738 20.0215 10.2051C18.512 9.24472 16.8475 8.58788 15.046 8.23505C14.1505 8.09815 13.2545 8.00956 12.3395 8.00956H0.5C0.753 8.00956 0.9675 8.15653 1.123 8.44091C1.279 8.72529 1.4055 9.07812 1.493 9.50947C1.5805 9.94032 1.639 10.3817 1.678 10.8518C1.688 11.0285 1.688 12.4987 1.688 15.2625V33.7275C1.688 36.4917 1.688 37.9619 1.678 38.1381C1.649 38.6087 1.5805 39.0597 1.493 39.4905C1.4055 39.9219 1.279 40.2848 1.123 40.5687C0.9675 40.853 0.753 41 0.5 41C3.1385 40.9804 5.3095 40.9708 7.0235 40.9607C8.737 40.9512 10.2655 40.9315 11.619 40.9215C12.972 40.9119 13.7415 40.8923 13.936 40.8822C16.5455 40.5787 18.8725 39.6571 20.927 38.1185C21.2529 37.8722 21.5721 37.6122 21.8842 37.3358C22.2422 37.0189 22.2614 36.475 21.9785 36.0896C21.7935 35.8449 21.618 35.5898 21.4525 35.325C21.1132 34.8075 20.2817 34.8116 19.9579 35.339C19.8247 35.5559 19.6865 35.7699 19.544 35.9819C18.8235 37.0308 18.006 37.9715 17.071 38.7849C16.8694 38.9591 16.6682 39.1328 16.457 39.2973C16.4512 39.3018 16.4428 39.3033 16.4356 39.3053C16.4273 39.3075 16.4251 39.3178 16.419 39.3239C16.419 39.3239 16.409 39.334 16.3995 39.3436C16.3505 39.3828 16.263 39.4417 16.146 39.5202C16.01 39.6083 15.8345 39.7065 15.611 39.8338C15.2659 40.0274 14.8618 40.1814 14.3873 40.3008C14.1791 40.3532 13.9646 40.3805 13.751 40.4021C13.566 40.4217 13.342 40.4317 13.089 40.4514C12.836 40.471 12.583 40.4806 12.3295 40.4806L6.108 40.5103C6.0985 40.5103 6.0885 40.4906 6.069 40.4514C6.0495 40.4121 6.0205 40.3532 6.001 40.2943C5.972 40.2355 5.9525 40.1766 5.9425 40.1277C5.894 39.9712 5.845 39.8142 5.8065 39.6476C5.709 39.2263 5.641 38.7652 5.602 38.2755C5.602 38.197 5.602 38.0988 5.592 37.9816C5.5825 37.8638 5.5725 37.7364 5.563 37.6187C5.553 37.5009 5.553 37.4229 5.553 37.3932C5.553 32.1299 5.553 27.8079 5.563 24.4265C5.563 21.0452 5.5725 18.0655 5.5725 15.488V11.3421C5.5825 11.1463 5.592 10.95 5.6115 10.7542C5.66 10.0682 5.777 9.45058 5.9525 8.90146C5.97507 8.8321 6.016 8.77033 6.04625 8.70396C6.05067 8.69427 6.05508 8.68486 6.0595 8.67597C6.06882 8.65263 6.07586 8.63148 6.08279 8.61256C6.09642 8.57541 6.09792 8.50936 6.1375 8.50936H11.356C11.7355 8.50936 12.086 8.51943 12.427 8.54862C12.729 8.57832 13.099 8.63721 13.5465 8.75448C13.9945 8.8622 14.4425 9.03886 14.9 9.29355C16.38 10.1759 17.675 11.2933 18.785 12.6553C19.7 13.7827 20.4495 15.0274 21.034 16.3995C21.1505 16.6839 21.2675 16.9778 21.3745 17.2718C21.7089 18.2041 21.9535 19.1615 22.1085 20.1512C22.2327 20.9448 22.202 21.7514 22.202 22.5546V26.4162C22.202 26.916 22.2315 27.4158 22.28 27.906C22.4165 29.268 22.7375 30.5716 23.244 31.846C23.2635 31.8853 23.273 31.9245 23.2925 31.9633C23.6235 32.7772 24.0325 33.5513 24.5095 34.2861C24.6755 34.5413 24.8505 34.796 25.0355 35.0507C25.279 35.3743 25.532 35.6879 25.795 35.9919C25.9995 36.227 26.2135 36.4525 26.4375 36.6779C28.852 39.0793 31.7245 40.471 35.054 40.853C35.249 40.8727 36.018 40.8822 37.3715 40.8923C38.199 40.9019 39.0945 40.9119 40.0585 40.9119C40.672 40.9215 41.305 40.9215 41.967 40.9315C42.736 40.9411 43.6125 40.9411 44.5765 40.9512C45.7445 40.9607 47.0495 40.9708 48.5 40.9804C48.2175 40.9804 48.013 40.8435 47.8475 40.5591Z" fill="url(#paint0_linear_363_7118)"/>
<path d="M59.808 13.08H68.7C76.404 12.936 82.092 17.508 82.092 26.04C82.092 34.572 76.404 39.144 68.7 39H59.808V13.08ZM68.7 17.724H65.352V34.356H68.7C73.92 34.356 76.548 31.584 76.548 26.04C76.548 20.496 73.92 17.724 68.7 17.724ZM94.4141 21.288C95.3141 21.288 96.1061 21.432 96.8621 21.72V26.868C96.0341 26.328 95.1341 26.076 94.1621 26.076C92.0021 26.076 90.5981 27.912 90.5981 30.468V39H85.2341V21.54H85.3061L88.8701 24.888C90.4901 22.476 92.3261 21.288 94.4141 21.288ZM107.255 31.08L110.999 21.72H116.867L105.455 45.84H99.9112L104.735 36.084L97.4632 21.72H103.331L107.255 31.08ZM130.029 21.36V12.72H135.393V39.216H135.321L132.189 36.552C130.389 38.64 127.941 39.432 125.673 39.432C123.225 39.432 121.209 38.604 119.661 36.912C118.113 35.22 117.357 33.024 117.357 30.36C117.357 27.768 118.077 25.608 119.517 23.88C120.993 22.152 122.937 21.288 125.385 21.288C127.401 21.288 129.273 22.188 130.029 22.944H130.137L130.029 21.36ZM126.465 34.68C128.769 34.68 130.353 32.808 130.353 30.612V30.108C130.353 27.984 128.841 26.04 126.465 26.04C124.125 26.04 122.541 27.804 122.541 30.36C122.541 32.916 124.125 34.68 126.465 34.68ZM153.274 24.096L156.766 21.504H156.838V39.216H156.766L153.274 36.624C151.69 38.496 149.638 39.432 147.118 39.432C144.67 39.432 142.654 38.604 141.106 36.912C139.558 35.22 138.802 33.024 138.802 30.36C138.802 27.696 139.558 25.536 141.106 23.844C142.654 22.152 144.67 21.288 147.118 21.288C149.638 21.288 151.69 22.224 153.274 24.096ZM151.798 30.612V30.108C151.798 27.912 150.214 26.04 147.91 26.04C145.57 26.04 143.986 27.804 143.986 30.36C143.986 32.916 145.57 34.68 147.91 34.68C150.214 34.68 151.798 32.808 151.798 30.612ZM165.719 39.432C163.991 39.432 161.723 38.964 160.283 38.352L161.003 33.42C162.695 34.608 164.711 35.22 166.187 35.22C167.483 35.22 168.383 34.716 168.383 33.96C168.383 33.492 168.167 33.168 167.483 32.88C166.799 32.556 166.655 32.484 165.611 32.16C164.459 31.764 163.883 31.584 162.839 31.008C161.507 30.252 160.499 29.1 160.499 27.084C160.499 23.448 163.307 21.288 167.663 21.288C169.895 21.288 171.695 21.612 173.063 22.224L172.415 26.616C170.939 25.788 169.535 25.356 168.203 25.356C166.943 25.356 166.259 25.86 166.259 26.616C166.259 27.372 166.979 27.624 168.887 28.2C170.075 28.524 170.687 28.704 171.731 29.28C173.207 30 173.999 31.08 174.107 33.132C174.107 37.344 171.011 39.432 165.719 39.432ZM182.79 39H177.426V12.72H182.79V21.36L182.754 23.232H182.826C184.194 21.936 185.886 21.288 187.866 21.288C192.438 21.288 194.706 23.916 194.706 29.208V39H189.342V29.496C189.342 27.084 188.406 25.896 186.57 25.896C184.302 25.896 182.79 27.912 182.79 30.468V39Z" fill="#03D391"/>
<defs>
<linearGradient id="paint0_linear_363_7118" x1="28.2934" y1="5.13043" x2="17.4672" y2="56.0362" gradientUnits="userSpaceOnUse">
<stop stop-color="#4FFDC6"/>
<stop offset="0.162769" stop-color="#03E39C"/>
<stop offset="1" stop-color="#017E57"/>
</linearGradient>
</defs>
</svg>
