<svg width="719" height="485" viewBox="0 0 719 485" fill="none" xmlns="http://www.w3.org/2000/svg">
<path d="M333.014 6.00537H108.41V414.105H333.014V6.00537Z" fill="#05869B"/>
<path d="M321.871 18.3247H119.555V390.828H321.871V18.3247Z" fill="#13B7B7"/>
<path d="M226.099 51.2603H261.325C272.283 51.2603 281.197 60.1751 281.197 71.1329V100.663H226.037V51.2603H226.099Z" fill="white"/>
<path d="M180.04 51.2603H215.266V100.663H160.105V71.1329C160.105 60.1751 169.02 51.2603 179.978 51.2603H180.04Z" fill="white"/>
<path d="M226.1 113.292H281.26V142.823C281.26 153.781 272.345 162.695 261.387 162.695H226.162V113.292H226.1Z" fill="white"/>
<path d="M160.168 113.292H215.328V162.695H180.102C169.145 162.695 160.23 153.781 160.23 142.823V113.292H160.168Z" fill="white"/>
<path d="M314.188 229.871C316.846 225.809 315.708 220.36 311.645 217.702C307.583 215.043 302.134 216.182 299.476 220.244C296.817 224.307 297.956 229.755 302.018 232.414C306.081 235.072 311.529 233.934 314.188 229.871Z" fill="#482F96"/>
<path d="M254.884 262.678H186.537V272.583H254.884V262.678Z" fill="#3A2C25"/>
<path d="M306.95 225.347L298.159 234.2H281.258" stroke="#482F96" stroke-width="10" stroke-linecap="round" stroke-linejoin="round"/>
<path d="M479.243 135.27L410.958 123.383C409.411 123.136 407.863 122.95 406.439 122.826C392.51 121.65 381.057 129.017 378.457 140.656C375.052 156.257 368.799 193.835 368.799 260.386C368.799 326.938 375.794 372.503 379.014 387.918C380.809 396.523 387.619 403.147 397.215 405.19C400.929 405.995 405.325 406.181 410.401 405.252C430.026 401.847 475.715 393.923 475.715 393.923L479.12 135.27H479.243Z" fill="#13B7B7"/>
<path d="M479.178 59.2466H590.861C621.32 59.2466 646.021 83.948 646.021 114.407V438.993C646.021 445.431 640.759 450.693 634.32 450.693H435.718C429.28 450.693 424.018 445.431 424.018 438.993V114.407C424.018 83.948 448.719 59.2466 479.178 59.2466Z" fill="#7E58F4"/>
<path d="M448.6 450.693H485.559V472.733C485.559 478.8 480.606 483.752 474.539 483.752H459.681C453.614 483.752 448.662 478.8 448.662 472.733V450.693H448.6Z" fill="#3A2C25"/>
<path d="M584.797 450.693H621.756V472.733C621.756 478.8 616.804 483.752 610.737 483.752H595.878C589.811 483.752 584.859 478.8 584.859 472.733V450.693H584.797Z" fill="#3A2C25"/>
<path d="M650.048 431.563H419.997C417.432 431.563 415.354 433.642 415.354 436.207V446.05C415.354 448.614 417.432 450.693 419.997 450.693H650.048C652.613 450.693 654.691 448.614 654.691 446.05V436.207C654.691 433.642 652.613 431.563 650.048 431.563Z" fill="#9880FF"/>
<path d="M507.103 417.572H563.006C566.659 417.572 569.568 420.544 569.568 424.135V431.502H500.479V424.135C500.479 420.482 503.45 417.572 507.041 417.572H507.103Z" fill="white"/>
<path d="M485.926 135.579L439.433 129.76L417.58 123.755C416.032 123.507 414.484 123.321 413.06 123.198C399.131 122.021 387.678 129.388 385.078 141.027C381.673 156.628 375.42 194.207 375.42 260.758C375.42 327.31 382.416 372.874 385.635 388.289C387.43 396.895 394.24 403.519 403.836 405.562C407.55 406.367 411.946 406.552 417.022 405.624C436.647 402.219 482.336 394.294 482.336 394.294L485.741 135.641L485.926 135.579Z" fill="#9880FF"/>
<path d="M536.013 109.083V408.781H467.047C462.404 408.781 458.442 407.791 455.161 406.305C452.004 404.881 449.218 402.9 446.927 400.485C442.965 396.399 440.303 391.137 439.312 385.442C436.588 369.222 430.707 326.319 430.707 254.939C430.707 183.558 436.526 146.104 439.436 129.76C441.541 114.84 450.951 110.63 463.395 109.268C464.695 109.144 466.057 109.083 467.543 109.083H536.075H536.013Z" fill="#482F96"/>
<path d="M594.762 139.479L661.189 123.383C662.737 123.136 664.285 122.95 665.709 122.826C679.638 121.65 691.091 129.017 693.691 140.656C697.096 156.257 703.349 193.835 703.349 260.386C703.349 326.938 696.353 372.503 693.134 387.918C691.339 396.523 684.529 403.147 674.933 405.19C671.219 405.995 666.823 406.181 661.747 405.252C642.122 401.847 596.433 393.923 596.433 393.923L594.886 139.479H594.762Z" fill="#E8E1FF"/>
<path d="M586.158 135.579L632.651 129.76L654.505 123.755C656.053 123.507 657.6 123.321 659.024 123.198C672.954 122.021 684.407 129.388 687.007 141.027C690.412 156.628 696.665 194.207 696.665 260.758C696.665 327.31 689.669 372.874 686.45 388.289C684.654 396.895 677.845 403.519 668.249 405.562C664.534 406.367 660.139 406.552 655.062 405.624C635.437 402.219 589.749 394.294 589.749 394.294L586.344 135.641L586.158 135.579Z" fill="#9880FF"/>
<path d="M586.158 135.579L632.651 129.76L654.505 123.755C656.053 123.507 657.6 123.321 659.024 123.198C672.954 122.021 684.407 129.388 687.007 141.027C690.412 156.628 696.665 194.207 696.665 260.758C696.665 327.31 589.687 394.294 589.687 394.294L586.282 135.641L586.158 135.579Z" fill="#CABDFF"/>
<path d="M641.378 254.939C641.378 326.319 635.497 369.222 632.773 385.442C631.783 391.199 629.121 396.461 625.158 400.485C622.806 402.9 620.02 404.881 616.925 406.305C613.582 407.791 609.619 408.781 605.038 408.781H536.072V109.083H604.605C606.029 109.083 607.453 109.144 608.753 109.268C621.196 110.568 630.606 114.84 632.711 129.76C635.621 146.166 641.44 187.644 641.44 254.939H641.378Z" fill="#482F96"/>
<path d="M440.674 104.935C440.674 104.935 445.441 90.8198 461.289 90.8198H615.194" stroke="#482F96" stroke-width="2" stroke-miterlimit="10"/>
<path d="M463.146 81.0381H608.941" stroke="#482F96" stroke-width="2" stroke-miterlimit="10"/>
<path d="M625.163 400.486C622.81 402.9 620.024 404.881 616.929 406.305C613.586 407.791 609.624 408.782 605.042 408.782H467.11C462.467 408.782 458.505 407.791 455.224 406.305C452.067 404.881 449.281 402.9 446.99 400.486H625.286H625.163Z" fill="#3A2C25"/>
<path d="M434.109 171.548H637.912C637.54 167.709 637.231 164.057 636.859 160.652H435.162C434.79 164.057 434.419 167.709 434.109 171.548Z" fill="#3A2C25"/>
<path d="M604.173 125.055H518.244V160.652H604.173V125.055Z" fill="#482F96"/>
<path d="M617.791 137.375H575.26V160.653H617.791V137.375Z" fill="#FFCF64"/>
<path d="M529.264 119.36H487.971V160.653H529.264V119.36Z" fill="#7E58F4"/>
<path d="M504.624 135.146H474.475V160.653H504.624V135.146Z" fill="#FFCF64"/>
<path d="M575.138 208.879H522.516V300.999H575.138V208.879Z" fill="#9880FF"/>
<path d="M502.704 196.808H433.924V265.588H502.704V196.808Z" fill="#FFBB33"/>
<path d="M476.021 196.808H460.668V231.229H476.021V196.808Z" fill="#FFCF64"/>
<path d="M541.028 220.022H493.049V265.587H541.028V220.022Z" fill="#FF8A3B"/>
<path d="M549.695 265.649H430.707C431.264 330.653 436.65 370.088 439.25 385.442C440.241 391.199 442.903 396.461 446.865 400.485H549.695V265.649Z" fill="#7E58F4"/>
<path d="M611.169 332.262H538.488V400.485H611.169V332.262Z" fill="#F2721C"/>
<path d="M600.767 286.512H543.439V332.262H600.767V286.512Z" fill="#FFCF64"/>
<path d="M568.082 286.512H560.096V309.418H568.082V286.512Z" fill="#C63228"/>
<path d="M513.417 336.287H456.275V400.486H513.417V336.287Z" fill="#FFCF64"/>
<path d="M474.043 336.287V361.669L479.367 356.345L484.877 361.669V336.287H474.043Z" fill="#FF8A3B"/>
<path d="M513.417 336.287H500.479V400.486H513.417V336.287Z" fill="#FFBB33"/>
<path d="M541.025 220.022H530.129V265.587H541.025V220.022Z" fill="#F2721C"/>
<path d="M600.766 286.512H587.766V332.262H600.766V286.512Z" fill="#FFBB33"/>
<path d="M617.73 137.375H604.172V160.653H617.73V137.375Z" fill="#FFBB33"/>
<path d="M367.373 414.105H41.1777V430.573H367.373V414.105Z" fill="#6339C9"/>
<path d="M55.6651 299.017C36.5974 294.189 25.7015 309.047 22.2965 324.957C19.3249 339.01 7.74805 351.02 7.74805 351.02C7.74805 351.02 30.5922 356.654 48.6076 337.648C66.6229 318.642 55.6032 299.017 55.6032 299.017H55.6651Z" fill="#3A2C25"/>
<path d="M55.6651 299.017C36.5974 294.189 29.2303 305.146 22.0489 319.757C20.8726 322.171 16.7248 331.705 16.1057 333.377C15.4866 335.048 19.5106 333.377 18.7677 334.986C14.2484 344.334 7.74805 351.082 7.74805 351.082C7.74805 351.082 12.1435 352.135 18.5201 351.763C26.7539 351.268 41.3643 338.639 43.8406 333.377C48.2361 323.905 45.4503 319.014 46.1932 316.847C46.9361 314.618 50.4029 314.309 53.065 313.752C54.8603 313.38 55.6032 299.079 55.6032 299.079L55.6651 299.017Z" fill="#FFBB33"/>
<path d="M124.445 311.523C124.445 311.523 136.765 295.179 155.462 309.418C170.134 320.623 161.9 336.41 185.178 344.768C175.087 347.863 152.676 352.754 136.579 341.363C116.274 327.062 124.445 311.523 124.445 311.523Z" fill="#3A2C25"/>
<path d="M124.445 311.523C124.445 311.523 133.174 294.312 161.652 309.294C162.952 309.975 158.185 311.523 159.795 312.885C162.519 315.175 165.305 317.776 166.295 319.509C167.719 321.985 164.748 322.233 165.738 324.771C168.71 332.386 171.496 339.877 185.177 344.768C175.086 347.863 158.619 351.02 146.98 342.353C141.842 338.515 139.984 332.819 136.27 331.024C124.012 325.266 124.445 311.523 124.445 311.523Z" fill="#FFCF64"/>
<path d="M107.854 293.57C107.854 293.57 102.158 279.269 120.05 265.463C137.942 251.658 140.046 235.562 140.046 235.562C140.046 235.562 157.567 256.425 144.937 278.093C132.308 299.761 107.854 293.57 107.854 293.57Z" fill="#FFBB33"/>
<path d="M107.854 293.57C107.854 293.57 102.158 279.269 120.05 265.463C137.942 251.658 140.046 235.562 140.046 235.562C140.046 235.562 148.652 247.51 145.494 262.739C140.666 286.326 107.854 293.57 107.854 293.57Z" fill="#FFCF64"/>
<path d="M101.727 313.69C105.627 294.808 126.552 295.241 126.552 295.241C126.552 295.241 114.232 318.828 101.727 313.69Z" fill="#3A2C25"/>
<path d="M86.1842 298.894C73.8025 294.498 62.1638 286.14 58.8826 259.086C55.6015 232.032 50.2773 219.279 50.2773 219.279C50.2773 219.279 76.217 220.703 87.2367 251.905C97.0182 279.764 86.2461 298.832 86.2461 298.832L86.1842 298.894Z" fill="#FFBB33"/>
<path d="M86.1231 298.708C73.7414 294.312 70.7698 287.441 67.4267 260.387C64.1456 233.333 50.1543 219.094 50.1543 219.094C50.1543 219.094 65.1361 219.899 77.1464 234.014C80.9228 238.471 80.9847 230.299 84.0801 237.357C87.8565 245.9 90.6424 254.815 91.7567 266.082C94.0473 289.669 86.0612 298.708 86.0612 298.708H86.1231Z" fill="#FFCF64"/>
<path d="M97.4531 351.887C102.901 326.009 116.026 302.917 139.365 314.123C150.818 319.632 151.004 330.962 169.576 341.362" stroke="#3A2C25" stroke-width="2" stroke-miterlimit="10"/>
<path d="M136.024 262.739C126.923 280.568 113.737 283.973 102.779 298.398C87.4255 318.58 91.9448 345.944 91.9448 345.944" stroke="#3A2C25" stroke-width="2" stroke-miterlimit="10"/>
<path d="M111.94 304.466C111.94 304.466 98.0104 307.623 96.0293 336.72" stroke="#3A2C25" stroke-width="2" stroke-miterlimit="10"/>
<path d="M77.9512 259.024C80.8609 265.339 86.3088 279.392 85.9993 288.555C84.3277 334.615 97.5142 347.368 97.5142 347.368" stroke="#3A2C25" stroke-width="2" stroke-miterlimit="10"/>
<path d="M29.1074 337.524C40.3128 317.652 38.6413 303.351 52.4469 299.698C73.1243 294.188 71.6385 325.081 89.5919 347.368" stroke="#3A2C25" stroke-width="2" stroke-miterlimit="10"/>
<path d="M126.366 409.029C126.118 409.338 125.809 409.648 125.561 409.957L120.918 414.477H77.6438L72.7531 409.4C70.091 406.676 68.9767 402.776 69.7196 398.999L79.1296 364.826C80.1202 361.173 79.1296 357.273 76.4057 354.611L71.5768 349.782H127.109L122.218 354.673C119.556 357.335 118.503 361.235 119.494 364.826L128.904 399.371C129.585 402.838 128.656 406.428 126.428 409.091L126.366 409.029Z" fill="#FF8A3B"/>
<path d="M126.365 409.029C126.118 409.338 125.808 409.648 125.498 409.957L120.855 414.477H77.5813L72.6906 409.4C70.0285 406.676 68.9142 402.776 69.6571 398.999L79.0671 364.826C80.0577 361.173 79.0671 357.273 76.3432 354.611L71.5143 349.782H80.8625C84.8865 352.878 92.5632 357.83 99.7445 357.83H113.364C114.912 357.83 109.65 363.093 108.783 363.278C108.412 363.34 94.5442 364.64 94.1728 365.321C94.1728 368.107 93.1822 385.999 95.2252 393.428C99.3112 408.038 126.427 409.091 126.427 409.091L126.365 409.029Z" fill="#F2721C"/>
<path d="M125.684 350.587H72.8766C69.3478 350.587 66.5 347.739 66.5 344.21C66.5 340.682 132.061 344.21 132.061 344.21C132.061 347.739 129.213 350.587 125.684 350.587Z" fill="#F2721C"/>
<path d="M78.3236 395.471C77.7664 400.114 77.5807 404.881 79.6236 408.286L83.4 414.538" stroke="white" stroke-width="2" stroke-miterlimit="10"/>
<path d="M88.2923 395.471C87.9828 400.114 88.478 404.881 89.5305 408.286L91.5115 414.538" stroke="white" stroke-width="2" stroke-miterlimit="10"/>
<path d="M120.299 395.471C120.856 400.114 120.98 404.881 118.937 408.286L115.16 414.538" stroke="white" stroke-width="2" stroke-miterlimit="10"/>
<path d="M110.268 395.471C110.578 400.114 110.082 404.881 109.03 408.286L107.049 414.538" stroke="white" stroke-width="2" stroke-miterlimit="10"/>
<path d="M99.248 395.471V414.538" stroke="white" stroke-width="2" stroke-miterlimit="10"/>
<path d="M367.311 430.511L41.1777 414.105H367.311V430.511Z" fill="#7E58F4"/>
<path d="M378.58 440.726H29.8496V457.193H378.58V440.726Z" fill="#6339C9"/>
<path d="M378.58 457.193L29.8496 440.726H378.58V457.193Z" fill="#7E58F4"/>
<path d="M350.103 467.346H17.9023V483.814H350.103V467.346Z" fill="#6339C9"/>
<path d="M350.103 483.814L17.9023 467.346H350.103V483.814Z" fill="#7E58F4"/>
<path d="M52.6942 20.6774C58.4041 20.6774 63.0329 16.0486 63.0329 10.3387C63.0329 4.6288 58.4041 0 52.6942 0C46.9843 0 42.3555 4.6288 42.3555 10.3387C42.3555 16.0486 46.9843 20.6774 52.6942 20.6774Z" fill="#CABDFF"/>
<path d="M46.3789 36.8975H59.0701V37.0213C59.0701 39.6833 56.9033 41.8501 54.2413 41.8501H51.2078C48.5457 41.8501 46.3789 39.6833 46.3789 37.0213V36.8975Z" fill="#3A2C25"/>
<path d="M25.4545 10.958C25.4545 26.0017 37.6504 38.1977 52.6942 38.1977C67.7379 38.1977 79.9339 26.0017 79.9339 10.958H25.3926H25.4545Z" fill="#F2721C"/>
<path d="M46.3805 25.816C39.5706 25.816 33.194 24.3921 27.7461 21.8539C31.9559 31.4497 41.5517 38.1977 52.7571 38.1977C63.9625 38.1977 79.9968 26.0017 79.9968 10.958H78.3872C72.444 19.8109 60.3718 25.816 46.4424 25.816H46.3805Z" fill="#FF8A3B"/>
<path d="M51.456 31.3257C44.5842 26.2492 35.4217 23.8348 36.5361 26.3731C37.7124 29.1589 40.4982 30.8305 43.0984 32.0067C46.2557 33.4306 49.5369 34.2354 53.0037 34.4831C55.4801 34.6688 53.3133 32.6877 51.456 31.3257Z" fill="#F2721C"/>
<path d="M55.7894 31.2016C54.2417 28.1681 51.332 25.7536 51.332 26.868C51.332 28.0442 51.9511 29.1586 52.694 30.0253C53.5607 31.0778 54.6132 31.9445 55.7894 32.6255C56.6562 33.1207 56.2228 32.0683 55.7894 31.2016Z" fill="#F2721C"/>
<path d="M80.9237 61.5373C83.0777 61.5373 84.8239 59.7911 84.8239 57.637C84.8239 55.483 83.0777 53.7368 80.9237 53.7368C78.7696 53.7368 77.0234 55.483 77.0234 57.637C77.0234 59.7911 78.7696 61.5373 80.9237 61.5373Z" fill="#3A2C25"/>
<path d="M52.0137 39.374V41.3551C52.0137 47.1126 54.9234 52.4367 59.7522 55.4702C62.4143 57.2036 65.5716 58.0704 68.7289 58.0704H80.3677" stroke="#3A2C25" stroke-width="3" stroke-miterlimit="10"/>
<path d="M377.837 20.6774C383.547 20.6774 388.175 16.0486 388.175 10.3387C388.175 4.6288 383.547 0 377.837 0C372.127 0 367.498 4.6288 367.498 10.3387C367.498 16.0486 372.127 20.6774 377.837 20.6774Z" fill="#CABDFF"/>
<path d="M405.14 10.958C405.14 26.0017 392.944 38.1977 377.9 38.1977C362.856 38.1977 350.66 26.0017 350.66 10.958H405.201H405.14Z" fill="#F2721C"/>
<path d="M379.384 41.7881H376.351C373.688 41.7881 371.522 39.6213 371.522 36.9592V36.8354H384.213V36.9592C384.213 39.6213 382.046 41.7881 379.384 41.7881Z" fill="#3A2C25"/>
<path d="M350.595 10.958C350.595 26.0017 362.791 38.1977 377.835 38.1977C392.879 38.1977 405.074 26.0017 405.074 10.958H350.533H350.595Z" fill="#F2721C"/>
<path d="M384.214 25.816C391.024 25.816 397.4 24.3921 402.848 21.8539C398.639 31.4497 389.043 38.1977 377.837 38.1977C366.632 38.1977 350.598 26.0017 350.598 10.958H352.207C358.151 19.8109 370.223 25.816 384.152 25.816H384.214Z" fill="#FF8A3B"/>
<path d="M379.136 31.3257C386.007 26.2492 395.17 23.8348 394.055 26.3731C392.879 29.1589 390.093 30.8305 387.493 32.0067C384.336 33.4306 381.055 34.2354 377.588 34.4831C375.112 34.6688 377.278 32.6877 379.136 31.3257Z" fill="#F2721C"/>
<path d="M374.743 31.2016C376.29 28.1681 379.2 25.7536 379.2 26.868C379.2 28.0442 378.581 29.1586 377.838 30.0253C376.971 31.0778 375.919 31.9445 374.743 32.6255C373.876 33.1207 374.309 32.0683 374.743 31.2016Z" fill="#F2721C"/>
<path d="M349.666 61.5373C351.82 61.5373 353.566 59.7911 353.566 57.637C353.566 55.483 351.82 53.7368 349.666 53.7368C347.512 53.7368 345.766 55.483 345.766 57.637C345.766 59.7911 347.512 61.5373 349.666 61.5373Z" fill="#3A2C25"/>
<path d="M378.579 39.374V41.3551C378.579 47.1126 375.669 52.4367 370.84 55.4702C368.178 57.2036 365.021 58.0704 361.863 58.0704H350.225" stroke="#3A2C25" stroke-width="3" stroke-miterlimit="10"/>
<path d="M413.123 109.516L407.365 112.735L399.193 127.346L409.037 121.155L418.323 118.926L417.704 112.735L413.123 109.516Z" fill="#FF8A3B"/>
<path d="M479.119 412.186C479.119 412.186 488.034 420.42 488.158 422.587C488.281 424.754 486.053 432.678 485.062 433.235C484.072 433.792 480.543 437.755 480.11 439.117C479.676 440.479 482.957 447.35 482.214 450.693C481.533 453.603 475.281 466.604 473.609 470.133C473.3 470.752 472.866 471.247 472.309 471.619C466.056 475.704 460.546 474.033 460.051 472.423C458.627 467.78 479.181 412.125 479.181 412.125L479.119 412.186Z" fill="#CBCFD1"/>
<path d="M460.05 439.178L458.874 444.131L458.564 450.755L458.998 459.608C458.998 459.608 459.307 471.494 460.05 472.547C460.793 473.599 469.275 470.999 471.07 469.947C472.865 468.894 477.137 453.231 478.066 450.817C478.994 448.402 477.756 443.574 478.189 441.716C478.623 439.859 482.709 425.806 483.452 423.206C484.195 420.667 480.604 409.895 472.741 408.286C464.879 406.614 460.05 439.24 460.05 439.24V439.178Z" fill="white"/>
<path d="M376.474 450.817L374.617 441.902H358.273L355.611 459.546L375.298 456.265L376.474 450.817Z" fill="#F1F2F6"/>
<path d="M377.403 449.765C377.403 449.765 381.737 455.46 383.656 459.856C385.328 463.632 385.637 465.551 385.637 465.551L381.799 471.866L347.935 483.009L326.205 479.604C326.205 479.604 325.896 477.004 328.434 474.837C330.044 473.414 341.497 471.247 343.292 469.142C345.087 467.037 352.021 458.803 352.021 458.803L373.689 453.851L377.465 449.703L377.403 449.765Z" fill="white"/>
<path d="M355.674 454.408C357.779 456.265 358.026 459.484 356.107 461.527C353.259 464.684 349.607 468.647 348.864 469.142C347.564 469.947 342.982 469.513 342.982 469.513L354.188 453.169L355.674 454.47V454.408Z" fill="#F1F2F6"/>
<path d="M385.699 465.613C383.966 467.409 376.475 471.928 370.655 471.928C357.469 472.052 354.559 479.728 346.449 479.728C338.339 479.728 329.858 479.728 326.205 479.728C322.553 479.728 324.719 484 325.896 484C326.762 484 355.426 484 355.426 484C355.426 484 360.688 481.709 361.741 481.09C367.25 477.933 368.612 482.267 374.432 481.524C380.251 480.781 389.29 475.766 390.095 474.404C391.519 472.052 386.752 466.542 385.699 465.613Z" fill="#CBCFD1"/>
<path d="M390.898 258.963L354.806 226.523C354.806 226.523 346.696 257.168 347.624 268.93C348.181 276.05 346.138 316.662 345.767 358.697C345.767 360.926 347.934 365.507 347.934 367.736C346.819 381.294 340.691 454.655 340.814 455.213C340.938 455.832 347.129 459.299 352.02 458.927C356.911 458.556 369.045 455.027 372.264 454.779C375.545 454.532 382.169 458.865 382.603 457.751C383.036 456.636 383.965 445.617 383.965 445.617L381.179 438.993C384.212 432.492 388.484 421.287 389.908 407.976C392.198 386.68 389.908 338.701 389.908 338.701L390.898 258.963Z" fill="#C63228"/>
<path d="M463.579 418.562C468.717 419.12 472.37 423.763 471.75 428.901C471.317 432.182 468.531 435.959 468.098 439.178C467.479 443.512 469.15 447.102 468.779 447.969C468.098 449.517 465.498 450.631 463.455 451.312C462.093 451.745 460.607 451.003 460.174 449.641L451.568 423.329L463.579 418.562Z" fill="#F1F2F6"/>
<path d="M441.417 124.436C441.232 125.179 440.303 126.045 439.87 126.603C438.693 128.15 437.331 129.574 435.907 130.936C432.998 133.536 429.593 135.827 425.631 136.26C420.059 136.879 411.515 132.855 410.773 126.974C410.587 125.55 410.958 124.002 411.825 122.393L412.011 122.207L403.901 124.312L401.486 138.056L427.921 148.766L437.207 141.213L441.479 124.436H441.417Z" fill="#F1F2F6"/>
<path d="M474.535 412.434C473.607 393.985 462.216 379.065 450.453 365.755C444.51 359.007 438.257 352.507 432.685 345.387C431.509 343.839 419.251 329.91 419.189 330.282C419.189 330.282 434.604 265.34 434.604 257.23C434.604 249.12 434.604 256.858 434.604 256.672C429.466 257.353 424.266 257.353 419.065 256.672C405.693 255.125 394.178 248.624 382.168 242.619C376.534 239.771 369.724 238.224 364.276 235.005C361.057 233.147 357.838 231.104 354.99 228.628C355.362 232.033 356.166 238.781 357.219 245.343C358.705 254.691 379.877 271.902 379.877 271.902C373.253 307.809 384.706 351.33 386.811 356.159C388.545 360.121 416.775 393.057 432.995 407.915C440.3 415.406 446.8 426.363 447.296 426.735C448.41 427.663 448.348 431.564 448.781 433.173C449.215 434.783 461.349 442.707 461.411 442.707C462.216 443.264 466.797 438.126 467.168 437.631C471.564 432.43 473.792 425.868 474.35 419.12C474.535 416.768 474.597 414.539 474.473 412.31L474.535 412.434Z" fill="#C63228"/>
<path d="M474.538 412.434C473.609 393.985 462.218 379.065 450.455 365.755C444.512 359.007 438.26 352.507 432.688 345.387C431.512 343.839 419.254 329.91 419.192 330.281C419.192 330.281 434.607 265.34 434.607 257.23C434.607 249.12 434.607 256.425 434.607 255.991C432.44 256.177 430.211 256.239 428.045 256.115C424.702 255.991 421.42 255.558 418.201 254.815C414.858 254.072 411.763 252.958 408.667 251.534C405.634 250.11 402.662 248.562 399.381 247.634C398.514 247.386 397.586 247.2 396.719 247.015C392.695 249.367 383.718 253.205 375.484 253.02C374.37 253.02 373.565 255.868 375.361 257.106C378.394 259.211 381.551 259.706 382.047 259.706C382.913 279.826 381.551 337.71 385.204 345.078C396.905 368.603 452.932 391.571 451.879 408.472C451.632 412.062 450.146 418.006 451.879 420.668C454.603 418.253 455.965 416.025 457.575 412.805C459.556 408.843 461.413 404.448 465.066 401.662C465.685 401.228 466.552 401.414 466.799 402.095C472.433 415.22 460.67 425.497 447.732 427.354C448.474 428.778 448.474 431.873 448.846 433.235C449.279 434.845 461.413 442.769 461.475 442.769C462.28 443.326 466.861 438.188 467.233 437.692C471.628 432.492 473.857 425.93 474.414 419.182C474.6 416.829 474.662 414.601 474.538 412.372V412.434Z" fill="#AA291B"/>
<path d="M421.977 170.186C421.977 170.186 414.61 176.934 407.366 189.811C407.366 189.811 382.355 189.501 370.779 189.253C359.202 189.006 346.882 188.263 346.882 188.263C346.882 188.263 343.601 194.577 348.492 198.787C353.382 202.997 396.718 212.964 404.085 213.645C411.452 214.326 416.405 215.379 418.819 213.831C421.172 212.283 433.43 197.673 438.135 191.049L421.977 170.186Z" fill="#F2A084"/>
<path d="M390.588 361.545C390.588 361.545 383.53 352.94 378.825 345.696L373.13 271.221C373.006 269.735 372.201 268.373 370.901 267.568L368.053 265.525C365.205 263.482 361.429 261.996 361.305 263.73C360.562 269.797 364.029 273.573 368.177 277.535C368.796 278.092 361.429 279.454 359.757 277.226C358.829 284.469 352.328 351.578 352.328 351.578C352.452 352.63 345.952 348.235 345.766 350.711C345.58 352.878 345.333 357.087 345.952 359.935C346.571 362.845 346.137 365.259 347.871 366.683C376.535 391.199 365.886 440.169 365.886 440.169L374.553 438.497C374.553 438.497 386.873 423.515 390.278 403.643C393.683 383.77 390.588 361.483 390.588 361.483V361.545Z" fill="#AA291B"/>
<path d="M372.267 454.717C375.548 454.469 382.172 458.803 382.606 457.689C383.039 456.574 383.968 445.555 383.968 445.555L381.182 438.93C384.215 432.43 388.487 421.225 389.911 407.914C390.035 406.614 390.158 405.19 390.282 403.643C390.282 403.643 383.225 431.873 365.828 437.63C348.432 443.45 344.78 444.378 345.894 444.626C347.008 444.874 370.967 438.559 372.267 441.84C373.443 444.812 366.014 449.455 362.981 456.636C366.943 455.708 370.657 454.779 372.267 454.655V454.717Z" fill="#AA291B"/>
<path d="M365.824 142.389L369.291 142.699L369.477 144.37L367.372 145.485L365.824 142.389Z" fill="#C8CBCC"/>
<path d="M416.032 119.916C416.032 119.916 411.946 124.188 410.77 126.974C410.77 126.974 410.584 125.488 410.894 124.374C412.07 120.226 416.28 118.926 416.28 118.926L416.032 119.978V119.916Z" fill="#4C4C4C"/>
<path d="M445.317 123.692C445.317 123.692 459.741 136.693 463.456 145.979C468.037 157.494 457.698 175.138 455.903 180.4C454.108 185.601 445.688 222.189 439.931 229.68C439.931 229.68 441.54 239.028 439.497 247.138C437.454 255.248 434.607 257.91 434.607 257.91C434.607 257.91 400.681 251.224 381.799 244.785C361.678 237.913 353.63 231.165 353.63 231.165C353.63 231.165 352.083 229.556 352.454 226.77C354.311 213.336 361.74 173.033 364.836 163.438L361.802 143.936C361.802 143.936 394.118 117.13 399.876 116.449C405.633 115.768 425.506 120.845 425.506 120.845L439.807 117.749L445.379 123.754L445.317 123.692Z" fill="#FF8A3B"/>
<path d="M423.027 138.489L408.355 153.223L393.992 185.787L386.254 186.777L401.545 149.385C401.545 149.385 419.746 128.522 420.985 128.893C422.223 129.265 423.089 138.551 423.089 138.551L423.027 138.489Z" fill="#F26200"/>
<path d="M380.745 122.95H293.764V190.368H380.745V122.95Z" fill="#FFCF64"/>
<path d="M364.279 140.408C355.921 145.609 347.502 150.623 338.958 155.452C330.477 160.281 321.871 164.862 313.08 169.196C306.704 172.353 300.204 175.325 293.703 178.111V190.369H380.684V130.008C375.236 133.537 369.789 137.003 364.279 140.408Z" fill="#FFBB33"/>
<path d="M352.7 200.893L344.281 202.255L331.837 202.503C329.547 202.503 327.318 201.574 325.708 200.026C324.903 199.283 324.284 198.355 323.542 197.55C323.17 197.178 322.675 196.188 322.18 196.002L317.227 193.712L314.193 190.43H334.561C334.561 190.43 336.666 190.307 336.852 189.502C336.976 188.821 332.828 186.53 332.828 186.53C332.828 186.53 328.866 185.354 328.37 184.611C327.813 183.868 326.142 182.382 327.256 181.392C328.37 180.401 336.48 182.692 337.533 183.001C338.585 183.311 345.581 184.24 346.324 185.106C347.129 185.911 353.877 190.492 353.877 190.492L352.638 201.017L352.7 200.893Z" fill="#B55930"/>
<path d="M409.534 126.479L401.486 149.323L416.654 132.174C416.654 132.174 408.977 130.317 409.534 126.479Z" fill="white"/>
<path d="M411.083 76.2091C411.083 76.2091 410.031 80.2332 410.464 81.8428C410.897 83.4524 412.878 85.9287 412.878 85.9287L415.045 77.1997L412.197 74.5376L411.083 76.2091Z" fill="#3A2C25"/>
<path d="M410.832 77.1381C410.832 77.1381 419.19 79.1811 418.385 74.4142C417.58 69.6472 412.813 62.2801 415.228 61.4753C416.032 61.2277 416.528 60.2372 417.085 59.6181C419.004 57.3275 420.552 55.0988 423.276 53.6749C425.009 52.8081 427.052 52.3129 428.971 52.6224C431.819 53.0558 434.172 54.7892 436.462 56.3369C438.938 58.0085 441.848 59.0609 444.82 59.2466C447.358 59.4323 450.082 58.999 452.496 60.1752C459.616 63.5802 454.911 86.3006 457.016 92.3057C461.535 105.183 449.834 106.297 447.729 107.907C444.572 110.383 440.115 114.531 440.115 114.531L410.832 77.1381Z" fill="#3A2C25"/>
<path d="M445.501 80.4805C443.581 74.5373 439.248 69.275 433.305 67.0463C429.466 65.6224 424.885 65.1272 420.923 66.4892C420.675 66.5511 420.366 66.9844 420.18 67.1702C419.685 67.7273 419.189 68.3464 418.756 68.9655C417.27 70.9466 415.908 72.9895 414.608 75.0944C413.37 77.1374 412.937 79.3042 412.38 81.5948C411.884 83.4521 411.079 84.9998 409.656 86.2379C408.603 87.1047 407.303 88.0952 405.941 88.3428C405.446 88.4047 404.889 88.4666 404.393 88.4047C402.536 88.9619 406.436 92.986 407.675 94.2241C407.675 101.158 409.717 116.387 419.809 114.468C428.661 112.797 435.409 113.478 443.953 98.6815C447.11 93.1717 447.482 86.4237 445.562 80.4186L445.501 80.4805Z" fill="#B55930"/>
<path d="M412.691 131.37C413.682 131.865 414.858 132.051 415.91 132.175C417.334 132.36 418.882 130.875 420.244 130.627C421.668 130.379 422.968 129.822 424.33 129.265C425.692 128.708 427.116 128.151 428.478 127.593C431.264 126.417 433.802 125.055 436.092 123.074C437.145 122.145 438.197 121.155 439.126 120.102L439.374 111.126C439.683 106.73 441.974 98.6821 441.974 98.6821L419.996 102.335L415.972 119.917L413.929 121.093C411.762 122.331 409.162 125.117 409.534 127.531C409.719 128.646 411.391 130.689 412.629 131.37H412.691Z" fill="#B55930"/>
<path d="M437.392 101.53C439.063 104.192 443.335 104.501 446.864 102.211C450.455 99.982 452.002 95.958 450.331 93.3578C448.659 90.7577 444.388 90.3862 440.859 92.6768C437.268 94.9055 435.72 98.9296 437.392 101.53Z" fill="#B55930"/>
<path d="M421.422 86.6714C420.802 87.6 419.812 88.0953 419.193 87.6619C418.574 87.2905 418.574 86.1761 419.193 85.1856C419.812 84.195 420.802 83.7617 421.422 84.195C422.041 84.5665 422.041 85.6808 421.422 86.6714Z" fill="#3A2C25"/>
<path d="M418.324 80.7906C420.553 80.2334 422.782 80.7905 424.02 82.2763C424.639 83.0193 424.886 83.8241 425.072 84.6908C425.196 85.186 425.258 85.8051 425.258 86.2385" stroke="#3A2C25" stroke-width="2" stroke-miterlimit="10" stroke-linecap="round"/>
<path d="M411.824 99.6724C411.824 99.6724 414.115 101.839 417.21 101.468C420.12 101.158 421.482 99.6724 421.482 99.6724" stroke="#3A2C25" stroke-width="2" stroke-miterlimit="10" stroke-linecap="round"/>
<path d="M445.626 72.1232L431.263 64.5703L419.501 62.8369L412.133 70.4516C412.133 70.4516 410.957 74.4757 415.538 77.4473C418.139 79.1188 422.039 78.1283 422.163 78.1902C421.544 77.633 420.986 76.8901 420.553 76.271C419.748 75.0329 419.067 73.5471 419.129 72.0613V71.9993C419.501 72.8661 419.748 73.7947 420.182 74.5995C420.553 75.2805 421.048 75.9615 421.605 76.4568C422.039 76.8901 423.277 77.8807 423.958 77.633C424.144 77.5711 423.525 75.8377 423.463 75.1567C422.967 71.7517 424.267 72.247 427.053 74.3519C428.477 75.4043 437.268 80.6665 435.535 86.3621C435.101 87.7241 439.187 86.9812 439.497 88.0336C441.23 95.0293 434.668 98.7438 438.073 97.939C441.973 97.0103 443.459 90.3861 443.459 90.3861C443.459 90.3861 443.088 96.2675 444.945 94.1626C446.74 92.0577 448.907 87.8479 448.907 87.8479L445.688 72.1851L445.626 72.1232Z" fill="#3A2C25"/>
<path d="M417.27 114.655C417.27 114.655 423.089 116.264 431.942 111.621C437.205 108.835 439.805 103.821 439.805 103.821C439.805 103.821 436.585 113.045 431.509 116.698C423.337 122.579 416.094 119.917 416.094 119.917L417.332 114.655H417.27Z" fill="#9B4321"/>
<path d="M443.023 99.9203C443.643 99.9203 444.324 99.8584 445.005 99.5488C446.862 98.8678 447.976 97.382 447.543 96.2677C447.233 95.5248 446.305 95.0914 445.19 95.0914C445.19 95.0914 443.457 94.9057 443.89 96.1439C444.2 97.0106 445.995 96.2677 446.057 95.1533" stroke="#3A2C25" stroke-width="2" stroke-miterlimit="10" stroke-linecap="round"/>
<path d="M442.036 111.435L446.432 123.26L434.298 134.341L426.992 142.451L425.259 148.766L421.421 131.493L416.592 132.236L420.863 128.893C420.863 128.893 438.136 120.659 439.25 118.493V115.707C440.117 113.54 441.974 111.497 441.974 111.497L442.036 111.435Z" fill="#F26200"/>
<path d="M388.235 211.294C388.235 211.294 383.964 216.803 384.335 222.251C384.707 227.699 389.102 234.385 387.554 236.49C386.069 238.595 383.407 239.524 383.035 240.638C382.664 241.753 383.035 245.157 383.035 245.157L378.578 243.61C378.578 243.61 379.259 239.586 379.692 238.905C380.125 238.224 375.916 235.252 376.225 228.318C376.535 221.385 374.925 215.256 378.578 209.622L388.297 211.294H388.235Z" fill="#F26200"/>
<path d="M456.335 172.539C454.293 177.306 431.201 211.046 424.391 212.841C417.581 214.637 406.499 211.727 405.137 213.522C403.775 215.318 412.257 216.246 425.258 215.813C438.196 215.38 412.876 230.299 416.281 238.224C419.686 246.148 439.93 229.618 439.93 229.618C445.687 222.128 454.107 185.602 455.902 180.339C457.326 176.253 463.888 164.677 464.569 154.338C463.95 155.7 458.255 168.082 456.335 172.539Z" fill="#F26200"/>
<path d="M410.708 124.002C410.708 124.002 410.213 120.969 409.037 121.093C407.861 121.216 399.193 127.283 399.193 127.283C399.193 127.283 405.632 125.612 406.065 126.479C406.499 127.345 401.174 149.323 401.174 149.323L410.708 124.002Z" fill="#F26200"/>
<path d="M412.132 68.1611C412.132 68.1611 390.836 72.4328 393.002 74.5377C401.546 82.8953 435.1 82.2143 435.1 82.2143C435.1 82.2143 437.391 69.3374 412.132 68.1611Z" fill="#C63228"/>
<path d="M411.514 71.2565C411.514 71.2565 414.423 47.9789 434.791 50.5172C455.159 53.0554 470.822 70.1422 456.954 92.3054L411.514 71.1946V71.2565Z" fill="#AA291B"/>
<path d="M457.943 90.5716L454.662 88.9C454.662 88.9 457.572 79.49 460.977 83.514C462.153 84.9379 457.881 90.5716 457.881 90.5716H457.943Z" fill="#3A2C25"/>
<path d="M461.039 83.5141C461.039 83.5141 461.906 87.4143 464.568 89.5811C465.621 90.4478 462.278 90.5097 460.544 89.5811C459.058 88.8382 459.182 87.1047 459.182 87.1047L461.039 83.4521V83.5141Z" fill="#3A2C25"/>
<path d="M459.309 89.2105C459.309 89.52 459.619 91.6868 458.814 92.3678C458.009 92.9869 457.514 89.8296 457.514 89.8296L459.68 87.4771L459.371 89.2105H459.309Z" fill="#3A2C25"/>
<path d="M444.635 116.202C443.644 114.902 443.582 113.355 443.644 112.178C443.768 108.773 444.635 107.659 446.925 105.183C446.121 105.492 443.954 107.597 443.211 108.092C442.406 108.588 441.663 109.083 440.858 109.578C440.858 109.578 440.239 110.259 439.558 111.002C439.558 111.002 439.558 111.002 439.558 111.064L439.311 114.407V117.007C439.372 117.007 439.496 117.007 439.558 117.007C440.487 116.759 440.115 114.407 440.115 114.407C440.115 114.407 441.663 118.555 445.13 117.255C445.625 117.069 444.759 116.202 444.635 116.078V116.202Z" fill="#3A2C25"/>
<path d="M412.135 68.1612C412.135 68.1612 407.988 74.1663 415.602 77.4474C423.217 80.7286 444.266 84.0097 446.495 84.505C448.785 84.9384 435.289 80.1095 432.751 73.2996C430.213 66.4897 440.861 65.561 447.671 62.3418C454.481 59.1226 447.671 54.4794 447.671 54.4794C447.671 54.4794 426.622 45.5027 412.135 68.2231V68.1612Z" fill="#C63228"/>
<path d="M412.135 68.1611C412.135 68.1611 414.611 73.9186 427.921 77.695" stroke="#AA291B" stroke-width="2" stroke-miterlimit="10"/>
<path d="M415.972 69.7712C417.581 71.257 420.862 70.3283 423.277 67.6663C425.691 65.0042 426.31 61.7231 424.701 60.2373C423.091 58.7515 419.81 59.6801 417.395 62.3422C414.981 65.0042 414.362 68.2854 415.972 69.7712Z" fill="white"/>
<path d="M405.199 116.636L399.812 126.046L400.246 116.388L401.794 116.264L405.199 116.636Z" fill="#F26200"/>
<path d="M395.668 124.622C395.668 124.622 394.739 130.503 393.563 132.236C392.325 133.97 380.748 147.652 380.748 147.652V135.27C380.748 135.27 383.596 135.394 386.629 132.979C389.663 130.565 395.668 124.683 395.668 124.683V124.622Z" fill="#F26200"/>
<path d="M373.008 165.047H352.764V181.02H373.008V165.047Z" fill="white"/>
<path d="M420.987 154.833C420.492 154.09 419.811 153.532 419.068 153.161C417.211 152.109 414.92 152.17 413.187 153.347C411.639 154.337 410.587 156.009 409.906 157.618C408.977 159.723 408.606 162.323 410.091 164.305C411.639 166.347 414.425 166.657 416.592 165.419C418.14 164.552 419.006 163.004 419.811 161.457C420.925 159.414 422.473 156.999 420.987 154.709V154.833Z" fill="#C63228"/>
<path d="M319.396 122.95H291.104V190.368H319.396V122.95Z" fill="#FFBB33"/>
<path d="M319.395 143.318V190.368" stroke="#FF8A3B" stroke-width="2" stroke-miterlimit="10"/>
<path d="M307.073 126.479L303.482 129.698L307.073 132.855L303.482 136.074L307.073 139.232L303.482 142.451L307.073 145.608L303.482 148.827L307.073 151.985L303.482 155.204L307.073 158.361L303.482 161.581L307.073 164.738L303.482 167.957L307.073 171.114L303.482 174.334L307.073 177.491L303.482 180.71L307.073 183.93" stroke="#FFCF64" stroke-width="2" stroke-miterlimit="10"/>
<path d="M369.293 204.608L352.764 202.131V189.626L372.079 188.078L369.293 204.608Z" fill="#F26200"/>
<path d="M371.15 193.835L371.955 188.945L385.265 187.087L383.223 196.374L371.15 193.835Z" fill="#FF8A3B"/>
<path d="M368.982 188.944L409.037 184.115L428.91 153.285" stroke="#F26200" stroke-width="2" stroke-miterlimit="10"/>
<path d="M1 483.814H717.775" stroke="#212020" stroke-width="2" stroke-miterlimit="10" stroke-linecap="round"/>
<path d="M27.5587 125.303H77.7664C80.4285 125.303 82.5953 127.47 82.5953 130.132V134.032H22.668V130.132C22.668 127.47 24.8348 125.303 27.4968 125.303H27.5587Z" fill="#7E58F4"/>
<path d="M22.668 137.065H82.5953V181.701C82.5953 185.973 79.1284 189.44 74.8567 189.44H30.4065C26.1348 189.44 22.668 185.973 22.668 181.701V137.065Z" fill="#CABDFF"/>
<path d="M41.7965 141.028H63.5264L65.1979 135.456H40.125L41.7965 141.028Z" fill="#482F96"/>
<path d="M33.873 150.375H71.4514V174.582C71.4514 177.244 69.2847 179.411 66.6226 179.411H38.7638C36.1018 179.411 33.935 177.244 33.935 174.582V150.375H33.873Z" fill="#7E58F4"/>
</svg>
