<svg width="608" height="589" viewBox="0 0 608 589" fill="none" xmlns="http://www.w3.org/2000/svg">
<path d="M608.001 153.142H465.42V389.545H608.001V153.142Z" fill="url(#paint0_linear_497_8016)"/>
<path d="M441.602 0H190.654V386.347H441.602V0Z" fill="url(#paint1_linear_497_8016)"/>
<path d="M312.413 146.625C312.413 146.625 311.815 153.021 310.835 163.614C308.791 185.641 305.062 225.781 301.483 264.319C296.977 312.941 292.716 358.903 292.405 362.352C292.405 362.484 292.405 362.55 292.405 362.556C292.405 362.759 230.572 363.351 230.572 363.351C229.903 322.972 233.082 304.602 235.807 291.452C238.532 278.301 240.277 266.65 240.277 266.65C240.277 266.65 226.18 294.948 221.417 303.508C216.654 312.068 208.389 320.622 187.952 320.915C167.514 321.208 169.289 302.146 169.289 302.146C169.289 302.146 186.213 264.17 204.039 226.313C221.578 189.096 239.99 151.987 244.078 151.192C256.305 148.801 276.031 145.878 289.25 144.42L312.413 146.625Z" fill="url(#paint2_linear_497_8016)"/>
<path d="M443.114 315.147L387.496 279.879C387.496 279.879 385.536 294.865 384.807 315.362C384.119 334.861 386.079 351.127 383.821 359.465L292.389 362.299L285.815 362.502C283.03 316.42 287.411 285.815 290.895 264.038C291.797 258.419 292.634 253.392 293.285 248.831C296.44 226.457 303.283 205.069 304.538 191.846C306.038 176.065 305.416 167.111 305.416 167.111L310.795 163.584L339.479 144.862C367.691 147.128 389.468 155.245 409.619 175.498C418.947 184.871 423.507 189.748 429.937 213.007C431.132 217.192 432.584 222.034 434.21 227.234C444.088 258.647 459.105 304.059 443.114 315.147Z" fill="url(#paint3_linear_497_8016)"/>
<path d="M434.281 227.264C413.963 240.929 391.32 265.15 391.32 265.15C391.32 265.15 333.879 264.475 301.483 264.295H300.42C297.175 264.295 293.99 264.194 290.858 264.05C274.402 263.334 258.053 261.04 242.035 257.2C237.511 245.352 221.46 234.216 204.01 226.307C221.549 189.091 239.961 151.981 244.049 151.186C256.275 148.795 276.002 145.872 289.221 144.414L312.36 146.608C312.36 146.608 311.762 153.004 310.782 163.596L339.466 144.874C367.679 147.14 389.455 155.257 409.606 175.509C418.934 184.882 423.494 189.76 429.924 213.019C431.203 217.245 432.679 222.063 434.281 227.264Z" fill="url(#paint4_linear_497_8016)"/>
<path d="M285.833 363.13C285.68 363.13 285.533 363.072 285.422 362.967C285.311 362.863 285.244 362.72 285.235 362.568C282.534 317.825 286.43 288.218 290.321 263.973L290.87 260.559C291.552 256.375 292.191 252.388 292.705 248.777C294.33 237.252 296.942 225.955 299.243 215.984C301.448 206.42 303.348 198.207 303.952 191.822C305.428 176.281 304.836 167.272 304.83 167.183C304.819 167.024 304.871 166.868 304.976 166.748C305.08 166.628 305.227 166.554 305.386 166.543C305.544 166.532 305.701 166.584 305.821 166.688C305.941 166.793 306.014 166.94 306.025 167.099C306.025 167.189 306.623 176.281 305.147 191.93C304.549 198.398 302.625 206.671 300.408 216.247C298.113 226.194 295.508 237.468 293.888 248.939C293.374 252.561 292.735 256.536 292.054 260.745L291.504 264.158C287.637 288.337 283.735 317.867 286.43 362.49C286.435 362.569 286.424 362.647 286.399 362.722C286.373 362.796 286.333 362.865 286.281 362.923C286.229 362.982 286.165 363.03 286.095 363.065C286.024 363.099 285.947 363.119 285.869 363.124L285.833 363.13Z" fill="#51823B"/>
<path d="M368.236 229.834C362.654 210.706 363.079 205.236 363.748 201.207C364.417 197.178 369.61 190.645 380.576 186.126C380.899 185.725 388.476 177.93 396.538 180.01C404.599 182.091 411.131 190.22 417.824 204.746C424.517 219.272 439.015 254.115 444.417 276.376C449.819 298.637 454.702 317.072 426.997 322.201C397.231 327.706 388.996 298.021 386.701 288.224C385.429 282.802 384.365 274.672 381.867 268.707C379.369 262.741 370.578 237.874 368.236 229.834Z" fill="url(#paint5_linear_497_8016)"/>
<path d="M221.641 180.011C237.381 186.992 242.975 189.754 244.009 201.769C245.042 213.784 239.861 233.696 232.786 255.275C222.137 287.704 192.442 322.786 184.357 320.742C144.36 310.73 166.076 265.15 172.303 252.137C175.064 246.356 182.731 220.389 186.126 207.651C190.655 190.657 203.39 171.899 221.641 180.011Z" fill="url(#paint6_linear_497_8016)"/>
<path d="M386.239 171.678C388.54 172.198 388.671 172.819 391.115 179.078C393.56 185.337 396.303 190.394 395.896 195.355C395.49 200.316 390.703 208.572 380.508 207.585C374.347 206.988 371.986 204.363 370.875 200.753C369.489 195.944 368.388 191.058 367.576 186.12L386.239 171.678Z" fill="url(#paint7_linear_497_8016)"/>
<path d="M212.193 171.899C209.014 178.074 205.554 185.928 205.022 188.457C204.49 190.986 202.309 202.385 211.595 207.209C220.882 212.033 229.523 207.986 232.26 203.521C235.218 198.709 236.629 195.391 235.063 189.957C232.983 182.94 212.193 171.899 212.193 171.899Z" fill="url(#paint8_linear_497_8016)"/>
<path d="M441.602 358.353H190.654V415.332H441.602V358.353Z" fill="url(#paint9_linear_497_8016)"/>
<path d="M242.61 403.736C238.535 403.733 234.599 402.254 231.528 399.574C228.458 396.894 226.46 393.193 225.905 389.154C225.35 385.116 226.275 381.013 228.508 377.603C230.742 374.194 234.133 371.708 238.056 370.604C241.979 369.501 246.169 369.855 249.852 371.601C253.534 373.347 256.461 376.366 258.091 380.102C259.721 383.838 259.945 388.038 258.721 391.926C257.496 395.814 254.907 399.128 251.431 401.255C248.775 402.88 245.723 403.738 242.61 403.736ZM242.61 371.744C239.623 371.741 236.702 372.625 234.217 374.284C231.732 375.942 229.795 378.3 228.65 381.06C227.505 383.82 227.204 386.858 227.786 389.789C228.367 392.72 229.804 395.412 231.916 397.526C234.027 399.64 236.718 401.08 239.648 401.663C242.577 402.247 245.614 401.949 248.374 400.806C251.135 399.663 253.494 397.727 255.154 395.243C256.813 392.758 257.699 389.837 257.699 386.849C257.695 382.846 256.104 379.009 253.275 376.177C250.447 373.346 246.612 371.752 242.61 371.744Z" fill="#C5E0E2"/>
<path d="M245.052 388.887C246.045 388.343 246.829 387.485 247.28 386.446C247.731 385.407 247.824 384.248 247.543 383.151C247.263 382.054 246.625 381.081 245.731 380.387C244.837 379.692 243.737 379.315 242.605 379.315C241.473 379.315 240.373 379.692 239.479 380.387C238.584 381.081 237.947 382.054 237.666 383.151C237.386 384.248 237.478 385.407 237.93 386.446C238.381 387.485 239.165 388.343 240.158 388.887C236.698 390.208 234.182 394.267 234.182 399.049C234.18 399.52 234.204 399.991 234.253 400.46C236.767 401.996 239.656 402.808 242.602 402.808C245.548 402.808 248.436 401.996 250.95 400.46C251 399.991 251.024 399.52 251.022 399.049C251.034 394.267 248.512 390.226 245.052 388.887Z" fill="#C5E0E2"/>
<path d="M368.143 381.642H277.99C277.752 381.642 277.524 381.548 277.356 381.38C277.188 381.212 277.094 380.983 277.094 380.746C277.094 380.508 277.188 380.28 277.356 380.112C277.524 379.943 277.752 379.849 277.99 379.849H368.143C368.381 379.849 368.609 379.943 368.777 380.112C368.945 380.28 369.04 380.508 369.04 380.746C369.04 380.983 368.945 381.212 368.777 381.38C368.609 381.548 368.381 381.642 368.143 381.642Z" fill="#C5E0E2"/>
<path d="M405.63 393.837H277.99C277.752 393.837 277.524 393.742 277.356 393.574C277.188 393.406 277.094 393.178 277.094 392.94C277.094 392.702 277.188 392.474 277.356 392.306C277.524 392.138 277.752 392.043 277.99 392.043H405.63C405.868 392.043 406.096 392.138 406.264 392.306C406.432 392.474 406.527 392.702 406.527 392.94C406.527 393.178 406.432 393.406 406.264 393.574C406.096 393.742 405.868 393.837 405.63 393.837Z" fill="#C5E0E2"/>
<path d="M286.412 127.121C280.382 134.987 294.539 147.397 305.427 154.504C316.316 161.612 348.078 138.902 345.191 131.837C338.164 114.621 298.029 111.943 286.412 127.121Z" fill="url(#paint10_linear_497_8016)"/>
<path d="M336.22 115.147V148.921C336.22 149.363 329.581 157.092 322.23 165.521C316.724 166.793 311.074 167.338 305.426 167.141C301.459 165.681 297.654 163.814 294.072 161.57L292.154 155.909L292.859 136.78V136.183L293.253 125.554L293.295 124.407H293.235L293.145 124.365C292.912 124.251 292.41 124.012 291.741 123.653L291.371 123.456L290.773 123.127L290.331 122.882L289.871 122.619L289.177 122.207C286.189 120.414 282.431 117.771 280.811 114.956C277.985 109.965 279.371 92.498 282.974 60.7089C306.765 17.4488 349.015 61.3784 349.349 62.0419C349.684 62.7055 336.22 115.147 336.22 115.147Z" fill="#F9CBA2"/>
<path d="M327.152 120.491C327.152 120.491 320.482 142.244 292.844 136.792L293.304 124.449C293.304 124.449 312.445 131.813 327.152 120.491Z" fill="#E5AD83"/>
<path d="M327.478 51.1506C325.727 63.3092 328.076 76.3404 340.476 84.8645C340.476 84.8645 347.085 60.3562 346.864 60.2606C346.643 60.1649 327.478 51.1506 327.478 51.1506Z" fill="url(#paint11_linear_497_8016)"/>
<path d="M332.757 54.6176C338.136 65.5985 339.612 72.9749 337.395 80.0943C335.148 87.3212 331.496 90.3459 329.267 94.064C325.771 99.8982 325.281 110.975 327.636 114.609C331.078 119.929 336.534 120.844 342.044 120.401C347.554 119.959 351.725 61.3125 351.725 61.3125L332.757 54.6176Z" fill="url(#paint12_linear_497_8016)"/>
<path d="M350.05 119.296C343.118 121.484 338.785 120.432 336.222 117.76C332.289 113.659 332.552 105.727 334.07 99.8267C335.809 93.0899 342.18 80.5847 342.885 75.7428C343.59 70.9009 341.235 64.176 339.939 62.7593C338.642 61.3426 327.305 54.8449 310.788 53.4282C294.503 52.0295 283.299 60.4759 282.994 60.721C280.311 84.3805 278.859 100.108 279.456 108.662C271.735 100.765 268.747 69.6814 280.932 46.6855L281.046 46.4703C297.061 16.5821 328.608 18.1662 351.974 36.9061C361.709 44.7129 366.316 56.9969 367.47 69.7293C369.478 92.1215 360.723 115.918 350.05 119.296Z" fill="url(#paint13_linear_497_8016)"/>
<path d="M221.158 482.376C222.48 478.778 220.636 474.79 217.039 473.467C213.443 472.145 209.456 473.99 208.134 477.587L171.618 576.97C170.296 580.567 172.14 584.555 175.737 585.878C179.333 587.2 183.321 585.355 184.642 581.758L221.158 482.376Z" fill="url(#paint14_linear_497_8016)"/>
<path d="M222.274 488.654C220.816 492.623 201.729 485.605 203.187 481.636L213.884 452.525L232.971 459.543L222.274 488.654Z" fill="url(#paint15_linear_497_8016)"/>
<path d="M254.651 282.485C229.746 282.426 205.832 292.237 188.142 309.773C170.452 327.308 160.427 351.139 160.26 376.05C160.093 400.961 169.799 424.924 187.252 442.695C204.706 460.465 228.487 470.596 253.39 470.87H253.432C278.63 470.538 302.703 460.376 320.521 442.55C338.34 424.724 348.496 400.643 348.825 375.437V375.396C348.488 350.636 338.417 327.005 320.792 309.616C303.167 292.228 279.406 282.481 254.651 282.485ZM326.595 401.231C319.213 421.51 304.122 438.052 284.606 447.256C265.09 456.459 242.73 457.579 222.393 450.372C202.056 443.164 185.388 428.213 176.018 408.773C166.648 389.332 165.334 366.976 172.362 346.571C180.439 326.054 196.107 309.438 216.112 300.175C236.117 290.912 258.921 289.715 279.785 296.831C299.671 304.667 315.702 319.974 324.449 339.48C333.197 358.985 333.967 381.141 326.595 401.207V401.231Z" fill="url(#paint16_linear_497_8016)"/>
<path opacity="0.5" d="M326.594 401.207C319.212 421.487 304.121 438.028 284.605 447.232C265.089 456.435 242.729 457.555 222.392 450.348C202.055 443.14 185.387 428.189 176.017 408.749C166.647 389.308 165.333 366.952 172.361 346.548C180.442 326.035 196.113 309.424 216.117 300.166C236.122 290.908 258.923 289.713 279.784 296.832C299.67 304.667 315.701 319.974 324.448 339.48C333.196 358.985 333.966 381.141 326.594 401.207Z" fill="url(#paint17_linear_497_8016)"/>
<path d="M304.991 329.021C313.209 344.568 315.331 362.624 310.942 379.654C306.553 396.684 295.969 411.463 281.261 421.099C266.553 430.734 248.78 434.533 231.419 431.752C214.059 428.971 198.36 419.809 187.396 406.061C191.989 414.75 198.345 422.384 206.057 428.475C213.769 434.566 222.667 438.98 232.182 441.433C241.697 443.887 251.619 444.327 261.314 442.724C271.009 441.121 280.262 437.512 288.482 432.127C296.702 426.742 303.708 419.699 309.05 411.45C314.393 403.201 317.956 393.928 319.51 384.222C321.064 374.517 320.575 364.594 318.075 355.089C315.575 345.583 311.119 336.705 304.991 329.021Z" fill="url(#paint18_linear_497_8016)"/>
<path d="M332.565 407.555C328.68 418.124 322.752 427.823 315.12 436.1C307.488 444.377 298.301 451.069 288.083 455.795C277.866 460.52 266.817 463.186 255.57 463.64C244.322 464.095 233.095 462.329 222.53 458.443C211.964 454.557 202.267 448.628 193.993 440.994C185.718 433.359 179.028 424.17 174.304 413.949C164.763 393.308 163.811 369.721 171.656 348.377C171.883 347.779 172.117 347.139 172.362 346.53C167.185 361.695 166.574 378.047 170.603 393.556C174.632 409.066 183.125 423.051 195.027 433.777C206.93 444.503 221.719 451.498 237.559 453.893C253.399 456.289 269.594 453.98 284.135 447.253C298.675 440.526 310.921 429.677 319.354 416.052C327.787 402.427 332.035 386.625 331.572 370.607C331.109 354.589 325.954 339.059 316.748 325.944C307.542 312.829 294.69 302.707 279.785 296.832C280.418 297.053 281.052 297.274 281.685 297.507C303.021 305.352 320.368 321.353 329.909 341.991C339.451 362.629 340.406 386.213 332.565 407.555Z" fill="url(#paint19_linear_497_8016)"/>
<path d="M348.825 374.152C348.825 374.571 348.825 374.983 348.825 375.402C348.576 356.881 342.874 338.844 332.432 323.548C321.99 308.251 307.271 296.373 290.117 289.4C272.962 282.427 254.132 280.667 235.983 284.342C217.834 288.016 201.17 296.962 188.077 310.059C174.983 323.156 166.04 339.825 162.367 357.979C158.693 376.133 160.452 394.968 167.424 412.128C174.395 429.288 186.269 444.011 201.562 454.456C216.854 464.901 234.885 470.604 253.401 470.853H252.152C233.028 470.855 214.334 465.185 198.432 454.559C182.531 443.933 170.136 428.828 162.817 411.156C155.498 393.484 153.582 374.037 157.312 355.276C161.043 336.514 170.251 319.281 183.773 305.754C197.296 292.228 214.524 283.017 233.281 279.286C252.037 275.555 271.478 277.471 289.145 284.792C306.812 292.114 321.912 304.511 332.535 320.417C343.158 336.323 348.827 355.023 348.825 374.152Z" fill="url(#paint20_linear_497_8016)"/>
<path d="M518.162 232.024C513.916 234.624 512.873 240.262 515.96 243.982C519.047 247.703 532.062 246.143 537.226 243.982C542.39 241.821 549.843 228.987 538.589 227.905C527.334 226.822 518.162 232.024 518.162 232.024Z" fill="url(#paint21_linear_497_8016)"/>
<path d="M594.917 360.003L495.512 367.372C495.512 367.372 486.625 368.198 479.739 355.263C473.936 344.345 479.636 309.066 482.794 291.317C483.371 288.061 483.864 285.395 484.183 283.577C485.758 274.585 486.84 272.969 487.118 269.746C487.764 262.204 489.112 257.691 494.127 250.488C499.143 243.285 516.652 242.802 516.652 242.802L537.063 238.099C550.237 239.388 564.007 240.909 571.468 247.434C578.929 253.96 581.367 255.48 589.292 279.544C590.378 282.85 591.372 286.189 592.273 289.561C597.914 310.843 599.655 333.87 594.917 360.003Z" fill="url(#paint22_linear_497_8016)"/>
<path d="M493.206 279.816C488.986 301.616 483.113 333.449 491.989 359.144L487.79 365.166C485.211 363.411 482.336 360.483 479.745 355.626C473.929 344.668 479.641 309.26 482.806 291.446C483.383 288.177 483.877 285.502 484.197 283.677C485.776 274.652 486.86 273.03 487.138 269.795C487.587 264.569 488.384 260.79 490.461 256.568L494.054 266.858C494.469 269.401 494.145 274.942 493.206 279.816Z" fill="url(#paint23_linear_497_8016)"/>
<path d="M594.883 359.823L572.437 361.472C560.57 343.658 564.374 296.155 558.514 273.046C558.274 272.098 562.522 255.491 565.52 244.009C567.55 244.919 569.441 246.104 571.136 247.53C578.692 254.044 581.16 255.557 589.186 279.564C590.286 282.863 591.292 286.194 592.205 289.558C597.918 310.778 599.681 333.75 594.883 359.823Z" fill="url(#paint24_linear_497_8016)"/>
<path d="M591.748 289.357C574.111 286.344 562.182 298.877 562.182 298.877V301.161C551.289 307.434 536.189 309.287 519.568 307.792C509.32 306.819 499.288 304.25 489.833 300.178C490.186 298.255 490.474 295.473 490.474 295.473C489.652 294.283 486.703 292.501 483.15 291.122C483.722 287.879 484.211 285.224 484.528 283.413C486.091 274.456 487.164 272.847 487.439 269.636C488.081 262.125 489.417 257.63 494.393 250.456C499.369 243.281 516.738 242.8 516.738 242.8L536.987 238.099C550.055 239.383 563.716 240.898 571.118 247.397C578.519 253.897 580.937 255.411 588.8 279.379C589.872 282.664 590.854 285.99 591.748 289.357Z" fill="url(#paint25_linear_497_8016)"/>
<path d="M548.013 216.525C546.965 222.369 540.795 223.492 540.795 223.492V241.509C540.795 241.977 524.152 257.307 524.152 257.307L517.73 248.911L517.809 246.335L518.118 236.365C508.66 232.815 508.214 225.683 509.576 205.188C509.667 203.826 509.766 202.5 509.902 201.229C510.822 192.419 513.426 185.994 527.127 186.404C542.809 186.868 545.145 201.212 545.219 210.428C545.203 210.395 548.937 211.339 548.013 216.525Z" fill="#C39873"/>
<path d="M545.205 210.153C541.518 209.375 539.297 212.981 539.297 212.981C539.297 212.981 537.595 211.018 537.557 210.014C537.52 209.01 537.972 204.047 537.839 203.125C537.707 202.203 534.641 198.924 533.697 198.887C530.909 198.777 529.827 200.055 521.592 199.879C515.009 199.74 511.94 198.568 511.94 198.568C511.357 199.52 510.614 200.366 509.744 201.072C510.668 192.355 513.282 185.999 527.035 186.404C542.806 186.863 545.147 201.055 545.205 210.153Z" fill="url(#paint26_linear_497_8016)"/>
<path d="M538.983 217.413C538.882 217.414 538.784 217.38 538.707 217.317C538.63 217.255 538.579 217.167 538.562 217.071C538.546 216.975 538.566 216.877 538.618 216.794C538.67 216.711 538.752 216.648 538.848 216.618C539.821 216.304 541.244 215.395 542.501 214.579C543.962 213.637 544.889 213.054 545.465 212.984C545.577 212.971 545.69 213.001 545.78 213.068C545.869 213.135 545.927 213.233 545.941 213.341C545.955 213.449 545.924 213.559 545.854 213.645C545.785 213.731 545.683 213.787 545.571 213.8C545.147 213.849 543.996 214.616 542.971 215.264C541.672 216.104 540.198 217.054 539.115 217.401C539.072 217.412 539.027 217.416 538.983 217.413Z" fill="#875D3E"/>
<path d="M541.575 220.365C541.166 220.362 540.76 220.318 540.361 220.232C540.254 220.21 540.16 220.148 540.1 220.06C540.041 219.971 540.02 219.863 540.042 219.76C540.065 219.656 540.129 219.565 540.221 219.508C540.312 219.45 540.424 219.429 540.531 219.451C542.768 219.916 543.936 218.873 544.28 217.745C544.567 216.812 544.28 215.605 543.216 215.214C543.116 215.178 543.035 215.104 542.991 215.01C542.947 214.915 542.944 214.808 542.982 214.711C543.02 214.614 543.096 214.536 543.194 214.493C543.292 214.451 543.403 214.448 543.504 214.484C544.846 214.972 545.525 216.472 545.056 217.967C544.84 218.687 544.378 219.315 543.747 219.75C543.115 220.185 542.35 220.402 541.575 220.365Z" fill="#875D3E"/>
<path d="M517.871 246.226L518.177 236.156C523.936 237.248 533.981 235.65 537.817 226.279C537.817 226.279 538.091 241.072 517.871 246.226Z" fill="#9E7150"/>
<path d="M520.969 361.472C520.885 361.472 520.803 361.447 520.733 361.401C520.663 361.356 520.608 361.291 520.576 361.215C517.958 355.126 517.06 346.391 518.685 310.706C519.695 288.554 521.252 277.441 522.351 269.326C522.988 264.708 523.493 261.063 523.664 256.966C523.666 256.912 523.68 256.858 523.703 256.809C523.727 256.759 523.76 256.715 523.802 256.678C523.843 256.641 523.891 256.612 523.944 256.594C523.997 256.575 524.053 256.566 524.109 256.568C524.165 256.571 524.22 256.583 524.271 256.606C524.322 256.629 524.368 256.661 524.406 256.701C524.445 256.741 524.474 256.788 524.494 256.839C524.513 256.891 524.522 256.945 524.52 256.999C524.344 261.141 523.84 264.799 523.198 269.426C522.077 277.524 520.546 288.616 519.537 310.731C517.92 346.258 518.792 354.915 521.359 360.884C521.386 360.947 521.397 361.015 521.391 361.084C521.384 361.152 521.36 361.217 521.322 361.274C521.283 361.331 521.23 361.378 521.167 361.41C521.105 361.443 521.036 361.46 520.965 361.46L520.969 361.472Z" fill="#51823B"/>
<path d="M492.173 359.252C492.081 359.252 491.991 359.226 491.917 359.176C491.842 359.126 491.785 359.056 491.755 358.974C482.114 332.647 488.943 299.363 493.026 279.478C493.986 274.806 494.373 269.292 493.906 266.656C493.897 266.601 493.9 266.546 493.914 266.492C493.928 266.439 493.953 266.388 493.987 266.344C494.022 266.299 494.065 266.262 494.115 266.233C494.165 266.205 494.22 266.186 494.278 266.177C494.336 266.169 494.395 266.171 494.452 266.184C494.509 266.197 494.562 266.221 494.609 266.253C494.657 266.286 494.696 266.327 494.727 266.374C494.757 266.421 494.778 266.473 494.786 266.527C495.227 269.243 494.857 274.88 493.88 279.635C489.814 299.442 483.012 332.589 492.56 358.705C492.583 358.767 492.59 358.834 492.58 358.9C492.57 358.966 492.544 359.028 492.503 359.082C492.462 359.136 492.408 359.18 492.345 359.211C492.282 359.241 492.212 359.256 492.142 359.256L492.173 359.252Z" fill="#51823B"/>
<path d="M572.857 362.203C572.787 362.203 572.718 362.186 572.657 362.154C572.595 362.121 572.543 362.074 572.504 362.017C565.394 351.331 564.105 330.257 562.824 309.872C561.954 295.867 561.144 282.621 558.519 273.344C558.504 273.291 558.5 273.237 558.507 273.183C558.514 273.129 558.532 273.077 558.559 273.03C558.586 272.983 558.623 272.941 558.666 272.908C558.71 272.875 558.76 272.85 558.813 272.836C558.866 272.821 558.922 272.817 558.976 272.824C559.031 272.831 559.084 272.848 559.132 272.875C559.18 272.902 559.222 272.938 559.256 272.981C559.29 273.023 559.315 273.072 559.329 273.125C561.971 282.51 562.794 295.776 563.664 309.827C564.924 330.104 566.221 351.071 573.21 361.571C573.252 361.633 573.275 361.706 573.279 361.78C573.282 361.855 573.265 361.929 573.228 361.995C573.192 362.06 573.139 362.115 573.073 362.153C573.008 362.191 572.933 362.211 572.857 362.211V362.203Z" fill="#51823B"/>
<path d="M607.999 357.04H464.68V389.545H607.999V357.04Z" fill="url(#paint27_linear_497_8016)"/>
<path d="M494.594 383.635C492.186 383.633 489.859 382.761 488.044 381.177C486.229 379.594 485.049 377.408 484.72 375.022C484.392 372.636 484.938 370.212 486.257 368.197C487.577 366.182 489.581 364.713 491.9 364.061C494.218 363.409 496.694 363.618 498.871 364.649C501.047 365.68 502.777 367.464 503.74 369.671C504.704 371.879 504.836 374.36 504.113 376.657C503.39 378.954 501.86 380.912 499.805 382.169C498.236 383.128 496.433 383.636 494.594 383.635ZM494.594 364.938C492.87 364.937 491.185 365.448 489.751 366.405C488.317 367.362 487.2 368.723 486.539 370.315C485.879 371.908 485.706 373.66 486.042 375.351C486.377 377.042 487.207 378.595 488.426 379.814C489.644 381.033 491.197 381.864 492.888 382.2C494.579 382.537 496.331 382.365 497.924 381.705C499.517 381.046 500.878 379.929 501.836 378.495C502.793 377.062 503.305 375.377 503.305 373.653C503.302 371.343 502.384 369.129 500.751 367.495C499.118 365.861 496.904 364.942 494.594 364.938Z" fill="#C5E0E2"/>
<path d="M494.599 375.509C496.027 375.509 497.185 374.186 497.185 372.554C497.185 370.922 496.027 369.599 494.599 369.599C493.171 369.599 492.014 370.922 492.014 372.554C492.014 374.186 493.171 375.509 494.599 375.509Z" fill="#C5E0E2"/>
<path d="M489.799 380.772C489.798 381.039 489.812 381.306 489.84 381.572C491.274 382.438 492.921 382.896 494.601 382.896C496.28 382.896 497.927 382.438 499.361 381.572C499.39 381.306 499.404 381.039 499.403 380.772C499.403 378.056 497.962 375.763 495.988 375.028C495.089 374.684 494.092 374.684 493.193 375.028C491.235 375.763 489.799 378.056 489.799 380.772Z" fill="#C5E0E2"/>
<path d="M514.795 371.076H566.012C566.176 371.076 566.333 370.998 566.449 370.86C566.565 370.721 566.63 370.533 566.63 370.337C566.63 370.141 566.565 369.953 566.449 369.815C566.333 369.676 566.176 369.599 566.012 369.599H514.795C514.632 369.599 514.474 369.676 514.359 369.815C514.243 369.953 514.178 370.141 514.178 370.337C514.178 370.533 514.243 370.721 514.359 370.86C514.474 370.998 514.632 371.076 514.795 371.076Z" fill="#C5E0E2"/>
<path d="M587.435 376.247H514.796C514.632 376.247 514.475 376.325 514.359 376.464C514.243 376.602 514.178 376.79 514.178 376.986C514.178 377.182 514.243 377.37 514.359 377.509C514.475 377.647 514.632 377.725 514.796 377.725H587.435C587.599 377.725 587.757 377.647 587.873 377.509C587.989 377.37 588.054 377.182 588.054 376.986C588.054 376.79 587.989 376.602 587.873 376.464C587.757 376.325 587.599 376.247 587.435 376.247Z" fill="#C5E0E2"/>
<path d="M149.23 146.493H0V393.978H149.23V146.493Z" fill="url(#paint28_linear_497_8016)"/>
<path d="M547.374 239.529C546.461 243.384 537.636 253.728 524.52 257.307C525.01 250.763 529.559 246.42 536.005 241.233C538.245 239.433 539.799 238.13 540.874 237.115C542.903 235.203 543.272 234.313 543.308 233.094C543.349 231.465 542.838 230.217 540.874 229.523V227.018C542.363 227.615 544.931 228.83 545.641 230.308C546.676 232.438 547.65 238.368 547.374 239.529Z" fill="url(#paint29_linear_497_8016)"/>
<path d="M524.518 257.307C515.604 250.647 512.031 244.43 511.983 242.604C511.849 237.645 512.356 234.49 512.711 232.928C513.694 233.864 514.826 234.642 516.063 235.232C515.63 236.325 515.305 238.641 518.008 241.607C521.806 245.779 524.605 253.524 524.518 257.307Z" fill="url(#paint30_linear_497_8016)"/>
<path d="M56.5323 229.239C52.183 231.944 51.1148 237.807 54.2768 241.676C57.4387 245.546 70.7718 243.924 76.0616 241.676C81.3514 239.429 88.9861 226.082 77.4575 224.956C65.9288 223.83 56.5323 229.239 56.5323 229.239Z" fill="url(#paint31_linear_497_8016)"/>
<path d="M136.049 362.621L32.9817 370.326C32.9817 370.326 23.7671 371.191 16.6283 357.665C10.6113 346.247 16.5209 309.356 19.7959 290.795C20.3933 287.39 20.9047 284.603 21.2356 282.701C22.8688 273.298 23.9906 271.608 24.2785 268.237C24.949 260.351 26.3458 255.632 31.5462 248.1C36.7466 240.568 54.9007 240.062 54.9007 240.062L76.0505 235.144C89.7091 236.492 103.987 238.083 111.723 244.906C119.459 251.73 121.986 253.32 130.203 278.483C131.33 281.941 132.36 285.432 133.294 288.959C139.156 311.214 140.957 335.293 136.049 362.621Z" fill="url(#paint32_linear_497_8016)"/>
<path d="M30.0034 279.287C25.7833 301.977 19.91 335.109 28.7864 361.853L24.587 368.121C22.0076 366.295 19.1333 363.247 16.5414 358.192C10.7263 346.787 16.4375 309.933 19.6026 291.392C20.18 287.99 20.6743 285.206 20.9941 283.306C22.5725 273.913 23.6566 272.225 23.9349 268.857C24.3835 263.418 25.181 259.485 27.2578 255.091L30.8507 265.801C31.2661 268.447 30.9421 274.215 30.0034 279.287Z" fill="url(#paint33_linear_497_8016)"/>
<path d="M136.061 362.706L113.191 364.427C101.1 345.828 104.975 296.234 99.004 272.108C98.7602 271.118 103.089 253.78 106.143 241.793C108.212 242.743 110.138 243.98 111.865 245.469C119.564 252.27 122.079 253.849 130.257 278.913C131.378 282.357 132.403 285.835 133.332 289.347C139.153 311.501 140.945 335.485 136.061 362.706Z" fill="url(#paint34_linear_497_8016)"/>
<path d="M133.715 289.095C115.118 285.922 102.539 299.119 102.539 299.119V301.524C91.0536 308.128 75.132 310.079 57.6061 308.505C46.8011 307.481 36.2225 304.776 26.2529 300.488C26.6258 298.464 26.9293 295.535 26.9293 295.535C26.0622 294.282 22.9533 292.406 19.207 290.954C19.8097 287.539 20.3257 284.744 20.6596 282.837C22.3072 273.407 23.4389 271.712 23.7294 268.332C24.4058 260.423 25.815 255.69 31.0615 248.137C36.308 240.583 54.623 240.076 54.623 240.076L75.9602 235.144C89.7398 236.496 104.144 238.091 111.948 244.934C119.753 251.777 122.303 253.372 130.593 278.607C131.732 282.054 132.773 285.55 133.715 289.095Z" fill="url(#paint35_linear_497_8016)"/>
<path d="M87.7555 212.617C86.6476 218.704 80.1268 219.873 80.1268 219.873V238.638C80.1268 239.125 62.536 255.091 62.536 255.091L55.7622 246.334L55.845 243.65L56.1722 233.267C46.1751 229.57 45.704 222.142 47.1434 200.797C47.2393 199.378 47.344 197.997 47.488 196.673C48.4606 187.498 51.2129 180.807 65.6939 181.234C82.2685 181.717 84.7372 196.656 84.8157 206.254C84.8026 206.232 88.7326 207.216 87.7555 212.617Z" fill="#F2BA70"/>
<path d="M84.9576 206.303C81.117 205.481 78.8041 209.288 78.8041 209.288C78.8041 209.288 77.0306 207.215 76.9917 206.156C76.9529 205.096 77.4232 199.857 77.2851 198.884C77.1471 197.91 73.9538 194.45 72.97 194.411C70.0658 194.294 68.9396 195.644 60.361 195.458C53.5042 195.31 50.3066 194.073 50.3066 194.073C49.6994 195.078 48.926 195.972 48.0195 196.716C48.9818 187.515 51.7047 180.806 66.0311 181.234C82.4418 181.719 84.8799 196.699 84.9576 206.303Z" fill="url(#paint36_linear_497_8016)"/>
<path d="M77.997 213.719C77.896 213.72 77.7981 213.686 77.7209 213.623C77.6437 213.561 77.5923 213.474 77.5759 213.378C77.5596 213.282 77.5793 213.183 77.6317 213.1C77.6841 213.017 77.7656 212.954 77.8615 212.924C78.8352 212.61 80.2576 211.701 81.515 210.885C82.9755 209.943 83.9026 209.36 84.4784 209.291C84.5906 209.277 84.7039 209.307 84.7932 209.374C84.8825 209.441 84.9406 209.539 84.9546 209.647C84.9687 209.756 84.9375 209.865 84.868 209.951C84.7986 210.037 84.6965 210.093 84.5842 210.106C84.1609 210.155 83.0094 210.922 81.9849 211.57C80.6852 212.41 79.212 213.36 78.1282 213.707C78.0854 213.718 78.0411 213.722 77.997 213.719Z" fill="#BB8A52"/>
<path d="M80.8085 216.671C80.3421 216.668 79.8773 216.624 79.4221 216.538C79.3614 216.528 79.3038 216.507 79.2526 216.477C79.2014 216.448 79.1576 216.41 79.1237 216.366C79.0898 216.322 79.0664 216.273 79.055 216.222C79.0435 216.17 79.0442 216.117 79.057 216.066C79.0697 216.015 79.0943 215.966 79.1293 215.923C79.1643 215.879 79.209 215.842 79.261 215.814C79.3129 215.785 79.371 215.765 79.4319 215.756C79.4929 215.746 79.5555 215.747 79.6162 215.757C82.1765 216.222 83.5075 215.179 83.9003 214.051C84.2285 213.118 83.9003 211.911 82.6849 211.521C82.6281 211.502 82.5762 211.475 82.532 211.44C82.4878 211.405 82.4523 211.362 82.4274 211.316C82.4025 211.269 82.3888 211.218 82.3869 211.167C82.3851 211.116 82.3953 211.065 82.4168 211.017C82.4384 210.969 82.4709 210.925 82.5125 210.888C82.5541 210.85 82.604 210.82 82.6594 210.799C82.7148 210.778 82.7745 210.767 82.8352 210.765C82.8958 210.764 82.9563 210.772 83.013 210.79C84.5474 211.279 85.3238 212.778 84.7877 214.274C84.5403 214.993 84.0129 215.621 83.2909 216.056C82.5688 216.491 81.6943 216.708 80.8085 216.671Z" fill="#BB8A52"/>
<path d="M56.1465 244.009L56.4639 233.567C62.4363 234.699 72.853 233.042 76.8318 223.324C76.8191 223.324 77.1153 238.664 56.1465 244.009Z" fill="#D39E5F"/>
<path d="M59.2454 364.427C59.1609 364.427 59.0785 364.401 59.0085 364.354C58.9385 364.306 58.884 364.238 58.8519 364.16C56.2303 357.813 55.3365 348.709 56.9616 311.516C57.9709 288.428 59.5276 276.845 60.6267 268.388C61.2639 263.574 61.7686 259.754 61.9397 255.505C61.9442 255.391 61.9936 255.283 62.077 255.205C62.1604 255.128 62.271 255.086 62.3844 255.091C62.4978 255.096 62.6048 255.145 62.6818 255.23C62.7588 255.314 62.7995 255.426 62.795 255.54C62.6196 259.857 62.115 263.669 61.4735 268.492C60.353 276.932 58.822 288.493 57.8127 311.542C56.1961 348.57 57.0686 357.593 59.6345 363.814C59.6621 363.88 59.6731 363.951 59.6666 364.022C59.6601 364.093 59.6363 364.161 59.5974 364.221C59.5584 364.28 59.5055 364.329 59.4433 364.363C59.3812 364.397 59.3117 364.414 59.2411 364.414L59.2454 364.427Z" fill="#51823B"/>
<path d="M28.9696 362.207C28.8779 362.207 28.7883 362.179 28.7134 362.127C28.6384 362.075 28.5819 362.001 28.5516 361.916C18.9108 334.335 25.7399 299.466 29.8233 278.634C30.7825 273.735 31.1697 267.963 30.7033 265.201C30.6944 265.144 30.6969 265.086 30.7107 265.03C30.7246 264.974 30.7494 264.921 30.784 264.875C30.8185 264.828 30.862 264.789 30.9119 264.759C30.9619 264.729 31.0174 264.709 31.0751 264.7C31.1329 264.691 31.1919 264.693 31.2487 264.707C31.3055 264.721 31.3591 264.745 31.4063 264.779C31.4535 264.813 31.4934 264.856 31.5238 264.906C31.5541 264.955 31.5744 265.01 31.5834 265.067C32.0234 267.911 31.6538 273.818 30.6769 278.799C26.6111 299.549 19.8084 334.274 29.3569 361.633C29.3801 361.699 29.3871 361.769 29.3771 361.838C29.3671 361.907 29.3405 361.973 29.2995 362.029C29.2586 362.086 29.2044 362.132 29.1417 362.163C29.0789 362.195 29.0093 362.211 28.9388 362.211L28.9696 362.207Z" fill="#51823B"/>
<path d="M113.327 365.157C113.253 365.158 113.181 365.14 113.116 365.106C113.052 365.072 112.997 365.023 112.956 364.962C105.49 353.747 104.137 331.628 102.792 310.232C101.879 295.532 101.028 281.63 98.2716 271.892C98.2406 271.781 98.2557 271.663 98.3136 271.563C98.3715 271.463 98.4674 271.389 98.5803 271.359C98.6932 271.328 98.8137 271.343 98.9154 271.4C99.0171 271.457 99.0917 271.551 99.1227 271.662C101.896 281.513 102.761 295.437 103.674 310.184C104.997 331.467 106.359 353.474 113.697 364.494C113.741 364.56 113.766 364.636 113.769 364.714C113.773 364.792 113.755 364.87 113.717 364.939C113.679 365.008 113.622 365.066 113.554 365.106C113.485 365.145 113.407 365.166 113.327 365.166V365.157Z" fill="#51823B"/>
<path d="M87.1235 236.879C86.1518 240.828 76.7581 251.424 62.7949 255.091C63.3175 248.387 68.1591 243.938 75.0219 238.625C77.4059 236.781 79.0601 235.446 80.2046 234.407C82.3641 232.448 82.7571 231.536 82.796 230.287C82.8392 228.619 82.295 227.34 80.2046 226.63V224.063C81.7897 224.674 84.5236 225.919 85.2794 227.434C86.3807 229.616 87.4172 235.69 87.1235 236.879Z" fill="url(#paint37_linear_497_8016)"/>
<path d="M62.7931 255.091C53.901 248.23 50.3061 241.826 50.2584 239.941C50.1242 234.832 50.6309 231.582 50.9861 229.973C51.969 230.937 53.1009 231.739 54.3385 232.346C53.9053 233.472 53.5805 235.858 56.2832 238.914C60.0861 243.216 62.8841 251.194 62.7931 255.091Z" fill="url(#paint38_linear_497_8016)"/>
<path d="M367.469 69.7293C354.711 64.0206 342.771 52.0474 326.403 44.5275C309.855 36.924 293.899 40.0084 280.932 46.6855L281.045 46.4703C297.061 16.5821 328.608 18.1662 351.974 36.9061C361.708 44.7129 366.334 56.9969 367.469 69.7293Z" fill="url(#paint39_linear_497_8016)"/>
<path d="M325.59 71.9706C325.459 71.9703 325.329 71.9413 325.21 71.8855C325.092 71.8298 324.987 71.7486 324.903 71.6478C322.357 68.5932 312.216 64.5762 303.951 65.5087C303.833 65.5221 303.714 65.5121 303.6 65.4794C303.486 65.4467 303.38 65.3918 303.287 65.318C303.1 65.1689 302.98 64.9515 302.953 64.7137C302.926 64.4759 302.995 64.2371 303.144 64.0499C303.293 63.8627 303.51 63.7424 303.748 63.7154C313.028 62.6694 323.468 67.0988 326.277 70.4881C326.386 70.619 326.456 70.7781 326.477 70.947C326.499 71.1158 326.472 71.2874 326.4 71.4417C326.328 71.5959 326.214 71.7265 326.07 71.818C325.927 71.9096 325.76 71.9583 325.59 71.9586V71.9706Z" fill="#654B1E"/>
<path d="M312.743 76.2568C312.638 76.2575 312.535 76.2307 312.444 76.179C310.943 75.2861 309.54 74.2361 308.261 73.0468C308.147 72.9366 308.081 72.7856 308.078 72.6269C308.075 72.4683 308.136 72.3151 308.246 72.2009C308.356 72.0868 308.507 72.0211 308.666 72.0183C308.824 72.0155 308.977 72.0758 309.091 72.186C310.306 73.3066 311.634 74.2983 313.054 75.1449C313.169 75.2102 313.259 75.3118 313.31 75.4339C313.361 75.5559 313.37 75.6915 313.336 75.8194C313.302 75.9473 313.226 76.0602 313.121 76.1404C313.016 76.2206 312.887 76.2637 312.755 76.2627L312.743 76.2568Z" fill="#654B1E"/>
<path d="M314.337 77.6305C314.473 75.7867 313.579 74.2182 312.342 74.1271C311.104 74.0359 309.991 75.4567 309.855 77.3005C309.719 79.1443 310.613 80.7128 311.85 80.8039C313.088 80.895 314.201 79.4743 314.337 77.6305Z" fill="#654B1E"/>
<path d="M289.854 73.9495C289.75 73.9503 289.647 73.9235 289.556 73.8718C288.157 73.0426 286.851 72.0667 285.659 70.9607C285.545 70.8505 285.479 70.6995 285.477 70.5409C285.474 70.3823 285.534 70.229 285.644 70.1149C285.755 70.0007 285.905 69.935 286.064 69.9322C286.223 69.9294 286.376 69.9898 286.49 70.0999C287.613 71.1349 288.841 72.0504 290.153 72.8317C290.268 72.897 290.359 72.9986 290.41 73.1207C290.461 73.2427 290.47 73.3783 290.436 73.5062C290.402 73.634 290.326 73.747 290.221 73.8272C290.116 73.9074 289.987 73.9505 289.854 73.9495Z" fill="#654B1E"/>
<path d="M291.329 75.1905C291.455 73.4817 290.628 72.0281 289.483 71.9438C288.337 71.8594 287.307 73.1763 287.181 74.8851C287.055 76.5938 287.882 78.0475 289.027 78.1318C290.173 78.2162 291.203 76.8993 291.329 75.1905Z" fill="#654B1E"/>
<path d="M299.033 104.746C298.796 104.765 298.56 104.689 298.379 104.534C298.197 104.38 298.084 104.159 298.065 103.921C298.046 103.683 298.122 103.448 298.277 103.266C298.432 103.085 298.652 102.972 298.89 102.953C304.997 101.955 311.069 98.6669 312.479 97.2562C312.561 97.1681 312.66 97.0974 312.77 97.0484C312.88 96.9994 312.999 96.9731 313.119 96.971C313.24 96.9688 313.359 96.991 313.471 97.0361C313.582 97.0812 313.684 97.1483 313.769 97.2334C313.854 97.3186 313.921 97.42 313.966 97.5317C314.011 97.6433 314.034 97.7629 314.031 97.8833C314.029 98.0037 314.003 98.1224 313.954 98.2324C313.905 98.3424 313.834 98.4414 313.746 98.5235C312.157 100.114 305.744 103.646 299.177 104.722L299.033 104.746Z" fill="#C98348"/>
<path d="M297.159 95.8276C294.302 95.8276 291.996 94.7695 290.675 92.8387C290.065 91.9133 289.691 90.852 289.587 89.7482C289.482 88.6443 289.651 87.5318 290.077 86.5084C290.674 85.2199 291.471 84.0337 292.438 82.9936C293.711 81.4513 295.025 79.8613 295.318 78.0082C295.671 75.7845 296.035 73.4891 294.852 68.964C294.827 68.8866 294.817 68.8047 294.824 68.7235C294.832 68.6422 294.855 68.5633 294.894 68.4915C294.933 68.4198 294.986 68.3568 295.05 68.3063C295.114 68.2559 295.188 68.2191 295.267 68.1983C295.346 68.1775 295.428 68.173 295.509 68.1852C295.589 68.1973 295.667 68.2259 295.736 68.269C295.805 68.3122 295.865 68.3691 295.911 68.4362C295.957 68.5033 295.99 68.5792 296.006 68.6592C297.249 73.4413 296.866 75.8324 296.496 78.1876C296.149 80.3634 294.667 82.1627 293.358 83.7467C292.48 84.6911 291.751 85.7634 291.195 86.9268C290.835 87.7679 290.686 88.6845 290.762 89.5964C290.838 90.5083 291.136 91.3876 291.631 92.1573C292.725 93.7413 294.679 94.6141 297.129 94.6141C297.288 94.6141 297.44 94.6771 297.552 94.7892C297.664 94.9013 297.727 95.0533 297.727 95.2119C297.727 95.3704 297.664 95.5224 297.552 95.6345C297.44 95.7467 297.288 95.8096 297.129 95.8096L297.159 95.8276Z" fill="#C98348"/>
<path d="M351.717 146.655C348.496 153.231 337.698 161.928 322.232 165.521C316.725 166.793 311.076 167.338 305.428 167.141C309.073 153.189 316.609 149.668 329.302 141.001C331.703 139.408 334.013 137.682 336.222 135.83C341.6 131.149 341.403 128.256 336.222 123.797V121.089C340.787 122.763 352.578 128.896 351.717 146.655Z" fill="url(#paint40_linear_497_8016)"/>
<path d="M305.428 167.117C301.461 165.657 297.656 163.79 294.073 161.546C285.313 156.052 280.777 150.015 280.395 148.783C279.797 146.859 282.426 134.915 284.87 127.563C285.88 124.538 287.56 122.99 289.185 122.183L289.878 122.595L290.338 122.858L290.781 123.103L291.378 123.432L291.749 123.629C292.418 123.988 292.944 124.227 293.153 124.341L293.243 124.383H293.303L293.261 125.53C288.605 126.409 286.287 129.577 289.484 132.614C290.601 133.678 291.743 134.879 292.866 136.159C298.472 142.525 303.725 150.828 304.627 154.092C305.29 156.614 305.428 167.117 305.428 167.117Z" fill="url(#paint41_linear_497_8016)"/>
<path d="M366.793 145.597C368.645 127.12 372.769 121.513 376.253 121.256C379.575 121.005 379.964 124.137 379.522 125.901C379.229 127.096 377.012 135.597 379.205 144.539C381.398 153.482 385.779 167.852 387.302 170.691C388.826 173.531 388.318 189.533 378.446 191.446C371.036 192.88 363.339 190.884 359.407 186.263C354.596 180.608 353.819 180.644 353.819 180.644C353.819 180.644 355.11 184.093 352.218 184.524C349.032 184.996 342.351 183.256 341.509 178.869C340.666 174.481 342.519 172.371 343.953 171.696C339.555 170.596 339.369 164.427 342.859 162.418C339.22 161.821 338.079 154.097 342.041 152.185C342.041 152.185 339.268 148.263 342.997 145.34C346.26 142.752 360.303 144.163 366.793 145.597Z" fill="#F9CBA2"/>
<path d="M240.279 267.266H240.171C240.016 267.237 239.879 267.148 239.789 267.018C239.7 266.888 239.665 266.728 239.693 266.573C241.085 258.999 242.645 251.408 243.781 245.86C244.617 241.778 245.227 238.831 245.37 237.808L245.567 236.457C249.398 210.401 249.655 205.188 249.464 204.399C249.427 204.245 249.454 204.082 249.537 203.947C249.621 203.812 249.754 203.716 249.909 203.679C250.063 203.643 250.226 203.669 250.361 203.753C250.496 203.836 250.593 203.97 250.629 204.124C251.005 205.697 249.733 216.331 246.751 236.631L246.553 237.976C246.404 239.034 245.794 241.999 244.952 246.099C243.816 251.635 242.257 259.25 240.864 266.782C240.838 266.918 240.765 267.041 240.658 267.129C240.552 267.218 240.417 267.266 240.279 267.266Z" fill="#51823B"/>
<path d="M245.172 183.585C243.319 188.917 253.783 190.161 257.399 185.062C258.439 183.641 259.061 181.957 259.192 180.201C259.323 178.444 258.958 176.686 258.14 175.127C261.922 172.658 261.128 167.147 258.958 165.3C262.544 164.26 262.036 155.138 258.803 154.205C263.309 145.424 251.291 143.595 233.172 146.859C233.172 146.859 231.726 127.043 226.127 121.221C223.904 118.907 219.159 120.509 219.971 126.128C221.639 137.623 221.842 141.329 219.009 150.278C216.177 159.226 211.049 168.486 210.207 174.786C209.364 181.087 210.972 191.165 219.463 194.297C227.955 197.43 234.529 193.269 237.361 191.524C240.194 189.778 245.172 183.585 245.172 183.585Z" fill="#F9CBA2"/>
<path d="M356.592 153.147C356.484 153.147 345.799 152.627 342.058 152.765C341.9 152.77 341.746 152.713 341.63 152.604C341.514 152.496 341.445 152.346 341.44 152.188C341.434 152.029 341.492 151.875 341.6 151.759C341.708 151.643 341.858 151.575 342.016 151.569C345.817 151.432 356.209 151.934 356.652 151.958C356.81 151.958 356.962 152.021 357.074 152.133C357.186 152.245 357.249 152.397 357.249 152.555C357.249 152.714 357.186 152.866 357.074 152.978C356.962 153.09 356.81 153.153 356.652 153.153L356.592 153.147Z" fill="#C98348"/>
<path d="M342.849 162.998C342.771 163 342.692 162.987 342.619 162.958C342.546 162.93 342.479 162.888 342.422 162.834C342.365 162.78 342.32 162.715 342.288 162.643C342.256 162.571 342.238 162.494 342.237 162.415C342.235 162.337 342.248 162.259 342.276 162.186C342.304 162.112 342.347 162.045 342.401 161.988C342.455 161.932 342.52 161.886 342.592 161.854C342.663 161.822 342.741 161.805 342.819 161.803C346.524 161.611 355.237 161.611 355.327 161.611C355.485 161.611 355.637 161.674 355.749 161.787C355.861 161.899 355.924 162.051 355.924 162.209C355.924 162.368 355.861 162.52 355.749 162.632C355.637 162.744 355.485 162.807 355.327 162.807C355.237 162.807 346.554 162.807 342.879 162.998H342.849Z" fill="#C98348"/>
<path d="M343.948 172.276C343.808 172.275 343.672 172.226 343.565 172.135C343.457 172.045 343.385 171.919 343.361 171.781C343.336 171.643 343.362 171.5 343.432 171.378C343.502 171.257 343.613 171.164 343.745 171.116C346.488 170.124 353.904 170.381 354.239 170.393C354.398 170.393 354.55 170.456 354.662 170.568C354.774 170.68 354.837 170.832 354.837 170.99C354.837 171.149 354.774 171.301 354.662 171.413C354.55 171.525 354.398 171.588 354.239 171.588C354.161 171.588 346.727 171.325 344.199 172.24C344.119 172.27 344.034 172.282 343.948 172.276Z" fill="#C98348"/>
<path d="M353.822 181.218C353.705 181.219 353.591 181.186 353.493 181.123C353.493 181.123 351.653 179.993 346.92 179.993C346.761 179.993 346.609 179.93 346.497 179.818C346.385 179.706 346.322 179.554 346.322 179.395C346.322 179.236 346.385 179.084 346.497 178.972C346.609 178.86 346.761 178.797 346.92 178.797C352.059 178.797 354.049 180.07 354.133 180.124C354.241 180.195 354.324 180.298 354.369 180.42C354.414 180.541 354.418 180.674 354.381 180.798C354.344 180.922 354.268 181.03 354.164 181.107C354.06 181.184 353.933 181.225 353.804 181.224L353.822 181.218Z" fill="#C98348"/>
<path d="M374.312 148.281C374.247 148.282 374.182 148.272 374.121 148.251C374.079 148.251 369.842 146.829 366.669 146.153C366.51 146.12 366.371 146.025 366.283 145.889C366.194 145.754 366.163 145.588 366.197 145.43C366.23 145.271 366.325 145.133 366.46 145.044C366.596 144.955 366.761 144.924 366.92 144.958C370.159 145.645 374.461 147.074 374.503 147.092C374.639 147.136 374.754 147.228 374.828 147.349C374.902 147.471 374.929 147.616 374.906 147.756C374.883 147.897 374.811 148.025 374.702 148.117C374.593 148.209 374.455 148.258 374.312 148.257V148.281Z" fill="#C98348"/>
<path d="M224.986 149.835C224.849 149.836 224.716 149.79 224.609 149.704C224.502 149.619 224.428 149.5 224.399 149.366C224.369 149.232 224.387 149.093 224.448 148.97C224.509 148.848 224.61 148.75 224.735 148.694C224.848 148.64 227.525 147.408 233.053 146.273C233.132 146.257 233.212 146.257 233.291 146.272C233.369 146.288 233.444 146.319 233.511 146.363C233.577 146.408 233.634 146.465 233.679 146.531C233.724 146.598 233.755 146.672 233.77 146.751C233.786 146.829 233.786 146.91 233.77 146.989C233.755 147.067 233.724 147.142 233.68 147.209C233.635 147.275 233.578 147.332 233.512 147.377C233.445 147.422 233.371 147.453 233.292 147.468C230.535 147.963 227.836 148.738 225.237 149.782C225.158 149.817 225.072 149.836 224.986 149.835Z" fill="#C98348"/>
<path d="M243.183 155.102C243.105 155.108 243.026 155.098 242.951 155.074C242.876 155.049 242.807 155.01 242.747 154.958C242.688 154.907 242.639 154.845 242.603 154.774C242.568 154.704 242.547 154.627 242.541 154.549C242.535 154.47 242.544 154.392 242.569 154.317C242.594 154.242 242.633 154.173 242.684 154.113C242.735 154.053 242.798 154.004 242.868 153.969C242.938 153.934 243.015 153.912 243.094 153.906C247.486 153.249 258.362 153.584 258.822 153.601C258.981 153.606 259.131 153.674 259.24 153.789C259.348 153.905 259.407 154.059 259.402 154.217C259.397 154.376 259.33 154.526 259.214 154.635C259.099 154.743 258.945 154.802 258.786 154.797C258.673 154.797 247.564 154.45 243.249 155.09L243.183 155.102Z" fill="#C98348"/>
<path d="M258.958 165.921C258.89 165.921 258.824 165.909 258.76 165.886C256.215 164.995 250.651 164.385 244.466 165.168C244.388 165.178 244.308 165.172 244.232 165.151C244.155 165.13 244.084 165.095 244.022 165.046C243.959 164.997 243.907 164.937 243.868 164.868C243.829 164.8 243.804 164.724 243.794 164.645C243.784 164.567 243.79 164.487 243.811 164.411C243.832 164.334 243.867 164.263 243.916 164.201C243.964 164.138 244.025 164.086 244.094 164.047C244.162 164.008 244.238 163.983 244.317 163.973C250.729 163.166 256.388 163.781 259.155 164.75C259.286 164.798 259.397 164.89 259.468 165.011C259.538 165.132 259.564 165.274 259.54 165.412C259.517 165.55 259.446 165.675 259.339 165.766C259.233 165.857 259.098 165.908 258.958 165.909V165.921Z" fill="#C98348"/>
<path d="M258.139 175.719C258.027 175.719 257.917 175.688 257.822 175.629C255.778 174.344 249.952 174.135 245.404 174.481C245.325 174.487 245.247 174.478 245.172 174.453C245.097 174.428 245.028 174.389 244.968 174.338C244.909 174.287 244.86 174.224 244.824 174.154C244.789 174.083 244.767 174.007 244.761 173.928C244.756 173.85 244.765 173.771 244.79 173.696C244.814 173.621 244.853 173.552 244.905 173.493C244.956 173.433 245.019 173.384 245.089 173.348C245.159 173.313 245.236 173.292 245.314 173.286C248.971 173.005 255.85 172.969 258.461 174.613C258.572 174.681 258.657 174.784 258.704 174.906C258.751 175.027 258.757 175.16 258.721 175.286C258.685 175.411 258.609 175.521 258.505 175.599C258.401 175.677 258.275 175.719 258.145 175.719H258.139Z" fill="#C98348"/>
<path d="M245.174 184.183C245.015 184.19 244.861 184.134 244.743 184.027C244.626 183.92 244.557 183.771 244.549 183.612C244.542 183.454 244.598 183.299 244.705 183.182C244.812 183.065 244.962 182.995 245.12 182.988C248.329 182.689 254 181.882 254.084 181.876C254.163 181.865 254.242 181.869 254.319 181.889C254.396 181.909 254.468 181.944 254.531 181.992C254.594 182.039 254.648 182.099 254.688 182.168C254.728 182.236 254.754 182.311 254.765 182.39C254.776 182.468 254.772 182.548 254.752 182.625C254.732 182.702 254.697 182.774 254.649 182.837C254.602 182.9 254.542 182.954 254.474 182.994C254.405 183.034 254.33 183.06 254.251 183.071C254.192 183.071 248.497 183.884 245.287 184.189L245.174 184.183Z" fill="#C98348"/>
<path d="M317.153 54.2653C306.623 54.8092 299.709 59.7408 296.769 66.7406C296.769 66.7406 293.124 64.8039 294.319 58.5572C291.468 63.3991 281.476 69.2692 277.425 66.6211C272.877 63.6382 288.152 46.3688 317.153 54.2653Z" fill="url(#paint42_linear_497_8016)"/>
<path d="M149.23 359.995H0V393.978H149.23V359.995Z" fill="url(#paint43_linear_497_8016)"/>
<path d="M31.0217 387.329C28.5241 387.327 26.1115 386.422 24.2293 384.78C22.3472 383.138 21.1228 380.871 20.7822 378.397C20.4416 375.922 21.0079 373.408 22.3764 371.319C23.7449 369.23 25.8232 367.706 28.2275 367.03C30.6318 366.354 33.1996 366.57 35.4567 367.64C37.7137 368.709 39.5076 370.559 40.5069 372.848C41.5062 375.137 41.6435 377.71 40.8933 380.093C40.1432 382.475 38.5564 384.505 36.4259 385.809C34.7989 386.804 32.9287 387.33 31.0217 387.329ZM31.0217 367.94C29.234 367.939 27.4862 368.468 25.9994 369.461C24.5126 370.453 23.3535 371.864 22.6688 373.516C21.9841 375.167 21.8045 376.984 22.1527 378.738C22.5009 380.491 23.3613 382.102 24.6251 383.367C25.8889 384.631 27.4992 385.492 29.2525 385.841C31.0058 386.19 32.8232 386.012 34.4749 385.328C36.1266 384.644 37.5383 383.485 38.5316 381.999C39.5248 380.513 40.055 378.765 40.055 376.977C40.0527 374.582 39.1004 372.285 37.4069 370.591C35.7135 368.897 33.4172 367.943 31.0217 367.94Z" fill="#C5E0E2"/>
<path d="M31.0273 378.464C32.6593 378.464 33.9824 377.141 33.9824 375.509C33.9824 373.877 32.6593 372.554 31.0273 372.554C29.3953 372.554 28.0723 373.877 28.0723 375.509C28.0723 377.141 29.3953 378.464 31.0273 378.464Z" fill="#C5E0E2"/>
<path d="M25.8575 384.273C25.8565 384.564 25.8714 384.855 25.902 385.145C27.4465 386.09 29.2202 386.59 31.0287 386.59C32.8373 386.59 34.611 386.09 36.1555 385.145C36.1861 384.855 36.201 384.564 36.2 384.273C36.2 381.31 34.6486 378.808 32.5222 378.007C31.554 377.631 30.4812 377.631 29.513 378.007C27.4044 378.808 25.8575 381.31 25.8575 384.273Z" fill="#C5E0E2"/>
<path d="M52.3566 374.031H105.737C105.908 374.031 106.072 373.953 106.193 373.815C106.313 373.676 106.381 373.488 106.381 373.292C106.381 373.096 106.313 372.909 106.193 372.77C106.072 372.631 105.908 372.554 105.737 372.554H52.3566C52.1859 372.554 52.0221 372.631 51.9014 372.77C51.7807 372.909 51.7129 373.096 51.7129 373.292C51.7129 373.488 51.7807 373.676 51.9014 373.815C52.0221 373.953 52.1859 374.031 52.3566 374.031Z" fill="#C5E0E2"/>
<path d="M127.901 379.941H52.3563C52.1857 379.941 52.022 380.019 51.9013 380.158C51.7807 380.296 51.7129 380.484 51.7129 380.68C51.7129 380.876 51.7807 381.064 51.9013 381.202C52.022 381.341 52.1857 381.419 52.3563 381.419H127.901C128.071 381.419 128.235 381.341 128.356 381.202C128.476 381.064 128.544 380.876 128.544 380.68C128.544 380.484 128.476 380.296 128.356 380.158C128.235 380.019 128.071 379.941 127.901 379.941Z" fill="#C5E0E2"/>
<defs>
<linearGradient id="paint0_linear_497_8016" x1="481.382" y1="206.787" x2="557.883" y2="296.163" gradientUnits="userSpaceOnUse">
<stop stop-color="white"/>
<stop offset="1" stop-color="#DDF1F3"/>
</linearGradient>
<linearGradient id="paint1_linear_497_8016" x1="223.026" y1="37.7727" x2="362.652" y2="270.698" gradientUnits="userSpaceOnUse">
<stop stop-color="white"/>
<stop offset="1" stop-color="#DDF1F3"/>
</linearGradient>
<linearGradient id="paint2_linear_497_8016" x1="240.062" y1="226.092" x2="322.59" y2="381.258" gradientUnits="userSpaceOnUse">
<stop stop-color="#AAC76F"/>
<stop offset="1" stop-color="#51823B"/>
</linearGradient>
<linearGradient id="paint3_linear_497_8016" x1="307.825" y1="190.053" x2="390.353" y2="345.219" gradientUnits="userSpaceOnUse">
<stop stop-color="#AAC76F"/>
<stop offset="1" stop-color="#51823B"/>
</linearGradient>
<linearGradient id="paint4_linear_497_8016" x1="316.985" y1="119.451" x2="319.478" y2="240.965" gradientUnits="userSpaceOnUse">
<stop stop-color="#DBE8C4"/>
<stop offset="1" stop-color="#AAC76F"/>
</linearGradient>
<linearGradient id="paint5_linear_497_8016" x1="435.77" y1="198.972" x2="357.463" y2="343.151" gradientUnits="userSpaceOnUse">
<stop stop-color="#AAC76F"/>
<stop offset="1" stop-color="#51823B"/>
</linearGradient>
<linearGradient id="paint6_linear_497_8016" x1="190.59" y1="217.156" x2="230.116" y2="322.104" gradientUnits="userSpaceOnUse">
<stop stop-color="#AAC76F"/>
<stop offset="1" stop-color="#51823B"/>
</linearGradient>
<linearGradient id="paint7_linear_497_8016" x1="388.175" y1="172.795" x2="377.228" y2="204.069" gradientUnits="userSpaceOnUse">
<stop stop-color="#AAC76F"/>
<stop offset="1" stop-color="#51823B"/>
</linearGradient>
<linearGradient id="paint8_linear_497_8016" x1="212.623" y1="170.261" x2="226.267" y2="215.037" gradientUnits="userSpaceOnUse">
<stop stop-color="#AAC76F"/>
<stop offset="1" stop-color="#51823B"/>
</linearGradient>
<linearGradient id="paint9_linear_497_8016" x1="311.285" y1="366.19" x2="327.189" y2="433.992" gradientUnits="userSpaceOnUse">
<stop stop-color="white"/>
<stop offset="1" stop-color="#DDF1F3"/>
</linearGradient>
<linearGradient id="paint10_linear_497_8016" x1="319.286" y1="49.746" x2="318.287" y2="69.7771" gradientUnits="userSpaceOnUse">
<stop stop-color="#AAC76F"/>
<stop offset="1" stop-color="#51823B"/>
</linearGradient>
<linearGradient id="paint11_linear_497_8016" x1="337.745" y1="49.5546" x2="335.012" y2="77.4162" gradientUnits="userSpaceOnUse">
<stop offset="0.04" stop-color="#654B1E"/>
<stop offset="1" stop-color="#2E1D12"/>
</linearGradient>
<linearGradient id="paint12_linear_497_8016" x1="304.659" y1="41.4369" x2="411.182" y2="182.988" gradientUnits="userSpaceOnUse">
<stop stop-color="#AAC76F"/>
<stop offset="1" stop-color="#51823B"/>
</linearGradient>
<linearGradient id="paint13_linear_497_8016" x1="304.979" y1="8.47641" x2="328.448" y2="117.35" gradientUnits="userSpaceOnUse">
<stop stop-color="#AAC76F"/>
<stop offset="1" stop-color="#51823B"/>
</linearGradient>
<linearGradient id="paint14_linear_497_8016" x1="164.149" y1="548.585" x2="229.571" y2="510.237" gradientUnits="userSpaceOnUse">
<stop stop-color="#E8E8EB"/>
<stop offset="1" stop-color="#D3D3D3"/>
</linearGradient>
<linearGradient id="paint15_linear_497_8016" x1="196.589" y1="482.037" x2="227.053" y2="466.107" gradientUnits="userSpaceOnUse">
<stop stop-color="#E8E8EB"/>
<stop offset="1" stop-color="#D3D3D3"/>
</linearGradient>
<linearGradient id="paint16_linear_497_8016" x1="238.408" y1="349.722" x2="381.185" y2="586.364" gradientUnits="userSpaceOnUse">
<stop stop-color="#E8E8EB"/>
<stop offset="1" stop-color="#D3D3D3"/>
</linearGradient>
<linearGradient id="paint17_linear_497_8016" x1="236.369" y1="350.702" x2="359.818" y2="555.316" gradientUnits="userSpaceOnUse">
<stop stop-color="white"/>
<stop offset="1" stop-color="white" stop-opacity="0"/>
</linearGradient>
<linearGradient id="paint18_linear_497_8016" x1="258.845" y1="388.056" x2="319.61" y2="488.77" gradientUnits="userSpaceOnUse">
<stop stop-color="white"/>
<stop offset="1" stop-color="white" stop-opacity="0"/>
</linearGradient>
<linearGradient id="paint19_linear_497_8016" x1="227.143" y1="326.714" x2="317.965" y2="513.064" gradientUnits="userSpaceOnUse">
<stop stop-color="#E8E8EB"/>
<stop offset="1" stop-color="#D3D3D3"/>
</linearGradient>
<linearGradient id="paint20_linear_497_8016" x1="148.798" y1="228.997" x2="278.519" y2="411.101" gradientUnits="userSpaceOnUse">
<stop stop-color="#E8E8EB"/>
<stop offset="1" stop-color="#D3D3D3"/>
</linearGradient>
<linearGradient id="paint21_linear_497_8016" x1="529.32" y1="206.501" x2="529.32" y2="223.462" gradientUnits="userSpaceOnUse">
<stop stop-color="#AAC76F"/>
<stop offset="1" stop-color="#51823B"/>
</linearGradient>
<linearGradient id="paint22_linear_497_8016" x1="497.87" y1="276.866" x2="586.987" y2="359.685" gradientUnits="userSpaceOnUse">
<stop stop-color="#AAC76F"/>
<stop offset="1" stop-color="#51823B"/>
</linearGradient>
<linearGradient id="paint23_linear_497_8016" x1="466.955" y1="294.187" x2="524.764" y2="337.768" gradientUnits="userSpaceOnUse">
<stop stop-color="#AAC76F"/>
<stop offset="1" stop-color="#51823B"/>
</linearGradient>
<linearGradient id="paint24_linear_497_8016" x1="546.743" y1="289.612" x2="618.213" y2="333.057" gradientUnits="userSpaceOnUse">
<stop stop-color="#AAC76F"/>
<stop offset="1" stop-color="#51823B"/>
</linearGradient>
<linearGradient id="paint25_linear_497_8016" x1="508.864" y1="230.925" x2="556.413" y2="321.182" gradientUnits="userSpaceOnUse">
<stop stop-color="#DBE8C4"/>
<stop offset="1" stop-color="#AAC76F"/>
</linearGradient>
<linearGradient id="paint26_linear_497_8016" x1="521.994" y1="192.4" x2="532.38" y2="207.488" gradientUnits="userSpaceOnUse">
<stop stop-color="#6B6865"/>
<stop offset="1" stop-color="#51504D"/>
</linearGradient>
<linearGradient id="paint27_linear_497_8016" x1="534.638" y1="366.572" x2="542.32" y2="397.001" gradientUnits="userSpaceOnUse">
<stop stop-color="white"/>
<stop offset="1" stop-color="#DDF1F3"/>
</linearGradient>
<linearGradient id="paint28_linear_497_8016" x1="16.7069" y1="202.653" x2="96.7967" y2="296.199" gradientUnits="userSpaceOnUse">
<stop stop-color="white"/>
<stop offset="1" stop-color="#DDF1F3"/>
</linearGradient>
<linearGradient id="paint29_linear_497_8016" x1="528.475" y1="228.813" x2="537.582" y2="248.306" gradientUnits="userSpaceOnUse">
<stop stop-color="#AAC76F"/>
<stop offset="1" stop-color="#51823B"/>
</linearGradient>
<linearGradient id="paint30_linear_497_8016" x1="512.451" y1="235.873" x2="521.213" y2="255.848" gradientUnits="userSpaceOnUse">
<stop stop-color="#AAC76F"/>
<stop offset="1" stop-color="#51823B"/>
</linearGradient>
<linearGradient id="paint31_linear_497_8016" x1="67.9503" y1="202.696" x2="67.9503" y2="220.336" gradientUnits="userSpaceOnUse">
<stop stop-color="#AAC76F"/>
<stop offset="1" stop-color="#51823B"/>
</linearGradient>
<linearGradient id="paint32_linear_497_8016" x1="35.4272" y1="275.683" x2="128.556" y2="361.496" gradientUnits="userSpaceOnUse">
<stop stop-color="#AAC76F"/>
<stop offset="1" stop-color="#51823B"/>
</linearGradient>
<linearGradient id="paint33_linear_497_8016" x1="3.75229" y1="294.245" x2="63.2174" y2="337.317" gradientUnits="userSpaceOnUse">
<stop stop-color="#AAC76F"/>
<stop offset="1" stop-color="#51823B"/>
</linearGradient>
<linearGradient id="paint34_linear_497_8016" x1="87.0109" y1="289.403" x2="160.779" y2="333.167" gradientUnits="userSpaceOnUse">
<stop stop-color="#AAC76F"/>
<stop offset="1" stop-color="#51823B"/>
</linearGradient>
<linearGradient id="paint35_linear_497_8016" x1="46.3197" y1="227.573" x2="96.3423" y2="322.663" gradientUnits="userSpaceOnUse">
<stop stop-color="#DBE8C4"/>
<stop offset="1" stop-color="#AAC76F"/>
</linearGradient>
<linearGradient id="paint36_linear_497_8016" x1="60.7623" y1="187.563" x2="71.7769" y2="203.353" gradientUnits="userSpaceOnUse">
<stop stop-color="#D2A651"/>
<stop offset="1" stop-color="#B2752C"/>
</linearGradient>
<linearGradient id="paint37_linear_497_8016" x1="67.0059" y1="225.902" x2="76.1032" y2="246.138" gradientUnits="userSpaceOnUse">
<stop stop-color="#AAC76F"/>
<stop offset="1" stop-color="#51823B"/>
</linearGradient>
<linearGradient id="paint38_linear_497_8016" x1="50.7305" y1="233.011" x2="59.9376" y2="253.386" gradientUnits="userSpaceOnUse">
<stop stop-color="#AAC76F"/>
<stop offset="1" stop-color="#51823B"/>
</linearGradient>
<linearGradient id="paint39_linear_497_8016" x1="315.49" y1="-1.06389" x2="324.214" y2="57.8868" gradientUnits="userSpaceOnUse">
<stop stop-color="#DBE8C4"/>
<stop offset="1" stop-color="#AAC76F"/>
</linearGradient>
<linearGradient id="paint40_linear_497_8016" x1="314.864" y1="109.522" x2="333.775" y2="170.204" gradientUnits="userSpaceOnUse">
<stop stop-color="#AAC76F"/>
<stop offset="1" stop-color="#51823B"/>
</linearGradient>
<linearGradient id="paint41_linear_497_8016" x1="282.564" y1="119.589" x2="301.475" y2="180.27" gradientUnits="userSpaceOnUse">
<stop stop-color="#AAC76F"/>
<stop offset="1" stop-color="#51823B"/>
</linearGradient>
<linearGradient id="paint42_linear_497_8016" x1="296.584" y1="50.3499" x2="297.14" y2="66.4716" gradientUnits="userSpaceOnUse">
<stop offset="0.04" stop-color="#654B1E"/>
<stop offset="1" stop-color="#2E1D12"/>
</linearGradient>
<linearGradient id="paint43_linear_497_8016" x1="72.8434" y1="369.96" x2="80.903" y2="401.757" gradientUnits="userSpaceOnUse">
<stop stop-color="white"/>
<stop offset="1" stop-color="#DDF1F3"/>
</linearGradient>
</defs>
</svg>
