<svg width="1376" height="918" viewBox="0 0 1376 918" fill="none" xmlns="http://www.w3.org/2000/svg">
<g clip-path="url(#clip0_497_8112)">
<path d="M1085.51 517.649C1101.49 418.396 1078.39 315.351 1023.44 241.714C963.641 161.568 853.443 103.675 754.362 135.043C665.013 163.333 598.648 253.191 507.767 277.021C466.19 287.925 423.893 283.103 381.928 283.047C339.963 282.991 295.193 288.79 259.705 317.081C212.162 354.969 192.669 426.652 201.49 487.946C210.31 549.241 242.743 601.319 280.236 644.98C324.55 696.588 378.317 740.043 441.331 758.706C538.357 787.444 644.371 755.108 746.968 744.419C795.216 739.393 843.652 739.178 891.624 729.26C939.596 719.341 988.268 698.527 1023.85 659.106C1057.02 622.354 1076.03 572.355 1084.71 522.404C1085 520.817 1085.26 519.232 1085.51 517.649Z" fill="#C7D2F9"/>
<path d="M401.86 715.722C500.657 715.722 580.748 712.063 580.748 707.548C580.748 703.034 500.657 699.375 401.86 699.375C303.062 699.375 222.971 703.034 222.971 707.548C222.971 712.063 303.062 715.722 401.86 715.722Z" fill="#95ABE8"/>
<path d="M349.607 654.565L290.369 679.436L290.61 680.011L349.848 655.141L349.607 654.565Z" fill="#91B0DC"/>
<path d="M290.527 654.808L290.291 655.385L349.743 679.738L349.979 679.161L290.527 654.808Z" fill="#91B0DC"/>
<path d="M332.108 637.412L307.576 696.826L308.152 697.065L332.684 637.65L332.108 637.412Z" fill="#91B0DC"/>
<path d="M308.111 637.454L307.535 637.693L332.15 697.073L332.725 696.834L308.111 637.454Z" fill="#91B0DC"/>
<path d="M320.131 626.97C312.168 626.97 304.384 629.333 297.764 633.76C291.143 638.187 285.983 644.48 282.936 651.842C279.889 659.203 279.091 667.304 280.645 675.119C282.198 682.935 286.032 690.114 291.663 695.748C297.293 701.383 304.467 705.22 312.277 706.774C320.086 708.329 328.181 707.531 335.538 704.482C342.894 701.432 349.182 696.268 353.606 689.643C358.029 683.017 360.391 675.228 360.391 667.259C360.391 656.574 356.149 646.326 348.599 638.771C341.049 631.215 330.808 626.97 320.131 626.97ZM320.131 699.401C313.779 699.401 307.569 697.515 302.288 693.983C297.006 690.451 292.89 685.431 290.459 679.558C288.029 673.684 287.393 667.222 288.633 660.987C289.873 654.752 292.932 649.026 297.424 644.531C301.916 640.036 307.639 636.975 313.869 635.735C320.099 634.495 326.557 635.132 332.426 637.565C338.294 639.997 343.31 644.117 346.84 649.403C350.369 654.688 352.252 660.903 352.252 667.259C352.252 671.481 351.421 675.66 349.807 679.56C348.193 683.46 345.827 687.003 342.844 689.988C339.861 692.973 336.32 695.34 332.423 696.955C328.526 698.571 324.349 699.402 320.131 699.401Z" fill="#202426"/>
<path d="M320.757 635.115H319.508V699.401H320.757V635.115Z" fill="#91B0DC"/>
<path d="M352.253 666.636H288.014V667.886H352.253V666.636Z" fill="#91B0DC"/>
<path d="M297.862 644.087L296.979 644.971L342.403 690.429L343.286 689.545L297.862 644.087Z" fill="#91B0DC"/>
<path d="M342.407 644.089L296.982 689.547L297.866 690.431L343.29 644.973L342.407 644.089Z" fill="#91B0DC"/>
<path d="M324.301 666.868C324.301 667.695 324.056 668.502 323.598 669.189C323.139 669.877 322.487 670.412 321.724 670.728C320.961 671.044 320.122 671.127 319.312 670.966C318.502 670.805 317.758 670.407 317.174 669.823C316.59 669.238 316.192 668.494 316.031 667.683C315.87 666.873 315.953 666.033 316.269 665.269C316.585 664.506 317.12 663.853 317.807 663.394C318.493 662.935 319.3 662.69 320.126 662.69C321.234 662.69 322.295 663.13 323.078 663.914C323.861 664.697 324.301 665.76 324.301 666.868Z" fill="#294A71"/>
<path d="M501.719 610.708C502.119 611.912 508.608 627.441 508.608 627.441L489.053 640.482L482.67 617.329L501.719 610.708Z" fill="#294A71"/>
<path d="M265.67 596.132H232.693C232.41 596.132 232.131 596.055 231.888 595.909C231.645 595.763 231.447 595.553 231.314 595.302L226.26 585.746C226.148 585.535 226.086 585.3 226.079 585.061C226.072 584.822 226.12 584.585 226.219 584.367C226.318 584.15 226.466 583.958 226.651 583.807C226.836 583.655 227.053 583.549 227.286 583.495C227.621 583.417 227.973 583.451 228.286 583.594C228.6 583.737 228.857 583.979 229.018 584.283L233.193 592.181C233.326 592.431 233.525 592.64 233.768 592.787C234.011 592.933 234.289 593.01 234.572 593.01H265.67C266.084 593.01 266.481 593.175 266.774 593.468C267.067 593.761 267.231 594.158 267.231 594.573C267.231 594.778 267.191 594.981 267.113 595.17C267.034 595.36 266.919 595.532 266.774 595.676C266.629 595.821 266.457 595.936 266.267 596.014C266.078 596.092 265.875 596.133 265.67 596.132Z" fill="#3B4EA8"/>
<path d="M271.396 585.119H212.928C212.709 585.119 212.493 585.076 212.291 584.992C212.089 584.909 211.906 584.786 211.751 584.631C211.597 584.477 211.474 584.293 211.39 584.091C211.307 583.889 211.264 583.672 211.264 583.454C211.264 583.012 211.439 582.588 211.751 582.276C212.063 581.964 212.486 581.788 212.928 581.788H271.396C271.837 581.788 272.261 581.964 272.573 582.276C272.885 582.588 273.06 583.012 273.06 583.454C273.06 583.672 273.017 583.889 272.934 584.091C272.85 584.293 272.727 584.477 272.573 584.631C272.418 584.786 272.235 584.909 272.033 584.992C271.831 585.076 271.615 585.119 271.396 585.119Z" fill="#19226F"/>
<path d="M550.667 654.541L491.43 679.412L491.671 679.987L550.909 655.117L550.667 654.541Z" fill="#91B0DC"/>
<path d="M491.57 654.808L491.334 655.385L550.786 679.738L551.022 679.16L491.57 654.808Z" fill="#91B0DC"/>
<path d="M533.141 637.395L508.609 696.809L509.185 697.047L533.717 637.633L533.141 637.395Z" fill="#91B0DC"/>
<path d="M509.152 637.454L508.576 637.693L533.191 697.073L533.766 696.834L509.152 637.454Z" fill="#91B0DC"/>
<path d="M521.172 626.97C513.209 626.97 505.425 629.333 498.805 633.76C492.184 638.187 487.024 644.48 483.977 651.842C480.93 659.203 480.132 667.304 481.686 675.119C483.239 682.935 487.074 690.114 492.704 695.748C498.334 701.383 505.508 705.22 513.318 706.774C521.127 708.329 529.222 707.531 536.579 704.482C543.935 701.432 550.223 696.268 554.647 689.643C559.07 683.017 561.432 675.228 561.432 667.259C561.432 656.574 557.19 646.326 549.64 638.771C542.09 631.215 531.849 626.97 521.172 626.97ZM521.172 699.401C514.82 699.401 508.61 697.515 503.329 693.983C498.047 690.451 493.931 685.431 491.5 679.558C489.07 673.684 488.434 667.222 489.674 660.987C490.914 654.752 493.973 649.026 498.465 644.531C502.957 640.036 508.68 636.975 514.91 635.735C521.14 634.495 527.598 635.132 533.467 637.565C539.335 639.997 544.351 644.117 547.881 649.403C551.41 654.688 553.293 660.903 553.293 667.259C553.293 671.481 552.462 675.66 550.848 679.56C549.234 683.46 546.868 687.003 543.885 689.988C540.902 692.973 537.361 695.34 533.464 696.955C529.567 698.571 525.39 699.402 521.172 699.401Z" fill="#202426"/>
<path d="M521.798 635.115H520.549V699.401H521.798V635.115Z" fill="#91B0DC"/>
<path d="M553.293 666.636H489.053V667.886H553.293V666.636Z" fill="#91B0DC"/>
<path d="M498.903 644.088L498.02 644.972L543.444 690.429L544.328 689.545L498.903 644.088Z" fill="#91B0DC"/>
<path d="M543.446 644.09L498.021 689.547L498.905 690.431L544.329 644.974L543.446 644.09Z" fill="#91B0DC"/>
<path d="M498.018 638.631L520.651 667.78L522.941 666.321L512.122 634.05L498.018 638.631Z" fill="#91B0DC"/>
<path d="M525.346 666.868C525.346 667.695 525.101 668.502 524.643 669.189C524.184 669.877 523.532 670.412 522.769 670.728C522.006 671.044 521.167 671.127 520.357 670.966C519.547 670.805 518.803 670.407 518.219 669.823C517.635 669.238 517.237 668.494 517.076 667.683C516.915 666.873 516.998 666.033 517.314 665.269C517.63 664.506 518.165 663.853 518.852 663.394C519.538 662.935 520.345 662.69 521.171 662.69C522.278 662.69 523.34 663.13 524.123 663.914C524.906 664.697 525.346 665.76 525.346 666.868Z" fill="#294A71"/>
<path d="M375.374 581.788H264.891C262.22 581.788 260.055 583.955 260.055 586.628V586.631C260.055 589.305 262.22 591.471 264.891 591.471H375.374C378.045 591.471 380.211 589.305 380.211 586.631V586.628C380.211 583.955 378.045 581.788 375.374 581.788Z" fill="#3B4EA8"/>
<path d="M517.532 610.729C512.954 615.934 495.06 613.227 489.236 623.013C483.411 632.799 476.752 653.413 469.26 654.246C461.769 655.078 263.213 654.246 263.213 654.246V591.469H376.465C376.465 591.469 387.076 631.449 394.253 637.369C401.43 643.288 450.743 639.867 458.858 634.871C465.508 630.778 471.598 618.853 472.321 604.368C472.484 601.066 472.365 597.757 471.965 594.476C469.675 575.736 456.988 527.432 457.817 522.227C458.646 517.022 462.601 508.066 469.054 505.989C475.508 503.911 481.953 505.777 482.162 505.989C482.37 506.2 483.202 518.897 482.162 520.562C481.121 522.227 477.163 524.307 477.163 527.847C477.163 531.387 500.467 568.657 508.376 581.777C516.285 594.896 522.107 605.527 517.532 610.729Z" fill="#19226F"/>
<path d="M482.162 520.886C484.992 520.886 487.287 517.553 487.287 513.442C487.287 509.33 484.992 505.997 482.162 505.997C479.332 505.997 477.037 509.33 477.037 513.442C477.037 517.553 479.332 520.886 482.162 520.886Z" fill="#273693"/>
<path d="M491.524 588.462C491.524 588.462 503.579 595.959 500.471 600.525C497.363 605.091 487.155 600.316 485.073 594.484C482.992 588.653 488.099 586.019 491.524 588.462Z" fill="#273693"/>
<path d="M476.627 663.461C474.322 660.401 473.028 653.631 474.399 650.082C477.515 642.006 485.31 630.41 498.29 621.971C517.06 609.77 542.569 618.226 547.944 623.443C551.44 626.829 554.301 632.858 552.942 637.719C552.869 638.107 552.661 638.458 552.354 638.707C552.025 638.885 551.651 638.962 551.278 638.928C537.327 638.984 524.067 636.618 510.739 642.388C492.478 650.291 481.305 669.669 478.953 666.53L476.627 663.461Z" fill="#273693"/>
<path d="M317.5 465.244H238.186C237.767 465.244 237.428 465.583 237.428 466.003V475.465C237.428 475.884 237.767 476.224 238.186 476.224H317.5C317.919 476.224 318.259 475.884 318.259 475.465V466.003C318.259 465.583 317.919 465.244 317.5 465.244Z" fill="#FFD28C"/>
<path d="M311.519 476.224H242.578V499.336H311.519V476.224Z" fill="#F89C24"/>
<path d="M283.979 485.025H270.304C269.613 485.025 268.951 484.75 268.462 484.261C267.974 483.772 267.699 483.109 267.699 482.418C267.699 481.726 267.974 481.063 268.462 480.574C268.951 480.086 269.613 479.811 270.304 479.811H283.979C284.669 479.812 285.331 480.087 285.819 480.576C286.307 481.064 286.581 481.727 286.581 482.418C286.581 483.109 286.307 483.771 285.819 484.26C285.331 484.749 284.669 485.024 283.979 485.025Z" fill="#D55F47"/>
<path d="M276.597 500.69C275.661 500.69 274.763 500.318 274.102 499.655C273.44 498.993 273.068 498.095 273.068 497.159V465.294C273.068 464.357 273.44 463.459 274.102 462.797C274.763 462.135 275.661 461.763 276.597 461.763C277.532 461.763 278.43 462.135 279.091 462.797C279.753 463.459 280.125 464.357 280.125 465.294V497.15C280.126 497.614 280.036 498.074 279.859 498.504C279.682 498.933 279.422 499.323 279.095 499.652C278.767 499.981 278.377 500.242 277.949 500.42C277.52 500.598 277.061 500.69 276.597 500.69Z" fill="#D55F47"/>
<path d="M335.911 499.336H221.339C220.486 499.336 219.795 500.028 219.795 500.881V580.244C219.795 581.097 220.486 581.788 221.339 581.788H335.911C336.764 581.788 337.455 581.097 337.455 580.244V500.881C337.455 500.028 336.764 499.336 335.911 499.336Z" fill="#F8BF15"/>
<path d="M249.979 513.286H230.597C229.342 513.286 228.324 514.304 228.324 515.56V523.504C228.324 524.76 229.342 525.779 230.597 525.779H249.979C251.234 525.779 252.251 524.76 252.251 523.504V515.56C252.251 514.304 251.234 513.286 249.979 513.286Z" fill="white"/>
<path d="M326.13 550.888H290.728C289.473 550.888 288.455 551.907 288.455 553.163V572.226C288.455 573.482 289.473 574.5 290.728 574.5H326.13C327.386 574.5 328.403 573.482 328.403 572.226V553.163C328.403 551.907 327.386 550.888 326.13 550.888Z" fill="#F59581"/>
<path d="M323.634 553.263H293.224C291.969 553.263 290.951 554.281 290.951 555.537V569.851C290.951 571.108 291.969 572.126 293.224 572.126H323.634C324.889 572.126 325.907 571.108 325.907 569.851V555.537C325.907 554.281 324.889 553.263 323.634 553.263Z" fill="white"/>
<path d="M248.465 551.603H230.236C229.729 551.603 229.242 551.401 228.883 551.042C228.524 550.683 228.322 550.196 228.322 549.688C228.322 549.18 228.524 548.693 228.883 548.333C229.242 547.974 229.729 547.772 230.236 547.772H248.465C248.717 547.772 248.966 547.821 249.198 547.917C249.431 548.013 249.642 548.155 249.82 548.333C249.997 548.51 250.138 548.722 250.235 548.954C250.331 549.187 250.38 549.436 250.379 549.688C250.38 549.939 250.331 550.189 250.235 550.421C250.138 550.654 249.997 550.865 249.82 551.043C249.642 551.221 249.431 551.362 249.198 551.458C248.966 551.554 248.717 551.604 248.465 551.603Z" fill="white"/>
<path d="M238.374 560.966H230.238C229.731 560.966 229.244 560.764 228.885 560.405C228.526 560.045 228.324 559.558 228.324 559.05C228.324 558.542 228.526 558.055 228.885 557.696C229.244 557.337 229.731 557.135 230.238 557.135H238.374C238.625 557.134 238.874 557.184 239.107 557.28C239.339 557.376 239.55 557.517 239.728 557.695C239.906 557.873 240.047 558.084 240.143 558.317C240.239 558.549 240.288 558.799 240.288 559.05C240.288 559.302 240.239 559.551 240.143 559.784C240.047 560.016 239.906 560.228 239.728 560.405C239.55 560.583 239.339 560.725 239.107 560.821C238.874 560.917 238.625 560.966 238.374 560.966Z" fill="white"/>
<path d="M325.242 516.766H294.899C294.392 516.766 293.904 516.565 293.545 516.206C293.186 515.846 292.983 515.359 292.982 514.851C292.982 514.599 293.032 514.35 293.128 514.117C293.225 513.885 293.366 513.673 293.544 513.495C293.722 513.318 293.933 513.176 294.166 513.08C294.399 512.984 294.648 512.935 294.899 512.935H325.242C325.75 512.935 326.236 513.137 326.595 513.496C326.954 513.856 327.156 514.343 327.156 514.851C327.155 515.359 326.953 515.845 326.595 516.204C326.236 516.564 325.749 516.766 325.242 516.766Z" fill="white"/>
<path d="M309.6 526.129H294.899C294.648 526.129 294.399 526.08 294.166 525.984C293.933 525.888 293.722 525.747 293.544 525.569C293.366 525.391 293.225 525.18 293.128 524.947C293.032 524.714 292.982 524.465 292.982 524.213C292.982 523.962 293.032 523.712 293.128 523.48C293.225 523.247 293.366 523.036 293.544 522.858C293.722 522.68 293.933 522.539 294.166 522.443C294.399 522.347 294.648 522.297 294.899 522.298H309.6C309.852 522.297 310.101 522.347 310.333 522.443C310.566 522.539 310.777 522.68 310.955 522.858C311.132 523.036 311.273 523.247 311.369 523.48C311.465 523.712 311.515 523.962 311.514 524.213C311.515 524.465 311.465 524.714 311.369 524.947C311.273 525.179 311.132 525.391 310.955 525.569C310.777 525.747 310.566 525.888 310.333 525.984C310.101 526.08 309.852 526.129 309.6 526.129Z" fill="white"/>
<path d="M276.597 593.655C275.661 593.655 274.763 593.283 274.102 592.621C273.44 591.958 273.068 591.06 273.068 590.124V501.416C273.068 500.48 273.44 499.582 274.102 498.92C274.763 498.257 275.661 497.886 276.597 497.886C277.532 497.886 278.43 498.257 279.091 498.92C279.753 499.582 280.125 500.48 280.125 501.416V590.115C280.126 590.58 280.036 591.04 279.859 591.469C279.682 591.898 279.422 592.289 279.095 592.617C278.767 592.946 278.377 593.207 277.949 593.385C277.52 593.563 277.061 593.655 276.597 593.655Z" fill="#D55F47"/>
<path d="M457.456 513.433L468.72 513.115C468.827 513.112 468.934 513.131 469.035 513.17C469.135 513.21 469.226 513.268 469.304 513.343C469.381 513.419 469.442 513.508 469.484 513.608C469.527 513.707 469.548 513.813 469.549 513.921V514.239C469.549 514.453 469.464 514.658 469.313 514.809C469.162 514.96 468.957 515.045 468.743 515.045H457.491C457.277 515.045 457.073 514.96 456.921 514.809C456.77 514.658 456.686 514.453 456.686 514.239C456.686 514.031 456.766 513.832 456.91 513.682C457.053 513.532 457.249 513.443 457.456 513.433Z" fill="#273693"/>
<path d="M263.211 598.251H350.828C351.995 598.25 353.126 598.649 354.035 599.38C354.944 600.112 355.576 601.132 355.826 602.273L367.275 654.546H268.394L263.211 598.251Z" fill="#273693"/>
<path d="M365.54 636.445H264.954C261.502 636.445 258.703 639.245 258.703 642.7V656.438C258.703 659.892 261.502 662.693 264.954 662.693H365.54C368.992 662.693 371.791 659.892 371.791 656.438V642.7C371.791 639.245 368.992 636.445 365.54 636.445Z" fill="#576DBC"/>
<path d="M341.51 602.355H244.449C239.623 602.355 235.711 606.27 235.711 611.1V665.491C235.711 670.321 239.623 674.236 244.449 674.236H341.51C346.336 674.236 350.248 670.321 350.248 665.491V611.1C350.248 606.27 346.336 602.355 341.51 602.355Z" fill="#F89C24"/>
<path d="M251.678 667.224H243.219C242.819 667.224 242.436 667.065 242.153 666.782C241.87 666.499 241.711 666.115 241.711 665.715C241.711 665.314 241.87 664.93 242.153 664.646C242.435 664.363 242.819 664.203 243.219 664.202H251.678C252.079 664.202 252.463 664.362 252.747 664.645C253.03 664.929 253.189 665.314 253.189 665.715C253.189 666.115 253.029 666.499 252.746 666.782C252.462 667.065 252.078 667.224 251.678 667.224Z" fill="#D55F47"/>
<path d="M266.885 667.224H258.441C258.041 667.224 257.657 667.065 257.373 666.782C257.09 666.499 256.93 666.115 256.93 665.715C256.93 665.314 257.089 664.929 257.372 664.645C257.656 664.362 258.04 664.202 258.441 664.202H266.9C267.098 664.202 267.295 664.242 267.478 664.318C267.661 664.394 267.827 664.505 267.967 664.646C268.107 664.786 268.219 664.953 268.294 665.136C268.37 665.32 268.409 665.516 268.408 665.715C268.408 665.914 268.369 666.112 268.292 666.296C268.215 666.48 268.103 666.647 267.961 666.787C267.82 666.928 267.652 667.039 267.467 667.114C267.282 667.189 267.084 667.226 266.885 667.224Z" fill="#D55F47"/>
<path d="M282.088 667.224H273.629C273.229 667.224 272.846 667.065 272.563 666.782C272.28 666.499 272.121 666.115 272.121 665.715C272.121 665.314 272.28 664.93 272.563 664.646C272.845 664.363 273.229 664.203 273.629 664.202H282.088C282.489 664.202 282.873 664.362 283.157 664.645C283.44 664.929 283.6 665.314 283.6 665.715C283.599 666.115 283.439 666.499 283.156 666.782C282.873 667.065 282.489 667.224 282.088 667.224Z" fill="#D55F47"/>
<path d="M297.296 667.224H288.837C288.437 667.224 288.053 667.065 287.77 666.782C287.487 666.499 287.327 666.115 287.326 665.715C287.326 665.314 287.485 664.929 287.769 664.645C288.052 664.362 288.437 664.202 288.837 664.202H297.296C297.495 664.202 297.691 664.242 297.874 664.318C298.057 664.394 298.224 664.505 298.364 664.646C298.504 664.786 298.615 664.953 298.691 665.136C298.766 665.32 298.805 665.516 298.805 665.715C298.805 666.115 298.646 666.499 298.363 666.782C298.08 667.065 297.696 667.224 297.296 667.224Z" fill="#D55F47"/>
<path d="M312.498 667.224H304.04C303.64 667.224 303.256 667.065 302.973 666.782C302.69 666.499 302.531 666.115 302.531 665.715C302.531 665.314 302.69 664.93 302.973 664.646C303.256 664.363 303.639 664.203 304.04 664.202H312.498C312.899 664.202 313.284 664.362 313.567 664.645C313.85 664.929 314.01 665.314 314.01 665.715C314.009 666.115 313.849 666.499 313.566 666.782C313.283 667.065 312.899 667.224 312.498 667.224Z" fill="#D55F47"/>
<path d="M327.706 667.224H319.248C318.847 667.224 318.463 667.065 318.18 666.782C317.897 666.499 317.737 666.115 317.736 665.715C317.736 665.314 317.896 664.929 318.179 664.645C318.462 664.362 318.847 664.202 319.248 664.202H327.706C328.107 664.202 328.492 664.362 328.775 664.645C329.058 664.929 329.218 665.314 329.218 665.715C329.217 666.115 329.057 666.499 328.774 666.782C328.491 667.065 328.107 667.224 327.706 667.224Z" fill="#D55F47"/>
<path d="M342.909 667.224H334.45C334.252 667.224 334.056 667.185 333.873 667.109C333.69 667.033 333.523 666.922 333.383 666.782C333.243 666.642 333.132 666.476 333.056 666.292C332.98 666.109 332.941 665.913 332.941 665.715C332.941 665.314 333.1 664.93 333.383 664.646C333.666 664.363 334.049 664.203 334.45 664.202H342.909C343.107 664.202 343.304 664.242 343.487 664.318C343.67 664.394 343.837 664.505 343.977 664.645C344.118 664.786 344.229 664.953 344.305 665.136C344.381 665.32 344.42 665.516 344.42 665.715C344.419 666.115 344.259 666.499 343.976 666.782C343.693 667.065 343.309 667.224 342.909 667.224Z" fill="#D55F47"/>
<path d="M350.335 608.763V632.302C350.334 634.475 349.471 636.558 347.936 638.094C346.4 639.63 344.318 640.493 342.147 640.493H243.98C241.811 640.491 239.731 639.627 238.197 638.091C236.663 636.555 235.802 634.473 235.801 632.302V608.763C235.801 608.209 235.91 607.66 236.122 607.148C236.334 606.635 236.645 606.17 237.037 605.778C237.428 605.386 237.893 605.075 238.405 604.863C238.917 604.65 239.466 604.541 240.02 604.541H346.116C347.235 604.541 348.308 604.986 349.099 605.778C349.891 606.57 350.335 607.644 350.335 608.763Z" fill="#95ABE8"/>
<path d="M350.251 606.577V630.101C350.25 632.274 349.387 634.357 347.852 635.894C346.316 637.43 344.234 638.293 342.063 638.293H243.899C241.728 638.293 239.646 637.43 238.11 635.894C236.575 634.357 235.712 632.274 235.711 630.101V606.577C235.711 605.46 236.154 604.387 236.943 603.596C237.731 602.804 238.801 602.358 239.918 602.355H346.02C346.575 602.354 347.125 602.462 347.638 602.673C348.152 602.885 348.618 603.195 349.011 603.588C349.404 603.98 349.716 604.446 349.929 604.959C350.142 605.472 350.251 606.022 350.251 606.577Z" fill="#F8BF15"/>
<path d="M296.342 641.909H289.789C289.369 641.909 288.953 641.826 288.565 641.665C288.176 641.504 287.824 641.268 287.527 640.971C287.23 640.674 286.994 640.321 286.833 639.932C286.673 639.544 286.59 639.128 286.59 638.707C286.59 637.858 286.927 637.044 287.527 636.444C288.127 635.843 288.94 635.506 289.789 635.506H296.342C297.191 635.506 298.004 635.843 298.604 636.444C299.204 637.044 299.541 637.858 299.541 638.707C299.541 639.128 299.459 639.544 299.298 639.932C299.137 640.321 298.901 640.674 298.604 640.971C298.307 641.268 297.955 641.504 297.567 641.665C297.178 641.826 296.762 641.909 296.342 641.909Z" fill="white"/>
<g opacity="0.39">
<path d="M477.037 533.558C479.463 536.692 509.564 584.484 507.144 584.66C504.725 584.837 494.361 580.965 490.371 577.346C486.381 573.726 477.037 533.558 477.037 533.558Z" fill="#AED8AB"/>
</g>
<path d="M472.9 604.459C472.9 604.459 471.642 631.075 466.049 636.445C460.457 641.814 400.06 645.522 393.745 644.095C387.429 642.668 371.79 594.958 371.79 594.958H263.213V591.474H376.465C376.465 591.474 387.076 631.455 394.253 637.374C401.43 643.294 450.743 639.872 458.858 634.876C465.508 630.784 471.597 618.859 472.321 604.374L472.9 604.459Z" fill="#202426"/>
<path d="M686.295 228.494H554.643C554.643 228.494 559.967 213.741 580.851 213.947C601.735 214.153 605.625 203.29 614.84 197.764C622.696 193.057 637.25 191.756 651.004 204.943C657.319 210.993 665.534 214.753 674.266 215.171C679.882 215.436 684.598 217.457 686.295 228.494Z" fill="#8EA7EF"/>
<path d="M359.13 378.675H268.822C268.822 378.675 272.812 372.14 287.319 371.051C294.052 370.545 299.876 367.318 304.96 363.048C309.1 359.576 312.969 355.584 318.799 355.463C325.212 355.331 331.486 358.405 336.643 361.977C346.072 368.512 353.326 376.133 355.501 376.133C357.677 376.133 359.13 378.675 359.13 378.675Z" fill="#839FED"/>
<path d="M717.316 676.992C714.935 673.721 710.554 672.37 706.532 672.679C702.51 672.988 698.72 674.712 695.13 676.584C666.904 691.295 639.596 736.816 634.33 747.234L664.117 747.746C680.467 726.753 713.391 716.302 718.963 687.629C719.666 684.004 719.489 679.967 717.316 676.992Z" fill="#27571D"/>
<path d="M696.341 615.192C678.039 603.105 659.407 629.021 650.854 641.891C637.917 661.363 628.276 682.992 620.75 705.065C619.659 708.263 609.562 746.64 609.377 746.637L615.754 746.746L625.245 746.908L628.447 746.964L634.327 747.064C634.327 747.064 661.533 695.532 687.753 665.009C700.172 650.544 708.99 623.549 696.341 615.192Z" fill="#489B33"/>
<path d="M687.82 630.857C658.192 667.048 637.954 718.947 628.446 746.964L625.244 746.908C632.715 724.84 641.927 702.617 651.438 683.51C662.299 661.684 673.769 643.336 685.524 628.974L687.82 630.857Z" fill="#27571D"/>
<path d="M539.178 628.439C529.796 618.285 514.31 607.634 501.502 604.568C484.905 600.596 482.568 619.803 485.367 632.558C488.995 649.088 504.719 659.989 514.201 672.417C531.657 695.285 538.843 710.279 551.268 745.613L575.598 746.057C575.598 746.057 573.922 666.024 539.178 628.439Z" fill="#27571D"/>
<path d="M593.165 630.684C590.116 614.354 583.563 598.359 574.448 585.204C566.186 573.285 541.345 546.898 526.279 557.191C517.568 563.143 530.231 585.337 533.556 591.995C544.344 613.577 552.794 636.598 559.301 660.239C566.83 687.585 572.384 716.287 574.057 744.942C574.081 745.304 574.098 745.669 574.116 746.031L589.784 746.299C599.631 728.98 597.552 654.178 593.165 630.684Z" fill="#489B33"/>
<path d="M645.073 556.729C639.428 541.185 613.613 562.908 596.49 605.995C581.377 644.004 582.448 704.977 589.798 746.299L605.137 746.564L607.689 746.608L615.769 746.746C627.432 730.599 661.424 601.823 645.073 556.729Z" fill="#27571D"/>
<path d="M562.37 745.954C558.254 695.02 532.16 645.136 495.857 618.876L497.348 616.817C515.739 630.122 531.816 649.441 543.838 672.688C555.599 695.438 562.89 720.706 564.907 745.754L562.37 745.954Z" fill="#489B33"/>
<path d="M582.366 746.225C581.672 707.075 578.035 672.267 571.246 639.814C564.607 608.081 554.031 585.855 538.904 571.867L540.921 569.684C549.527 577.646 556.798 588.317 562.576 601.402C567.28 612.082 571.064 624.446 574.151 639.205C580.978 671.844 584.636 706.834 585.324 746.172L582.366 746.225Z" fill="#27571D"/>
<path d="M607.674 746.608L605.122 746.564C604.01 719.406 606.201 691.107 611.822 660.113C616.527 634.191 623.668 606.374 633.674 575.08L636.096 575.854C614.674 642.894 605.627 697.212 607.674 746.608Z" fill="#489B33"/>
<path d="M648.833 747.935L646.619 746.681C659.206 724.417 674.474 707.919 685.059 698.021C696.543 687.27 704.929 681.862 705.278 681.636L706.652 683.784C706.569 683.837 698.072 689.321 686.747 699.931C676.303 709.711 661.244 725.979 648.833 747.935Z" fill="#489B33"/>
<path d="M638.066 764.067H751.725V317.934H638.066V764.067Z" fill="#3965C6"/>
<path d="M617.365 329.58H751.725V300.598H617.365V329.58Z" fill="#2C3FA8"/>
<path d="M760.106 454.594L594.352 621.514L599.716 626.849L765.47 459.928L760.106 454.594Z" fill="white"/>
<path d="M721.16 503.02H713.598V685.249H721.16V503.02Z" fill="white"/>
<path d="M671.726 552.089H664.164V734.318H671.726V552.089Z" fill="white"/>
<path d="M622.293 601.158H614.73V783.386H622.293V601.158Z" fill="white"/>
<path d="M685.319 722.854H976.176V689.368H685.319V722.854Z" fill="#26509B"/>
<path d="M646.323 756.338H937.18V722.851H646.323V756.338Z" fill="#3462A5"/>
<path d="M607.327 789.824H898.184V756.338H607.327V789.824Z" fill="#26509B"/>
<path d="M976.174 689.368V722.854H937.179V756.341H898.184V789.824H1089.47V689.368H976.174Z" fill="#18427F"/>
<path d="M1089.46 105.923H751.725V689.368H1089.46V105.923Z" fill="#758BEA"/>
<path d="M966.816 383.715H1064.54V228.494H966.816V383.715Z" fill="#7D9FEA"/>
<path d="M1038.87 228.494H1035.02V383.715H1038.87V228.494Z" fill="white"/>
<path d="M1036.94 253.233H966.812V257.09H1036.94V253.233Z" fill="white"/>
<path d="M1064.53 385.534H966.814C966.333 385.533 965.871 385.341 965.531 385C965.191 384.659 965 384.197 965 383.715V228.494C965 228.012 965.191 227.55 965.531 227.209C965.871 226.868 966.333 226.676 966.814 226.675H1064.53C1065.02 226.675 1065.48 226.867 1065.82 227.208C1066.16 227.549 1066.35 228.012 1066.35 228.494V383.715C1066.35 384.197 1066.16 384.66 1065.82 385.001C1065.48 385.342 1065.02 385.534 1064.53 385.534ZM968.631 381.912H1062.72V230.312H968.631V381.912Z" fill="white"/>
<mask id="mask0_497_8112" style="mask-type:luminance" maskUnits="userSpaceOnUse" x="965" y="226" width="102" height="160">
<path d="M1064.53 385.534H966.814C966.333 385.533 965.871 385.341 965.531 385C965.191 384.659 965 384.197 965 383.715V228.494C965 228.012 965.191 227.55 965.531 227.209C965.871 226.868 966.333 226.676 966.814 226.675H1064.53C1065.02 226.675 1065.48 226.867 1065.82 227.208C1066.16 227.549 1066.35 228.012 1066.35 228.494V383.715C1066.35 384.197 1066.16 384.66 1065.82 385.001C1065.48 385.342 1065.02 385.534 1064.53 385.534ZM968.631 381.912H1062.72V230.312H968.631V381.912Z" fill="white"/>
</mask>
<g mask="url(#mask0_497_8112)">
<path opacity="0.39" d="M1070.52 368.464L1087.97 349.68L960.877 231.404L943.422 250.189L1070.52 368.464Z" fill="white"/>
<path opacity="0.39" d="M1038.88 422.326L1049.86 410.516L922.76 292.241L911.786 304.051L1038.88 422.326Z" fill="white"/>
<path opacity="0.39" d="M1064.13 383.003L1069.59 377.127L942.488 258.852L937.028 264.728L1064.13 383.003Z" fill="white"/>
</g>
<path d="M785.172 689.368H937.176V275.382H785.172V689.368Z" fill="#355FBC"/>
<path d="M899.099 242.302H823.254V259.338H899.099V242.302Z" fill="#8BA0EF"/>
<path d="M937.18 689.571L839.375 738.045V323.857L937.18 275.382V689.571Z" fill="#456FCE"/>
<path d="M922.413 673.485V306.103L854.137 339.945V707.325L922.413 673.485Z" fill="#7D9FEA"/>
<path d="M854.504 509.778C858.19 509.778 861.178 505.06 861.178 499.239C861.178 493.418 858.19 488.7 854.504 488.7C850.818 488.7 847.83 493.418 847.83 499.239C847.83 505.06 850.818 509.778 854.504 509.778Z" fill="#95ABE8"/>
<path d="M855.877 508.29C859.563 508.29 862.551 503.571 862.551 497.75C862.551 491.929 859.563 487.211 855.877 487.211C852.191 487.211 849.203 491.929 849.203 497.75C849.203 503.571 852.191 508.29 855.877 508.29Z" fill="#A4C2F7"/>
<path d="M758.784 455.784H776.555V429.192H758.784V455.784Z" fill="#95ABE8"/>
<path d="M759.569 455.302H777.34V428.709H759.569V455.302Z" fill="#A4C2F7"/>
<path d="M768.454 447.913C769.501 447.913 770.505 447.496 771.245 446.755C771.985 446.014 772.4 445.009 772.4 443.962V440.049C772.401 439.53 772.299 439.016 772.101 438.537C771.903 438.057 771.612 437.622 771.246 437.255C770.879 436.888 770.444 436.597 769.965 436.398C769.486 436.199 768.973 436.097 768.454 436.097C767.407 436.097 766.403 436.513 765.662 437.254C764.922 437.995 764.506 439.001 764.506 440.049V443.962C764.506 445.01 764.922 446.015 765.662 446.756C766.403 447.497 767.407 447.913 768.454 447.913Z" fill="#91DBDB"/>
<path d="M765.436 443.962C765.436 446.144 767.203 447.913 769.383 447.913C771.563 447.913 773.33 446.144 773.33 443.962V440.052C773.33 437.869 771.563 436.1 769.383 436.1C767.203 436.1 765.436 437.869 765.436 440.052V443.962Z" fill="#C2D9F9"/>
<path d="M590.507 404.862C599.281 406.839 623.531 411.988 634.116 414.38C646.17 417.119 661.753 413.791 663.573 411.926C664.161 411.338 666.514 408.001 669.474 403.749C675.74 394.752 684.631 381.632 684.631 381.632L667.099 368.242C667.099 368.242 664.111 374.035 660.663 380.208C656.823 387.052 652.41 394.355 650.813 394.716C647.785 395.411 631.458 393.99 620.209 393.322C610.18 392.733 593.327 392.816 587.67 392.027L590.507 404.862Z" fill="#F7A893"/>
<path d="M566.63 403.287C567.512 404.297 573.363 405.535 576.609 405.897C577.205 405.981 577.807 406.009 578.408 405.983C578.534 405.976 578.658 405.954 578.778 405.915C580.16 405.915 582.077 405.85 584.147 405.694C586.28 405.561 588.402 405.286 590.498 404.87L590.257 392.842C588.76 390.889 585.409 386.555 583.2 383.942C580.287 380.496 579.913 380.343 578.937 381.326C578.311 381.965 580.575 385.984 582.948 389.564C578.805 388.911 573.768 388.941 573.768 388.941V389.005C572.719 388.847 565.051 387.767 563.595 389.05C562.337 390.162 569.934 391.904 574.348 392.477L574.468 393.163C572.157 392.786 562.563 391.356 561.09 392.775C559.617 394.193 570.74 396.673 575.112 397.023L575.347 398.386C573.907 398.156 563.863 396.57 562.393 397.988C560.923 399.407 572.048 401.796 575.953 402.022L576.094 402.828C573.448 402.481 567.623 401.819 566.618 402.808C566.58 402.836 566.55 402.873 566.53 402.915C566.509 402.957 566.499 403.004 566.5 403.051C566.501 403.098 566.514 403.144 566.536 403.185C566.559 403.226 566.591 403.261 566.63 403.287Z" fill="#F7A893"/>
<path d="M682.955 280.517C682.955 280.517 688.248 266.982 697.151 260.229C706.053 253.477 726.467 257.546 726.467 257.546C726.467 257.546 739.424 253.895 746.54 264.313C753.655 274.732 757.168 292.718 745.458 311.049C738.401 322.074 734.047 296.944 717.197 304.732C701.476 311.996 693.026 300.536 690.5 298.206C682.082 290.421 682.955 280.517 682.955 280.517Z" fill="#F04925"/>
<path d="M725.599 287.31C725.599 287.31 740.415 287.899 740.468 297.285C740.521 306.671 736.087 313.521 723.62 312.776C714.703 312.244 705.935 282.926 725.599 287.31Z" fill="#CE2C11"/>
<path d="M753.548 625.499C753.548 625.499 755.165 635.388 757.156 648.102C753.935 650.882 750.243 653.062 746.253 654.537C742.878 655.779 739.853 657.076 737.139 658.341C734.349 647.105 731.879 637.451 731.879 637.451L753.548 625.499Z" fill="#E57075"/>
<path d="M699.431 697.88C698.458 718.526 698.928 724.999 701.307 731.346C701.698 732.402 702.148 733.456 702.647 734.582C706.176 742.397 708.607 749.294 704.314 752.413C700.022 755.532 657.839 757.106 651.441 757.059C645.044 757.012 635.676 757.832 635.082 754.534C634.488 751.236 636.917 747.67 639.857 746.496C641.768 745.731 652.885 740.97 661.885 736.377C666.71 733.917 670.926 731.508 672.796 729.783C678.15 724.852 678.397 706.854 678.191 694.076C678.082 687.514 677.03 672.391 676.033 659.212C675.083 646.707 674.181 635.968 674.181 635.968L701.068 626.959C701.068 626.959 700.954 637.816 700.71 651.762C700.439 666.768 700.022 685.396 699.431 697.88Z" fill="#F7A893"/>
<path d="M701.069 626.932C701.069 626.932 700.955 637.789 700.711 651.736C696.489 654.159 691.884 655.843 687.095 656.714C683.023 657.456 679.342 658.315 676.034 659.198C675.084 646.693 674.182 635.953 674.182 635.953L701.069 626.932Z" fill="#E57075"/>
<path d="M664.702 588.891C664.749 589.721 664.94 591.601 665.246 594.273L665.305 594.779C665.305 594.835 665.305 594.885 665.322 594.929C666.734 607.384 670.265 635.1 672.967 654.952C674.102 663.308 674.807 676.195 675.251 683.754C675.328 685.06 675.398 686.205 675.46 687.141C675.522 688.076 675.639 688.953 675.71 689.83C676.48 699.131 676.027 706.183 676.298 706.934C677.356 709.688 700.096 710.052 703.212 708.564C704.632 707.884 705.456 698.995 705.841 687.188C705.899 683.992 705.955 681.177 706.032 679.305C706.438 669.716 706.179 656.17 705.676 642.635C705.658 642.209 705.644 641.785 705.629 641.367C704.679 616.652 700.989 602.367 701.845 598.227C702.701 594.087 720.956 523.884 721.233 522.789C721.062 523.94 711.212 589.58 717.728 595.049C724.299 600.566 735.995 701.923 739.694 702.411H739.773C741.831 702.608 753.521 701.255 760.831 699.081C763.991 698.145 766.335 697.053 766.729 695.871C768.199 691.492 768.04 674.883 764.591 653.928C761.404 634.541 758.476 601.061 755.477 591.922C754.812 589.886 758.352 583.057 759.023 580.9C760.299 576.781 761.516 572.635 762.627 568.469C765.012 559.521 766.917 550.432 767.972 541.226C769.795 525.293 768.972 509.072 765.938 493.34C764.421 485.462 762.338 477.703 759.708 470.125C757.649 464.179 755.606 456.323 751.475 451.477C749.191 448.811 728.636 441.661 725.657 442.014C715.714 443.191 688.279 442.364 688.279 442.364C682.372 442.364 664.302 582.015 664.702 588.891Z" fill="#202426"/>
<path opacity="0.27" d="M664.701 588.891L665.248 594.276L665.304 594.782L665.319 594.932C665.774 594.879 689.134 592.181 690.581 608.555C692.03 625.082 701.197 683.713 693.644 684.375C689.278 684.76 681.248 684.243 675.245 683.742C675.321 685.049 675.392 686.196 675.453 687.132C675.515 688.068 675.633 688.941 675.703 689.818C676.474 699.122 676.018 706.172 676.291 706.922C677.35 709.676 700.089 710.044 703.206 708.552C704.626 707.872 705.449 698.983 705.834 687.176C705.919 684.663 705.978 682.021 706.025 679.294C706.222 667.192 706.061 653.487 705.67 642.624C705.652 642.197 705.637 641.773 705.622 641.355C704.673 616.64 700.983 602.355 701.838 598.215C702.694 594.075 721.229 522.23 721.229 522.23C721.229 522.23 720.835 504.738 719.209 509.346C717.583 513.953 699.466 566.338 691.821 576.354C684.177 586.37 664.701 588.891 664.701 588.891Z" fill="#0B0E0F"/>
<path d="M704.314 752.398C700.022 755.517 657.839 757.091 651.441 757.044C645.044 756.997 635.676 757.818 635.082 754.52C634.488 751.221 636.917 747.655 639.857 746.481C641.768 745.716 652.885 740.955 661.885 736.363C666.901 738.925 668.471 746.408 680.408 743.53C690.11 741.176 692.463 731.034 701.318 731.346C701.709 732.402 702.159 733.456 702.659 734.583C706.176 742.383 708.607 749.279 704.314 752.398Z" fill="#263B82"/>
<path d="M702.277 753.872C702.976 757.082 711.585 755.967 717.495 755.802C723.405 755.638 762.285 752.707 766.108 749.509C769.93 746.31 767.372 739.637 763.755 732.102C763.241 731.028 762.779 730.013 762.371 728.992C760.116 723.402 760.73 715.619 760.833 699.078C753.524 701.252 741.842 702.608 739.775 702.408C740.096 713.145 739.614 724.52 735.974 728.386C734.324 730.134 730.54 732.638 726.195 735.203C718.092 739.996 708.045 745.031 706.313 745.84C703.658 747.087 701.58 750.656 702.277 753.872Z" fill="#F7A893"/>
<path d="M766.108 749.509C762.286 752.707 723.405 755.638 717.496 755.802C711.586 755.967 702.977 757.082 702.277 753.869C701.578 750.656 703.659 747.087 706.323 745.843C708.055 745.028 718.104 739.999 726.204 735.203C730.953 737.557 732.74 744.822 743.625 741.612C752.478 739.002 754.21 728.96 762.377 728.989C762.786 730.013 763.259 731.025 763.762 732.102C767.385 739.637 769.934 746.313 766.108 749.509Z" fill="#263B82"/>
<path d="M693.948 302.59C694.124 304.143 694.344 305.673 694.624 307.145C695.676 312.532 696.702 316.701 700.369 318.931C703.103 320.661 706.224 321.685 709.451 321.912V326.375C706.531 327.146 703.812 327.823 703.812 327.823C703.65 328.535 700.322 343.394 712.474 342.32C724.908 341.234 732.996 327.8 732.996 327.8L732.764 304.541C732.764 304.541 737.024 303.979 738.4 300.836C738.962 299.53 739.476 296.234 736.342 293.257C733.99 291.035 731.799 291.786 730.755 294.004C730.635 294.189 730.473 294.343 730.282 294.454C730.092 294.565 729.879 294.631 729.659 294.646C729.42 294.629 729.188 294.562 728.977 294.449C728.765 294.337 728.58 294.181 728.433 293.992C727.054 292.521 726.586 286.198 725.407 285.848C724.228 285.498 719.868 287.049 710.354 281.814C700.839 276.58 701.092 273.688 701.092 273.688L699.446 275.229C697.79 276.783 693.715 281.596 693.715 281.596C693.715 281.596 692.804 292.53 693.948 302.59Z" fill="#F7A893"/>
<path d="M669.164 390.056C673.478 395.02 677.691 399.307 678.926 399.557C679.143 399.445 688.24 388.317 692.995 382.474L695.835 378.987L685.141 350.694L686.126 336.924C685.967 337.097 677.079 341.096 674.224 344.197C669.482 349.349 657.971 374.288 657.886 374.4C657.154 375.327 663.272 383.33 669.164 390.056Z" fill="#FFCA08"/>
<path d="M669.166 390.056C673.479 395.02 677.692 399.307 678.927 399.557C679.145 399.445 688.242 388.317 692.996 382.474L681.768 367.121L669.166 390.056Z" fill="#95ABE8"/>
<path d="M686.395 461.71C694.907 460.624 708.226 458.429 713.877 458.473C727.955 458.576 744.332 459.744 754.746 460.015C761.155 460.177 765.298 459.992 765.263 459.021C764.819 447.163 748.921 412.738 747.589 404.294C746.469 397.232 749.224 379.984 751.232 365.826C751.629 363.057 751.991 360.391 752.293 357.952C754.149 343.067 758.05 338.992 756.474 336.768C754.898 334.543 732.997 327.832 732.997 327.832C732.997 327.832 724.909 341.267 712.475 342.352C700.182 343.438 703.742 328.194 703.813 327.844C703.31 328.194 687.016 335.473 686.14 336.932C685.263 338.392 676.672 374.888 676.672 376.592C676.672 376.942 676.966 378.019 677.396 379.584C679.124 385.669 683.42 399.233 684.037 407.059C684.831 416.896 684.037 427.95 684.037 427.95L676.099 460.168C675.226 463.452 683.023 462.142 686.395 461.71Z" fill="#FFCA08"/>
<g opacity="0.13">
<path d="M684.026 407.051C684.82 416.887 684.026 427.941 684.026 427.941C684.026 427.941 688.345 420.032 688.812 415.313C689.28 410.593 685.346 405.103 696.486 402.767C698.053 402.437 712.463 405.232 712.463 405.232C712.463 405.232 724.068 408.269 720.107 415.419C718.076 419.096 702.678 431.272 694.566 435.744C725.044 420.02 741.538 442.217 754.731 460.009C761.14 460.171 765.283 459.986 765.248 459.015C764.804 447.157 748.906 412.732 747.575 404.288C746.454 397.226 749.209 379.979 751.217 365.82L742.294 361.342C742.294 361.342 726.105 374.759 711.796 378.896C691.782 384.686 683.208 382.618 677.381 379.57C679.113 385.66 683.408 399.224 684.026 407.051Z" fill="#95ABE8"/>
</g>
<path d="M688.509 457.697L690.788 457.894C690.788 457.894 692.161 452.789 693.167 449.237C694.172 445.686 693.802 444.75 696.948 442.976C700.094 441.202 700.834 438.083 703.416 437.386C705.997 436.689 729.045 433.693 743.523 431.313C758 428.933 758.183 426.899 761.458 426.049C764.733 425.199 766.588 412.4 766.868 409.24C766.988 407.886 767.288 400.707 767.585 392.978C767.988 382.703 768.394 371.419 768.394 371.419C768.394 371.419 740.347 358.308 738.272 371.307C738.272 371.307 738.566 376.604 738.913 383.242C739.445 393.869 740.036 407.933 739.501 409.134C738.636 411.105 726.446 413.686 715.876 418.682C705.306 423.678 693.369 426.037 688.927 426.802C684.484 427.567 681.814 426.643 680.762 428.141C679.709 429.639 674.561 443.512 674.882 445.133C675.087 446.175 676.625 446.016 677.704 445.771C678.063 445.693 678.417 445.595 678.766 445.477C678.729 446.126 678.829 446.776 679.06 447.384C679.283 447.998 679.735 448.502 680.321 448.79L682.085 449.623C682.031 450.058 682.018 450.498 682.047 450.935C682.047 450.935 682.047 450.956 682.047 450.962C682.068 451.661 682.265 452.345 682.62 452.948C682.795 453.224 683.033 453.454 683.315 453.62C683.597 453.786 683.914 453.882 684.24 453.901L686.631 454.107L686.98 454.136C686.98 454.136 687.063 455.849 687.592 456.896C687.807 457.344 688.109 457.661 688.509 457.697Z" fill="#F7A893"/>
<path d="M687.582 440.305C687.467 440.404 687.359 440.512 687.26 440.627C687.39 440.488 687.505 440.381 687.582 440.305Z" fill="#C55253"/>
<path d="M680.446 442.285L683.319 435.206C683.319 435.206 679.611 440.243 677.732 445.798C678.091 445.719 678.446 445.621 678.794 445.504C678.757 446.153 678.857 446.802 679.088 447.41C679.344 445.656 679.8 443.936 680.446 442.285Z" fill="#C55253"/>
<path d="M682.619 452.965C683.366 445.51 686.106 441.861 687.224 440.655C685.889 441.999 682.225 445.992 682.087 449.641C682.087 450.044 682.055 450.485 682.049 450.953C682.049 450.953 682.049 450.973 682.049 450.979C682.069 451.679 682.265 452.362 682.619 452.965Z" fill="#C55253"/>
<path d="M687.591 456.914C687.868 450.932 689.826 444.509 689.943 444.144C689.82 444.309 688.329 446.451 687.003 452.056C686.84 452.735 686.718 453.422 686.639 454.116L686.989 454.145C686.989 454.145 687.062 455.866 687.591 456.914Z" fill="#C55253"/>
<path d="M735.999 383.109C735.999 383.109 736.754 389.897 736.757 389.912C737.963 398.027 765.598 398.356 769.905 396.973C770.349 396.832 770.834 396.385 771.343 395.687C771.971 394.767 772.51 393.787 772.951 392.763C776.988 383.821 774.297 357.864 769.905 347.81C764.339 335.079 754.675 335.561 754.675 335.561C749.056 330.895 737.978 364.984 736.181 378.757C735.925 380.638 735.861 382.132 735.999 383.109Z" fill="#FFCA08"/>
<path d="M711.049 298.153C711.049 299.677 711.913 300.91 712.981 300.91C714.048 300.91 714.909 299.677 714.909 298.153C714.909 296.629 714.045 295.399 712.981 295.399C711.916 295.399 711.049 296.632 711.049 298.153Z" fill="#231F20"/>
<path d="M710.934 297.588C710.934 298.356 711.389 298.977 711.951 298.977C712.512 298.977 712.965 298.356 712.965 297.588C712.965 296.82 712.512 296.202 711.951 296.202C711.389 296.202 710.934 296.823 710.934 297.588Z" fill="white"/>
<path d="M695.938 298.153C695.938 299.677 696.802 300.91 697.869 300.91C698.936 300.91 699.798 299.677 699.798 298.153C699.798 296.629 698.934 295.399 697.869 295.399C696.805 295.399 695.938 296.632 695.938 298.153Z" fill="#231F20"/>
<path d="M695.836 297.588C695.836 298.356 696.292 298.977 696.853 298.977C697.415 298.977 697.868 298.356 697.868 297.588C697.868 296.82 697.415 296.202 696.853 296.202C696.292 296.202 695.836 296.823 695.836 297.588Z" fill="white"/>
<path d="M717.196 294.89C717.097 294.89 717 294.865 716.914 294.818C716.828 294.77 716.755 294.702 716.702 294.619C714.985 291.898 712.403 292.821 712.291 292.854C712.152 292.888 712.005 292.869 711.879 292.803C711.752 292.736 711.654 292.625 711.603 292.491C711.552 292.357 711.552 292.209 711.602 292.075C711.653 291.941 711.75 291.829 711.877 291.762C713.103 291.291 715.896 291.15 717.684 293.984C717.735 294.072 717.762 294.172 717.763 294.273C717.763 294.375 717.738 294.475 717.688 294.564C717.639 294.653 717.567 294.728 717.48 294.781C717.393 294.834 717.294 294.863 717.193 294.866L717.196 294.89Z" fill="#4E0701"/>
<path d="M704.365 305.303C704.301 305.303 704.238 305.293 704.177 305.273C704.106 305.25 702.431 304.658 702.104 303.072C701.793 301.554 703.507 299.559 703.704 299.339C703.752 299.274 703.814 299.22 703.884 299.181C703.955 299.141 704.033 299.116 704.113 299.108C704.193 299.1 704.274 299.108 704.351 299.133C704.428 299.158 704.499 299.198 704.56 299.251C704.621 299.304 704.67 299.37 704.705 299.443C704.739 299.516 704.758 299.595 704.76 299.676C704.763 299.757 704.749 299.837 704.718 299.913C704.688 299.988 704.643 300.056 704.586 300.112C703.951 300.833 703.116 302.172 703.257 302.837C703.448 303.761 704.553 304.164 704.562 304.167C704.688 304.216 704.792 304.307 704.859 304.424C704.925 304.541 704.95 304.678 704.928 304.811C704.906 304.944 704.839 305.065 704.738 305.155C704.637 305.244 704.509 305.297 704.374 305.303H704.365Z" fill="#4E0701"/>
<path d="M695.33 292.418C695.21 292.416 695.093 292.377 694.995 292.306C694.897 292.236 694.824 292.137 694.784 292.023C694.745 291.909 694.741 291.785 694.774 291.669C694.807 291.553 694.875 291.45 694.968 291.374C697.397 289.458 700.384 290.827 700.511 290.885C700.633 290.961 700.724 291.079 700.765 291.218C700.806 291.356 700.795 291.504 700.734 291.635C700.674 291.765 700.567 291.869 700.435 291.926C700.302 291.983 700.154 291.99 700.017 291.945C699.973 291.924 697.541 290.832 695.692 292.292C695.589 292.374 695.462 292.419 695.33 292.418Z" fill="#4E0701"/>
<path d="M709.107 309.79C709.106 309.839 709.101 309.888 709.092 309.937C709.003 310.398 708.872 310.85 708.701 311.287C708.459 311.979 708.049 312.6 707.507 313.094C706.989 313.517 706.373 313.804 705.715 313.926C705.058 314.048 704.38 314.003 703.744 313.794C702.882 313.477 702.18 312.832 701.792 311.999C701.609 311.615 701.509 311.197 701.498 310.772C701.481 310.576 701.503 310.378 701.563 310.19C701.623 310.002 701.72 309.828 701.848 309.678C702.183 309.342 702.7 309.298 703.174 309.275L708.328 309.01C708.534 309.01 708.733 309.092 708.879 309.238C709.025 309.385 709.107 309.583 709.107 309.79Z" fill="white"/>
<path d="M716.254 306.771C718.578 306.771 720.462 305.771 720.462 304.538C720.462 303.304 718.578 302.304 716.254 302.304C713.931 302.304 712.047 303.304 712.047 304.538C712.047 305.771 713.931 306.771 716.254 306.771Z" fill="#E57075"/>
<path d="M693.857 302.816C694.028 304.332 694.246 305.824 694.519 307.262C696.615 307.136 698.256 306.2 698.256 305.05C698.256 303.808 696.365 302.816 694.04 302.816H693.857Z" fill="#E57075"/>
<path d="M732.397 302.369C732.454 302.369 732.512 302.36 732.567 302.343C732.714 302.296 732.837 302.195 732.909 302.059C732.982 301.923 732.998 301.764 732.955 301.616C732.896 301.419 731.55 296.788 735.307 295.481C735.388 295.463 735.465 295.428 735.531 295.379C735.598 295.329 735.653 295.266 735.694 295.193C735.734 295.12 735.759 295.04 735.766 294.957C735.773 294.874 735.763 294.791 735.735 294.713C735.708 294.634 735.664 294.562 735.607 294.502C735.55 294.442 735.481 294.394 735.404 294.363C735.327 294.331 735.244 294.316 735.161 294.319C735.078 294.321 734.997 294.341 734.922 294.378C731.076 295.72 731.229 299.921 731.847 301.954C731.883 302.073 731.956 302.176 732.055 302.251C732.153 302.325 732.273 302.367 732.397 302.369Z" fill="#E57075"/>
<path d="M732.058 299.774C732.199 299.773 732.334 299.722 732.44 299.63C734.393 297.92 735.495 298.991 735.613 299.118C735.718 299.23 735.863 299.296 736.016 299.303C736.169 299.309 736.319 299.256 736.433 299.153C736.545 299.05 736.612 298.907 736.621 298.755C736.63 298.603 736.579 298.454 736.48 298.338C736.463 298.315 734.549 296.229 731.673 298.75C731.586 298.829 731.524 298.933 731.497 299.048C731.469 299.162 731.477 299.283 731.518 299.393C731.56 299.503 731.633 299.599 731.73 299.667C731.826 299.735 731.94 299.772 732.058 299.774Z" fill="#E57075"/>
<path d="M723.621 316.08C723.494 316.442 720.772 324.392 709.508 326.417L709.438 322.003C711.888 322.028 714.324 321.637 716.644 320.847C719.334 319.888 723.486 316.298 723.621 316.08Z" fill="#E57075"/>
<path d="M739.868 332.116C745.034 332.116 749.221 326.552 749.221 319.688C749.221 312.824 745.034 307.259 739.868 307.259C734.703 307.259 730.516 312.824 730.516 319.688C730.516 326.552 734.703 332.116 739.868 332.116Z" fill="#F04925"/>
<path d="M739.867 343.291C743.922 343.291 747.209 338.923 747.209 333.534C747.209 328.146 743.922 323.777 739.867 323.777C735.812 323.777 732.525 328.146 732.525 333.534C732.525 338.923 735.812 343.291 739.867 343.291Z" fill="#F04925"/>
<path d="M739.868 352.038C742.7 352.038 744.996 348.987 744.996 345.224C744.996 341.46 742.7 338.409 739.868 338.409C737.036 338.409 734.74 341.46 734.74 345.224C734.74 348.987 737.036 352.038 739.868 352.038Z" fill="#F04925"/>
<path d="M745.333 357.196C745.333 360.959 750.746 364.011 740.203 364.011C734.672 364.011 736.648 361.454 736.648 357.688C736.648 353.921 737.371 350.379 740.203 350.379C743.034 350.379 745.333 353.439 745.333 357.196Z" fill="#F04925"/>
<path d="M736.313 350.135C736.313 350.135 740.532 351.606 743.419 350.135C744.754 349.764 744.445 353.371 744.445 353.371C744.445 353.371 738.565 354.116 737.277 352.889C736.906 352.542 736.624 352.11 736.456 351.63C736.288 351.151 736.239 350.638 736.313 350.135Z" fill="#202426"/>
<path d="M708.702 311.296C708.461 311.988 708.05 312.609 707.509 313.103C706.991 313.526 706.374 313.812 705.717 313.935C705.059 314.057 704.381 314.012 703.745 313.803C702.883 313.486 702.182 312.841 701.793 312.008C703.084 311.384 705.462 310.64 708.702 311.296Z" fill="#E57075"/>
<path d="M681.967 396.391C681.885 396.391 681.804 396.368 681.733 396.324C681.663 396.28 681.607 396.218 681.57 396.144C674.417 381.506 675.531 368.686 677.725 360.506C680.103 351.641 684.24 346.154 684.281 346.089C684.316 346.043 684.36 346.004 684.41 345.975C684.46 345.946 684.516 345.927 684.573 345.919C684.631 345.911 684.689 345.915 684.745 345.929C684.801 345.944 684.854 345.97 684.9 346.005C684.946 346.04 684.985 346.084 685.014 346.134C685.043 346.185 685.062 346.24 685.07 346.297C685.078 346.355 685.074 346.413 685.059 346.47C685.045 346.526 685.019 346.578 684.984 346.624C684.943 346.677 680.894 352.056 678.565 360.765C676.422 368.789 675.331 381.361 682.364 395.749C682.39 395.801 682.405 395.858 682.408 395.915C682.412 395.973 682.404 396.031 682.385 396.086C682.366 396.14 682.337 396.191 682.298 396.234C682.26 396.277 682.213 396.313 682.161 396.338C682.102 396.371 682.035 396.389 681.967 396.391Z" fill="#F7901F"/>
<path d="M447.723 789.827C501.384 789.827 544.884 782.508 544.884 773.48C544.884 764.451 501.384 757.132 447.723 757.132C394.063 757.132 350.562 764.451 350.562 773.48C350.562 782.508 394.063 789.827 447.723 789.827Z" fill="#95ABE8"/>
<path d="M461.062 280.267C461.062 280.267 468.539 279.928 469.295 270.851C470.051 261.774 463.665 261.212 463.665 261.212C463.665 261.212 470.894 254.168 463.665 248.054C456.435 241.94 449.846 247.313 447.044 251.585C447.044 251.585 442.839 244.356 434.639 247.507C426.439 250.658 427.65 255.66 427.65 255.66C427.65 255.66 420.241 252.697 418.242 256.772C416.243 260.847 418.242 265.111 418.242 265.111C418.242 265.111 413.832 263.257 411.644 266.408C409.457 269.56 412.797 272.337 412.797 272.337C412.797 272.337 409.139 272.522 409.192 275.868C409.245 279.213 412.797 282.341 412.797 282.341C412.797 282.341 409.953 285.677 412.797 291.606C415.64 297.535 420.523 304.093 423.64 304.95C426.757 305.806 430.241 304.95 430.241 304.95L461.062 280.267Z" fill="#231F20"/>
<path d="M423.403 297.05C426.854 297.638 427.457 305.635 427.589 310.066C427.722 314.497 427.589 332.29 426.046 336.732C424.502 341.175 418.839 342.264 435.989 341.987C453.139 341.711 459.717 340.466 459.717 340.466L464.012 325.513L454.033 320.441L452.801 311.237C452.801 311.237 462.818 310.334 463.868 302.048C464.012 300.925 464.097 299.174 464.133 297.144C464.156 295.743 464.171 294.201 464.171 292.651C464.171 287.228 464.012 281.517 464.036 280.293C464.062 279.001 464.062 277.916 464.062 277.033C464.062 275.268 464 274.353 464 274.353C464 274.353 453.078 277.783 445.789 277.842C438.5 277.901 433.334 276.091 433.334 276.091C433.334 276.091 433.04 290.391 430.921 290.509C430.874 290.509 430.812 290.509 430.765 290.485L430.559 290.412L430.427 290.338C428.351 289.217 426.866 283.491 426.866 283.491C426.866 283.491 419.457 277.092 417.458 284.857C415.605 292.024 420.107 296.467 423.403 297.05Z" fill="#F7A893"/>
<path d="M452.805 311.234C452.805 311.234 441.085 312.503 435.919 309.516C430.754 306.53 430.039 305.985 430.039 305.985C430.039 305.985 433.732 312.711 439.742 316.551C445.751 320.391 454.049 320.444 454.049 320.444L452.805 311.234Z" fill="#E57075"/>
<path d="M453.219 302.122C453.219 302.122 452.008 304.476 450.117 304.608C448.227 304.741 446.883 302.784 446.756 302.172C446.63 301.56 446.433 301.289 446.93 301.219C447.15 301.192 448.962 301.96 450.599 301.754C452.237 301.548 453.651 300.998 453.219 302.122Z" fill="#E57075"/>
<path d="M463.916 726.765L462.881 768.778L505.275 773.427L509.147 761.996L482.818 746.11L484.629 727.924L463.916 726.765Z" fill="#F7A893"/>
<path d="M462.879 753.86C462.879 753.86 471.009 757.735 478.365 757.735C485.721 757.735 484.395 750.38 488.447 749.497C492.498 748.614 516.114 763.535 519.986 769.928C523.858 776.322 516.696 778.461 504.306 777.284C491.916 776.107 476.43 773.409 476.43 773.409C476.43 773.409 461.524 770.696 459.377 769.34C457.231 767.984 462.879 753.86 462.879 753.86Z" fill="#F04925"/>
<path d="M389.925 714.96L389.59 732.729L384.527 756.267L424.129 769.452L430.185 759.315L408.266 738.693L409.501 720.342L389.925 714.96Z" fill="#F7A893"/>
<path d="M387.597 741.997C387.597 741.997 394.58 747.379 401.616 748.894C408.652 750.409 408.899 743.106 412.953 743.1C417.008 743.095 436.534 762.225 438.921 769.149C441.308 776.072 434.02 776.622 422.406 772.974C410.792 769.325 396.533 763.523 396.533 763.523C396.533 763.523 382.831 757.856 381.073 756.12C379.315 754.384 387.597 741.997 387.597 741.997Z" fill="#F04925"/>
<path d="M509.047 622.548C508.388 628.042 501.864 686.929 496.022 722.234C495.993 722.419 495.96 722.604 495.931 722.787C495.933 722.802 495.933 722.818 495.931 722.834C495.425 725.897 494.919 728.774 494.425 731.417C494.323 731.964 493.943 732.411 493.329 732.77C493.265 732.81 493.2 732.847 493.132 732.879C489.11 733.953 456.086 730.057 454.222 724.708C456.077 717.708 461.834 649.906 463.807 633.023C463.805 633.01 463.805 632.997 463.807 632.985C463.824 632.849 463.842 632.717 463.854 632.584C463.854 632.584 463.854 632.564 463.854 632.552C463.883 632.355 463.904 632.161 463.927 631.978C463.927 631.89 463.948 631.805 463.956 631.722C463.977 631.575 463.995 631.428 464.012 631.305C464.081 630.644 464.189 629.987 464.336 629.339C465.424 625.826 428.721 555.213 429.298 529.162C429.477 520.95 430.224 512.038 431.168 503.685C433.205 485.516 436.166 469.966 436.166 469.966L491.994 472.885C491.994 472.885 509.905 615.36 509.047 622.548Z" fill="#202426"/>
<path opacity="0.36" d="M496.034 722.237C495.998 722.422 495.966 722.607 495.931 722.787C495.933 722.802 495.933 722.818 495.931 722.834C494.858 728.527 493.955 732.132 493.329 732.77C493.292 732.813 493.244 732.846 493.191 732.864C493.171 732.867 493.151 732.867 493.132 732.864C489.11 733.938 456.086 730.042 454.222 724.693C454.116 724.396 454.116 724.07 454.222 723.772C455.986 718.556 461.816 650.006 463.812 633.008C463.811 632.995 463.811 632.983 463.812 632.97C463.83 632.835 463.842 632.699 463.859 632.57C463.859 632.57 463.859 632.549 463.859 632.537C463.886 632.337 463.909 632.146 463.933 631.964C463.933 631.875 463.954 631.79 463.962 631.708C463.98 631.561 464.001 631.413 464.018 631.29C464.087 630.629 464.195 629.972 464.342 629.324C465.429 625.811 428.727 555.199 429.304 529.148C429.483 520.936 430.23 512.023 431.174 503.67C437.568 503.232 444.466 504.388 451.89 507.395C451.89 507.395 456.788 565.85 467.443 585.366C478.099 604.883 488.854 621.374 489.051 625.029C489.248 628.683 472.089 712.562 479.184 717.058C481.862 718.756 488.633 720.589 496.034 722.234V722.237Z" fill="black"/>
<path d="M376.988 725.614C381.081 726.011 385.42 726.341 389.778 726.624C403.22 727.474 416.757 727.8 423.222 727.909C427.926 716.061 432.113 678.732 435 654.525C438.429 625.794 454.129 474.365 454.129 474.365L422.116 470.54L420.232 470.322L403.535 468.321C402.751 469.099 402.032 469.939 401.385 470.834C399.283 473.644 395.925 479.022 392.685 488.035C392.538 488.441 392.391 488.859 392.25 489.288C392.197 489.453 392.133 489.629 392.08 489.806C386.967 506.383 392.036 574.839 391.536 584.919C391.033 595.094 381.833 684.104 381.066 691.295C380.187 699.607 375.923 715.231 376.988 725.614Z" fill="#202426"/>
<path opacity="0.36" d="M376.988 725.614C381.081 726.011 385.42 726.341 389.778 726.624C389.392 688.732 403.932 589.638 401.888 560.78C399.518 527.426 416.436 476.01 416.436 476.01C416.436 476.01 409.968 473.361 401.385 470.837C399.283 473.647 395.925 479.025 392.685 488.038C392.538 488.444 392.391 488.861 392.25 489.291C392.197 489.456 392.133 489.632 392.08 489.809C386.967 506.386 392.036 574.842 391.536 584.922C391.033 595.096 381.833 684.107 381.066 691.298C380.187 699.607 375.923 715.231 376.988 725.614Z" fill="black"/>
<path d="M506.092 383.674L513.525 416.148L485.179 413.971L481.865 385.898L506.092 383.674Z" fill="#F7A893"/>
<path d="M470.916 330.589L471.013 331.036L471.289 332.31L479.09 368.527L484.109 391.818L512.075 388.876C512.075 388.876 503.875 359.12 500.747 348.74C499.891 345.89 498.379 343.282 496.331 341.124C494.283 338.967 491.757 337.322 488.957 336.321C486.437 335.42 483.623 334.437 480.863 333.525C477.526 332.422 474.271 331.419 471.71 330.777L470.987 330.601L470.916 330.589Z" fill="#007CFF"/>
<path d="M398.063 471.764C398.063 471.764 392.956 478.911 395.276 482.421C397.596 485.931 422.664 488.011 449.816 486.393C476.969 484.775 495.371 476.174 494.413 474.329C493.454 472.485 487.88 466.2 487.88 466.2L398.063 471.764Z" fill="white"/>
<path d="M395.674 442.011C394.469 455.472 392.652 467.756 394.574 473.535C399.796 492.389 481.051 478.652 491.821 469.789C497.816 463.831 491.197 426.958 488.645 404.732C488.392 402.511 488.178 400.439 488.022 398.553C487.246 392.736 486.399 386.696 485.532 380.749C482.244 358.217 478.622 337.083 477.205 334.849C476.438 333.643 474.291 332.201 471.71 330.78C471.472 330.648 471.228 330.515 470.978 330.386C465.447 327.444 458.406 324.748 458.406 324.748L444.481 340.093L416.979 327.535C416.979 327.535 415.461 328.353 413.074 329.65C411.278 330.63 408.984 331.884 406.47 333.266C404.168 334.532 401.684 335.914 399.223 337.286C390.52 342.164 380.262 352.639 380.262 352.639C381.497 355.313 395.733 404.485 396.139 416.572C396.686 422.036 396.624 427.888 396.294 433.726C396.139 436.509 395.918 439.287 395.674 442.011Z" fill="#007CFF"/>
<path opacity="0.36" d="M434.044 384.466C438.48 383.885 441.525 379.209 440.847 374.022C440.168 368.836 436.022 365.102 431.586 365.684C427.151 366.265 424.105 370.94 424.783 376.127C425.462 381.314 429.608 385.047 434.044 384.466Z" fill="black"/>
<path d="M456.723 480.164L454.636 480.129C454.636 479.54 455.559 420.276 450.414 389.72C445.245 359.035 443.457 340.375 443.439 340.19L445.521 339.992C445.539 340.178 447.318 358.77 452.472 389.373C457.649 420.117 456.732 479.567 456.723 480.164Z" fill="white"/>
<path opacity="0.36" d="M400.268 451.209V466.318C400.268 466.318 419.262 481.794 454.991 480.252C353.029 492.931 414.14 459.812 390.463 388.214C397.484 374.135 403.106 364.676 403.106 364.676C403.106 364.676 410.162 369.972 412.567 375.171C414.763 379.911 417.033 398.768 417.033 398.768L424.454 403.867L481.011 396.87L483.737 361.969C485.457 382.665 498.42 463.258 491.822 469.79C477.504 470.793 454.212 472.346 450.119 472.111C444.133 471.764 400.268 451.209 400.268 451.209Z" fill="black"/>
<path d="M432.296 453.115C436.545 456.496 446.944 464.758 452.989 465.276C455.874 459.421 449.614 447.44 451.993 443.247C451.74 443.247 451.499 443.2 451.243 443.164C449.023 442.838 446.971 441.932 442.916 440.749C442.916 440.758 430.559 450.344 432.296 453.115Z" fill="#F7A893"/>
<path d="M416.979 327.538C416.979 327.538 424.438 321.924 425.831 322.274C427.225 322.624 444.828 337.465 444.828 337.465C444.828 337.465 457.177 322.486 458.059 322.486C458.941 322.486 470.366 327.538 470.939 329.106C471.513 330.674 462.739 347.545 461.061 345.362C452.813 334.655 444.481 340.092 444.481 340.092C444.481 340.092 437.263 335.917 431.427 347.742C430.23 350.167 417.849 332.59 416.979 327.538Z" fill="white"/>
<path d="M494.798 409.278H421.885V470.296H494.798V409.278Z" fill="#CE814D"/>
<path d="M494.795 470.296L550.382 459.85V402.116L494.795 409.278V470.296Z" fill="#DD9268"/>
<path d="M471.047 409.278H440.893V420.373H471.047V409.278Z" fill="#CE9067"/>
<path d="M550.382 402.116H477.469L421.885 409.278H494.795L550.382 402.116Z" fill="#F7CFB4"/>
<path d="M440.893 409.278L489.702 402.116H525.508L471.047 409.278H440.893Z" fill="#E5AB83"/>
<path d="M444.588 288.296C444.588 289.87 443.706 291.144 442.592 291.144C441.478 291.144 440.596 289.87 440.596 288.296C440.596 286.722 441.478 285.448 442.592 285.448C443.706 285.448 444.588 286.722 444.588 288.296Z" fill="#231F20"/>
<path d="M444.695 287.711C444.695 288.502 444.225 289.146 443.645 289.146C443.066 289.146 442.596 288.502 442.596 287.711C442.596 286.919 443.066 286.278 443.645 286.278C444.225 286.278 444.695 286.919 444.695 287.711Z" fill="white"/>
<path d="M460.21 288.296C460.21 289.87 459.327 291.144 458.213 291.144C457.099 291.144 456.217 289.87 456.217 288.296C456.217 286.722 457.099 285.448 458.213 285.448C459.327 285.448 460.21 286.722 460.21 288.296Z" fill="#231F20"/>
<path d="M460.317 287.711C460.317 288.502 459.847 289.146 459.267 289.146C458.688 289.146 458.215 288.502 458.215 287.711C458.215 286.919 458.685 286.278 459.267 286.278C459.85 286.278 460.317 286.919 460.317 287.711Z" fill="white"/>
<path d="M438.236 285.083C438.099 285.084 437.964 285.047 437.845 284.977C437.727 284.908 437.63 284.807 437.563 284.687C437.497 284.566 437.465 284.43 437.469 284.293C437.474 284.156 437.515 284.022 437.589 283.906C439.494 280.887 442.479 281.04 443.79 281.552C443.98 281.625 444.133 281.769 444.216 281.955C444.3 282.14 444.306 282.351 444.234 282.541C444.162 282.731 444.017 282.885 443.832 282.968C443.647 283.051 443.436 283.057 443.246 282.985C443.131 282.944 440.582 282.044 438.883 284.751C438.811 284.855 438.714 284.94 438.601 284.998C438.488 285.056 438.363 285.086 438.236 285.083Z" fill="#4E0701"/>
<path d="M451.499 295.702C451.354 295.705 451.214 295.655 451.102 295.563C450.991 295.471 450.917 295.341 450.893 295.199C450.869 295.056 450.897 294.909 450.972 294.786C451.047 294.662 451.164 294.57 451.302 294.525C451.302 294.525 452.457 294.107 452.654 293.148C452.798 292.445 451.937 291.088 451.278 290.332C451.225 290.272 451.185 290.201 451.159 290.125C451.133 290.049 451.122 289.968 451.127 289.888C451.132 289.808 451.153 289.729 451.189 289.657C451.224 289.585 451.274 289.52 451.334 289.467C451.395 289.414 451.465 289.373 451.541 289.347C451.617 289.321 451.698 289.311 451.778 289.316C451.858 289.321 451.937 289.342 452.009 289.378C452.081 289.413 452.146 289.463 452.199 289.523C452.402 289.753 454.174 291.812 453.851 293.383C453.513 295.022 451.793 295.634 451.708 295.658C451.641 295.686 451.571 295.701 451.499 295.702Z" fill="#4E0701"/>
<path d="M460.837 282.526C460.665 282.526 460.498 282.468 460.364 282.361C458.529 280.914 456.165 281.976 456.065 282.023C455.883 282.096 455.68 282.097 455.498 282.025C455.315 281.953 455.167 281.814 455.084 281.636C455.001 281.458 454.989 281.256 455.051 281.069C455.112 280.883 455.243 280.727 455.415 280.634C455.55 280.573 458.726 279.116 461.313 281.158C461.437 281.257 461.528 281.393 461.572 281.545C461.616 281.698 461.611 281.861 461.559 282.011C461.507 282.161 461.409 282.291 461.28 282.384C461.151 282.476 460.996 282.526 460.837 282.526Z" fill="#4E0701"/>
<path d="M439.209 297.205C441.612 297.205 443.56 296.171 443.56 294.896C443.56 293.62 441.612 292.586 439.209 292.586C436.806 292.586 434.857 293.62 434.857 294.896C434.857 296.171 436.806 297.205 439.209 297.205Z" fill="#E57075"/>
<path d="M458.811 294.899C458.811 296.167 460.766 297.205 463.168 297.205C463.49 297.205 463.812 297.184 464.132 297.144C464.156 295.743 464.17 294.201 464.17 292.651C463.838 292.613 463.503 292.593 463.168 292.592C460.766 292.592 458.811 293.619 458.811 294.899Z" fill="#E57075"/>
<path d="M424.833 293.642C424.775 293.642 424.716 293.633 424.66 293.616C424.506 293.57 424.378 293.464 424.302 293.323C424.225 293.182 424.208 293.016 424.254 292.863C424.316 292.66 425.724 287.861 421.834 286.522C421.759 286.496 421.69 286.456 421.631 286.403C421.572 286.351 421.523 286.287 421.488 286.215C421.454 286.144 421.434 286.067 421.429 285.987C421.424 285.908 421.435 285.829 421.461 285.754C421.516 285.604 421.627 285.481 421.77 285.411C421.914 285.341 422.08 285.33 422.231 285.38C426.209 286.769 426.054 291.112 425.41 293.216C425.372 293.339 425.295 293.447 425.192 293.524C425.088 293.601 424.962 293.642 424.833 293.642Z" fill="#E57075"/>
<path d="M425.197 290.959C425.05 290.962 424.907 290.909 424.797 290.812C422.78 289.046 421.642 290.15 421.521 290.282C421.413 290.398 421.263 290.467 421.104 290.475C420.946 290.482 420.79 290.426 420.672 290.32C420.612 290.269 420.563 290.206 420.528 290.135C420.493 290.065 420.472 289.988 420.468 289.909C420.463 289.83 420.474 289.751 420.501 289.677C420.527 289.602 420.568 289.534 420.622 289.476C420.642 289.452 422.621 287.296 425.594 289.903C425.695 289.979 425.768 290.086 425.804 290.208C425.839 290.33 425.834 290.46 425.789 290.579C425.745 290.698 425.663 290.799 425.556 290.868C425.449 290.936 425.323 290.968 425.197 290.959Z" fill="#E57075"/>
<path d="M517.799 452.162C519.09 454.392 518.231 452.804 521.916 455.207C525.6 457.611 531.409 457.467 532.483 457.308C533.485 457.155 537.272 457.385 537.737 457.417C536.716 457.417 519.399 457.479 521.051 459.015C522.759 460.595 526.293 462.251 529.407 462.334C532.3 462.401 538.366 462.628 539.204 462.666C537.839 462.666 522.848 462.896 523.547 463.708C524.271 464.564 528.416 466.674 532.815 468.021C537.213 469.369 547.08 465.873 548.292 464.24C549.174 463.063 551.047 459.6 553.908 457.026C556.045 450.779 553.614 445.989 551.261 443.115C550.622 442.344 549.756 441.793 548.788 441.539C547.819 441.286 546.795 441.343 545.86 441.702C543.129 442.735 539.877 443.891 537.798 444.412C533.626 445.454 523.98 444.362 526.814 447.396C529.648 450.429 538.713 450.167 538.713 450.167C538.713 450.167 533.382 453.524 527.863 453.251C522.345 452.977 516.497 449.932 517.799 452.162Z" fill="#F7A893"/>
<path d="M480.83 451.953C479.483 454.654 480.374 452.733 476.246 455.814C472.118 458.894 465.318 459.153 464.053 459.05C462.877 458.95 458.467 459.494 457.92 459.565C459.114 459.5 479.354 458.288 477.537 460.203C475.655 462.178 471.657 464.376 468.017 464.699C464.641 464.993 457.57 465.708 456.591 465.811C458.185 465.726 475.723 464.873 474.964 465.876C474.182 466.927 469.493 469.701 464.45 471.599C459.408 473.497 447.621 470.128 446.083 468.318C444.972 466.991 442.525 463.099 438.991 460.301C436.033 453.157 438.533 447.378 441.067 443.847C441.756 442.897 442.727 442.187 443.841 441.817C444.955 441.448 446.156 441.437 447.277 441.788C450.546 442.791 454.43 443.906 456.897 444.359C461.851 445.271 473.033 443.285 469.954 447.04C466.876 450.794 456.253 451.159 456.253 451.159C456.253 451.159 462.721 454.69 469.157 453.966C475.593 453.242 482.188 449.249 480.83 451.953Z" fill="#F7A893"/>
<path d="M464.158 272.587C464.158 272.587 466.284 276.218 462.212 277.724C458.14 279.231 447.74 274.832 447.74 274.832L464.158 272.587Z" fill="#231F20"/>
<path d="M446.27 443.114L412.373 425.337L405.996 400.351L386.07 417.84L393.521 441.031L438.99 460.295L446.27 443.114Z" fill="#F7A893"/>
<path d="M390.161 345.654C361.718 353.489 380.655 409.872 385.286 424.037C388.767 431.351 410.592 405.574 410.125 402.264C409.657 398.953 402.704 340.775 390.161 345.654Z" fill="#007CFF"/>
<path d="M410.134 402.714C410.021 402.713 409.912 402.67 409.829 402.594C409.746 402.517 409.696 402.411 409.687 402.299C408.09 381.944 400.278 357.282 400.187 357.028C400.151 356.914 400.162 356.79 400.217 356.684C400.272 356.577 400.367 356.497 400.481 356.461C400.537 356.443 400.597 356.436 400.656 356.441C400.714 356.447 400.772 356.463 400.824 356.491C400.877 356.518 400.923 356.555 400.961 356.601C400.999 356.646 401.028 356.698 401.046 356.755C401.125 357.005 408.984 381.764 410.583 402.231C410.588 402.29 410.581 402.349 410.563 402.406C410.545 402.462 410.516 402.514 410.478 402.559C410.44 402.604 410.393 402.641 410.341 402.668C410.288 402.695 410.231 402.712 410.172 402.717L410.134 402.714Z" fill="#005EB2"/>
<path d="M488.401 400.804C488.293 400.803 488.189 400.765 488.108 400.695C488.026 400.625 487.971 400.528 487.954 400.422L480.562 352.194C480.565 352.087 480.604 351.985 480.674 351.904C480.745 351.824 480.841 351.771 480.947 351.755C481.052 351.739 481.16 351.76 481.251 351.816C481.342 351.872 481.411 351.958 481.445 352.059L488.833 400.274C488.842 400.333 488.84 400.393 488.826 400.45C488.812 400.508 488.787 400.562 488.752 400.61C488.717 400.658 488.673 400.698 488.622 400.729C488.572 400.76 488.515 400.78 488.457 400.789L488.401 400.804Z" fill="#005EB2"/>
<path d="M1071.16 812.077C1129.38 812.077 1176.57 806.85 1176.57 800.402C1176.57 793.954 1129.38 788.727 1071.16 788.727C1012.94 788.727 965.752 793.954 965.752 800.402C965.752 806.85 1012.94 812.077 1071.16 812.077Z" fill="#95ABE8"/>
<path d="M986.722 794.405H1157.45C1157.45 794.405 1184.14 769.396 1164.26 762.578C1148.68 757.235 1128.02 774.415 1128.02 774.415C1128.02 774.415 1163.41 750.218 1145.96 735.159C1123.61 715.875 1103.51 756.002 1103.51 756.002C1103.51 756.002 1122.88 723.637 1094.42 718.108C1065.95 712.58 1057.79 753.913 1057.79 753.913C1057.79 753.913 1057.79 733.023 1040.33 734.306C1022.87 735.589 1020.73 765.9 1020.73 765.9C1020.73 765.9 1013.07 758.068 996.036 762.011C979.007 765.953 978.272 782.471 986.722 794.405Z" fill="#27571D"/>
<path d="M973.853 802.812H1058.3C1058.3 802.812 1071.51 788.647 1061.68 784.784C1053.97 781.759 1043.74 791.49 1043.74 791.49C1043.74 791.49 1061.25 777.781 1052.61 769.252C1041.55 758.33 1031.61 781.059 1031.61 781.059C1031.61 781.059 1041.2 762.732 1027.12 759.58C1013.04 756.429 1009 779.865 1009 779.865C1009 779.865 1009 768.034 1000.36 768.757C991.721 769.481 990.656 786.655 990.656 786.655C990.656 786.655 986.863 782.218 978.434 784.452C970.004 786.685 969.669 796.053 973.853 802.812Z" fill="#489B33"/>
</g>
<defs>
<clipPath id="clip0_497_8112">
<rect width="1376" height="918" fill="white"/>
</clipPath>
</defs>
</svg>
