<svg width="1060" height="882" viewBox="0 0 1060 882" fill="none" xmlns="http://www.w3.org/2000/svg">
<path d="M294.881 571.968C370.846 571.968 432.427 536.415 432.427 492.558C432.427 448.702 370.846 413.149 294.881 413.149C218.917 413.149 157.336 448.702 157.336 492.558C157.336 536.415 218.917 571.968 294.881 571.968Z" fill="#79B1C4"/>
<path fill-rule="evenodd" clip-rule="evenodd" d="M1051.62 758.396L844.681 877.89C839.331 880.976 833.548 882.325 827.821 881.934C827.665 881.92 827.509 881.913 827.353 881.899L791.441 879.167L804.235 871.78L690.957 806.378C686.21 803.639 683.492 798.927 683.492 793.449C683.492 787.971 686.21 783.26 690.957 780.521L897.914 661.048C907.408 655.563 918.279 655.57 927.773 661.048L1051.62 732.546C1056.36 735.285 1059.08 739.989 1059.08 745.475C1059.08 750.953 1056.36 755.664 1051.62 758.403V758.396Z" fill="#79B1C4"/>
<path fill-rule="evenodd" clip-rule="evenodd" d="M650.692 767.252L899.046 623.859C902.048 622.128 903.772 619.148 903.772 615.678C903.772 612.208 902.055 609.228 899.046 607.496L572.291 418.84C566.28 415.37 559.405 415.37 553.394 418.84L305.509 561.955C302.508 563.687 300.79 566.667 300.783 570.13C300.783 573.6 302.493 576.573 305.495 578.311L600.404 749.079L579.975 760.872L639.602 769.771C639.992 769.806 640.389 769.827 640.779 769.842H640.801C644.171 769.927 647.549 769.061 650.692 767.245V767.252Z" fill="#79B1C4"/>
<path d="M242.061 440.297C318.025 440.297 379.606 404.745 379.606 360.888C379.606 317.031 318.025 281.479 242.061 281.479C166.097 281.479 104.516 317.031 104.516 360.888C104.516 404.745 166.097 440.297 242.061 440.297Z" fill="#F5F5F5"/>
<path fill-rule="evenodd" clip-rule="evenodd" d="M346.234 489.223C346.234 522.439 299.593 549.367 242.061 549.367C184.528 549.367 137.887 522.439 137.887 489.223L108.283 379.415C122.737 414.334 177.141 440.297 242.053 440.297C306.966 440.297 360.376 414.809 375.419 380.366L346.22 489.216L346.234 489.223ZM104.544 362.059L104.529 362.002H104.544V362.059Z" fill="#E6E6E6"/>
<path d="M242.06 422.068C300.581 422.068 348.021 394.677 348.021 360.888C348.021 327.099 300.581 299.708 242.06 299.708C183.538 299.708 136.098 327.099 136.098 360.888C136.098 394.677 183.538 422.068 242.06 422.068Z" fill="#B3DB4F"/>
<path fill-rule="evenodd" clip-rule="evenodd" d="M242.06 299.715C300.579 299.715 348.021 327.105 348.021 360.895C348.021 365.025 347.312 369.055 345.957 372.958C336.257 344.951 293.426 323.841 242.06 323.841C190.693 323.841 147.863 344.944 138.163 372.958C136.814 369.055 136.098 365.025 136.098 360.895C136.098 327.112 183.54 299.715 242.06 299.715Z" fill="#83C231"/>
<path fill-rule="evenodd" clip-rule="evenodd" d="M286.463 373.618C291.615 354.53 298.704 336.535 308.453 324.196C340.626 283.501 334.502 221.058 334.502 221.058H320.162C320.162 221.058 320.658 258.921 303.096 290.185C262.16 267.968 266.091 184.827 266.091 184.827L254.064 186.288C253.177 263.207 280.588 292.314 295.135 302.333C282.39 320.527 271.541 341.204 263.608 372.483C260.401 384.439 284.42 385.986 286.463 373.625V373.618Z" fill="#6C5F9E"/>
<path fill-rule="evenodd" clip-rule="evenodd" d="M332.809 262.803C336.307 239.464 334.505 221.058 334.505 221.058H320.164C320.164 221.058 320.427 241.132 313.785 264.122C320.59 262.185 327.43 260.872 332.809 262.803ZM280.825 265.868C263.823 233.057 266.101 184.827 266.101 184.827L254.074 186.288C253.648 223.293 259.772 249.228 267.861 267.301C271.48 266.287 276.227 265.4 280.825 265.868Z" fill="#41366E"/>
<path fill-rule="evenodd" clip-rule="evenodd" d="M243.577 374.668C239.121 326.786 234.204 271.176 231.912 235.448H216.365C216.365 235.448 216.024 253.017 216.436 281.933C156.874 266.868 163.863 221.831 163.863 221.831C154.653 219.83 153.446 227.841 153.446 227.841C152.779 279.613 200.91 300.659 216.926 306.222C217.472 327.708 218.43 350.443 220.069 378.074C222.609 387.561 243.577 384.744 243.577 374.668Z" fill="#6C5F9E"/>
<path fill-rule="evenodd" clip-rule="evenodd" d="M234.317 268.657C233.359 256.48 232.536 245.219 231.912 235.448H216.365C216.365 235.448 216.131 247.426 216.28 267.876C222.262 267.315 228.35 267.464 234.31 268.657H234.317ZM193.424 273.134C158.86 254.089 163.863 221.831 163.863 221.831C154.653 219.83 153.446 227.841 153.446 227.841C153.141 251.513 163.04 268.756 175.401 281.039C180.361 278.442 186.534 275.561 193.424 273.134Z" fill="#41366E"/>
<path fill-rule="evenodd" clip-rule="evenodd" d="M389.12 194.044C397.997 199.366 403.936 209.073 403.936 220.171C403.936 236.988 390.305 250.612 373.495 250.612C362.908 250.612 353.591 245.205 348.135 237.009C321.362 253.379 285.372 263.406 245.785 263.406C228.889 263.406 212.647 261.575 197.498 258.212C188.003 261.27 177.104 263.008 165.517 263.008C128.675 263.008 98.8089 245.432 98.8089 223.754C98.8089 216.516 102.137 209.74 107.941 203.921C100.271 192.171 96.0273 179.235 96.0273 165.661C96.0273 125.548 133.06 91.0836 186.024 76.0192C198.988 50.8787 236.773 32.6921 281.363 32.6921C336.675 32.6921 381.506 60.6709 381.506 95.185C381.506 102.742 379.356 109.987 375.418 116.692C388.219 131.09 395.549 147.815 395.549 165.661C395.549 175.531 393.3 185.054 389.134 194.037L389.12 194.044ZM176.238 41.8954C171.811 41.8954 168.227 45.4788 168.227 49.9065C168.227 54.3343 171.818 57.9177 176.238 57.9177C180.659 57.9177 184.25 54.3272 184.25 49.9065C184.25 45.4859 180.659 41.8954 176.238 41.8954Z" fill="#B3DB4F"/>
<path fill-rule="evenodd" clip-rule="evenodd" d="M399.098 236.633C393.684 245.042 384.232 250.612 373.482 250.612C362.732 250.612 353.578 245.205 348.121 237.009C321.349 253.379 285.359 263.406 245.771 263.406C228.876 263.406 212.634 261.575 197.484 258.211C187.99 261.27 177.091 263.008 165.503 263.008C128.662 263.008 98.7956 245.432 98.7956 223.754C98.7956 216.516 102.124 209.74 107.928 203.921C103.287 196.811 99.9025 189.268 97.9512 181.413C107.218 200.828 128.194 216.375 173.295 211.209C173.295 211.209 174.096 233.639 202.941 224.031C202.941 224.031 216.558 271.303 351.158 221.625C351.158 221.625 378.087 244.204 399.105 236.619L399.098 236.633Z" fill="#83C231"/>
<path fill-rule="evenodd" clip-rule="evenodd" d="M263.597 36.7793C285.48 36.7793 303.227 44.4712 303.227 53.9583C303.227 63.4454 285.48 71.1373 263.597 71.1373C241.713 71.1373 223.967 63.4454 223.967 53.9583C223.967 44.4712 241.706 36.7793 263.597 36.7793Z" fill="#CFED82"/>
<path fill-rule="evenodd" clip-rule="evenodd" d="M161.48 96.2707C182.243 90.9772 199.074 94.8515 199.074 104.928C199.074 115.004 182.243 127.464 161.48 132.757C140.718 138.051 123.887 134.177 123.887 124.1C123.887 114.024 140.718 101.564 161.48 96.2707Z" fill="#CFED82"/>
<path fill-rule="evenodd" clip-rule="evenodd" d="M207.545 118.899C213.08 118.899 217.558 121.766 217.558 125.307C217.558 128.847 213.073 131.714 207.545 131.714C202.018 131.714 197.533 128.847 197.533 125.307C197.533 121.766 202.018 118.899 207.545 118.899Z" fill="#CFED82"/>
<path fill-rule="evenodd" clip-rule="evenodd" d="M363.38 123.696C370.454 123.696 376.195 127.911 376.195 133.112C376.195 138.313 370.461 142.528 363.38 142.528C356.298 142.528 350.564 138.313 350.564 133.112C350.564 127.911 356.298 123.696 363.38 123.696Z" fill="#CFED82"/>
<path fill-rule="evenodd" clip-rule="evenodd" d="M376.094 197.613C386.213 197.613 394.423 202.005 394.423 207.427C394.423 212.848 386.22 217.24 376.094 217.24C365.968 217.24 357.766 212.848 357.766 207.427C357.766 202.005 365.968 197.613 376.094 197.613Z" fill="#CFED82"/>
<path d="M417.246 190.596C427.2 190.596 435.269 185.036 435.269 178.178C435.269 171.32 427.2 165.76 417.246 165.76C407.292 165.76 399.223 171.32 399.223 178.178C399.223 185.036 407.292 190.596 417.246 190.596Z" fill="#B3DB4F"/>
<path fill-rule="evenodd" clip-rule="evenodd" d="M409.579 144.664C414.369 144.132 418.25 146.438 418.25 149.801C418.25 153.165 414.369 156.33 409.579 156.855C404.79 157.38 400.908 155.081 400.908 151.717C400.908 148.354 404.79 145.189 409.579 144.664Z" fill="#B3DB4F"/>
<path fill-rule="evenodd" clip-rule="evenodd" d="M379.805 134.396C387.802 139.988 392.712 147.581 392.712 155.946C392.712 173.14 371.95 187.076 346.341 187.076C320.732 187.076 299.97 173.14 299.97 155.946C299.97 153.633 300.346 151.384 301.062 149.213C289.674 147.403 281.201 140.534 281.201 132.339C281.201 127.911 283.678 123.873 287.743 120.808C286.431 122.61 285.693 124.633 285.693 126.776C285.693 134.283 294.761 140.371 305.944 140.371H306.2L306.299 140.251L306.257 140.364C317.298 140.251 326.196 134.212 326.196 126.776C326.196 123.355 324.308 120.226 321.2 117.835C328.225 120.936 332.873 126.272 332.873 132.339C332.873 141.918 321.307 149.681 307.044 149.681C306.391 149.681 305.739 149.667 305.1 149.631C306.909 163.291 323.996 173.998 344.815 173.998C366.841 173.998 384.687 162.013 384.687 147.226C384.687 142.578 382.92 138.207 379.819 134.396H379.805Z" fill="#83C231"/>
<path fill-rule="evenodd" clip-rule="evenodd" d="M183.844 186.203C183.894 186.6 183.922 187.005 183.922 187.409C183.922 196.691 170.788 204.219 154.588 204.219C138.388 204.219 125.254 196.691 125.254 187.409C125.254 181.286 130.973 175.921 139.516 172.984C136.813 175.474 135.231 178.49 135.231 181.733C135.231 190.333 146.343 197.308 160.052 197.308C171.284 197.308 180.772 192.625 183.837 186.203H183.844Z" fill="#83C231"/>
<path fill-rule="evenodd" clip-rule="evenodd" d="M831.175 140.031C837.164 140.031 842.017 144.884 842.017 150.873C842.017 156.862 837.164 161.716 831.175 161.716C825.186 161.716 820.332 156.862 820.332 150.873C820.332 144.884 825.186 140.031 831.175 140.031ZM816.593 178.533V613.194C816.593 616.394 815.003 619.141 812.236 620.744L810.859 621.546L809.923 622.092L809.589 622.284L808.716 622.795L808.525 622.908L807.368 623.583L806.985 623.81L805.296 624.796L805.275 624.81L803.466 625.867L802.962 626.165L801.5 627.024L800.436 627.648L799.407 628.252L797.704 629.252L797.179 629.557L794.83 630.941L794.773 630.969L792.353 632.388L791.651 632.8L789.764 633.907L788.351 634.737L787.067 635.496L784.889 636.781L784.264 637.15L781.355 638.86L781.256 638.917L778.346 640.627L777.466 641.145L775.245 642.45L773.535 643.458L772.052 644.331L769.462 645.849L768.774 646.254L765.418 648.226L765.269 648.311L761.983 650.242L760.947 650.852L758.471 652.306L756.512 653.456L754.895 654.407L751.978 656.124L751.254 656.55L747.55 658.721L747.345 658.842L743.79 660.928L742.619 661.616L739.972 663.163L737.815 664.426L736.112 665.42L735.36 665.86L732.209 667.704L728.264 670.011L728.001 670.167L724.283 672.338L716.386 676.95L716.01 677.17L712.171 679.405L708.091 681.783L707.771 681.967L703.996 684.167L699.895 686.551L697.497 687.942L696.716 688.396L693.679 690.156L692.345 690.929L691.671 691.319L687.562 693.696L683.972 695.775L683.326 696.144L679.544 698.33L679.239 698.507L675.705 700.551L674.066 701.495L671.249 703.12L667.219 705.44L666.821 705.674L663.224 707.746L662.94 707.909L659.995 709.598L658.654 710.364L655.404 712.224L655.113 712.394L651.438 714.494L647.592 716.687L643.888 718.794L643.781 718.858L640.765 720.575L639.346 721.377L636.792 722.825L635.238 723.705L632.761 725.103L629.206 727.104L626.347 728.707L625.559 729.147L622.877 730.651L621.742 731.283L619.251 732.674L618.243 733.234L615.738 734.625C614.667 735.221 613.617 735.803 612.581 736.371H612.574L610.466 737.534L609.232 738.208L607.131 739.358L605.989 739.982L603.959 741.089L602.732 741.756L600.915 742.736L583.02 753.074C577.464 756.282 571.106 756.274 565.557 753.06L273.99 584.229C271.222 582.626 269.64 579.879 269.64 576.679V531.408L269.129 531.11L269.64 530.223V142.039C269.64 138.839 271.229 136.093 273.997 134.496L502.794 2.40016C508.343 -0.800054 514.687 -0.800054 520.236 2.40016L746.06 132.779C752.567 127.592 760.806 124.491 769.768 124.491C790.785 124.491 807.829 141.535 807.829 162.553C807.829 164.469 807.688 166.356 807.411 168.201L812.243 170.99L812.371 171.068L812.499 171.146L812.626 171.224L812.747 171.302L812.868 171.387L812.988 171.472L813.109 171.557L813.222 171.643L813.336 171.735L813.449 171.827L813.563 171.919L813.669 172.012L813.776 172.104L813.882 172.203L813.989 172.303L814.088 172.402L814.187 172.501L814.287 172.601L814.386 172.707L814.478 172.813L814.57 172.92L814.663 173.026L814.748 173.133L814.833 173.239L814.918 173.353L815.003 173.466L815.081 173.58L815.159 173.693L815.238 173.807L815.316 173.927L815.387 174.048L815.457 174.169L815.528 174.289L815.592 174.41L815.656 174.531L815.72 174.658L815.784 174.786L815.841 174.914L815.897 175.042L815.954 175.169L816.004 175.297L816.054 175.432L816.103 175.567L816.146 175.701L816.188 175.836L816.231 175.971L816.273 176.106L816.309 176.241L816.344 176.376L816.38 176.517L816.408 176.659L816.437 176.801L816.465 176.943L816.486 177.085L816.508 177.227L816.529 177.369L816.543 177.511L816.557 177.66L816.572 177.809L816.579 177.958L816.586 178.107V178.256V178.405V178.554L816.593 178.533ZM772.265 92.957C770.477 92.957 769.03 94.4046 769.03 96.1927C769.03 97.9809 770.477 99.4284 772.265 99.4284C774.053 99.4284 775.501 97.9809 775.501 96.1927C775.501 94.4046 774.053 92.957 772.265 92.957Z" fill="white"/>
<path fill-rule="evenodd" clip-rule="evenodd" d="M819.758 189.957V620.07C819.758 623.235 818.19 625.96 815.444 627.542L588.619 758.502C583.127 761.674 576.833 761.674 571.341 758.495L282.825 591.431C280.086 589.849 278.518 587.131 278.518 583.967V153.846C278.518 150.682 280.093 147.964 282.832 146.381L509.238 15.6622C514.723 12.4975 521.01 12.4975 526.495 15.6622L815.444 182.485C818.19 184.067 819.758 186.792 819.758 189.957Z" fill="#E6E6E6"/>
<path fill-rule="evenodd" clip-rule="evenodd" d="M819.757 189.957V620.07C819.757 623.235 818.189 625.96 815.442 627.542C788.989 642.812 590.455 760.887 579.975 760.88V330.766C582.919 330.766 585.871 329.979 588.617 328.389L815.442 197.429C818.189 195.846 819.757 193.122 819.757 189.957Z" fill="#CBC9D4"/>
<path fill-rule="evenodd" clip-rule="evenodd" d="M588.619 328.396L815.444 197.436C818.19 195.854 819.758 193.129 819.758 189.964C819.758 186.799 818.19 184.074 815.444 182.492L526.495 15.6693C521.01 12.4975 514.723 12.4975 509.238 15.6693L282.832 146.389C280.093 147.971 278.518 150.689 278.518 153.853C278.518 157.018 280.086 159.743 282.825 161.325L571.341 328.389C576.833 331.568 583.12 331.575 588.619 328.403V328.396Z" fill="#F5F5F5"/>
<path fill-rule="evenodd" clip-rule="evenodd" d="M278.518 168.854L579.409 342.574L579.976 342.247V344.589L579.409 344.916L278.518 171.196V168.854ZM579.976 405.45V403.108L579.622 403.314L278.525 229.474V231.815L579.622 405.656L579.976 405.45Z" fill="#CBC9D4"/>
<path fill-rule="evenodd" clip-rule="evenodd" d="M480.217 298.261L550.381 338.771C552.836 340.183 554.844 344.022 554.844 347.293V370.659C554.844 373.93 552.836 375.449 550.381 374.03L480.217 333.52C477.762 332.101 475.754 328.269 475.754 324.998V301.631C475.754 298.36 477.762 296.841 480.217 298.261Z" fill="#6C5F9E"/>
<path fill-rule="evenodd" clip-rule="evenodd" d="M440.346 272.403C451.564 278.506 459.426 293.357 457.908 305.569C456.389 317.781 446.065 322.734 434.853 316.624C423.635 310.522 415.773 295.67 417.291 283.459C418.81 271.247 429.134 266.294 440.346 272.403Z" fill="#CBC9D4"/>
<path fill-rule="evenodd" clip-rule="evenodd" d="M428.345 318.59C428.345 318.59 428.317 318.597 428.31 318.604C426.238 319.356 423.932 319.605 421.477 319.3C419.071 319.002 416.531 318.171 413.941 316.759C408.264 313.665 403.432 308.365 400.217 302.298C397.003 296.224 395.399 289.376 396.166 283.189C396.492 280.563 397.223 278.257 398.28 276.313C399.692 273.716 401.693 271.772 404.092 270.573C404.503 270.367 404.922 270.182 405.362 270.019L418.17 265.244C420.263 264.463 422.612 264.2 425.095 264.513C427.501 264.811 430.041 265.641 432.631 267.053C438.308 270.147 443.14 275.44 446.355 281.514C449.569 287.588 451.173 294.436 450.406 300.623C450.08 303.249 449.349 305.555 448.292 307.499C446.88 310.096 444.879 312.041 442.48 313.24C442.069 313.445 441.643 313.63 441.21 313.793L428.402 318.569C428.402 318.569 428.36 318.583 428.338 318.59H428.345Z" fill="#41366E"/>
<path fill-rule="evenodd" clip-rule="evenodd" d="M419.64 272.19C430.859 278.293 438.721 293.144 437.203 305.356C435.684 317.568 425.36 322.521 414.148 316.412C402.93 310.309 395.068 295.458 396.586 283.246C398.105 271.034 408.429 266.081 419.64 272.19Z" fill="#6C5F9E"/>
<path fill-rule="evenodd" clip-rule="evenodd" d="M419.421 276.966C423.77 279.336 427.46 283.38 429.915 288.007C432.37 292.64 433.591 297.884 433.002 302.631C432.747 304.675 432.179 306.477 431.349 307.996C430.228 310.061 428.631 311.601 426.722 312.566C424.813 313.524 422.592 313.885 420.222 313.594C418.349 313.36 416.377 312.715 414.368 311.622C410.019 309.252 406.329 305.207 403.874 300.581C401.419 295.947 400.198 290.703 400.787 285.956C401.042 283.913 401.61 282.11 402.44 280.592C403.561 278.527 405.151 276.987 407.067 276.029C408.976 275.071 411.189 274.709 413.567 275C415.44 275.234 417.412 275.88 419.421 276.973V276.966ZM428.113 288.958C425.842 284.665 422.436 280.918 418.448 278.754C416.682 277.789 414.95 277.221 413.318 277.023C411.338 276.781 409.522 277.072 407.975 277.846C406.435 278.619 405.144 279.875 404.221 281.564C403.519 282.855 403.029 284.416 402.802 286.205C402.263 290.533 403.398 295.351 405.669 299.637C407.94 303.93 411.346 307.677 415.333 309.841C417.1 310.806 418.832 311.373 420.464 311.572C422.443 311.821 424.26 311.522 425.807 310.749C427.347 309.976 428.638 308.72 429.561 307.031C430.263 305.739 430.753 304.178 430.98 302.39C431.519 298.062 430.384 293.244 428.113 288.958Z" fill="#41366E"/>
<path fill-rule="evenodd" clip-rule="evenodd" d="M348.319 346.086C348.319 346.086 348.34 346.065 348.355 346.051C348.787 345.93 349.22 345.817 349.653 345.703C349.206 345.817 348.766 345.951 348.319 346.079V346.086ZM490.583 600.003C491.413 599.577 492.236 599.137 493.045 598.676L516.469 585.152C533.974 575.04 545.427 555.221 547.258 527.157C551.352 464.345 505.669 384.02 445.213 347.761C411.77 327.694 380.811 325.324 359.133 337.841L335.71 351.366C335.419 351.536 335.128 351.713 334.837 351.891C334.738 351.947 334.638 352.011 334.546 352.068C317.701 362.378 306.709 381.927 304.921 409.36C300.827 472.172 346.517 552.497 406.966 588.756C438.982 607.965 468.721 610.952 490.214 600.188C490.335 600.131 490.455 600.067 490.576 600.01L490.583 600.003Z" fill="#CBC9D4"/>
<path fill-rule="evenodd" clip-rule="evenodd" d="M421.795 361.278C482.244 397.545 527.934 477.863 523.84 540.675C519.746 603.487 467.421 625.009 406.972 588.742C346.523 552.475 300.833 472.158 304.927 409.345C309.021 346.533 361.346 325.012 421.795 361.278Z" fill="#E6E6E6"/>
<path fill-rule="evenodd" clip-rule="evenodd" d="M419.802 391.797C464.037 418.336 497.465 477.103 494.471 523.07C491.477 569.03 453.188 584.783 408.959 558.244C364.724 531.706 331.296 472.938 334.29 426.971C337.284 381.012 375.573 365.259 419.802 391.797Z" fill="#6C5F9E"/>
<path fill-rule="evenodd" clip-rule="evenodd" d="M492.209 494.829C484.765 518.231 460.448 524.489 432.93 507.977C401.127 488.897 377.093 446.641 379.243 413.596C380.286 397.588 387.29 386.674 397.841 381.849C404.895 383.971 412.26 387.27 419.803 391.79C455.346 413.113 483.906 455.248 492.209 494.829Z" fill="#41366E"/>
<path fill-rule="evenodd" clip-rule="evenodd" d="M494.627 515.009C494.691 517.734 494.641 520.416 494.471 523.063C491.477 569.023 453.188 584.776 408.959 558.237C364.724 531.699 331.296 472.931 334.29 426.964C336.348 395.338 355.123 378.017 381.044 378.933C368.733 384.865 360.594 397.836 359.359 416.718C356.777 456.362 385.614 507.062 423.768 529.953C456.466 549.566 485.388 542.399 494.627 515.002V515.009Z" fill="#CBC9D4"/>
<path fill-rule="evenodd" clip-rule="evenodd" d="M415.429 348.832C467.704 380.196 508.938 444.505 516.481 501.946C517.702 517.734 488.041 512.043 488.041 497.873C484.969 454.29 453.676 403.484 413.443 379.344C369.207 352.806 330.925 368.559 327.931 414.518C327.235 425.141 328.491 436.444 331.372 447.876C316.648 459.414 304.011 445.343 301.925 436.778C298.952 423.111 297.731 409.651 298.561 396.906C302.656 334.094 354.98 312.573 415.429 348.839V348.832Z" fill="white"/>
<path fill-rule="evenodd" clip-rule="evenodd" d="M420.328 390.925C442.595 404.286 462.144 425.744 475.732 449.643C489.335 473.563 496.998 499.945 495.487 523.127C494.749 534.424 491.904 543.939 487.376 551.489C483.041 558.713 477.166 564.141 470.127 567.618C463.102 571.088 454.927 572.606 445.965 572.017C434.491 571.265 421.719 567.071 408.435 559.103C386.169 545.741 366.62 524.284 353.031 500.378C339.429 476.458 331.765 450.076 333.276 426.893C334.014 415.597 336.86 406.081 341.387 398.531C345.723 391.308 351.598 385.88 358.637 382.403C365.662 378.933 373.843 377.414 382.798 378.003C394.272 378.748 407.045 382.949 420.328 390.918V390.925ZM473.965 450.65C460.533 427.035 441.247 405.847 419.285 392.67C406.292 384.872 393.832 380.771 382.671 380.04C374.07 379.479 366.237 380.927 359.538 384.233C352.847 387.533 347.262 392.699 343.133 399.582C338.769 406.862 336.023 416.065 335.306 427.028C333.823 449.806 341.38 475.791 354.798 499.384C368.231 522.999 387.517 544.187 409.479 557.364C422.471 565.163 434.931 569.264 446.093 569.988C454.693 570.548 462.527 569.101 469.225 565.794C475.917 562.488 481.501 557.329 485.631 550.446C489.995 543.166 492.741 533.962 493.458 522.999C494.941 500.222 487.384 474.237 473.965 450.643V450.65Z" fill="white"/>
<path fill-rule="evenodd" clip-rule="evenodd" d="M280.015 535.388L579.976 708.569V715.516C479.493 657.501 378.994 599.506 278.518 541.47V534.523L280.015 535.388Z" fill="#CBC9D4"/>
<path fill-rule="evenodd" clip-rule="evenodd" d="M579.976 718.205C479.493 660.19 378.994 602.196 278.518 544.159V541.462C378.987 599.499 479.485 657.493 579.976 715.509V718.205Z" fill="white"/>
<path fill-rule="evenodd" clip-rule="evenodd" d="M434.973 252.414C434.973 252.414 432.837 215.034 402.368 217.162C371.898 219.298 385.991 163.255 352.974 145.807C319.957 128.358 310.938 159.076 302.799 151.788C296.136 145.828 277.921 147.297 272.848 154.989L434.973 252.414ZM407.101 174.069C412.706 174.069 417.262 178.611 417.262 184.216C417.262 189.822 412.72 194.378 407.115 194.378C401.509 194.378 396.961 189.836 396.954 184.231C396.954 178.618 401.495 174.069 407.101 174.069Z" fill="white"/>
<path fill-rule="evenodd" clip-rule="evenodd" d="M369.406 640.953L312.874 608.22C310.135 606.638 308.566 603.913 308.566 600.755V484.845L340.192 502.755C345.486 505.934 348.466 511.263 348.402 517.436C348.019 554.703 347.451 593.979 359.727 616.359C363.261 622.802 366.525 631.267 369.399 640.96L369.406 640.953Z" fill="#CBC9D4"/>
<path fill-rule="evenodd" clip-rule="evenodd" d="M869.281 200.884V252.507L823.399 280.897C823.314 280.493 823.186 280.131 823.016 279.804C822.675 279.151 822.179 278.676 821.561 278.378C820.951 278.087 820.227 277.981 819.426 278.073C818.801 278.144 818.127 278.335 817.424 278.655V232.979L869.281 200.892V200.884ZM762.843 475.11C762.198 475.67 761.637 476.373 761.24 477.118C760.828 477.884 760.573 478.693 760.566 479.431L710.994 510.106V458.484L762.851 426.397V475.103L762.843 475.11ZM760.92 480.808L710.987 511.703V563.325L762.843 531.238V481.496C762.439 481.567 762.07 481.546 761.751 481.439C761.41 481.318 761.126 481.106 760.92 480.808ZM764.206 480.935C764.88 480.51 765.497 479.913 765.987 479.246C766.505 478.544 766.888 477.756 767.08 476.997L816.062 446.691V498.313L764.206 530.4V480.942V480.935ZM767.129 475.365L816.062 445.087V393.465L764.206 425.552V474.23C764.589 474.067 764.951 473.981 765.284 473.967C765.639 473.953 765.958 474.017 766.235 474.159C766.519 474.301 766.746 474.521 766.916 474.812C767.009 474.975 767.08 475.159 767.129 475.365ZM647.572 336.479L603.244 363.911L603.294 363.996H603.188V630.728H603.691L603.954 631.147C692.829 576.14 781.704 521.14 870.586 466.155L870.537 466.07H870.643V362.322C871.388 361.768 872.055 361.009 872.538 360.193C873.049 359.327 873.361 358.383 873.361 357.546C873.361 357.127 873.283 356.766 873.148 356.467C872.999 356.141 872.772 355.886 872.488 355.708C872.211 355.538 871.878 355.453 871.502 355.446C871.239 355.446 870.948 355.488 870.65 355.588V199.338H870.146L869.884 198.912L675.835 318.987L647.579 336.471L647.572 336.479ZM651.73 335.506C651.801 335.918 651.929 336.28 652.106 336.585C652.347 337.011 652.688 337.33 653.107 337.543C653.511 337.749 653.986 337.848 654.512 337.827C655.093 337.805 655.732 337.635 656.406 337.309V384.233L604.55 416.321V364.699L651.73 335.506ZM657.776 336.464C658.904 335.613 659.897 334.449 660.614 333.2C661.352 331.916 661.799 330.532 661.799 329.298V329.283L709.632 299.68V351.302L657.776 383.389V336.464ZM703.693 408.189L657.769 436.608V384.986L709.625 352.898V457.739L657.769 489.826V438.204L703.352 409.998L703.693 408.196V408.189ZM722.709 398.021L721.822 396.97L762.843 371.582V319.959L710.987 352.047V456.888L762.843 424.8V373.178L722.709 398.014V398.021ZM869.281 356.311C868.585 356.822 867.961 357.518 867.493 358.27C867.024 359.022 866.705 359.838 866.599 360.604L817.424 391.038V339.416L869.281 307.329V356.318V356.311ZM866.755 362.102L866.783 362.173C866.968 362.577 867.266 362.868 867.649 363.038C868.018 363.201 868.458 363.237 868.94 363.138C869.054 363.116 869.167 363.088 869.281 363.052V412.163L817.424 444.25V392.628L866.755 362.102ZM816.062 279.407C814.409 280.492 812.919 282.082 811.833 283.835C810.747 285.58 810.059 287.482 809.974 289.206L764.206 317.533V265.911L816.062 233.823V279.414V279.407ZM810.087 290.732C810.173 291.136 810.3 291.498 810.471 291.825C810.811 292.477 811.308 292.953 811.925 293.251C812.535 293.542 813.259 293.648 814.061 293.556C814.686 293.485 815.36 293.293 816.062 292.981V338.657L764.206 370.744V319.122L810.087 290.732ZM817.424 292.222V337.813L869.281 305.725V254.103L823.506 282.43C823.428 284.154 822.732 286.056 821.647 287.801C820.561 289.547 819.078 291.143 817.417 292.229L817.424 292.222ZM869.281 413.752V465.374L817.424 497.461V445.839L869.281 413.752ZM816.062 340.254V391.876L764.206 423.963V372.341L816.062 340.254ZM762.843 266.748V318.37L710.987 350.457V298.835L762.843 266.748ZM709.625 459.328V510.951L657.769 543.038V491.416L709.625 459.328ZM709.625 512.547V564.169L657.769 596.257V544.634L709.625 512.547ZM656.413 385.823V437.445L604.557 469.532V417.91L656.413 385.823ZM656.413 439.042V490.664L604.557 522.751V471.129L656.413 439.042ZM656.413 492.26V543.882L604.557 575.97V524.347L656.413 492.26ZM656.413 545.479V597.101L604.557 629.188V577.566L656.413 545.479Z" fill="white"/>
<path fill-rule="evenodd" clip-rule="evenodd" d="M701.43 410.424V409.587L723.554 395.899L724.264 397.055L703.076 410.169L701.43 410.424Z" fill="white"/>
<path fill-rule="evenodd" clip-rule="evenodd" d="M793.491 169.812L712.882 123.27L593.892 254.018L604.032 259.865L578.572 274.567L620.771 269.529L793.491 169.812Z" fill="#CBC9D4"/>
<path fill-rule="evenodd" clip-rule="evenodd" d="M761 118.843L728.082 99.84C732.262 92.0843 729.735 80.9439 717.594 73.9332L605.601 9.28314C598.931 5.43011 591.289 5.43011 584.612 9.28314L446.314 89.1253C441.524 91.8927 439.062 96.1218 438.416 100.926V100.947L438.381 101.075L438.367 101.124L438.345 101.21V101.238L438.324 101.302L438.303 101.387L438.267 101.557L438.239 101.72V101.742L438.211 101.877V101.926L438.196 102.018V102.054L438.182 102.111L438.168 102.203V102.217V102.224L438.147 102.38C438.133 102.522 438.111 102.671 438.097 102.813V102.834L438.09 102.92L438.055 103.289V103.324L438.019 103.729V103.743C438.005 103.892 437.998 104.041 437.991 104.19V104.204C437.984 104.353 437.976 104.502 437.969 104.651V104.679C437.969 104.814 437.962 104.956 437.962 105.091V105.119V105.134C437.962 105.432 437.962 105.73 437.962 106.028V106.049V106.063L437.976 106.517C437.991 106.822 438.005 107.135 438.026 107.447C438.047 107.759 438.076 108.071 438.104 108.383V108.419L438.154 108.83V108.845C438.189 109.157 438.232 109.462 438.282 109.774V109.795L438.345 110.207V110.235C438.374 110.392 438.402 110.541 438.431 110.697C438.459 110.86 438.487 111.009 438.516 111.165C439.75 117.381 442.929 123.228 447.343 126.542L428.433 137.455C422.564 140.847 419.534 146.034 418.754 151.923L418.718 152.051L418.704 152.101C418.676 152.228 418.64 152.356 418.612 152.484V152.498L418.591 152.597L418.569 152.697L418.548 152.817L418.534 152.895V152.924L418.506 153.037V153.101L418.484 153.151L418.47 153.264V153.307L418.456 153.378L418.442 153.492V153.513L418.427 153.605L418.413 153.719C418.392 153.896 418.371 154.073 418.349 154.251V154.308C418.328 154.471 418.314 154.627 418.3 154.79V154.826L418.293 154.868C418.278 155.031 418.264 155.202 418.257 155.365V155.379V155.407C418.222 155.947 418.2 156.486 418.193 157.032V157.075V157.11C418.193 157.472 418.193 157.827 418.193 158.189V158.224C418.2 158.593 418.215 158.962 418.236 159.331V159.36C418.25 159.537 418.257 159.715 418.271 159.892V159.913V159.935C418.286 160.119 418.3 160.296 418.314 160.481C418.328 160.673 418.349 160.864 418.371 161.049V161.098C418.385 161.269 418.406 161.439 418.427 161.609V161.63C418.449 161.815 418.477 162.007 418.498 162.191V162.205C418.527 162.39 418.555 162.581 418.584 162.766V162.794C418.669 163.355 418.768 163.915 418.882 164.469V164.483C420.57 172.962 425.218 180.896 431.626 184.6L566.12 262.256C566.297 262.363 566.482 262.462 566.666 262.569L566.716 262.597C566.893 262.696 567.064 262.788 567.241 262.881H567.255C570.094 264.385 573.301 265.542 576.487 265.648C578.857 265.747 580.964 265.272 582.71 264.264H582.717L766.329 158.26C779.711 150.533 780.705 130.239 760.971 118.843H761ZM418.605 162.78C418.577 162.595 418.548 162.404 418.527 162.219L418.605 162.78ZM418.52 162.198C418.491 162.014 418.47 161.822 418.449 161.638L418.52 162.198ZM418.64 152.491C418.669 152.363 418.697 152.236 418.733 152.108L418.64 152.491Z" fill="white"/>
<path fill-rule="evenodd" clip-rule="evenodd" d="M760.998 127.833L623.715 48.5797C615.534 43.8539 606.167 43.8539 597.986 48.5797L428.452 146.452C409.542 157.373 420.15 186.962 440.111 198.486L566.139 271.261C571.071 274.106 577.372 276.15 582.744 273.255L766.355 167.25C779.738 159.523 780.731 139.229 760.998 127.833Z" fill="#FFB969"/>
<path fill-rule="evenodd" clip-rule="evenodd" d="M566.142 271.261L431.648 193.597C422.53 188.332 416.981 174.495 418.436 162.709C418.982 158.295 421.487 154.755 425.468 152.768C429.448 150.781 433.784 150.916 437.637 153.144L556.116 221.555L566.149 227.345C578.276 234.348 588.104 249.853 588.104 261.98C588.104 274.106 578.276 278.264 566.149 271.261H566.142Z" fill="#FA925A"/>
<path fill-rule="evenodd" clip-rule="evenodd" d="M418.901 173.487C418.184 169.904 418 166.221 418.433 162.716C418.731 160.289 419.625 158.118 421.03 156.337L560.796 237.031L564.997 239.457C570.07 242.388 574.186 248.881 574.186 253.954C574.186 259.028 570.07 260.773 564.997 257.843L418.901 173.495V173.487Z" fill="#FFB969"/>
<path fill-rule="evenodd" clip-rule="evenodd" d="M743.451 117.7L623.716 48.5797C615.535 43.861 606.168 43.861 597.987 48.5797L463.379 126.286C465.252 131.324 468.424 135.688 472.447 138.015L479.352 142.003L582.163 201.367L582.582 201.601L582.674 201.651C585.086 202.978 587.854 204.028 590.6 204.127C592.544 204.205 594.268 203.822 595.702 202.992L743.437 117.7H743.451Z" fill="#FA925A"/>
<path fill-rule="evenodd" clip-rule="evenodd" d="M717.599 82.9305L605.606 18.2805C598.935 14.4275 591.293 14.4275 584.616 18.2805L446.319 98.1227C430.892 107.028 439.549 131.168 455.834 140.57L558.645 199.934C562.669 202.254 567.806 203.921 572.191 201.558L721.97 115.082C732.89 108.781 733.699 92.2189 717.599 82.9234V82.9305Z" fill="#FFB969"/>
<path fill-rule="evenodd" clip-rule="evenodd" d="M558.647 199.926L448.931 136.575C441.495 132.282 436.967 120.993 438.152 111.378C438.6 107.78 440.643 104.885 443.886 103.267C447.136 101.649 450.67 101.756 453.813 103.572L550.458 159.381L558.64 164.107C568.531 169.819 576.549 182.471 576.549 192.362C576.549 202.254 568.531 205.646 558.64 199.934L558.647 199.926Z" fill="#FA925A"/>
<path fill-rule="evenodd" clip-rule="evenodd" d="M438.529 120.17C437.947 117.246 437.791 114.237 438.146 111.385C438.387 109.405 439.118 107.638 440.267 106.177L554.283 172.004L557.71 173.984C561.854 176.375 565.21 181.669 565.21 185.813C565.21 189.957 561.854 191.376 557.71 188.985L438.529 120.177V120.17Z" fill="#FFB969"/>
<path fill-rule="evenodd" clip-rule="evenodd" d="M142.464 677.404L279.612 760.525C281.783 761.845 284.174 762.121 286.601 761.341L375.044 732.787C378.301 731.737 380.5 729.027 380.862 725.628C381.224 722.222 379.642 719.114 376.676 717.404L224.832 629.735C222.405 628.33 219.695 628.195 217.133 629.344L143.393 662.446C140.449 663.766 138.611 666.427 138.412 669.649C138.213 672.87 139.711 675.73 142.471 677.404H142.464Z" fill="#79B1C4"/>
<path fill-rule="evenodd" clip-rule="evenodd" d="M277.78 754.905L311.557 735.406L344.368 717.538C350.889 678.944 340.401 609.419 324.549 580.539C312.266 558.159 312.841 518.884 313.224 481.617C313.288 475.443 310.308 470.114 305.014 466.935L164.616 387.427C161.913 385.894 158.826 385.922 156.144 387.505C153.469 389.087 151.95 391.769 151.986 394.877C152.369 431.357 152.773 469.539 140.647 503.777C137.624 512.313 134.8 522.134 132.245 532.657C130.727 532.167 129.102 531.905 127.42 531.905C118.713 531.905 111.66 538.958 111.66 547.664C111.66 555.86 117.912 562.594 125.909 563.353C120.225 596.072 117.465 630.203 119.572 651.859C120.111 657.366 122.957 661.872 127.704 664.724L277.78 754.912V754.905Z" fill="white"/>
<path fill-rule="evenodd" clip-rule="evenodd" d="M282.924 762.526L316.083 743.381L348.298 725.84C354.699 687.949 344.403 619.708 328.849 591.353C315.743 567.469 317.545 523.979 317.815 484.732L163.75 392.152L159.336 394.7C159.5 434.72 161.841 477.863 148.324 516.01C132.77 559.919 122.467 638.463 128.874 669.947L282.939 762.526H282.924Z" fill="#FFB969"/>
<path fill-rule="evenodd" clip-rule="evenodd" d="M282.926 762.526L316.085 743.381L348.3 725.84C349.166 720.724 349.719 715.048 350.003 708.995C322.209 714.246 289.504 718.085 263.037 714.473C204.851 706.54 225.478 638.306 150.901 643.068C141.989 643.635 134.049 643.068 126.96 641.627C126.797 652.902 127.386 662.673 128.862 669.94L282.926 762.519V762.526ZM248.618 675.197C253.031 675.197 256.608 677.766 256.608 680.931C256.608 684.096 253.031 686.664 248.618 686.664C244.204 686.664 240.628 684.096 240.628 680.931C240.628 677.766 244.204 675.197 248.618 675.197ZM273.091 684.33C283.756 684.33 292.406 689.609 292.406 696.116C292.406 702.623 283.756 707.902 273.091 707.902C262.426 707.902 253.776 702.623 253.776 696.116C253.776 689.609 262.426 684.33 273.091 684.33Z" fill="#FA925A"/>
<path fill-rule="evenodd" clip-rule="evenodd" d="M282.925 762.526L316.084 743.381L348.299 725.84C354.699 687.949 344.403 619.708 328.849 591.353C315.743 567.469 317.546 523.979 317.815 484.732L313.402 487.279C313.558 527.299 315.906 570.442 302.389 608.589C286.828 652.498 276.532 731.042 282.939 762.526H282.925Z" fill="#6C5F9E"/>
<path fill-rule="evenodd" clip-rule="evenodd" d="M282.924 762.526L316.083 743.381L348.298 725.84C350.661 711.855 350.746 693.739 349.135 675.02C335.128 701.445 309.016 712.713 285.159 684.692C280.845 715.75 279.525 745.787 282.931 762.526H282.924ZM328.252 683.961C330.708 683.855 332.524 685.16 332.311 686.877C332.098 688.595 329.934 690.078 327.486 690.184C325.031 690.29 323.214 688.985 323.427 687.268C323.64 685.55 325.804 684.067 328.26 683.961H328.252ZM348.781 671.267C347.184 673.275 345.183 675.169 342.898 676.73C335.809 681.591 328.65 681.485 326.897 676.489C325.144 671.501 329.473 663.511 336.562 658.65C340.202 656.152 343.863 654.967 346.801 655.081C347.588 660.445 348.248 665.867 348.774 671.259L348.781 671.267Z" fill="#41366E"/>
<path fill-rule="evenodd" clip-rule="evenodd" d="M221.391 540.107C202.516 534.189 182.414 547.295 176.503 569.363C170.585 591.438 181.094 614.131 199.976 620.042C218.851 625.96 238.953 612.854 244.864 590.786C250.782 568.711 240.273 546.025 221.391 540.107Z" fill="#FA925A"/>
<path fill-rule="evenodd" clip-rule="evenodd" d="M300.868 491.458L299.179 494.375L305.019 497.745L306.708 494.829L300.868 491.458ZM172.419 417.3L170.73 420.216L176.57 423.587L178.259 420.671L172.419 417.3ZM184.092 424.041L182.403 426.957L188.243 430.328L189.932 427.412L184.092 424.041ZM195.772 430.782L194.083 433.698L199.923 437.069L201.611 434.153L195.772 430.782ZM207.451 437.523L205.763 440.439L211.602 443.81L213.291 440.894L207.451 437.523ZM219.124 444.264L217.435 447.18L223.275 450.551L224.964 447.635L219.124 444.264ZM230.804 451.012L229.115 453.929L234.955 457.299L236.644 454.383L230.804 451.012ZM242.483 457.753L240.795 460.67L246.634 464.04L248.323 461.124L242.483 457.753ZM254.156 464.494L252.467 467.411L258.307 470.781L259.996 467.865L254.156 464.494ZM265.836 471.235L264.147 474.152L269.987 477.522L271.676 474.606L265.836 471.235ZM277.508 477.976L275.82 480.893L281.659 484.263L283.348 481.347L277.508 477.976ZM289.188 484.717L287.499 487.634L293.339 491.004L295.028 488.088L289.188 484.717Z" fill="#6C5F9E"/>
<path fill-rule="evenodd" clip-rule="evenodd" d="M110.987 486.044C114.698 486.044 117.706 489.053 117.706 492.764C117.706 496.475 114.698 499.491 110.987 499.491C107.276 499.491 104.26 496.482 104.26 492.764C104.26 489.046 107.268 486.044 110.987 486.044Z" fill="white"/>
<path fill-rule="evenodd" clip-rule="evenodd" d="M600.932 654.329C598.229 646.474 601.024 637.831 608.567 633.467L847.796 495.361C858.773 489.025 871.333 489.025 882.31 495.361L1025.47 578.006C1031.7 581.604 1034.85 588.167 1033.95 595.249L1019.01 731.233C1019.01 736.825 1016.24 741.629 1011.4 744.425L803.603 864.415C793.917 870.006 782.826 870.013 773.134 864.415L646.757 791.449C641.91 788.653 639.143 783.849 639.143 778.257L600.932 654.322V654.329Z" fill="white"/>
<path fill-rule="evenodd" clip-rule="evenodd" d="M1026.51 618.523L787.301 756.651C776.323 762.987 763.757 762.987 752.786 756.651L609.607 673.984C604.122 670.82 600.979 665.377 600.979 659.041C600.979 652.704 604.122 647.261 609.607 644.097L848.836 505.991C859.806 499.654 872.372 499.654 883.35 505.991L1026.51 588.636C1031.99 591.801 1035.14 597.243 1035.14 603.58C1035.14 609.916 1032 615.359 1026.51 618.523Z" fill="#6C5F9E"/>
<path fill-rule="evenodd" clip-rule="evenodd" d="M1012.44 755.054L804.644 875.044C794.958 880.636 783.867 880.636 774.174 875.044L647.798 802.085C642.951 799.289 640.184 794.486 640.184 788.894L601.568 663.646C602.718 667.981 605.507 671.621 609.608 673.991L752.787 756.658C763.765 762.994 776.331 762.994 787.301 756.658L1026.51 618.53C1031.33 615.749 1034.34 611.215 1035 605.857L1020.05 741.87C1020.05 747.462 1017.28 752.265 1012.44 755.061V755.054Z" fill="#41366E"/>
<path fill-rule="evenodd" clip-rule="evenodd" d="M795.689 878.557C788.473 880.146 780.98 878.976 774.182 875.052L647.805 802.092C642.959 799.297 640.192 794.493 640.192 788.901L601.576 663.653C602.726 667.989 605.514 671.629 609.616 673.999L752.795 756.665C760.012 760.83 767.916 762.256 775.601 760.944L795.689 878.564V878.557Z" fill="#6C5F9E"/>
<path fill-rule="evenodd" clip-rule="evenodd" d="M1013.52 619.751L789.928 748.859C779.596 754.827 767.761 754.827 757.422 748.859L622.601 671.018C617.436 668.038 614.477 662.908 614.477 656.947C614.477 650.987 617.436 645.857 622.601 642.876L846.212 513.789C856.543 507.822 868.379 507.822 878.711 513.789L1013.52 591.609C1018.68 594.589 1021.64 599.712 1021.64 605.68C1021.64 611.648 1018.68 616.771 1013.52 619.751Z" fill="#261D45"/>
<path fill-rule="evenodd" clip-rule="evenodd" d="M716.141 744.119L664.831 714.494C661.95 712.827 658.601 712.919 655.812 714.736C653.023 716.552 651.583 719.575 651.938 722.882L653.385 736.541C653.698 739.457 655.28 741.82 657.856 743.218L704.582 768.55C706.902 769.806 709.407 769.962 711.862 768.99C714.317 768.018 716.041 766.202 716.879 763.697L720.008 754.33C721.321 750.399 719.724 746.198 716.141 744.126V744.119Z" fill="#261D45"/>
<path fill-rule="evenodd" clip-rule="evenodd" d="M663.517 713.87C660.97 712.898 658.195 713.196 655.818 714.736C653.029 716.552 651.589 719.575 651.944 722.882L653.391 736.541C653.703 739.457 655.286 741.82 657.862 743.218L704.588 768.55C706.908 769.806 709.413 769.962 711.868 768.99C714.323 768.018 716.047 766.202 716.885 763.697L720.014 754.33C720.539 752.762 720.596 751.151 720.255 749.647C720.198 749.874 720.134 750.101 720.056 750.328L717.232 758.786C716.48 761.05 714.919 762.689 712.705 763.562C710.491 764.435 708.228 764.3 706.134 763.165L663.964 740.309C661.644 739.046 660.21 736.917 659.934 734.285L658.628 721.959C658.309 718.972 659.607 716.247 662.126 714.608C662.573 714.317 663.042 714.076 663.517 713.884V713.87Z" fill="#41366E"/>
<path fill-rule="evenodd" clip-rule="evenodd" d="M1029.65 591.297C1032.45 592.915 1034.66 595.107 1036.15 597.704C1037.66 600.308 1038.46 603.31 1038.46 606.539C1038.46 609.767 1037.66 612.776 1036.15 615.373C1034.65 617.977 1032.45 620.17 1029.65 621.788L790.446 759.915C784.904 763.115 778.958 764.711 773.012 764.719C767.065 764.719 761.119 763.122 755.577 759.922L612.398 677.255C609.602 675.638 607.402 673.445 605.898 670.841C604.394 668.237 603.592 665.235 603.592 662.007C603.592 658.778 604.394 655.776 605.898 653.172C607.402 650.568 609.602 648.376 612.398 646.758L612.745 647.361C610.056 648.915 607.942 651.022 606.501 653.52C605.061 656.018 604.294 658.899 604.294 662.007C604.294 665.115 605.061 668.003 606.501 670.493C607.942 672.991 610.056 675.098 612.745 676.652L755.925 759.319C761.353 762.455 767.186 764.023 773.005 764.023C778.83 764.023 784.656 762.455 790.091 759.319L1029.3 621.191C1031.99 619.637 1034.1 617.53 1035.54 615.032C1036.98 612.535 1037.75 609.654 1037.75 606.546C1037.75 603.438 1036.98 600.557 1035.54 598.059C1034.1 595.561 1031.99 593.454 1029.3 591.9L1029.65 591.297H1029.65Z" fill="white"/>
<path fill-rule="evenodd" clip-rule="evenodd" d="M749.474 860.782L647.798 802.078C642.952 799.282 640.184 794.478 640.184 788.887L615.342 708.307C621.111 709.272 627.256 711.635 633.812 715.899C678.225 744.808 662.657 831.178 706.7 816.681C746.246 803.667 749.268 850.968 749.474 860.782Z" fill="#41366E"/>
<path fill-rule="evenodd" clip-rule="evenodd" d="M1029.82 590.097C1029.82 590.097 1027.78 553.944 998.31 555.995C968.849 558.039 993.812 497.98 961.895 481.091C929.978 464.203 909.932 499.775 902.063 492.729C895.62 486.96 878.008 488.372 873.098 495.808L1029.82 590.105V590.097ZM983.033 467.347C984.502 467.347 985.694 468.539 985.694 470.008C985.694 471.477 984.502 472.669 983.033 472.669C981.564 472.669 980.372 471.477 980.372 470.008C980.372 468.539 981.564 467.347 983.033 467.347ZM999.197 497.632C1003.49 497.632 1006.97 501.116 1006.97 505.409C1006.97 509.702 1003.49 513.186 999.197 513.186C994.905 513.186 991.42 509.702 991.42 505.409C991.42 501.116 994.897 497.632 999.197 497.632Z" fill="white"/>
<path fill-rule="evenodd" clip-rule="evenodd" d="M937.196 508.95C925.325 508.95 914.362 518.572 912.708 530.443C911.055 542.314 919.336 551.936 931.207 551.936C943.078 551.936 954.041 542.314 955.695 530.443C957.348 518.572 949.067 508.95 937.203 508.95H937.196Z" fill="#83C231"/>
<path fill-rule="evenodd" clip-rule="evenodd" d="M14.0994 331.313C21.8835 331.313 28.1988 337.628 28.1988 345.412C28.1988 353.196 21.8835 359.512 14.0994 359.512C6.31528 359.512 0 353.196 0 345.412C0 337.628 6.31528 331.313 14.0994 331.313Z" fill="#83C231"/>
<path fill-rule="evenodd" clip-rule="evenodd" d="M1014.89 520.076C1007.73 520.076 1001.11 525.88 1000.11 533.047C999.113 540.214 1004.12 546.018 1011.28 546.018C1018.44 546.018 1025.06 540.214 1026.06 533.047C1027.06 525.887 1022.05 520.076 1014.89 520.076Z" fill="#83C231"/>
<path fill-rule="evenodd" clip-rule="evenodd" d="M954.899 653.719L835.533 584.811C827.678 580.277 818.688 580.277 810.833 584.811L673.138 664.298C667.504 667.555 664.602 672.53 663.843 678.185V678.206V678.235L663.829 678.263V678.291L663.814 678.313V678.341V678.369L663.8 678.398V678.419V678.448L663.786 678.476V678.504L663.779 678.526V678.561V678.589L663.765 678.618V678.639V678.646V678.675L663.75 678.703V678.731L663.743 678.745V678.781V678.809L663.736 678.838V678.852V678.866V678.895L663.722 678.923V678.951L663.715 678.966V678.98L663.708 679.008V679.036L663.694 679.065V679.079V679.093V679.122L663.687 679.15V679.178V679.193V679.207L663.68 679.235V679.264L663.672 679.292V679.32V679.349L663.665 679.377V679.405V679.413V679.434L663.658 679.462V679.491L663.651 679.519V679.547V679.576L663.644 679.604V679.632V679.654L663.637 679.682V679.711L663.63 679.739V679.767V679.796L663.623 679.824V679.852V679.881V679.909V679.938V679.966C663.601 680.136 663.58 680.314 663.566 680.484V680.512C663.545 680.668 663.531 680.832 663.516 680.988V681.03L663.509 681.073C663.495 681.229 663.481 681.392 663.474 681.548V681.563C663.46 681.74 663.452 681.917 663.445 682.095V682.109C663.438 682.286 663.431 682.464 663.424 682.641V682.67C663.41 683.01 663.41 683.358 663.41 683.698V684.273V684.287C663.424 684.827 663.445 685.373 663.481 685.912C663.516 686.459 663.566 686.998 663.637 687.544V687.566C663.75 688.481 663.892 689.396 664.077 690.305C664.453 692.199 664.985 694.065 665.659 695.861L757.642 748.966C767.981 754.933 779.81 754.933 790.148 748.966L955.013 653.768L954.899 653.719ZM663.36 681.513L663.332 682.045C663.339 681.868 663.353 681.69 663.36 681.513ZM663.332 682.059L663.311 682.591C663.311 682.414 663.325 682.237 663.332 682.059Z" fill="#6C5F9E"/>
<path fill-rule="evenodd" clip-rule="evenodd" d="M953.216 609.824L838.839 543.797C832.02 539.859 824.221 539.859 817.402 543.797L676.16 625.335C660.4 634.432 669.242 659.083 685.874 668.691L790.871 729.317C794.98 731.687 800.23 733.39 804.708 730.978L957.672 642.663C968.82 636.227 969.65 619.318 953.209 609.824H953.216Z" fill="#FFB969"/>
<path fill-rule="evenodd" clip-rule="evenodd" d="M790.877 729.31L678.827 664.61C671.228 660.225 666.608 648.694 667.822 638.874C668.276 635.198 670.362 632.246 673.683 630.593C676.996 628.94 680.615 629.053 683.823 630.905L782.526 687.899L790.884 692.724C800.989 698.557 809.177 711.478 809.177 721.576C809.177 731.673 800.989 735.143 790.884 729.31H790.877Z" fill="#FA925A"/>
<path fill-rule="evenodd" clip-rule="evenodd" d="M668.204 647.857C667.608 644.87 667.452 641.804 667.814 638.881C668.063 636.859 668.808 635.049 669.978 633.566L786.421 700.792L789.919 702.814C794.148 705.255 797.575 710.662 797.575 714.891C797.575 719.12 794.148 720.568 789.919 718.127L668.204 647.85V647.857Z" fill="#FFB969"/>
<path fill-rule="evenodd" clip-rule="evenodd" d="M938.594 601.38L838.841 543.797C832.021 539.866 824.223 539.866 817.404 543.797L705.262 608.539C706.823 612.74 709.462 616.373 712.819 618.31L718.566 621.631L804.22 671.089L804.568 671.288L804.646 671.33C806.654 672.437 808.96 673.31 811.252 673.395C812.87 673.466 814.31 673.14 815.502 672.451L938.579 601.387L938.594 601.38Z" fill="#FA925A"/>
<path fill-rule="evenodd" clip-rule="evenodd" d="M918.29 564.226L824.987 510.362C819.424 507.154 813.066 507.154 807.503 510.362L692.281 576.878C688.293 579.184 686.235 582.704 685.703 586.706V586.72V586.741V586.762L685.696 586.784V586.798V586.819L685.689 586.84V586.862L685.682 586.876V586.904V586.926L685.668 586.982V587.004L685.661 587.025V587.039V587.046V587.067L685.653 587.089V587.11V587.117V587.146V587.167L685.646 587.188V587.224V587.245L685.639 587.266V587.287V587.309L685.632 587.33V587.351V587.358V587.373V587.394V587.415L685.625 587.436V587.458V587.479V587.5V587.522V587.536V587.557V587.578V587.6V587.621V587.642V587.663V587.685V587.699V587.72V587.742V587.763V587.784V587.805V587.827V587.848V587.869V587.891V587.912V587.933V587.954V587.976V587.997V588.018L685.582 588.352V588.394V588.416L685.554 588.756V588.778V588.806C685.533 589.033 685.519 589.26 685.512 589.487V589.537V589.601L685.497 589.899V589.927V589.948V590.289L685.49 590.31V590.63V591.055V591.077V591.105V591.431L685.497 591.467C685.504 591.729 685.519 591.985 685.54 592.24L685.568 592.588V592.631L685.575 592.702C685.604 593.049 685.646 593.397 685.689 593.738V593.794L685.703 593.858C685.731 594.092 685.767 594.319 685.81 594.546V594.568C685.859 594.823 685.902 595.079 685.951 595.341C687.101 601.103 690.259 606.496 694.615 609.015L700.363 612.336L786.017 661.794L786.364 661.992L786.443 662.035C788.451 663.142 790.757 664.015 793.049 664.1C794.667 664.171 796.107 663.844 797.299 663.156L922.079 591.112C931.176 585.861 931.85 572.067 918.439 564.325L918.29 564.226Z" fill="white"/>
<path fill-rule="evenodd" clip-rule="evenodd" d="M917.064 572.407L823.761 518.543C818.198 515.336 811.84 515.336 806.277 518.543L691.055 585.059C678.198 592.482 685.414 612.591 698.981 620.425L784.635 669.883C787.984 671.82 792.27 673.204 795.917 671.238L920.705 599.194C929.801 593.943 930.476 580.149 917.064 572.407Z" fill="#B3DB4F"/>
<path fill-rule="evenodd" clip-rule="evenodd" d="M784.626 669.883L693.217 617.104C687.023 613.528 683.248 604.126 684.234 596.115C684.603 593.113 686.306 590.708 689.01 589.359C691.713 588.011 694.665 588.103 697.283 589.615L777.8 636.107L784.619 640.045C792.857 644.806 799.541 655.343 799.541 663.582C799.541 671.82 792.857 674.644 784.619 669.89L784.626 669.883Z" fill="#83C231"/>
<path fill-rule="evenodd" clip-rule="evenodd" d="M684.562 603.437C684.079 601.004 683.951 598.499 684.242 596.115C684.448 594.461 685.051 592.992 686.009 591.779L781.001 646.623L783.853 648.269C787.302 650.263 790.098 654.676 790.098 658.125C790.098 661.574 787.302 662.759 783.853 660.765L684.562 603.437Z" fill="#B3DB4F"/>
<path fill-rule="evenodd" clip-rule="evenodd" d="M736.303 586.897C740.809 586.897 744.463 590.956 744.463 595.959C744.463 596.839 744.349 597.69 744.137 598.499C743.15 595.1 740.014 592.617 736.303 592.617C732.592 592.617 729.462 595.1 728.469 598.499C728.256 597.69 728.143 596.839 728.143 595.959C728.143 590.956 731.797 586.897 736.303 586.897Z" fill="#83C231"/>
<path fill-rule="evenodd" clip-rule="evenodd" d="M845.674 540.647C850.18 540.647 853.834 544.705 853.834 549.708C853.834 550.588 853.721 551.439 853.508 552.248C852.521 548.849 849.385 546.366 845.674 546.366C841.963 546.366 838.826 548.849 837.84 552.248C837.627 551.439 837.514 550.588 837.514 549.708C837.514 544.705 841.168 540.647 845.674 540.647Z" fill="#83C231"/>
<path fill-rule="evenodd" clip-rule="evenodd" d="M866.264 581.512C870.77 581.512 874.424 585.57 874.424 590.573C874.424 591.453 874.31 592.304 874.097 593.113C873.111 589.714 869.975 587.231 866.264 587.231C862.553 587.231 859.416 589.714 858.43 593.113C858.217 592.304 858.104 591.453 858.104 590.573C858.104 585.57 861.758 581.512 866.264 581.512Z" fill="#83C231"/>
<path fill-rule="evenodd" clip-rule="evenodd" d="M805.893 624.605C810.398 624.605 814.053 628.663 814.053 633.666C814.053 634.546 813.939 635.397 813.726 636.206C812.74 632.807 809.604 630.324 805.893 630.324C802.182 630.324 799.045 632.807 798.059 636.206C797.846 635.397 797.732 634.546 797.732 633.666C797.732 628.663 801.387 624.605 805.893 624.605Z" fill="#83C231"/>
<path fill-rule="evenodd" clip-rule="evenodd" d="M826.352 592.042C830.857 592.042 834.512 596.101 834.512 601.103C834.512 601.983 834.398 602.834 834.185 603.643C833.199 600.245 830.063 597.761 826.352 597.761C822.64 597.761 819.511 600.245 818.518 603.643C818.305 602.834 818.191 601.983 818.191 601.103C818.191 596.101 821.846 592.042 826.352 592.042Z" fill="#83C231"/>
<path fill-rule="evenodd" clip-rule="evenodd" d="M813.398 523.659C817.904 523.659 821.559 527.718 821.559 532.721C821.559 533.601 821.445 534.452 821.232 535.261C820.246 531.862 817.11 529.379 813.398 529.379C809.687 529.379 806.558 531.862 805.565 535.261C805.352 534.452 805.238 533.601 805.238 532.721C805.238 527.718 808.893 523.659 813.398 523.659Z" fill="#83C231"/>
<path fill-rule="evenodd" clip-rule="evenodd" d="M822.272 560.522C826.777 560.522 830.432 564.581 830.432 569.583C830.432 570.463 830.318 571.315 830.105 572.124C829.119 568.725 825.983 566.241 822.272 566.241C818.56 566.241 815.431 568.725 814.438 572.124C814.225 571.315 814.111 570.463 814.111 569.583C814.111 564.581 817.766 560.522 822.272 560.522Z" fill="#83C231"/>
<path fill-rule="evenodd" clip-rule="evenodd" d="M781.588 541.789C786.094 541.789 789.748 545.848 789.748 550.85C789.748 551.73 789.635 552.582 789.422 553.391C788.435 549.992 785.299 547.508 781.588 547.508C777.877 547.508 774.748 549.992 773.754 553.391C773.541 552.582 773.428 551.73 773.428 550.85C773.428 545.848 777.082 541.789 781.588 541.789Z" fill="#83C231"/>
<path fill-rule="evenodd" clip-rule="evenodd" d="M780.738 571.641C785.244 571.641 788.899 575.7 788.899 580.703C788.899 581.583 788.785 582.434 788.572 583.243C787.586 579.844 784.449 577.361 780.738 577.361C777.027 577.361 773.898 579.844 772.905 583.243C772.692 582.441 772.578 581.583 772.578 580.703C772.578 575.7 776.232 571.641 780.738 571.641Z" fill="#83C231"/>
<path fill-rule="evenodd" clip-rule="evenodd" d="M745.4 561.799C749.906 561.799 753.561 565.858 753.561 570.861C753.561 571.741 753.447 572.592 753.234 573.401C752.248 570.002 749.112 567.519 745.4 567.519C741.689 567.519 738.56 570.002 737.567 573.401C737.354 572.592 737.24 571.741 737.24 570.861C737.24 565.858 740.895 561.799 745.4 561.799Z" fill="#83C231"/>
<path fill-rule="evenodd" clip-rule="evenodd" d="M779.252 601.678C783.758 601.678 787.412 605.737 787.412 610.739C787.412 611.619 787.299 612.471 787.086 613.28C786.099 609.881 782.963 607.397 779.252 607.397C775.541 607.397 772.404 609.881 771.418 613.28C771.205 612.471 771.092 611.619 771.092 610.739C771.092 605.737 774.746 601.678 779.252 601.678Z" fill="#83C231"/>
<path fill-rule="evenodd" clip-rule="evenodd" d="M880.49 559.408C884.996 559.408 888.65 563.467 888.65 568.469C888.65 569.349 888.537 570.201 888.324 571.01C887.338 567.611 884.201 565.127 880.49 565.127C876.779 565.127 873.65 567.611 872.657 571.01C872.444 570.201 872.33 569.349 872.33 568.469C872.33 563.467 875.984 559.408 880.49 559.408Z" fill="#83C231"/>
<path fill-rule="evenodd" clip-rule="evenodd" d="M204.901 304.654C213.068 304.654 219.745 308.635 224.52 314.638C229.743 321.208 232.652 330.241 232.652 339.069C232.652 347.371 229.438 353.977 224.159 358.596C218.61 363.457 210.804 366.061 202.119 366.061C193.434 366.061 185.976 361.726 180.186 355.325C174.154 348.655 170.287 339.693 170.287 331.057C170.287 322.975 174.218 316.653 180.157 312.204C186.806 307.23 195.988 304.647 204.893 304.647L204.901 304.654ZM221.398 317.121C217.354 312.026 211.727 308.649 204.901 308.649C196.79 308.649 188.481 310.955 182.549 315.39C177.574 319.115 174.289 324.373 174.289 331.057C174.289 338.714 177.745 346.69 183.138 352.657C188.211 358.27 194.973 362.066 202.119 362.066C209.846 362.066 216.722 359.81 221.533 355.602C225.954 351.728 228.65 346.136 228.65 339.069C228.65 331.1 226.053 322.982 221.398 317.121Z" fill="white"/>
<path fill-rule="evenodd" clip-rule="evenodd" d="M195.804 314.766C195.804 314.766 180.356 318.789 181.208 333.598C182.052 348.407 209.768 318.363 195.804 314.766Z" fill="white"/>
<path fill-rule="evenodd" clip-rule="evenodd" d="M81.4961 208.151C75.2801 208.151 70.1995 211.18 66.5664 215.75C62.5928 220.753 60.3789 227.621 60.3789 234.341C60.3789 240.656 62.827 245.687 66.8432 249.2C71.0652 252.904 77.0044 254.884 83.6106 254.884C90.2168 254.884 95.8935 251.584 100.3 246.716C104.891 241.643 107.829 234.824 107.829 228.253C107.829 222.101 104.841 217.29 100.314 213.905C95.2548 210.116 88.2655 208.158 81.489 208.158L81.4961 208.151ZM68.9436 217.638C72.0232 213.763 76.3019 211.195 81.4961 211.195C87.6694 211.195 93.9918 212.947 98.5047 216.325C102.287 219.156 104.792 223.158 104.792 228.246C104.792 234.072 102.159 240.138 98.0577 244.68C94.1976 248.951 89.0531 251.839 83.6177 251.839C77.7353 251.839 72.5057 250.122 68.8442 246.922C65.4808 243.977 63.4301 239.72 63.4301 234.341C63.4301 228.281 65.4028 222.101 68.9507 217.638H68.9436Z" fill="white"/>
<path fill-rule="evenodd" clip-rule="evenodd" d="M77.5137 215.488C74.1219 215.481 68.8142 217.751 69.2896 226.096C69.7651 234.441 85.3829 217.517 77.5137 215.488Z" fill="white"/>
<path fill-rule="evenodd" clip-rule="evenodd" d="M912.465 354.622C906.249 354.622 901.168 357.652 897.535 362.222C893.562 367.225 891.348 374.093 891.348 380.813C891.348 387.128 893.796 392.159 897.812 395.672C902.034 399.376 907.973 401.356 914.579 401.356C921.186 401.356 926.862 398.056 931.269 393.188C935.86 388.115 938.797 381.296 938.797 374.725C938.797 368.573 935.81 363.762 931.283 360.377C926.224 356.588 919.234 354.63 912.458 354.63L912.465 354.622ZM899.912 364.11C902.992 360.235 907.271 357.667 912.465 357.667C918.638 357.667 924.961 359.419 929.473 362.797C933.256 365.628 935.76 369.63 935.76 374.718C935.76 380.543 933.128 386.61 929.026 391.152C925.166 395.423 920.022 398.311 914.586 398.311C908.704 398.311 903.474 396.594 899.813 393.394C896.45 390.442 894.399 386.192 894.399 380.813C894.399 374.753 896.371 368.573 899.919 364.11H899.912Z" fill="white"/>
<path fill-rule="evenodd" clip-rule="evenodd" d="M908.484 361.952C905.093 361.945 899.785 364.216 900.26 372.561C900.736 380.905 916.354 363.982 908.484 361.952Z" fill="white"/>
<path fill-rule="evenodd" clip-rule="evenodd" d="M971.624 241.082C968.579 241.082 966.146 242.516 964.4 244.644C962.285 247.227 961.164 250.825 961.164 254.217C961.164 257.232 962.527 259.971 964.726 261.958C966.969 263.981 970.077 265.229 973.525 265.229C976.789 265.229 980.11 263.328 982.686 260.653C985.475 257.758 987.362 254.018 987.362 250.832C987.362 248.221 985.609 246 983.076 244.346C979.869 242.253 975.491 241.082 971.624 241.082ZM962.08 242.757C964.364 239.961 967.579 238.081 971.616 238.081C976.009 238.081 981.011 239.429 984.701 241.834C988.05 244.013 990.364 247.071 990.364 250.825C990.364 254.784 988.136 259.304 984.843 262.725C981.742 265.939 977.655 268.231 973.525 268.231C969.395 268.231 965.5 266.677 962.725 264.172C959.908 261.632 958.17 258.112 958.17 254.217C958.17 250.321 959.525 245.886 962.087 242.757H962.08Z" fill="white"/>
<path fill-rule="evenodd" clip-rule="evenodd" d="M803.005 577.261C806.049 577.261 808.483 578.694 810.221 580.823C812.336 583.406 813.457 587.004 813.457 590.395C813.457 593.411 812.095 596.15 809.895 598.137C807.66 600.159 804.545 601.408 801.096 601.408C797.832 601.408 794.511 599.506 791.936 596.831C789.147 593.936 787.259 590.197 787.259 587.011C787.259 584.399 789.012 582.178 791.545 580.525C794.753 578.432 799.131 577.261 802.998 577.261H803.005ZM812.542 578.936C810.257 576.14 807.043 574.259 803.005 574.259C798.613 574.259 793.61 575.608 789.92 578.013C786.578 580.199 784.258 583.25 784.258 587.004C784.258 590.963 786.486 595.483 789.778 598.896C792.879 602.111 796.966 604.403 801.096 604.403C805.226 604.403 809.122 602.848 811.896 600.344C814.713 597.803 816.452 594.284 816.452 590.388C816.452 586.493 815.089 582.058 812.535 578.929L812.542 578.936Z" fill="white"/>
<path fill-rule="evenodd" clip-rule="evenodd" d="M479.238 717.503C539.56 787.375 625.37 830.795 726.861 860.469C726.861 860.469 733.588 800.481 688.409 810.919C643.23 821.364 666.568 736.761 624.951 703.95C583.334 671.139 552.233 726.5 540.071 720.15C527.909 713.806 509.168 691.972 479.245 717.503H479.238Z" fill="white"/>
<path d="M530.626 699.891C537.637 699.891 543.321 694.207 543.321 687.197C543.321 680.186 537.637 674.502 530.626 674.502C523.615 674.502 517.932 680.186 517.932 687.197C517.932 694.207 523.615 699.891 530.626 699.891Z" fill="white"/>
<path fill-rule="evenodd" clip-rule="evenodd" d="M576.857 663.759C581.81 663.759 585.833 667.775 585.833 672.735C585.833 677.695 581.817 681.711 576.857 681.711C571.897 681.711 567.881 677.695 567.881 672.735C567.881 667.775 571.897 663.759 576.857 663.759Z" fill="white"/>
<path fill-rule="evenodd" clip-rule="evenodd" d="M349.13 808.642C349.13 808.642 347.087 772.488 317.625 774.539C288.163 776.583 313.126 716.524 281.209 699.636C249.292 682.747 229.247 718.319 221.377 711.273C214.934 705.504 197.322 706.916 192.412 714.352L349.138 808.649L349.13 808.642ZM302.341 685.891C303.809 685.891 305.001 687.083 305.001 688.552C305.001 690.021 303.809 691.213 302.341 691.213C300.872 691.213 299.68 690.021 299.68 688.552C299.68 687.083 300.872 685.891 302.341 685.891ZM227.771 676.908C232.064 676.908 235.548 680.392 235.548 684.685C235.548 688.978 232.071 692.462 227.771 692.462C223.47 692.462 219.994 688.978 219.994 684.685C219.994 680.392 223.478 676.908 227.771 676.908Z" fill="white"/>
</svg>
