<svg width="789" height="472" viewBox="0 0 789 472" fill="none" xmlns="http://www.w3.org/2000/svg">
<path fill-rule="evenodd" clip-rule="evenodd" d="M760.489 464.435H60.2822C41.0947 437.801 52.1659 385.597 77.9331 367.867C91.0925 358.805 107.049 356.835 120.878 349.271C153.147 331.62 167.921 287.059 169.379 245.887C170.837 204.714 162.209 163.857 162.012 122.645C161.815 81.4334 172.531 36.3211 202.396 13.7058C224.42 -2.96016 253.93 -3.98454 278.082 8.22928C302.195 20.4431 320.909 44.7525 331.429 72.6473C344.313 106.885 347.228 149.2 372.759 172.17C391.947 189.427 418.896 190.176 442.614 183.793C466.293 177.45 488.475 164.96 512.075 158.065C535.676 151.17 562.428 150.658 582.443 166.654C601.276 181.705 610.298 207.906 619.715 231.979C629.131 256.052 641.739 281.425 663.29 290.408C689.924 301.519 720.498 283.434 747.526 293.363C773.451 302.898 788.029 336.426 788.226 367.788C788.423 399.15 771.402 435.713 760.528 464.435H760.489Z" fill="#F4F4F4"/>
<path d="M683.778 197.819C677.474 193.091 669.003 189.664 661.202 192.461C653.44 195.219 649.934 203.375 646.861 210.388C642.645 220.041 639.532 230.127 637.523 240.489C637.05 242.853 640.675 243.838 641.108 241.474C643.078 231.309 646.112 221.341 650.288 211.845C652.101 207.787 653.913 203.335 656.868 199.947C660.296 196.007 665.221 194.589 670.303 195.534C679.089 197.189 686.772 204.084 691.146 211.609C696.189 220.238 697.213 230.56 694.416 240.134C693.746 242.459 697.331 243.444 698.001 241.119C702.65 225.162 697.055 207.827 683.738 197.859L683.778 197.819Z" fill="#0B2933"/>
<path d="M618.451 227.566H721.835L734.837 345.528H631.453L618.451 227.566Z" fill="#0B2933"/>
<path d="M697.999 227.566H594.576L581.613 345.528H684.997L697.999 227.566Z" fill="#0B2933"/>
<path d="M618.453 243.602C620.563 243.602 622.274 241.89 622.274 239.78C622.274 237.669 620.563 235.958 618.453 235.958C616.342 235.958 614.631 237.669 614.631 239.78C614.631 241.89 616.342 243.602 618.453 243.602Z" fill="#0B2933"/>
<path d="M674.4 243.602C676.511 243.602 678.222 241.89 678.222 239.78C678.222 237.669 676.511 235.958 674.4 235.958C672.289 235.958 670.578 237.669 670.578 239.78C670.578 241.89 672.289 243.602 674.4 243.602Z" fill="#0B2933"/>
<path d="M662.067 196.086C655.763 191.358 647.292 187.93 639.491 190.727C631.729 193.485 628.223 201.641 625.15 208.654C620.934 218.307 617.821 228.393 615.812 238.755C615.339 241.119 618.964 242.104 619.397 239.74C621.367 229.575 624.401 219.607 628.577 210.112C630.39 206.054 632.202 201.602 635.157 198.213C638.585 194.273 643.51 192.855 648.592 193.801C657.378 195.455 665.061 202.35 669.435 209.876C674.478 218.504 675.502 228.827 672.705 238.401C672.035 240.725 675.62 241.71 676.29 239.386C680.939 223.429 675.345 206.093 662.028 196.125L662.067 196.086Z" fill="#0B2933"/>
<path d="M514.164 353.841H464.521H441.708H423.269H402.742V460.377H464.521H514.164H643V353.841H514.164Z" fill="#0B2933"/>
<path d="M681.729 336.742H548.795V463.805H681.729V336.742Z" fill="#FF7A45"/>
<path d="M753.239 336.742H622.473V463.805H753.239V336.742Z" fill="#FFAE43"/>
<path d="M753.239 392.334H622.473V408.055H753.239V392.334Z" fill="#FF7A45"/>
<path d="M622.038 392.334H548.795V408.055H622.038V392.334Z" fill="#E55C2C"/>
<path d="M695.715 463.805V336.742H679.994V463.805H695.715Z" fill="#FF7A45"/>
<path d="M590.756 463.844V336.781H575.035V463.844H590.756Z" fill="#E55C2C"/>
<path d="M133.289 459.865L129.349 459.589C129.349 459.313 131.24 430.709 118.238 401.199C100.902 361.8 66.7036 339.539 16.627 335.008L16.9816 331.068C45.3491 333.629 69.1464 341.982 87.7035 355.929C102.557 367.119 114.101 381.854 121.942 399.741C135.259 430.118 133.407 458.644 133.289 459.865Z" fill="#8E42A0"/>
<path d="M130.136 436.58C134.864 439.298 148.93 423.617 152.515 417.392C156.101 411.167 155.194 403.918 150.467 401.199C145.739 398.481 139.829 402.618 137.386 409.315C134.47 417.314 125.408 433.901 130.136 436.619V436.58Z" fill="#8E42A0"/>
<path d="M123.793 406.558C129.467 407.937 139.356 387.528 141.208 380.002C143.059 372.477 139.947 365.228 134.273 363.849C128.6 362.47 123.675 368.498 123.163 376.141C122.532 385.282 118.12 405.179 123.793 406.558Z" fill="#8E42A0"/>
<path d="M126.866 421.293C123.989 426.218 103.029 419.362 96.528 415.58C90.0271 411.798 87.0327 404.745 89.9089 399.82C92.7851 394.895 100.31 395.565 106.023 400.332C112.839 406.045 129.742 416.368 126.905 421.293H126.866Z" fill="#8E42A0"/>
<path d="M112.052 386.227C110.87 391.349 90.501 391.074 83.7243 389.537C76.9476 388 72.3773 382.563 73.5592 377.441C74.7412 372.319 81.5573 370.822 87.9006 373.462C95.5047 376.653 113.234 381.066 112.092 386.227H112.052Z" fill="#8E42A0"/>
<path d="M84.6314 357.269C84.395 361.839 66.941 364.676 60.9129 364.4C54.8848 364.124 50.1569 360.184 50.3933 355.614C50.6297 351.044 56.2244 348.719 62.0555 350.059C69.0292 351.635 84.8678 352.738 84.6708 357.269H84.6314Z" fill="#8E42A0"/>
<path d="M50.2724 340.445C51.3756 344.267 37.8616 351.516 32.8185 352.974C27.7753 354.432 22.811 352.541 21.7078 348.759C20.6046 344.937 24.5446 341.47 29.7059 340.879C35.8522 340.209 49.1692 336.624 50.2724 340.406V340.445Z" fill="#8E42A0"/>
<path d="M24.2309 333.984C24.2703 337.215 12.0959 339.973 7.80139 340.051C3.54625 340.091 0.0396984 337.53 0.000298944 334.299C-0.0391005 331.068 3.82204 329.177 7.99838 329.847C13.0021 330.635 24.1915 330.714 24.2703 333.944L24.2309 333.984Z" fill="#8E42A0"/>
<path d="M69.6185 345.488C72.3371 342.376 62.7236 329.571 58.5867 325.986C54.4498 322.4 48.9338 322.006 46.2153 325.119C43.4967 328.232 45.7031 333.275 50.3522 336.072C55.8681 339.421 66.9394 348.601 69.6579 345.488H69.6185Z" fill="#8E42A0"/>
<path d="M38.8081 335.757C41.0539 333.156 33.0952 322.558 29.6674 319.603C26.2397 316.648 21.6693 316.333 19.4236 318.894C17.1778 321.494 19.0296 325.631 22.8513 327.956C27.4217 330.714 36.6017 338.357 38.8475 335.757H38.8081Z" fill="#8E42A0"/>
<path d="M104.329 372.162C109.215 370.231 105.827 350.138 103.266 343.637C100.705 337.175 94.6766 333.472 89.7517 335.402C84.8662 337.333 84.4328 344.306 88.0181 350.177C92.3127 357.19 99.4046 374.053 104.29 372.122L104.329 372.162Z" fill="#8E42A0"/>
<path d="M127.655 464.435H123.715C124.818 375.235 112.644 298.17 102.242 249.236C90.9741 196.165 79.2725 163.778 79.1543 163.463L82.8578 162.123C82.976 162.439 94.7565 195.022 106.064 248.329C116.505 297.5 128.758 374.92 127.616 464.435H127.655Z" fill="#8E42A0"/>
<path d="M119.62 351.832C115.01 357.899 88.2576 345.331 80.2201 339.224C72.1826 333.117 69.3853 323.228 74.0344 317.16C78.6441 311.093 88.5728 313.181 95.3495 320.509C103.466 329.256 124.269 345.764 119.62 351.832Z" fill="#8E42A0"/>
<path d="M114.338 306.128C109.729 312.196 82.9763 299.628 74.9389 293.521C66.9014 287.414 64.104 277.524 68.7531 271.457C73.3629 265.389 83.2915 267.478 90.0682 274.806C98.1845 283.553 118.987 300.061 114.338 306.128Z" fill="#8E42A0"/>
<path d="M118.792 333.629C124.623 338.554 148.026 320.509 154.567 312.787C161.107 305.065 161.698 294.821 155.867 289.896C150.036 284.971 140.816 289.147 135.773 297.776C129.745 308.059 113 328.665 118.831 333.59L118.792 333.629Z" fill="#8E42A0"/>
<path d="M112.169 287.296C117.843 291.157 137.03 272.797 142.113 265.271C147.195 257.746 146.762 248.566 141.088 244.705C135.415 240.844 127.574 245.493 123.871 253.648C119.458 263.419 106.456 283.434 112.13 287.256L112.169 287.296Z" fill="#8E42A0"/>
<path d="M106.42 260.504C102.677 265.862 79.3526 255.933 72.2607 250.969C65.1688 246.005 62.4896 237.613 66.2325 232.294C69.9755 226.936 78.5252 228.433 84.5927 234.5C91.8422 241.71 110.124 255.185 106.381 260.543L106.42 260.504Z" fill="#8E42A0"/>
<path d="M102.163 238.755C107.325 241.75 122.887 224.611 126.867 217.755C130.846 210.9 129.9 202.941 124.7 199.947C119.538 196.953 112.998 201.444 110.279 208.812C107.049 217.598 96.9625 235.761 102.124 238.795L102.163 238.755Z" fill="#8E42A0"/>
<path d="M96.2146 218.898C92.8657 223.35 73.2053 214.249 67.2954 209.797C61.3855 205.345 59.3367 198.135 62.6857 193.643C66.0347 189.191 73.3235 190.688 78.3273 196.046C84.316 202.429 99.5636 214.446 96.2146 218.898Z" fill="#8E42A0"/>
<path d="M92.907 202.665C97.9896 204.99 110.913 187.615 113.986 180.878C117.059 174.14 115.444 166.812 110.361 164.487C105.278 162.163 99.605 166.97 97.7532 174.022C95.5468 182.493 87.8245 200.341 92.907 202.665Z" fill="#8E42A0"/>
<path d="M86.483 180.562C80.9671 181.547 72.8114 161.493 71.4719 154.204C70.1323 146.915 73.56 140.217 79.076 139.232C84.5919 138.247 88.8864 144.315 88.9258 151.604C88.9652 160.351 91.999 179.538 86.483 180.523V180.562Z" fill="#8E42A0"/>
<path d="M774.947 459.629H62.6838C59.2675 459.629 56.498 462.398 56.498 465.814C56.498 469.231 59.2675 472 62.6838 472H774.947C778.363 472 781.132 469.231 781.132 465.814C781.132 462.398 778.363 459.629 774.947 459.629Z" fill="#0B2933"/>
<path d="M394.862 326.222L419.408 382.405L453.922 347.379L485.678 389.419C485.678 389.419 446.042 460.101 402.309 461.795C358.576 463.529 317.758 357.072 317.758 357.072L394.862 326.183V326.222Z" fill="#FFCAAE"/>
<path d="M343.012 195.81L402.309 322.124L326.938 363.533L343.012 195.81Z" fill="#E55C2C"/>
<path d="M141.721 202.665C141.721 202.665 225.248 144.472 343.012 195.81C343.012 195.81 337.142 411.482 334.739 459.392H138.293L160.554 333.077L95.3477 337.687C95.3477 337.687 112.289 243.05 141.721 202.626V202.665Z" fill="#FC6F49"/>
<path d="M171.388 329.216L184.626 267.635L178.007 371.216L164.178 373.344L171.388 329.216Z" fill="#E55C2C"/>
<path d="M277.136 110.471H219.258V178.592H277.136V110.471Z" fill="#FFA883"/>
<path d="M184.31 113.189C192.122 113.189 198.455 106.857 198.455 99.0448C198.455 91.233 192.122 84.9004 184.31 84.9004C176.499 84.9004 170.166 91.233 170.166 99.0448C170.166 106.857 176.499 113.189 184.31 113.189Z" fill="#FFA883"/>
<path d="M305.701 113.189C313.513 113.189 319.845 106.857 319.845 99.0448C319.845 91.233 313.513 84.9004 305.701 84.9004C297.889 84.9004 291.557 91.233 291.557 99.0448C291.557 106.857 297.889 113.189 305.701 113.189Z" fill="#FFA883"/>
<path d="M306.766 96.2474C306.766 130.052 279.344 157.474 245.539 157.474C211.735 157.474 191.404 136.632 185.613 108.855C184.746 104.797 184.312 100.581 184.312 96.2474C184.312 91.9135 184.391 92.7014 184.549 90.9285C186.992 62.3245 209.134 39.3152 237.344 35.5723C240.023 35.2177 242.742 35.0207 245.539 35.0207C248.337 35.0207 246.406 35.0207 246.839 35.0207C249.794 35.0601 252.671 35.3359 255.468 35.8087C258.659 36.3209 261.772 37.1089 264.806 38.0938C282.653 44.0038 296.877 57.9512 303.181 75.6021C304.244 78.5965 305.111 81.6696 305.702 84.861C306.411 88.5251 306.766 92.3468 306.766 96.208V96.2474Z" fill="#FFCAAE"/>
<path d="M246.837 35.0207C246.325 40.9306 244.985 46.6041 242.897 51.923C233.993 74.7747 211.811 90.9285 185.807 90.9285C159.804 90.9285 184.941 90.9285 184.507 90.9285C186.95 62.3245 209.092 39.3152 237.302 35.5723C239.982 35.2177 242.7 35.0207 245.498 35.0207C248.295 35.0207 246.364 35.0207 246.798 35.0207H246.837Z" fill="#0B2933"/>
<path d="M305.7 84.9004C303.021 85.255 300.302 85.452 297.505 85.452C273.668 85.452 252.983 71.8198 242.897 51.923C240.297 46.8405 238.406 41.3246 237.342 35.5723C240.021 35.2177 242.74 35.0207 245.537 35.0207C248.334 35.0207 246.404 35.0207 246.837 35.0207C249.792 35.0601 252.668 35.3359 255.466 35.8087C258.657 36.3209 261.769 37.1089 264.803 38.0938C282.651 44.0038 296.874 57.9512 303.178 75.6021C304.242 78.5965 305.109 81.6696 305.7 84.861V84.9004Z" fill="#0B2933"/>
<path d="M239.666 111.731C241.242 107.476 241.833 103.221 241.479 98.7296C241.321 96.602 243.488 94.7896 245.497 94.829C247.782 94.829 249.24 96.6808 249.398 98.8477C249.792 103.93 249.083 109.092 247.31 113.859C246.561 115.868 244.631 117.208 242.464 116.617C240.533 116.105 238.957 113.78 239.706 111.771L239.666 111.731Z" fill="#FFA883"/>
<path d="M217.012 76.3507C211.22 79.1087 206.098 83.1274 202.04 88.0524C198.849 91.9529 204.404 97.587 207.635 93.6471C211.338 89.1555 215.751 85.6884 221.03 83.1668C225.601 80.9605 221.621 74.1444 217.051 76.3507H217.012Z" fill="#0B2933"/>
<path d="M289.233 84.664C283.914 80.724 277.807 78.4389 271.228 77.8085C266.185 77.3357 265.633 85.2156 270.716 85.6884C275.956 86.2005 280.565 88.0523 284.781 91.1649C288.879 94.1986 293.331 87.6583 289.273 84.664H289.233Z" fill="#0B2933"/>
<path d="M230.015 122.763H261.101C261.101 122.763 263.859 140.69 245.578 140.69C227.296 140.69 230.054 122.763 230.054 122.763H230.015Z" fill="white"/>
<path d="M207.99 127.294C214.91 127.294 220.519 121.685 220.519 114.765C220.519 107.846 214.91 102.236 207.99 102.236C201.07 102.236 195.461 107.846 195.461 114.765C195.461 121.685 201.07 127.294 207.99 127.294Z" fill="#FFA883"/>
<path d="M284.031 127.294C290.951 127.294 296.56 121.685 296.56 114.765C296.56 107.846 290.951 102.236 284.031 102.236C277.111 102.236 271.502 107.846 271.502 114.765C271.502 121.685 277.111 127.294 284.031 127.294Z" fill="#FFA883"/>
<path d="M221.821 106.609C225.998 106.609 229.385 103.223 229.385 99.0448C229.385 94.8669 225.998 91.4801 221.821 91.4801C217.643 91.4801 214.256 94.8669 214.256 99.0448C214.256 103.223 217.643 106.609 221.821 106.609Z" fill="#0B2933"/>
<path d="M267.129 106.609C271.307 106.609 274.694 103.223 274.694 99.0448C274.694 94.8669 271.307 91.4801 267.129 91.4801C262.951 91.4801 259.564 94.8669 259.564 99.0448C259.564 103.223 262.951 106.609 267.129 106.609Z" fill="#0B2933"/>
<path d="M184.31 84.861C184.31 84.861 169.929 24.3041 246.836 24.3041C323.744 24.3041 305.699 84.9004 305.699 84.9004L271.5 54.6022H212.007L184.27 84.861H184.31Z" fill="#FC6F49"/>
<path d="M184.311 84.861C184.311 84.861 208.226 40.6548 261.219 40.6548C314.211 40.6548 305.701 84.9004 305.701 84.9004C305.701 84.9004 254.599 48.4559 184.271 84.9004L184.311 84.861Z" fill="#BFBFBF"/>
<path d="M208.74 181.823L218.945 167.442H278.477L287.578 182.296C287.578 182.296 248.849 190.373 208.74 181.823Z" fill="#BFBFBF"/>
<path d="M331.546 241.553H290.531V252.703H331.546V241.553Z" fill="#BFBFBF"/>
<path d="M395.965 263.143H259.801V393.319H395.965V263.143Z" fill="#FF7A45"/>
<path d="M553.326 263.143H335.25V393.319H553.326V263.143Z" fill="#FFAE43"/>
<path d="M335.25 263.143L377.92 303.173H608.761L553.326 263.143H335.25Z" fill="#FF7A45"/>
<path d="M335.248 263.143L307.117 303.173H219.178L259.799 263.143H335.248Z" fill="#FFAE43"/>
<path d="M402.977 352.856H357.234V376.141H402.977V352.856Z" fill="white"/>
<path d="M95.348 337.727L171.389 329.216L164.218 373.383L273.552 360.342C273.552 360.342 296.246 329.965 324.062 320.667C328.435 319.209 332.06 324.331 329.223 327.955L317.246 343.242L318.191 350.098C318.191 350.098 336.67 344.976 337.457 345.212C338.245 345.449 351.799 334.772 362.516 326.537C365.155 324.488 368.701 327.601 367.046 330.477L359.324 343.912L374.848 332.762C377.172 331.068 380.009 334.102 378.197 336.308L365.904 351.792L380.521 343.715C382.53 342.573 384.5 345.291 382.806 346.867L363.501 364.715L378.551 359.081C381.033 358.135 382.885 361.445 380.797 363.1C370.041 371.571 353.808 383.351 343.998 385.754C328.356 389.616 273.906 389.852 273.906 389.852C273.906 389.852 119.618 486.538 97.0028 441.386C74.3875 396.235 95.4662 337.766 95.4662 337.766L95.348 337.727Z" fill="#FFCAAE"/>
<path d="M555.099 321.967C555.099 321.967 522.043 321.1 521.097 327.837C520.151 334.575 555.099 332.841 555.099 332.841C555.099 332.841 559.196 332.565 559.275 327.483C559.354 322.4 555.099 321.967 555.099 321.967Z" fill="#FFCAAE"/>
<path d="M554.745 333.078C554.745 333.078 519.049 332.211 517.985 338.948C516.921 345.685 554.745 343.952 554.745 343.952C554.745 343.952 559.157 343.676 559.276 338.593C559.394 333.511 554.745 333.078 554.745 333.078Z" fill="#FFCAAE"/>
<path d="M555.099 344.228C555.099 344.228 522.043 343.361 521.097 350.098C520.151 356.875 555.099 355.102 555.099 355.102C555.099 355.102 559.196 354.826 559.275 349.744C559.354 344.661 555.099 344.228 555.099 344.228Z" fill="#FFCAAE"/>
<path d="M555.926 355.338C555.926 355.338 529.529 354.471 528.78 361.209C527.992 367.985 555.926 366.212 555.926 366.212C555.926 366.212 559.196 365.937 559.275 360.854C559.354 355.772 555.926 355.338 555.926 355.338Z" fill="#FFCAAE"/>
<path d="M455.379 220.474C510.104 220.474 554.468 176.11 554.468 121.384C554.468 66.6588 510.104 22.2949 455.379 22.2949C400.653 22.2949 356.289 66.6588 356.289 121.384C356.289 176.11 400.653 220.474 455.379 220.474Z" fill="#BFBFBF"/>
<path d="M455.377 216.101H441.43L455.377 241.159L469.285 216.101H455.377Z" fill="#BFBFBF"/>
<path d="M452.78 192.422C437.375 188.718 424.255 182.099 413.735 172.801C404.082 164.251 398.566 151.84 398.566 138.799V77.2177L409.165 76.8631C432.883 76.0751 446.476 60.5518 447.028 59.9214L455.538 49.7169L463.772 59.9608C464.285 60.5518 477.877 76.0751 501.596 76.8631L512.194 77.2177V138.799C512.194 151.88 506.639 164.251 497.026 172.801C486.506 182.138 473.347 188.718 457.981 192.422L455.42 193.052L452.859 192.422H452.78Z" fill="#8E42A0"/>
<path d="M455.38 66.9738C455.38 66.9738 438.793 86.8311 409.52 87.7767V138.799C409.52 148.649 413.656 158.065 421.024 164.606C428.195 170.949 439.187 177.883 455.38 181.784C471.574 177.883 482.566 170.949 489.737 164.606C497.104 158.065 501.241 148.649 501.241 138.799V87.7767C471.968 86.7917 455.38 66.9738 455.38 66.9738Z" fill="white"/>
<path d="M472.046 125.6H438.635C436.744 125.6 435.168 124.063 435.168 122.133V113.938C435.168 103.97 443.245 95.8928 453.213 95.8928H457.429C467.397 95.8928 475.474 103.97 475.474 113.938V122.133C475.474 124.024 473.937 125.6 472.006 125.6H472.046ZM442.142 118.705H468.618V113.977C468.618 107.831 463.614 102.867 457.507 102.867H453.292C447.145 102.867 442.181 107.87 442.181 113.977V118.705H442.142Z" fill="#6D217F"/>
<path d="M477.482 118.311H433.236V150.5H477.482V118.311Z" fill="#8E42A0"/>
<path d="M455.38 134.819C456.946 134.819 458.216 133.549 458.216 131.983C458.216 130.416 456.946 129.146 455.38 129.146C453.813 129.146 452.543 130.416 452.543 131.983C452.543 133.549 453.813 134.819 455.38 134.819Z" fill="#242D4F"/>
<path d="M455.38 141.951C454.71 141.951 454.158 141.399 454.158 140.729V134.386C454.158 133.716 454.71 133.165 455.38 133.165C456.049 133.165 456.601 133.716 456.601 134.386V140.729C456.601 141.399 456.049 141.951 455.38 141.951Z" fill="#242D4F"/>
</svg>
