<svg width="944" height="804" viewBox="0 0 944 804" fill="none" xmlns="http://www.w3.org/2000/svg">
<path d="M0 0V766L188 613.583V146.88L6.95633 3.55609L0 0Z" fill="#C5EEF8"/>
<path d="M155 641.101L0 579V766L155 641.101Z" fill="#D3C2BB"/>
<path d="M111.56 623C59.8576 628.494 0.630791 647.519 0 647.722V804C40.0778 798.146 127.645 782.611 162.902 754.421C209.287 717.339 268.942 696.805 249.072 664.991C231.838 637.432 213.59 631.263 174.053 625.364L155.265 640.494L111.582 623H111.56Z" fill="#BFB0A9"/>
<path d="M308 299V549H319.094V310.204H576.906V549H588V299H308Z" fill="#5F8BA6"/>
<path d="M584 400H313V411H584V400Z" fill="#5F8BA6"/>
<path d="M584 512H313V523H584V512Z" fill="#5F8BA6"/>
<path d="M393 343H324V400H393V343Z" fill="#FABB61"/>
<path d="M393 455H324V512H393V455Z" fill="#FABB61"/>
<path d="M454 588H302V705H454V588Z" fill="#FABB61"/>
<path d="M209 611C209 637.247 200.193 662.441 184.538 680.993C168.883 699.568 147.642 710 125.5 710C103.358 710 82.1169 699.568 66.4621 680.993C50.8073 662.418 42 637.247 42 611C42 584.753 50.8073 559.559 66.4621 541.007C82.1169 522.432 103.358 512 125.5 512C147.642 512 168.883 522.432 184.538 541.007C200.193 559.582 209 584.753 209 611Z" fill="#203654"/>
<path d="M130 709.776L97.0401 710L85 512H125.593L130 709.776Z" fill="#203654"/>
<path d="M167 611C167 637.247 159.724 662.441 146.784 680.993C133.843 699.568 116.291 710 98 710C79.709 710 62.1567 699.568 49.2164 680.993C36.2761 662.418 29 637.247 29 611C29 584.753 36.2761 559.559 49.2164 541.007C62.1567 522.432 79.709 512 98 512C116.291 512 133.843 522.432 146.784 541.007C159.724 559.582 167 584.753 167 611Z" fill="#315381"/>
<path d="M238 534L0 624.083V673L238 582.917V534Z" fill="#76C1CD"/>
<path d="M238 113.551L248 110V578.427L238 582V113.551Z" fill="#76C1CD"/>
<path d="M0 82V99.6731L248 128V110.35L0 82Z" fill="#76C1CD"/>
<path d="M0 502V623L238 533.632L0 502Z" fill="#4D8795"/>
<path d="M0 99V502.011L238 534L237.91 125.962L0 99Z" fill="#589AAA"/>
<path d="M225 551L190 564.778V588L225 574.246V551Z" fill="#DC677F"/>
<path d="M302.023 589V705H454V699.827C452.896 699.849 451.656 699.983 450.236 700.273C432.498 703.707 373.312 691.085 351.923 685.02C330.534 678.955 314.284 644.168 313.292 615.313C312.638 596.582 306.35 590.762 302 589H302.023Z" fill="#EAAF5B"/>
<path d="M324.023 347V400H393V397.835C392.549 397.835 392.054 397.902 391.468 398.014C383.4 399.598 356.449 393.796 346.715 391.029C336.98 388.24 329.589 372.306 329.138 359.073C328.845 350.481 325.983 347.826 324 347H324.023Z" fill="#EAAF5B"/>
<path d="M324.023 459V512H393V509.835C392.549 509.835 392.054 509.902 391.468 510.014C383.4 511.598 356.449 505.796 346.715 503.029C336.98 500.24 329.589 484.306 329.138 471.073C328.845 462.481 325.983 459.826 324 459H324.023Z" fill="#EAAF5B"/>
<path d="M77 430L0 453.118V544L77 520.882V430Z" fill="#FABB61"/>
<path d="M0 424V453L77 429.967L0 424Z" fill="#EAAF5B"/>
<path d="M30 443L14 448.125V484L30 478.853V443Z" fill="#FAE299"/>
<path d="M59 339L0 355.978V445L59 428.022V339Z" fill="#FABB61"/>
<path d="M0 334V355L59 338.305L0 334Z" fill="#EAAF5B"/>
<path d="M13 352L0 355.352V391L13 387.648V352Z" fill="#FAE299"/>
<path d="M38 247L0 258.008V348L38 337.015V247Z" fill="#FABB61"/>
<path d="M0 244V257L38 246.659L0 244Z" fill="#EAAF5B"/>
<path d="M62.3953 56L62.935 53.297L63.1773 53.5775H62.2848L62.3953 53.025H63.6788L63.0838 56H62.3953ZM64.9351 56.051C64.7141 56.051 64.5228 56.0071 64.3613 55.9192C64.2026 55.8286 64.0794 55.6997 63.9916 55.5325C63.9037 55.3625 63.8598 55.1599 63.8598 54.9247C63.8598 54.6556 63.8966 54.4034 63.9703 54.1682C64.0468 53.9331 64.1531 53.7262 64.2891 53.5477C64.4251 53.3664 64.588 53.2262 64.7778 53.127C64.9705 53.025 65.1816 52.974 65.4111 52.974C65.6321 52.974 65.8219 53.0193 65.9806 53.11C66.1421 53.1978 66.2667 53.3253 66.3546 53.4925C66.4424 53.6597 66.4863 53.8622 66.4863 54.1002C66.4863 54.3694 66.4481 54.6216 66.3716 54.8567C66.2979 55.0919 66.1931 55.3002 66.0571 55.4815C65.9211 55.66 65.7581 55.8002 65.5683 55.9022C65.3785 56.0014 65.1674 56.051 64.9351 56.051ZM64.9988 55.4688C65.1291 55.4688 65.2439 55.4262 65.3431 55.3412C65.4422 55.2534 65.5244 55.1401 65.5896 55.0012C65.6576 54.8624 65.7086 54.7151 65.7426 54.5592C65.7766 54.4034 65.7936 54.2561 65.7936 54.1172C65.7936 53.9217 65.7539 53.7801 65.6746 53.6922C65.5952 53.6016 65.4861 53.5562 65.3473 53.5562C65.217 53.5562 65.1022 53.6002 65.0031 53.688C64.9039 53.773 64.8203 53.8849 64.7523 54.0237C64.6871 54.1626 64.6376 54.3099 64.6036 54.4657C64.5696 54.6216 64.5526 54.7689 64.5526 54.9078C64.5526 55.1004 64.5922 55.2421 64.6716 55.3327C64.7537 55.4234 64.8628 55.4688 64.9988 55.4688ZM67.8154 56.051C67.5944 56.051 67.4032 56.0071 67.2417 55.9192C67.083 55.8286 66.9598 55.6997 66.8719 55.5325C66.7841 55.3625 66.7402 55.1599 66.7402 54.9247C66.7402 54.6556 66.777 54.4034 66.8507 54.1682C66.9272 53.9331 67.0334 53.7262 67.1694 53.5477C67.3054 53.3664 67.4683 53.2262 67.6582 53.127C67.8508 53.025 68.0619 52.974 68.2914 52.974C68.5124 52.974 68.7023 53.0193 68.8609 53.11C69.0224 53.1978 69.1471 53.3253 69.2349 53.4925C69.3228 53.6597 69.3667 53.8622 69.3667 54.1002C69.3667 54.3694 69.3284 54.6216 69.2519 54.8567C69.1783 55.0919 69.0734 55.3002 68.9374 55.4815C68.8014 55.66 68.6385 55.8002 68.4487 55.9022C68.2588 56.0014 68.0478 56.051 67.8154 56.051ZM67.8792 55.4688C68.0095 55.4688 68.1243 55.4262 68.2234 55.3412C68.3226 55.2534 68.4048 55.1401 68.4699 55.0012C68.5379 54.8624 68.5889 54.7151 68.6229 54.5592C68.6569 54.4034 68.6739 54.2561 68.6739 54.1172C68.6739 53.9217 68.6343 53.7801 68.5549 53.6922C68.4756 53.6016 68.3665 53.5562 68.2277 53.5562C68.0973 53.5562 67.9826 53.6002 67.8834 53.688C67.7843 53.773 67.7007 53.8849 67.6327 54.0237C67.5675 54.1626 67.5179 54.3099 67.4839 54.4657C67.4499 54.6216 67.4329 54.7689 67.4329 54.9078C67.4329 55.1004 67.4726 55.2421 67.5519 55.3327C67.6341 55.4234 67.7432 55.4688 67.8792 55.4688ZM69.7905 56L72.3873 53.025H72.9228L70.3303 56H69.7905ZM70.3855 54.6315C70.1929 54.6315 70.037 54.5734 69.918 54.4572C69.799 54.3382 69.7395 54.1725 69.7395 53.96C69.7395 53.7787 69.7735 53.6157 69.8415 53.4712C69.9095 53.3267 70.0059 53.2106 70.1305 53.1227C70.258 53.0349 70.411 52.991 70.5895 52.991C70.7822 52.991 70.938 53.0505 71.057 53.1695C71.176 53.2857 71.2355 53.45 71.2355 53.6625C71.2355 53.841 71.2015 54.0039 71.1335 54.1512C71.0655 54.2957 70.9692 54.4119 70.8445 54.4997C70.7199 54.5876 70.5669 54.6315 70.3855 54.6315ZM70.4238 54.283C70.5145 54.283 70.5881 54.2518 70.6448 54.1895C70.7015 54.1272 70.7425 54.0507 70.768 53.96C70.7935 53.8665 70.8063 53.7758 70.8063 53.688C70.8063 53.569 70.7822 53.4812 70.734 53.4245C70.6887 53.3678 70.6278 53.3395 70.5513 53.3395C70.4606 53.3395 70.387 53.3707 70.3303 53.433C70.2736 53.4953 70.2325 53.5732 70.207 53.6667C70.1815 53.7574 70.1688 53.8467 70.1688 53.9345C70.1688 54.0535 70.1929 54.1413 70.241 54.198C70.2892 54.2547 70.3501 54.283 70.4238 54.283ZM72.128 56.034C71.9354 56.034 71.7795 55.9759 71.6605 55.8598C71.5415 55.7436 71.482 55.5778 71.482 55.3625C71.482 55.184 71.5146 55.0225 71.5798 54.878C71.6478 54.7307 71.7455 54.6145 71.873 54.5295C72.0005 54.4417 72.1521 54.3977 72.3278 54.3977C72.5233 54.3977 72.6805 54.4572 72.7995 54.5762C72.9185 54.6924 72.978 54.8567 72.978 55.0692C72.978 55.2477 72.944 55.4107 72.876 55.558C72.808 55.7025 72.7103 55.8187 72.5828 55.9065C72.4581 55.9915 72.3065 56.034 72.128 56.034ZM72.1663 55.6897C72.257 55.6897 72.3292 55.6586 72.383 55.5962C72.4397 55.5339 72.4808 55.456 72.5063 55.3625C72.5346 55.269 72.5488 55.1783 72.5488 55.0905C72.5488 54.9715 72.5247 54.8837 72.4765 54.827C72.4284 54.7703 72.3675 54.742 72.2938 54.742C72.2031 54.742 72.1295 54.7732 72.0728 54.8355C72.0161 54.8978 71.9736 54.9757 71.9453 55.0692C71.9198 55.1627 71.907 55.2534 71.907 55.3412C71.907 55.4602 71.9311 55.5481 71.9793 55.6047C72.0275 55.6614 72.0898 55.6897 72.1663 55.6897Z" fill="white"/>
<path d="M55.0158 66L54.3273 63.025H55.037L55.6363 65.6642H55.19L56.8645 63.025H57.5785L55.6958 66H55.0158ZM58.2221 64.2235H59.6544L59.5481 64.759H58.1159L58.2221 64.2235ZM58.0266 65.4475H59.6501L59.5354 66H57.2319L57.8269 63.025H60.0751L59.9604 63.5775H58.4006L58.0266 65.4475ZM61.6472 66.051C61.344 66.051 61.082 65.9972 60.861 65.8895C60.6428 65.779 60.4742 65.6274 60.3552 65.4347C60.2362 65.2392 60.1767 65.014 60.1767 64.759C60.1767 64.5068 60.2206 64.2717 60.3085 64.0535C60.3991 63.8353 60.5252 63.6469 60.6867 63.4882C60.851 63.3267 61.0451 63.2007 61.269 63.11C61.4956 63.0193 61.7478 62.974 62.0255 62.974C62.2918 62.974 62.527 63.0193 62.731 63.11C62.935 63.2007 63.0894 63.331 63.1942 63.501L62.697 63.909C62.6205 63.7957 62.5227 63.7092 62.4037 63.6497C62.2847 63.5902 62.143 63.5605 61.9787 63.5605C61.8115 63.5605 61.66 63.5902 61.524 63.6497C61.388 63.7064 61.2704 63.7886 61.1712 63.8962C61.0749 64.0011 61.0012 64.1243 60.9502 64.266C60.8992 64.4077 60.8737 64.5578 60.8737 64.7165C60.8737 64.8667 60.9063 64.9984 60.9715 65.1117C61.0366 65.2222 61.1315 65.3087 61.2562 65.371C61.3809 65.4333 61.531 65.4645 61.7067 65.4645C61.8597 65.4645 62.0028 65.4376 62.136 65.3837C62.2691 65.3271 62.3895 65.2392 62.4972 65.1202L62.9052 65.5367C62.7494 65.7181 62.5638 65.8498 62.3485 65.932C62.136 66.0113 61.9022 66.051 61.6472 66.051ZM63.7874 66L64.2676 63.586H63.3156L63.4304 63.025H66.0229L65.9081 63.586H64.9604L64.4759 66H63.7874ZM67.2995 66.051C66.9992 66.051 66.74 65.9972 66.5218 65.8895C66.3065 65.779 66.1407 65.6274 66.0245 65.4347C65.9084 65.2392 65.8503 65.014 65.8503 64.759C65.8503 64.504 65.8942 64.2688 65.982 64.0535C66.0699 63.8353 66.1945 63.6469 66.356 63.4882C66.5204 63.3267 66.7145 63.2007 66.9383 63.11C67.165 63.0193 67.4157 62.974 67.6905 62.974C67.9909 62.974 68.2487 63.0292 68.464 63.1397C68.6822 63.2474 68.8494 63.399 68.9655 63.5945C69.0817 63.7872 69.1398 64.011 69.1398 64.266C69.1398 64.521 69.0959 64.7576 69.008 64.9757C68.9202 65.1911 68.7941 65.3795 68.6298 65.541C68.4683 65.6997 68.2742 65.8243 68.0475 65.915C67.8237 66.0057 67.5744 66.051 67.2995 66.051ZM67.359 65.4645C67.5262 65.4645 67.6764 65.4347 67.8095 65.3753C67.9455 65.3129 68.0603 65.2279 68.1538 65.1202C68.2473 65.0126 68.3181 64.8893 68.3663 64.7505C68.4173 64.6088 68.4428 64.4601 68.4428 64.3042C68.4428 64.1569 68.4116 64.028 68.3493 63.9175C68.287 63.8042 68.1949 63.7163 68.073 63.654C67.954 63.5917 67.8067 63.5605 67.631 63.5605C67.4639 63.5605 67.3137 63.5917 67.1805 63.654C67.0474 63.7135 66.9326 63.7971 66.8363 63.9047C66.7428 64.0124 66.6705 64.1371 66.6195 64.2787C66.5714 64.4176 66.5473 64.5649 66.5473 64.7207C66.5473 64.8681 66.5785 64.9984 66.6408 65.1117C66.706 65.2222 66.798 65.3087 66.917 65.371C67.0389 65.4333 67.1862 65.4645 67.359 65.4645ZM69.3427 66L69.9377 63.025H71.149C71.5201 63.025 71.8063 63.1057 72.0075 63.2672C72.2115 63.4287 72.3135 63.6554 72.3135 63.9472C72.3135 64.1966 72.254 64.4133 72.135 64.5975C72.0188 64.7788 71.8516 64.9191 71.6335 65.0182C71.4181 65.1174 71.1631 65.167 70.8685 65.167H69.8995L70.2607 64.8652L70.0355 66H69.3427ZM71.2552 66L70.6475 64.9205H71.37L71.982 66H71.2552ZM70.2437 64.946L70.0057 64.6187H70.894C71.1235 64.6187 71.3006 64.5677 71.4252 64.4657C71.5527 64.3609 71.6165 64.2093 71.6165 64.011C71.6165 63.8665 71.5669 63.7602 71.4677 63.6922C71.3714 63.6214 71.2354 63.586 71.0597 63.586H70.2225L70.5837 63.2502L70.2437 64.946Z" fill="white"/>
<path d="M283 247.5C283 260.097 277.949 272.183 268.946 281.092C259.943 290.001 247.73 295 235 295C222.27 295 210.057 290.001 201.054 281.092C192.051 272.183 187 260.097 187 247.5C187 234.903 192.051 222.817 201.054 213.908C210.057 204.999 222.27 200 235 200C261.514 200 283 221.262 283 247.5Z" fill="#F1B4CC"/>
<path d="M257.044 225L227.904 254.934L210.685 238.312L203 246.692L228.129 271L265 233.149L257.044 225Z" fill="#DC677F"/>
<path d="M631 312V555H641.552V322.89H877.448V555H888V312H631Z" fill="#5F8BA6"/>
<path d="M886 411H633V421H886V411Z" fill="#5F8BA6"/>
<path d="M886 518H633V529H886V518Z" fill="#5F8BA6"/>
<path d="M366 355H355V373H366V355Z" fill="#FAE299"/>
<path d="M470 352H399V411H470V352Z" fill="#FABB61"/>
<path d="M440 352H430V371H440V352Z" fill="#FAE299"/>
<path d="M366 464H355V479H366V464Z" fill="#FAE299"/>
<path d="M471 464H404V520H471V464Z" fill="#FABB61"/>
<path d="M444 464H433V479H444V464Z" fill="#FAE299"/>
<path d="M720 353H650V411H720V353Z" fill="#FABB61"/>
<path d="M690 353H680V372H690V353Z" fill="#FAE299"/>
<path d="M720 460H650V518H720V460Z" fill="#FABB61"/>
<path d="M690 460H680V478H690V460Z" fill="#FAE299"/>
<path d="M392 590H368V626H392V590Z" fill="#FAE299"/>
<path d="M598 590H454V705H598V590Z" fill="#FABB61"/>
<path d="M536 590H514V626H536V590Z" fill="#FAE299"/>
<path d="M746 590H598V705H746V590Z" fill="#FABB61"/>
<path d="M684 590H660V626H684V590Z" fill="#FAE299"/>
<path d="M404 468V520H471V517.876C470.562 517.876 470.081 517.942 469.512 518.051C461.676 519.606 435.497 513.913 426.063 511.198C416.608 508.461 409.428 492.829 408.991 479.845C408.706 471.416 405.926 468.81 404 468Z" fill="#EAAF5B"/>
<path d="M526 478H379V590H526V478Z" fill="#FABB61"/>
<path d="M464 478H441V511H464V478Z" fill="#FAE299"/>
<path d="M650 464V518H720V515.795C719.561 515.817 719.077 515.861 718.506 515.97C710.311 517.585 682.957 511.67 673.07 508.854C663.183 506.017 655.668 489.778 655.229 476.289C654.921 467.536 652.021 464.829 650 464Z" fill="#EAAF5B"/>
<path d="M672 478H526V590H672V478Z" fill="#FABB61"/>
<path d="M610 478H588V511H610V478Z" fill="#FAE299"/>
<path d="M598 363H454V478H598V363Z" fill="#FABB61"/>
<path d="M536 363H514V397H536V363Z" fill="#FAE299"/>
<path d="M604 365.1L598 363V478H604V365.1Z" fill="#CF9B50"/>
<path d="M454 364.022V478H598V472.917C596.954 472.939 595.779 473.07 594.434 473.333C577.627 476.707 521.547 464.306 501.302 458.346C481.036 452.387 465.639 418.228 464.699 389.854C464.08 371.45 458.122 365.731 454 364V364.022Z" fill="#EAAF5B"/>
<path d="M379 478V590H526V585.027C524.932 585.048 523.733 585.177 522.36 585.436C505.206 588.751 447.966 576.565 427.281 570.709C406.595 564.853 390.879 531.287 389.92 503.406C389.288 485.32 383.207 479.701 379 478Z" fill="#EAAF5B"/>
<path d="M526.022 478V590H672V585.027C670.939 585.048 669.749 585.177 668.385 585.436C651.347 588.751 594.497 576.565 573.952 570.709C553.407 564.853 537.799 531.287 536.846 503.406C536.218 485.32 530.178 479.701 526 478H526.022Z" fill="#EAAF5B"/>
<path d="M454.021 593V705H598V700.005C596.954 700.027 595.779 700.156 594.434 700.436C577.63 703.751 521.559 691.565 501.295 685.709C481.032 679.853 465.637 646.266 464.697 618.406C464.078 600.32 458.121 594.701 454 593H454.021Z" fill="#EAAF5B"/>
<path d="M598 593V705H746V700.005C744.925 700.027 743.717 700.156 742.335 700.436C725.061 703.751 667.424 691.565 646.616 685.709C625.787 679.853 609.962 646.266 608.996 618.406C608.36 600.32 602.236 594.701 598 593Z" fill="#EAAF5B"/>
<path d="M677 480.066L672 478V590H677V480.066Z" fill="#CF9B50"/>
<path d="M399.022 358V411H466V408.835C465.562 408.835 465.081 408.902 464.512 409.014C456.679 410.598 430.509 404.796 421.056 402.029C411.604 399.24 404.427 383.306 403.989 370.073C403.704 361.481 400.926 358.826 399 358H399.022Z" fill="#EAAF5B"/>
<path d="M650 358V411H720V408.836C719.539 408.858 719.034 408.922 718.464 409.029C710.276 410.614 682.948 404.83 673.07 402.045C663.192 399.26 655.685 383.322 655.246 370.104C654.939 361.513 652.041 358.857 650.022 358.043L650 358Z" fill="#EAAF5B"/>
<path d="M806 347H737V408H806V347Z" fill="#FABB61"/>
<path d="M775 347H765V365H775V347Z" fill="#FAE299"/>
<path d="M806 455H737V517H806V455Z" fill="#FABB61"/>
<path d="M775 455H765V472H775V455Z" fill="#FAE299"/>
<path d="M794.525 743.967C794.525 743.967 791.318 749.947 783.895 755.047C774.98 761.158 756.12 769.006 747.971 770.941C737.039 773.513 741.053 784.109 745.934 783.999C759.852 783.669 806.647 782.109 815.986 781.537C825.829 780.943 824.478 770.457 822.884 765.907C820.665 759.62 820.282 743 820.282 743L794.525 743.989V743.967Z" fill="#E87760"/>
<path d="M886.17 750.92C886.17 750.92 882.924 756.608 875.412 761.459C866.389 767.273 847.302 774.738 839.055 776.578C827.991 779.025 832.054 789.104 836.994 788.999C851.079 788.686 898.438 787.201 907.889 786.657C917.851 786.093 916.483 776.118 914.871 771.789C912.625 765.809 912.237 750 912.237 750L886.17 750.941V750.92Z" fill="#E87760"/>
<path d="M737 459V517H808V514.621C807.528 514.643 807.014 514.708 806.439 514.816C798.121 516.546 770.415 510.21 760.393 507.16C750.37 504.111 742.771 486.681 742.299 472.192C741.991 462.785 739.054 459.887 737 459Z" fill="#EAAF5B"/>
<path d="M790 745.196C797.101 747.896 804.837 750.168 821.904 746.61C821.904 746.61 837.212 640.143 846.748 583.674C849.695 566.186 856.96 524.375 856.96 524.375C856.96 524.375 860.132 566.829 861.953 584.467C867.929 642.136 883.298 749.868 883.298 749.868C896.252 755.568 905.993 752.225 916 749.718C916 749.718 909.431 640.85 909.001 586.331C908.674 546.277 912.787 498.337 911.15 458.326C909.799 425.387 902.534 407 902.534 407L808.848 411.5C808.848 411.5 806.085 440.046 805.082 454.362C802.238 494.351 800.396 541.498 798.309 581.552C795.341 638.45 790 745.217 790 745.217V745.196Z" fill="#8B463D"/>
<path d="M825 455C825 455 844.617 467.571 848.369 477.833C852.768 489.859 854.978 522.241 855.582 532C855.978 529.859 857 524.109 857 524.109C857 524.109 855.332 490.069 851.059 477.372C847.39 466.501 825 455 825 455Z" fill="#63322B"/>
<path d="M808.948 321.709C808.948 321.709 791.485 305.653 786.857 294.585C784.964 290.057 785.376 285.355 784.347 280.52C783.381 275.993 782.167 271.333 779.637 267.549C777.416 264.225 775.811 259.325 770.875 258.537C759.911 256.809 746.212 256 733.809 256C730.374 256 732.308 261.315 735.64 262.103C738.993 262.868 742.798 268.927 742.798 268.927C741.79 271.18 742.242 273.98 743.703 276.321C742.345 277.917 741.728 280.849 742.736 284.173C743.435 285.683 744.34 286.754 745.513 287.936C744.238 288.854 743.6 290.954 744.34 293.513C746.151 297.013 752.712 302.088 758.986 302.613C758.986 302.613 762.811 304.625 764.766 305.566C767.11 306.703 770.052 306.878 771.821 308.869C785.705 324.487 813 362 813 362L808.927 321.752L808.948 321.709Z" fill="#FA957D"/>
<path d="M721.98 264C719.544 264 715.437 264.88 713 265.401C715.476 266.083 719.465 267 722 267V264H721.98Z" fill="#76C1CD"/>
<path d="M747.263 267C747.007 267 746.902 267.515 747.113 267.738C747.113 267.738 752.326 273.511 756.605 276.375C757.087 276.689 757.358 277.494 757.433 278.523C757.509 279.553 757.358 280.783 757.027 281.746C756.123 284.431 753.637 284.185 753.637 284.185C753.486 284.185 753.35 284.341 753.35 284.565C753.35 284.789 753.456 284.99 753.606 284.99C753.606 284.99 756.439 285.326 757.524 282.104C757.9 280.985 758.066 279.642 757.976 278.434C757.885 277.226 757.539 276.107 756.831 275.637C752.642 272.818 747.429 267.089 747.429 267.089C747.384 267.045 747.324 267 747.248 267H747.263Z" fill="#C17361"/>
<path d="M780.155 272.455C780.155 272.455 778.224 270.968 775.294 269.77C767.849 266.693 763.769 268.263 752.114 261.365C748.49 259.218 748.012 267.147 750.769 269.357C754.632 272.434 759.211 273.838 763.075 276.936C766.287 279.517 767.611 282.346 770.975 283.916C777.638 287.013 782 282.491 782 282.491L780.155 272.475V272.455Z" fill="#C17361"/>
<path d="M721.925 264.45L783.075 264C784.131 264 785 264.527 785 265.196V266.804C785 267.46 784.152 268 783.075 268L721.925 267.55C720.869 267.55 720 267.023 720 266.354V265.646C720 264.99 720.849 264.463 721.925 264.45Z" fill="#76C1CD"/>
<path d="M748 264L743 264.033V266.978L748 267V264Z" fill="#4C7D9B"/>
<path d="M778 264L756 264.17V267.83L778 268V264Z" fill="#4C7D9B"/>
<path d="M747.254 286.008C746.986 286.054 746.907 286.551 747.128 286.755C747.128 286.755 753.691 293.066 758.833 294.445C759.811 294.717 760.821 296.639 760.285 298.969C760.048 300.032 759.401 300.598 758.786 300.892C758.171 301.186 757.619 301.186 757.619 301.186C757.461 301.186 757.319 301.367 757.319 301.593C757.319 301.819 757.461 302 757.619 302C757.619 302 758.25 302 758.96 301.661C759.669 301.321 760.506 300.62 760.821 299.241C761.452 296.481 760.316 294.038 758.944 293.654C754.022 292.342 747.444 286.076 747.444 286.076C747.381 286.008 747.318 285.986 747.254 286.008Z" fill="#C17361"/>
<path d="M743.307 276.022C743.008 276.022 742.885 276.517 743.131 276.764C743.131 276.764 749.795 283.262 755.58 285.555C756.917 286.095 757.725 288.455 757.198 290.861C756.846 292.457 756.231 293.267 755.703 293.694C755.176 294.144 754.754 294.188 754.754 294.188C754.578 294.188 754.455 294.413 754.472 294.638C754.49 294.863 754.648 295.02 754.824 294.998C754.824 294.998 755.404 294.908 756.055 294.368C756.706 293.829 757.426 292.817 757.813 291.063C758.411 288.321 757.532 285.465 755.774 284.768C750.182 282.542 743.518 276.09 743.518 276.09C743.465 276.022 743.378 276 743.307 276V276.022Z" fill="#C17361"/>
<path d="M782.14 273.089C782.14 273.089 780.214 271.632 777.294 270.458C769.874 267.444 765.721 269.143 754.104 262.385C750.492 260.281 750.016 267.383 752.763 269.528C756.614 272.542 761.719 274.04 765.548 277.095C768.749 279.624 769.896 282.315 773.27 283.853C779.912 286.887 784 282.942 784 282.942L782.161 273.129L782.14 273.089Z" fill="#FA957D"/>
<path d="M737 349.022V408H808V405.581C807.528 405.581 807.014 405.669 806.439 405.779C798.121 407.538 770.415 401.095 760.393 397.994C750.37 394.894 742.771 377.17 742.299 362.436C741.991 352.87 739.054 349.924 737 349V349.022Z" fill="#EAAF5B"/>
<path d="M846.848 257.806C846.848 257.806 831.862 263.73 825.756 267.389C816.916 272.703 806.24 285.967 806.24 285.967C806.24 285.967 806.619 320.4 806.359 337.54C806.18 350.368 807.158 363.218 806.778 376.046C806.379 389.114 803.047 404.032 806.679 416.49C807.816 420.367 810.43 424.244 813.842 425.899C833.339 435.242 850.74 420.367 871.992 421.695C879.754 422.175 887.417 424.81 894.98 422.806C899.53 421.608 904.698 418.494 906.275 413.659C908.49 406.798 904.998 402.138 904.219 394.929C901.944 373.933 905.257 352.633 905.237 331.486C905.237 307.659 904.06 260.05 904.06 260.05L881.171 245L846.848 257.806Z" fill="#E87760"/>
<path d="M799 267L871 281.305V387L799 372.695V267Z" fill="#A5755F"/>
<path d="M903.516 261C903.516 261 914.216 265.053 920.513 274.524C932.742 292.912 938 336.939 938 336.939C926.668 336.022 911.587 339.52 902.272 344C902.272 344 884.439 306.393 886.111 287.195C887.986 265.608 903.516 261 903.516 261Z" fill="#C46551"/>
<path d="M901 342.415C910.008 331.306 926.777 331.146 939 336.177C934.813 343.917 911.869 347.992 901 342.415Z" fill="#7D4034"/>
<path d="M933.931 332.411C933.931 332.411 942.776 357.644 943.935 372.129C944.81 383.197 936.656 388.794 929.396 386.487C912.479 381.103 894.137 365.698 881.306 356.597C878.358 354.503 872.583 355.272 869.309 353.819C865.771 352.238 863.819 348.456 860.708 346.063C853.245 340.295 847.41 336.107 842.916 331.364C842.163 330.552 841.96 329.163 842.163 328.074C842.468 326.471 843.953 325.873 843.953 325.873C843.953 325.873 841.96 324.527 842.001 322.091C842.021 320.147 844.38 319.656 844.38 319.656C844.38 319.656 842.184 317.583 843.383 315.489C844.339 313.78 846.982 314.165 846.982 314.165C846.982 314.165 846.271 312.776 847.674 311.729C848.894 310.81 850.358 310.853 851.578 311.344C859.305 314.464 866.178 317.775 872.176 321.408C874.861 323.031 877.504 325.446 879.212 328.159C880.818 330.723 880.473 334.59 882.648 336.641C889.399 342.965 908.066 345.038 908.066 345.038L906.155 339.547L933.951 332.411H933.931Z" fill="#FA957D"/>
<path d="M845.395 315.02C844.963 315.02 844.849 315.561 845.236 315.701L867.418 324.969C867.623 325.049 867.873 324.969 867.964 324.789C868.055 324.609 867.964 324.388 867.782 324.308L845.6 315.04C845.6 315.04 845.463 315 845.395 315V315.02Z" fill="#C17361"/>
<path d="M843.37 319.004C842.97 319.004 842.859 319.465 843.214 319.631L867.39 330.956C867.591 331.048 867.835 330.992 867.946 330.826C868.058 330.66 867.991 330.458 867.791 330.365L843.615 319.041C843.615 319.041 843.459 318.985 843.392 319.004H843.37Z" fill="#C17361"/>
<path d="M842.346 326C841.996 326.02 841.872 326.453 842.161 326.65L860.393 338.931C860.558 339.049 860.806 339.01 860.929 338.853C861.053 338.695 861.012 338.459 860.826 338.361L842.594 326.079C842.594 326.079 842.429 326 842.346 326.02V326Z" fill="#C17361"/>
<path d="M905.202 259.022C905.202 259.022 915.695 263.163 921.871 272.89C933.863 291.776 939 336.997 939 336.997C927.807 332.768 907.181 337.369 903.084 343C903.084 343 886.475 305.623 888.114 285.905C889.953 263.732 905.182 259 905.182 259L905.202 259.022Z" fill="#E87760"/>
<path d="M877.226 200L881 243.079L843 264L850.657 210.118L877.226 200Z" fill="#FA957D"/>
<path d="M831.444 247L825 267C832.222 262.84 837.556 259.377 842 253.291L831.444 247Z" fill="#7A3D36"/>
<path d="M846.98 235L843.083 264C839.227 259.95 833.817 250.704 832 245.102C836.542 243.167 843.366 238.667 847 235H846.98Z" fill="#8B463D"/>
<path d="M843 262.137C846.469 259.86 851.798 257.64 854.055 250.037C863.063 248.165 871.652 240.291 878.319 234C880.241 237.879 882.018 241.816 883 246.061C876.73 255.402 868.329 262.233 858.57 267C857.713 260.709 857.316 259.879 855.894 255.672C852.363 259.011 849.311 260.168 843 262.156V262.137Z" fill="#8B463D"/>
<path d="M879.353 211C879.353 211 887.282 203.632 891.726 195.345C893.625 191.8 895.19 187.72 894.981 183.684C894.731 178.9 891.872 175.29 890.537 170.699C889.264 166.32 889.306 161.728 886.301 158.375C879.207 150.409 867.314 147.633 856.797 148.038C846.406 148.444 835.744 151.071 834.325 159.358C831.884 173.582 843.986 177.234 843.986 177.234L879.353 211Z" fill="#4A2420"/>
<path d="M877.124 200L850.446 209.934L847 233.743C850.309 235.32 854.714 235.5 860.533 233.788C867.813 231.625 871.921 227.233 875.504 218.831C876.098 217.435 875.801 222.165 879.452 221.151C879.635 221.106 879.817 221.039 880 220.971L878.311 202.005C877.261 203.018 876.668 204.1 876.668 204.1C876.668 204.1 877.079 202.275 877.124 200Z" fill="#CA7865"/>
<path d="M844.473 177C844.473 177 837.116 188.246 838.089 207.389C838.871 222.617 842.676 236.138 859.822 230.821C866.566 228.721 870.372 224.455 873.691 216.294C874.241 214.937 873.966 219.532 877.348 218.547C883.648 216.71 888.257 203.254 882.084 199.075C877.813 196.187 874.769 201.963 874.769 201.963C874.769 201.963 876.164 195.706 873.839 191.987C871.957 189.011 875.784 187.764 875.467 182.732C871.534 175.84 863.31 180.391 844.452 177H844.473Z" fill="#FA957D"/>
<path d="M879.785 201.001C879.053 201.046 878.249 201.473 877.261 202.327C876.785 202.755 877.297 203.632 877.773 203.204C878.669 202.417 879.364 202.103 879.822 202.08C880.279 202.058 880.517 202.237 880.718 202.642C881.157 203.452 881.23 205.34 880.901 207.251C880.572 209.163 879.858 211.119 879.072 212.131C878.688 212.648 878.303 212.895 877.956 212.918C877.627 212.918 877.242 212.738 876.803 212.086C876.657 211.838 876.364 211.793 876.163 211.996C875.962 212.198 875.944 212.558 876.127 212.783C876.694 213.615 877.334 214.042 877.992 213.997C878.651 213.974 879.218 213.525 879.712 212.895C880.682 211.636 881.395 209.567 881.743 207.499C882.108 205.43 882.145 203.384 881.45 202.058C881.102 201.406 880.499 200.978 879.767 201.001H879.785Z" fill="#CA7865"/>
<path d="M815 267L849 274.284V285L815 277.716V267Z" fill="#855946"/>
<path d="M748 591.064L743 589V702H748V591.064Z" fill="#CF9B50"/>
<path d="M851.98 195.009C850.64 194.951 849.32 195.164 848 195.686L848.394 196.633C850.739 195.705 853.084 195.821 855.527 197L856 196.072C854.66 195.434 853.3 195.067 851.961 195.009H851.98Z" fill="#436DA0"/>
<path d="M837.108 192.022L847.417 192.151C848.327 192.151 849.041 192.971 848.998 193.855L848.782 198.318C848.738 199.224 848.002 199.828 847.114 199.849L836.588 200C835.678 200 834.92 199.181 835.007 198.297L835.44 193.531C835.527 192.626 836.22 191.979 837.108 192.001V192.022Z" fill="#D7EFFF"/>
<path d="M871.231 196.024L871 197.253C872.728 198.048 874.44 198.964 876.229 200L877 199.06C875.18 198 872.974 196.819 871.231 196V196.024Z" fill="#436DA0"/>
<path d="M857.293 194.015L869.344 195.423C870.388 195.544 871.152 196.539 870.974 197.534L870.159 202.485C869.98 203.48 869.063 204.087 868.019 203.99L855.663 202.898C854.618 202.801 853.828 201.781 854.032 200.786L855.153 195.52C855.357 194.525 856.249 193.894 857.293 194.015Z" fill="#D7EFFF"/>
<path d="M799.021 274V372.859L871 387V383.654C868.914 382.617 866.636 381.775 864.124 381.365C851.904 379.293 826.697 366.123 816.202 355.479C805.706 344.836 808.687 298.31 804.855 285.572C803.173 279.98 800.959 276.332 799 274.022L799.021 274Z" fill="#996C58"/>
<path d="M692 168.734L720.912 152L747 197.266L727.178 196.323L718.088 214L692 168.734Z" fill="#F1B4CC"/>
<path d="M706.152 160.001C705.248 160.04 704.706 160.987 705.168 161.759L721.746 189.409C722.067 189.969 722.81 190.162 723.392 189.853C723.974 189.525 724.175 188.81 723.833 188.249L707.255 160.6C707.035 160.214 706.613 159.982 706.152 160.001Z" fill="#AD5164"/>
<path d="M678 168.734L648.563 152L622 197.266L642.182 196.323L651.437 214L678 168.734Z" fill="#F1B4CC"/>
<path d="M662.804 160C662.362 160 661.961 160.232 661.74 160.599L645.166 188.237C644.825 188.797 645.026 189.512 645.608 189.84C646.19 190.169 646.932 189.976 647.253 189.396L663.827 161.758C664.308 160.985 663.727 160.019 662.804 160Z" fill="#AD5164"/>
<path d="M684.49 65L697.393 71.5642L711.879 71.244L720.635 82.7313L733.818 88.7151L736.723 102.884L746 113.991L742.454 128L746 142.029L736.723 153.116L733.818 167.285L720.635 173.269L711.879 184.776L697.393 184.456L684.49 191L671.607 184.456L657.121 184.776L648.365 173.269L635.182 167.285L632.277 153.116L623 142.029L626.546 128L623 113.991L632.277 102.884L635.182 88.7151L648.365 82.7313L657.121 71.244L671.607 71.5642L684.49 65Z" fill="#DC677F"/>
<path d="M736 129C736 142.518 730.564 155.494 720.909 165.056C711.254 174.617 698.151 180 684.5 180C656.062 180 633 157.161 633 129C633 115.482 638.436 102.506 648.091 92.9445C657.746 83.3832 670.849 78 684.5 78C698.151 78 711.254 83.3832 720.909 92.9445C730.564 102.506 736 115.482 736 129Z" fill="#F1B4CC"/>
<path d="M724 128C724 149.534 706.31 167 684.5 167C662.69 167 645 149.534 645 128C645 117.652 649.16 107.742 656.571 100.425C663.983 93.1074 674.019 89 684.5 89C694.981 89 705.017 93.1074 712.429 100.425C719.84 107.742 724 117.652 724 128Z" fill="#DC677F"/>
<path d="M669 103H665V118H669V103Z" fill="#F1B4CC"/>
<path d="M677.408 118C676.147 118 674.947 117.825 673.767 117.495C672.607 117.165 671.692 116.699 671 116.136L672.038 113.903C672.709 114.408 673.523 114.816 674.479 115.146C675.455 115.456 676.432 115.612 677.408 115.612C678.629 115.612 679.524 115.417 680.114 115.049C680.725 114.68 681.03 114.194 681.03 113.592C681.03 113.146 680.867 112.777 680.521 112.505C680.196 112.214 679.768 111.981 679.26 111.806C678.751 111.65 678.059 111.456 677.164 111.243C675.923 110.971 674.926 110.68 674.153 110.408C673.401 110.117 672.729 109.689 672.18 109.087C671.631 108.485 671.366 107.67 671.366 106.641C671.366 105.786 671.61 105.01 672.078 104.311C672.567 103.592 673.319 103.049 674.296 102.621C675.293 102.214 676.493 102 677.917 102C678.914 102 679.89 102.117 680.847 102.35C681.803 102.583 682.637 102.932 683.329 103.379L682.372 105.612C681.66 105.204 680.908 104.913 680.135 104.699C679.361 104.485 678.609 104.388 677.876 104.388C676.676 104.388 675.801 104.583 675.211 104.971C674.642 105.359 674.357 105.864 674.357 106.505C674.357 106.951 674.52 107.301 674.845 107.592C675.191 107.864 675.618 108.097 676.127 108.252C676.635 108.408 677.327 108.602 678.222 108.816C679.422 109.087 680.419 109.359 681.192 109.65C681.966 109.942 682.617 110.369 683.166 110.951C683.715 111.534 684 112.35 684 113.34C684 114.194 683.756 114.971 683.247 115.67C682.759 116.369 682.027 116.913 681.05 117.34C680.053 117.748 678.853 117.961 677.429 117.961L677.408 118Z" fill="#F1B4CC"/>
<path d="M694.99 115.467C696.098 115.467 697.101 115.233 698 114.784C698.899 114.317 699.589 113.654 700.112 112.816C700.613 111.978 700.885 111.023 700.885 109.99C700.885 108.957 700.634 108.022 700.112 107.184C699.61 106.346 698.899 105.683 698 105.216C697.101 104.748 696.098 104.495 694.99 104.495C693.882 104.495 692.878 104.728 691.979 105.216C691.08 105.683 690.39 106.326 689.868 107.184C689.366 108.022 689.115 108.957 689.115 109.99C689.115 111.023 689.366 111.978 689.868 112.816C690.369 113.654 691.08 114.297 691.979 114.784C692.878 115.252 693.882 115.467 694.99 115.467ZM694.99 118C693.275 118 691.749 117.649 690.39 116.987C689.031 116.285 687.944 115.33 687.171 114.122C686.397 112.894 686 111.51 686 110.01C686 108.509 686.397 107.125 687.171 105.917C687.944 104.689 689.031 103.734 690.39 103.052C691.749 102.351 693.296 102 694.99 102C696.683 102 698.23 102.351 699.61 103.052C700.969 103.734 702.056 104.689 702.829 105.898C703.603 107.106 704 108.49 704 110.01C704 111.53 703.603 112.914 702.829 114.122C702.056 115.33 700.969 116.285 699.61 116.987C698.251 117.669 696.704 118 694.99 118Z" fill="#F1B4CC"/>
<path d="M663.685 137.538C664.736 137.538 665.577 137.245 666.228 136.699C666.901 136.133 667.237 135.42 667.237 134.559C667.237 133.699 666.922 133.007 666.27 132.462C665.64 131.895 664.757 131.622 663.622 131.622C662.592 131.622 661.772 131.895 661.141 132.441C660.511 132.965 660.195 133.699 660.195 134.58C660.195 135.462 660.511 136.217 661.141 136.762C661.772 137.287 662.634 137.559 663.685 137.559V137.538ZM663.432 129.042C665.829 129.042 667.7 129.797 669.003 131.287C670.348 132.776 671 134.937 671 137.727C671 139.699 670.643 141.378 669.928 142.762C669.213 144.147 668.204 145.196 666.901 145.93C665.619 146.643 664.126 147 662.423 147C661.52 147 660.679 146.916 659.88 146.727C659.102 146.517 658.408 146.245 657.82 145.888L659.018 143.434C659.88 144 660.994 144.273 662.339 144.273C664.021 144.273 665.345 143.748 666.291 142.72C667.237 141.692 667.721 140.203 667.721 138.252C667.216 138.818 666.544 139.28 665.745 139.594C664.946 139.888 664.042 140.035 663.033 140.035C661.877 140.035 660.847 139.825 659.922 139.385C658.997 138.944 658.282 138.294 657.778 137.497C657.252 136.678 657 135.734 657 134.664C657 133.531 657.294 132.545 657.841 131.685C658.408 130.825 659.186 130.154 660.153 129.692C661.12 129.231 662.213 129 663.411 129L663.432 129.042Z" fill="#F1B4CC"/>
<path d="M680.99 144.168C682.195 144.168 683.119 143.643 683.802 142.615C684.505 141.587 684.846 140.035 684.846 138C684.846 135.965 684.485 134.413 683.802 133.385C683.119 132.357 682.175 131.832 680.99 131.832C679.805 131.832 678.881 132.336 678.178 133.385C677.495 134.413 677.154 135.965 677.154 138C677.154 140.035 677.495 141.587 678.178 142.615C678.881 143.643 679.825 144.168 680.99 144.168ZM680.99 147C679.644 147 678.459 146.643 677.395 145.951C676.35 145.238 675.506 144.21 674.904 142.846C674.301 141.483 674 139.867 674 138C674 136.133 674.301 134.538 674.904 133.175C675.506 131.811 676.33 130.783 677.395 130.07C678.439 129.357 679.644 129 680.99 129C682.336 129 683.521 129.357 684.585 130.07C685.65 130.762 686.494 131.79 687.096 133.175C687.699 134.517 688 136.133 688 138C688 139.867 687.699 141.483 687.096 142.846C686.494 144.189 685.65 145.238 684.585 145.951C683.541 146.643 682.336 147 680.99 147Z" fill="#F1B4CC"/>
<path d="M695.99 144.168C697.195 144.168 698.119 143.643 698.802 142.615C699.505 141.587 699.846 140.035 699.846 138C699.846 135.965 699.505 134.413 698.802 133.385C698.119 132.357 697.175 131.832 695.99 131.832C694.805 131.832 693.861 132.336 693.178 133.385C692.495 134.413 692.154 135.965 692.154 138C692.154 140.035 692.495 141.587 693.178 142.615C693.881 143.643 694.825 144.168 695.99 144.168ZM695.99 147C694.644 147 693.459 146.643 692.395 145.951C691.35 145.238 690.506 144.21 689.904 142.846C689.301 141.483 689 139.867 689 138C689 136.133 689.301 134.538 689.904 133.175C690.506 131.811 691.33 130.783 692.395 130.07C693.439 129.357 694.644 129 695.99 129C697.336 129 698.521 129.357 699.585 130.07C700.65 130.762 701.494 131.79 702.096 133.175C702.699 134.517 703 136.133 703 138C703 139.867 702.699 141.483 702.096 142.846C701.494 144.189 700.65 145.238 699.585 145.951C698.541 146.643 697.336 147 695.99 147Z" fill="#F1B4CC"/>
<path d="M712 131V147H708.254V133.497H704V131H712Z" fill="#F1B4CC"/>
</svg>
