<svg width="885" height="885" viewBox="0 0 885 885" fill="none" xmlns="http://www.w3.org/2000/svg">
<g clip-path="url(#clip0_497_9063)">
<path d="M655.8 190.31H525.988V271.55H655.8V190.31Z" fill="#C3CEE0"/>
<path d="M617.427 190.31H523.914V271.55H617.427V190.31Z" fill="#E5ECF4"/>
<path d="M581.646 190.31H561.941V209.496H581.646V190.31Z" fill="#C3CEE0"/>
<path d="M816.377 513.888H682.936V597.548H816.377V513.888Z" fill="#C3CEE0"/>
<path d="M776.967 513.888H680.861V597.548H776.967V513.888Z" fill="#E5ECF4"/>
<path d="M740.149 513.888H719.926V533.593H740.149V513.888Z" fill="#C3CEE0"/>
<path d="M813.613 209.669H719.928V274.834H813.613V209.669Z" fill="#C3CEE0"/>
<path d="M786.13 209.669H718.545V274.834H786.13V209.669Z" fill="#E5ECF4"/>
<path d="M760.201 209.669H746.027V225.053H760.201V209.669Z" fill="#C3CEE0"/>
<path d="M619.326 304.737H525.641V369.902H619.326V304.737Z" fill="#C3CEE0"/>
<path d="M591.843 304.737H524.258V369.902H591.843V304.737Z" fill="#E5ECF4"/>
<path d="M565.916 304.737H551.742V320.121H565.916V304.737Z" fill="#C3CEE0"/>
<path d="M807.734 312.343H714.049V377.508H807.734V312.343Z" fill="#C3CEE0"/>
<path d="M780.251 312.343H712.666V377.508H780.251V312.343Z" fill="#E5ECF4"/>
<path d="M754.324 312.343H740.15V327.727H754.324V312.343Z" fill="#C3CEE0"/>
<path d="M620.02 411.214H526.334V476.379H620.02V411.214Z" fill="#C3CEE0"/>
<path d="M592.536 411.214H524.951V476.379H592.536V411.214Z" fill="#E5ECF4"/>
<path d="M566.607 411.214H552.434V426.598H566.607V411.214Z" fill="#C3CEE0"/>
<path d="M739.979 411.214H646.293V476.379H739.979V411.214Z" fill="#C3CEE0"/>
<path d="M712.495 411.214H644.91V476.379H712.495V411.214Z" fill="#E5ECF4"/>
<path d="M686.566 411.214H672.393V426.598H686.566V411.214Z" fill="#C3CEE0"/>
<path d="M515.271 260.142H494.355V692.271H515.271V260.142Z" fill="#8EA1C3"/>
<path d="M852.677 260.142H831.762V692.271H852.677V260.142Z" fill="#8EA1C3"/>
<path d="M837.984 271.55H504.727V287.971H837.984V271.55Z" fill="#8EA1C3"/>
<path d="M837.984 370.248H504.727V386.669H837.984V370.248Z" fill="#8EA1C3"/>
<path d="M837.984 469.119H504.727V485.54H837.984V469.119Z" fill="#8EA1C3"/>
<path d="M837.984 593.918H504.727V610.339H837.984V593.918Z" fill="#8EA1C3"/>
<path d="M693.309 659.602V682.591H640.762C640.762 682.591 667.208 664.787 669.801 654.416C672.394 644.045 693.309 646.465 693.309 659.602Z" fill="#FFAE9A"/>
<path d="M630.219 690.542C630.219 690.542 624.514 685.011 637.651 678.269C637.651 678.269 657.011 664.96 663.233 662.194C669.456 659.429 673.086 673.602 673.086 673.602H675.16L692.964 667.38C694.001 667.034 695.038 667.725 695.038 668.763L696.939 686.566C697.112 688.986 695.556 691.06 693.309 691.233C683.803 692.27 674.123 692.443 664.443 692.616C654.072 692.616 638.515 695.209 630.046 690.369L630.219 690.542Z" fill="#282B3B"/>
<path d="M775.24 655.28L780.426 677.751L729.262 689.678C729.262 689.678 751.041 666.343 751.214 655.626C751.387 644.909 772.302 642.489 775.413 655.453L775.24 655.28Z" fill="#FFAE9A"/>
<path d="M722.348 693.999C715.952 693.653 715.261 686.393 719.237 682.591C721.484 680.516 724.595 679.825 727.361 678.961C741.016 674.467 736.867 672.047 746.547 664.787C752.078 660.811 758.647 673.775 758.647 673.775L760.721 673.43L776.623 663.231C777.487 662.713 778.697 663.231 779.043 664.096L784.92 681.035C785.612 683.282 784.574 685.702 782.327 686.393C778.179 688.295 773.339 688.986 769.191 690.369C767.462 690.369 765.388 691.406 763.832 691.925C754.325 694.517 756.227 693.48 748.448 693.653C739.806 693.653 730.99 694.172 722.348 693.999Z" fill="#282B3B"/>
<path d="M662.194 420.375C657.527 543.445 658.219 508.184 660.466 656.49C660.466 656.49 674.467 669.973 698.32 658.046L701.95 548.285L705.407 521.666C705.407 521.666 708.346 554.853 708.692 557.273C709.037 559.693 743.78 660.466 743.78 660.466C743.78 660.466 761.411 667.898 779.042 651.132L754.67 554.854C754.67 554.854 759.856 465.316 747.583 416.745L662.367 420.202L662.194 420.375Z" fill="#073955"/>
<g opacity="0.5">
<path d="M685.184 462.378L697.802 471.539L705.234 521.839L695.209 474.65L685.184 462.378Z" fill="#282B3B"/>
</g>
<path d="M662.195 355.556C660.121 364.89 653.207 393.756 646.293 400.497C638.342 408.448 569.028 413.288 569.028 413.288L566.781 395.312L626.761 378.718C629.181 371.112 634.539 354.519 636.786 347.086L661.85 355.556H662.195Z" fill="#FFAE9A"/>
<g opacity="0.5">
<path d="M662.195 355.556C662.195 355.556 659.948 366.1 656.664 377.162C648.713 369.902 638.688 362.988 633.156 359.358L637.132 347.086L662.195 355.556Z" fill="#FF8389"/>
</g>
<path d="M665.48 365.408C657.355 362.47 639.033 356.074 630.736 353.136L649.059 305.083C660.813 306.466 665.307 353.309 665.48 365.408Z" fill="#E36A35"/>
<path d="M752.077 425.042C745.509 426.943 664.787 441.636 662.021 426.425C659.256 411.214 659.256 370.248 659.256 370.248L648.885 305.083L669.108 292.811L705.58 287.106L732.545 297.65C734.273 307.676 745.682 370.248 747.064 376.471C747.756 381.311 758.991 421.931 751.904 425.042H752.077Z" fill="#E36A35"/>
<path d="M761.238 391.336C760.374 396.521 691.061 416.745 691.061 416.745L681.035 399.979L731.162 376.471C731.162 376.471 728.051 360.05 727.878 359.358L754.497 344.666C755.188 347.95 762.103 389.089 761.065 391.509L761.238 391.336Z" fill="#FFAE9A"/>
<g opacity="0.5">
<path d="M757.782 363.853C748.621 364.198 736.003 371.112 730.817 374.224L727.879 358.84L754.498 344.147C754.498 344.147 756.227 353.481 757.782 363.68V363.853Z" fill="#FF8389"/>
</g>
<path d="M686.049 397.04C682.419 395.484 669.282 390.817 664.442 391.163C661.676 391.509 653.725 387.879 654.244 391.163C654.762 394.447 655.281 396.867 663.232 398.423L666.516 399.806C666.516 399.806 660.294 400.151 658.047 400.67C655.8 401.189 643.181 398.769 642.836 400.67C642.49 402.571 642.317 401.361 643.354 404.473C643.354 404.473 640.589 406.547 644.737 410.523C644.737 410.523 641.971 413.807 646.466 415.535C646.466 415.535 645.256 418.819 649.577 419.511C653.898 420.202 659.602 425.388 671.01 422.449C682.419 419.511 692.444 416.399 692.444 416.399L686.394 397.213L686.049 397.04Z" fill="#FFAE9A"/>
<path d="M643.182 404.646L643.527 404.127C647.503 407.584 666.689 407.584 666.862 407.584V408.103C665.998 408.103 647.33 408.103 643.182 404.646Z" fill="#FF8389"/>
<path d="M644.564 410.695V410.177C648.367 411.905 665.48 413.461 665.652 413.461V413.979C664.961 413.979 648.194 412.424 644.564 410.695Z" fill="#FF8389"/>
<path d="M646.293 415.708V415.189C651.824 415.881 664.788 418.301 664.788 418.301V418.819C664.615 418.819 651.651 416.399 646.293 415.708Z" fill="#FF8389"/>
<path d="M732.718 297.823C732.718 297.823 754.324 314.417 763.485 356.074C763.485 356.074 743.262 365.408 724.767 363.507L713.531 322.368C713.531 322.368 717.853 292.811 732.545 297.823H732.718Z" fill="#E36A35"/>
<path d="M702.642 237.844C700.568 234.905 697.284 233.177 694.173 231.448C680.863 224.016 666.862 221.596 659.602 234.733C659.084 235.597 658.738 236.461 658.565 237.325C658.565 237.325 658.565 237.325 658.565 237.498C657.874 238.708 657.528 240.782 656.837 241.647C655.972 242.511 654.762 242.857 653.725 243.548C652.17 244.758 651.824 247.005 652.515 248.906C655.454 257.03 664.961 257.03 671.875 259.796C674.986 261.179 677.924 264.117 680.863 265.846C685.357 268.611 689.851 271.204 694.518 273.97C696.938 269.649 701.778 261.697 703.161 258.759C706.272 252.191 707.309 243.894 702.815 238.017L702.642 237.844Z" fill="#191E3E"/>
<path d="M697.456 283.304C695.728 275.871 693.308 264.636 692.616 261.352C689.851 262.216 682.764 263.944 670.664 267.401C672.911 277.6 672.911 278.982 674.812 286.069C675.677 290.736 673.775 293.675 676.714 296.268C678.27 297.65 677.06 306.12 679.134 305.947C681.208 305.774 686.566 296.959 688.295 295.922C692.271 293.502 698.493 288.662 697.456 283.131V283.304Z" fill="#FFAE9A"/>
<path d="M672.047 277.6L674.467 284.514C674.467 284.514 681.035 291.428 692.962 272.241C693.48 271.377 693.48 270.513 693.653 269.648L691.752 264.981C687.431 264.981 678.097 272.241 672.047 277.427V277.6Z" fill="#FF8389"/>
<path d="M659.602 234.732C658.392 236.807 657.874 238.708 656.318 240.609C654.244 243.029 651.305 245.449 652.515 248.906C653.552 251.845 655.454 253.746 657.701 254.956C657.874 254.956 658.219 254.956 658.565 255.302C661.158 249.252 664.788 238.881 664.788 238.881C663.232 238.535 660.985 236.288 659.429 234.732H659.602Z" fill="#282B3B"/>
<path d="M701.26 264.117C702.643 262.389 702.816 260.66 702.643 258.586C702.47 255.993 703.68 253.055 702.297 250.462C701.433 248.388 699.877 246.486 698.322 244.758C693.655 239.4 688.815 233.868 681.901 231.794C676.024 229.893 669.283 231.103 664.443 234.905C654.763 242.338 656.146 256.166 657.874 266.883C659.257 275.18 664.443 285.378 674.468 284.687C688.469 283.995 694.346 269.303 694.346 269.303C696.939 268.093 699.532 266.364 701.087 264.29L701.26 264.117Z" fill="#FFAE9A"/>
<path d="M675.158 256.339C677.751 255.474 679.134 258.932 676.714 260.141C674.121 261.006 672.738 257.549 675.158 256.339Z" fill="#121136"/>
<path d="M675.158 256.339C677.751 255.474 679.134 258.932 676.714 260.141C674.121 261.006 672.738 257.549 675.158 256.339Z" fill="#080E1C"/>
<path d="M677.578 257.549C678.097 258.586 676.196 259.45 675.85 258.24C675.331 257.203 677.06 256.339 677.578 257.549Z" fill="white"/>
<path d="M660.639 259.104C663.232 258.24 664.614 261.697 662.195 262.907C659.602 263.771 658.219 260.314 660.639 259.104Z" fill="#080E1C"/>
<path d="M661.85 259.796C662.887 259.277 663.751 261.179 662.541 261.525C661.504 262.043 660.64 260.142 661.85 259.796Z" fill="white"/>
<path d="M705.235 243.894C704.37 240.264 701.605 237.844 700.395 234.56C699.876 233.177 700.049 231.967 699.185 230.757C696.419 227.127 692.789 227.991 690.542 227.646C686.567 226.781 683.974 223.67 679.825 223.151C676.714 222.806 673.776 224.016 670.837 224.016C668.071 224.016 664.442 225.053 662.367 226.781C656.663 231.621 651.651 237.498 652.688 245.449C655.972 245.449 657.355 241.474 659.775 239.918C665.133 236.115 664.96 244.758 668.417 246.314C673.257 248.561 678.27 242.511 683.282 243.894C688.814 245.449 685.357 250.808 687.085 254.265C687.431 255.129 688.122 255.648 688.295 256.512C688.468 257.722 688.122 259.45 687.949 260.66C687.777 263.599 690.369 261.352 691.061 260.315C691.925 258.759 692.444 257.376 693.481 255.993C695.901 253.228 699.012 252.709 701.259 255.993C701.95 257.03 702.296 258.067 702.469 259.105C702.469 259.105 702.469 258.759 702.642 258.586C704.716 253.919 706.099 248.733 704.889 243.721L705.235 243.894Z" fill="#282B3B"/>
<path d="M697.976 258.932C699.877 260.833 699.186 262.907 697.457 264.463C700.396 262.389 700.223 259.104 696.42 257.549C697.111 257.895 697.63 258.413 697.976 258.932Z" fill="#FD8A6C"/>
<path d="M695.901 261.006C697.284 260.488 698.667 259.623 699.186 261.006C699.358 259.796 697.803 259.623 696.939 260.142C696.074 260.142 695.21 261.006 694.691 261.525L695.901 260.833V261.006Z" fill="#FD8A6C"/>
<path d="M681.209 254.611C681.209 254.611 681.209 254.265 681.209 254.092C678.097 249.771 672.048 252.191 672.22 253.573C672.22 253.746 672.566 253.573 672.739 253.573C673.085 253.573 676.369 250.116 680.517 254.611C680.69 254.611 680.863 254.611 681.036 254.611H681.209Z" fill="#080E1C"/>
<path d="M664.443 255.302C664.615 255.302 664.443 254.956 664.443 254.783C662.541 253.055 660.813 252.363 659.257 252.709C657.183 253.228 656.319 255.129 656.319 255.129C656.146 255.647 656.837 255.82 657.01 255.475C657.01 255.475 657.701 253.746 659.43 253.4C660.813 253.055 662.368 253.746 664.097 255.302C664.097 255.302 664.27 255.302 664.443 255.302C664.615 255.302 664.615 255.302 664.443 255.302Z" fill="#080E1C"/>
<path d="M666.515 259.277C667.207 260.833 666.861 262.734 666.515 264.29C666.342 264.981 665.305 266.537 665.997 267.747C666.861 268.784 668.244 268.957 669.454 268.784C668.244 268.784 666.688 268.784 666.342 267.747C665.824 266.537 666.342 265.673 666.861 264.463C667.725 262.043 667.38 259.623 665.824 257.549C666.17 258.067 666.343 258.586 666.688 259.277H666.515Z" fill="#FD8A6C"/>
<path d="M671.7 268.266C672.046 268.093 672.392 268.093 672.91 267.92C672.564 267.574 672.219 267.747 671.7 267.92C671.354 268.093 671.009 268.265 670.836 268.611C671.182 268.611 671.527 268.438 671.873 268.266H671.7Z" fill="#FD8A6C"/>
<path d="M665.998 273.278C670.492 273.278 673.949 272.76 678.098 272.068C674.122 274.143 669.282 274.488 665.998 273.278Z" fill="#FD8A6C"/>
<path d="M669.283 275.525C670.147 275.007 671.53 275.007 672.395 275.525C671.53 276.044 670.147 276.044 669.283 275.525Z" fill="#FD8A6C"/>
<path d="M696.939 280.884L679.135 305.947L685.876 303.354L698.84 311.651L709.211 287.971L696.939 280.884Z" fill="white"/>
<path d="M674.985 287.625L679.134 305.947L674.812 303.355L665.479 311.651L668.071 292.638L674.985 287.625Z" fill="white"/>
<path d="M661.504 241.474C661.504 241.474 631.947 244.585 642.318 248.733C652.689 252.882 700.742 244.412 700.742 244.412L661.504 241.301V241.474Z" fill="#E36A35"/>
<path d="M705.928 245.622C705.928 245.622 709.731 217.966 675.852 217.274C675.852 217.274 652.862 217.274 652.171 243.894C651.48 245.104 672.395 245.276 706.101 245.795L705.928 245.622Z" fill="#E36A35"/>
<path d="M191.519 190.31H61.707V271.55H191.519V190.31Z" fill="#C3CEE0"/>
<path d="M153.146 190.31H59.6328V271.55H153.146V190.31Z" fill="#E5ECF4"/>
<path d="M117.365 190.31H97.6602V209.496H117.365V190.31Z" fill="#C3CEE0"/>
<path d="M349.334 209.669H255.648V274.834H349.334V209.669Z" fill="#C3CEE0"/>
<path d="M321.851 209.669H254.266V274.834H321.851V209.669Z" fill="#E5ECF4"/>
<path d="M295.922 209.669H281.748V225.053H295.922V209.669Z" fill="#C3CEE0"/>
<path d="M155.049 307.157H61.3633V372.322H155.049V307.157Z" fill="#C3CEE0"/>
<path d="M127.565 307.157H59.9805V372.322H127.565V307.157Z" fill="#E5ECF4"/>
<path d="M101.465 307.157H87.291V322.541H101.465V307.157Z" fill="#C3CEE0"/>
<path d="M343.455 314.59H249.77V379.755H343.455V314.59Z" fill="#C3CEE0"/>
<path d="M315.972 314.59H248.387V379.755H315.972V314.59Z" fill="#E5ECF4"/>
<path d="M290.045 314.59H275.871V329.974H290.045V314.59Z" fill="#C3CEE0"/>
<path d="M155.738 411.214H62.0527V476.379H155.738V411.214Z" fill="#C3CEE0"/>
<path d="M128.255 411.214H60.6699V476.379H128.255V411.214Z" fill="#E5ECF4"/>
<path d="M102.328 411.214H88.1543V426.598H102.328V411.214Z" fill="#C3CEE0"/>
<path d="M275.697 411.214H182.012V476.379H275.697V411.214Z" fill="#C3CEE0"/>
<path d="M248.214 411.214H180.629V476.379H248.214V411.214Z" fill="#E5ECF4"/>
<path d="M222.287 411.214H208.113V426.598H222.287V411.214Z" fill="#C3CEE0"/>
<path d="M50.9912 260.142H30.0762V692.271H50.9912V260.142Z" fill="#8EA1C3"/>
<path d="M388.397 260.142H367.482V692.271H388.397V260.142Z" fill="#8EA1C3"/>
<path d="M373.705 271.55H40.4473V287.971H373.705V271.55Z" fill="#8EA1C3"/>
<path d="M373.705 370.248H40.4473V386.669H373.705V370.248Z" fill="#8EA1C3"/>
<path d="M373.705 469.119H40.4473V485.54H373.705V469.119Z" fill="#8EA1C3"/>
<path d="M381.656 245.795C374.224 248.561 368.347 254.956 366.1 262.562C363.507 271.723 366.445 281.748 364.89 291.082C362.47 306.12 349.333 318.566 351.234 334.122C353.136 349.679 358.148 349.16 365.754 349.16C394.62 305.083 398.768 299.206 403.263 290.045C411.559 272.414 411.732 234.56 381.656 245.795Z" fill="#282B3B"/>
<path d="M343.11 439.735C343.11 439.735 330.146 466.527 336.023 507.147H425.906C425.906 507.147 420.893 434.376 413.806 429.018C406.719 423.832 343.283 439.735 343.283 439.735H343.11Z" fill="#073955"/>
<path d="M412.941 320.294C412.941 320.294 434.894 348.123 449.932 381.829L512.331 377.681L513.887 402.398C513.887 402.398 443.363 413.807 435.585 409.485C427.807 405.164 396.693 340.863 396.693 340.863L412.769 320.294H412.941Z" fill="#EFAC35"/>
<path d="M425.905 389.607C425.041 391.509 424.35 393.064 424.004 393.756C422.794 395.484 417.608 438.87 419.164 446.303C407.064 459.785 358.493 450.624 343.628 447.34C341.035 446.821 339.479 444.401 339.825 441.809L351.925 368.692C352.789 313.898 389.088 305.774 389.088 305.774L409.311 314.071L418.3 330.319C436.795 355.729 429.708 379.755 425.56 389.607H425.905Z" fill="#FDBA38"/>
<path d="M598.239 356.593H492.973V437.833H598.239V356.593Z" fill="#D89B3E"/>
<path d="M567.298 356.593H491.416V437.833H567.298V356.593Z" fill="#E4B460"/>
<path d="M538.086 356.593H522.184V375.779H538.086V356.593Z" fill="white"/>
<path d="M480.181 392.546C483.465 390.645 495.219 384.595 499.886 384.249C502.651 384.249 509.565 379.755 509.565 382.866C509.565 385.978 509.22 388.398 501.96 390.817L499.021 392.546C499.021 392.546 505.071 392.2 507.145 392.373C509.22 392.546 520.974 388.743 521.492 390.472C522.011 392.2 522.184 390.99 521.492 394.274C521.492 394.274 524.431 395.83 520.974 400.151C520.974 400.151 524.085 402.917 519.936 405.164C519.936 405.164 521.492 408.103 517.517 409.313C513.541 410.523 508.701 416.227 497.639 414.671C486.403 413.288 476.551 411.732 476.551 411.732L479.835 392.719L480.181 392.546Z" fill="#FFAE9A"/>
<path d="M521.665 394.274L521.319 393.929C517.862 397.559 499.886 399.979 499.713 400.151V400.67C500.577 400.67 518.208 398.25 521.838 394.274H521.665Z" fill="#FF8389"/>
<path d="M521.146 400.324L520.801 399.806C517.689 401.88 501.614 405.51 501.441 405.51V406.028C502.306 406.028 517.862 402.398 521.146 400.324Z" fill="#FF8389"/>
<path d="M520.109 405.164V404.646C514.924 405.855 502.997 409.831 502.824 410.004V410.522C503.17 410.522 515.097 406.547 520.109 405.337V405.164Z" fill="#FF8389"/>
<path d="M392.372 338.444L419.855 393.756L481.909 391.163L485.539 413.98C485.539 413.98 411.558 432.302 402.743 422.449C393.928 412.597 366.79 358.667 366.79 358.667C366.79 358.667 354.172 311.824 392.372 338.616V338.444Z" fill="#FDBA38"/>
<path d="M385.459 264.29C380.964 269.994 381.483 278.291 384.249 284.687C385.286 287.452 389.78 295.404 392.027 299.898C396.521 297.305 401.015 294.885 405.509 292.465C408.448 290.909 411.386 288.144 414.498 286.934C421.239 284.514 432.129 284.687 432.647 275.353C432.993 269.822 431.091 271.377 429.709 269.649C428.844 268.439 428.844 266.883 428.153 265.5C428.153 265.5 428.153 265.5 428.153 265.327C427.807 262.907 424.523 256.858 419.338 254.611C410.868 250.981 401.534 254.611 393.928 258.413C390.817 259.969 387.533 261.697 385.459 264.463V264.29Z" fill="#282B3B"/>
<path d="M389.089 304.392C388.57 305.774 388.051 307.157 387.533 308.54C385.631 311.997 387.706 314.59 389.953 317.701C393.064 322.195 399.46 328.245 404.645 328.418C407.238 328.418 410.349 326.517 410.868 323.751C411.386 320.985 409.312 316.491 410.349 312.688L411.214 309.404C414.152 297.65 413.115 301.626 415.016 294.366C403.262 290.563 396.521 288.489 394.101 287.625C390.817 299.725 392.027 297.823 389.089 304.392Z" fill="#FFAE9A"/>
<path d="M413.46 304.219C407.756 298.86 399.113 291.428 394.965 291.255L392.891 295.749C393.063 296.613 392.891 297.478 393.582 298.342C404.299 317.528 411.04 310.96 411.04 310.96L413.633 304.219H413.46Z" fill="#FF8389"/>
<path d="M385.803 289.872C387.186 291.947 389.779 293.848 392.198 295.058C392.198 295.058 397.211 309.75 410.866 310.787C420.546 311.652 426.077 301.799 427.633 293.675C429.707 283.304 431.609 269.649 422.448 262.043C417.953 258.24 411.385 256.858 405.681 258.413C399.113 260.142 394.1 265.5 389.433 270.686C387.877 272.414 386.322 274.143 385.457 276.217C384.074 278.81 385.112 281.575 384.939 284.168C384.593 286.242 384.939 287.798 385.976 289.699L385.803 289.872Z" fill="#FFAE9A"/>
<path d="M412.249 285.724C411.039 288.144 407.582 286.415 408.619 284.168C409.829 281.748 413.286 283.477 412.249 285.724Z" fill="#100F36"/>
<path d="M412.249 285.724C411.039 288.144 407.582 286.415 408.619 284.168C409.829 281.748 413.286 283.477 412.249 285.724Z" fill="#1A2B47"/>
<path d="M410.52 285.032C410.001 286.242 408.273 285.378 408.791 284.341C409.31 283.131 410.865 283.995 410.52 285.032Z" fill="white"/>
<path d="M425.214 286.415C427.634 287.625 425.906 291.082 423.486 290.045C421.066 288.835 422.794 285.378 425.214 286.415Z" fill="#1A2B47"/>
<path d="M424.524 288.316C424.005 289.526 422.277 288.662 422.795 287.625C423.314 286.415 425.042 287.279 424.524 288.316Z" fill="white"/>
<path d="M382.865 280.711C382.001 277.254 381.655 273.451 382.692 269.994C383.729 266.537 386.322 264.29 387.705 261.006C392.199 249.944 406.2 248.388 416.917 250.808C422.621 252.191 427.634 256.858 430.918 261.697C432.819 264.463 433.684 267.92 433.511 271.204C433.511 273.624 431.955 282.958 429.708 277.6C427.979 273.279 426.942 269.649 423.312 266.365C422.448 272.933 417.608 276.736 411.213 277.254C402.916 278.81 398.076 286.242 396.175 294.021C394.446 300.762 394.619 293.675 394.619 290.391C394.792 286.415 394.101 279.501 388.742 280.365C386.668 280.711 384.939 283.477 384.594 285.378C384.594 285.378 384.594 285.032 384.421 284.86C384.421 284.514 383.038 281.23 383.038 280.884L382.865 280.711Z" fill="#282B3B"/>
<path d="M389.088 285.032C389.607 284.514 390.125 283.995 390.644 283.649C389.952 283.995 389.261 284.341 388.742 284.687C386.15 287.106 388.224 283.649 387.532 286.588C387.187 288.144 388.224 289.526 389.261 290.391C387.705 288.835 387.014 286.588 388.915 285.032H389.088Z" fill="#FF8389"/>
<path d="M390.99 287.106L392.2 287.798C391.681 287.279 390.817 286.415 390.126 286.242C388.916 285.551 387.706 286.242 388.051 286.933C388.051 286.761 387.706 286.415 387.878 286.242C388.051 286.069 388.743 286.242 388.916 286.242C389.261 286.242 389.607 286.242 390.126 286.588C390.471 286.761 390.99 286.933 391.336 287.106H390.99Z" fill="#FF8389"/>
<path d="M405.508 281.23C405.681 281.23 405.508 281.23 406.026 281.23C407.409 279.847 408.619 279.156 410.002 279.156C412.076 279.156 413.459 280.538 413.632 280.538C413.805 280.538 413.978 280.711 414.15 280.538C414.15 280.538 414.15 280.193 414.15 280.02C412.249 278.118 408.273 277.427 405.681 280.711C405.681 280.884 405.681 281.057 405.681 281.23H405.508Z" fill="#1A2B47"/>
<path d="M421.584 282.44C421.584 282.44 421.757 282.44 421.929 282.44C423.658 281.057 425.214 280.539 426.423 280.711C426.942 280.711 428.152 281.576 428.671 282.786C428.671 283.304 429.535 282.958 429.362 282.613C429.362 282.44 426.942 277.427 421.411 281.921C421.411 282.094 421.238 282.267 421.411 282.44H421.584Z" fill="#1A2B47"/>
<path d="M419.335 286.415C419.681 285.724 420.026 285.205 420.372 284.859C416.742 289.699 420.545 293.329 419.508 294.885C418.989 295.922 417.434 295.749 416.396 295.749C418.125 296.095 418.989 295.749 419.681 294.885C420.718 293.329 418.816 292.292 418.989 288.144C418.989 287.625 418.989 286.934 419.335 286.415Z" fill="#FF8389"/>
<path d="M414.15 295.058C414.323 295.058 414.669 295.231 415.187 295.403C415.187 295.058 414.669 294.885 414.323 294.539C413.805 294.539 413.632 294.366 413.113 294.539C413.632 294.539 413.805 294.712 414.15 294.885V295.058Z" fill="#FF8389"/>
<path d="M410.003 292.119C409.484 294.539 401.879 293.156 402.224 290.564C402.743 288.144 410.348 289.527 410.003 292.119Z" fill="#FF8389"/>
<path d="M426.251 294.539C425.733 297.305 420.028 296.095 420.547 293.502C421.066 290.737 426.77 291.947 426.251 294.539Z" fill="#FF8389"/>
<path d="M418.99 301.108C419.509 298.688 409.483 297.305 409.311 299.898C409.311 301.281 411.039 303.009 413.805 303.355C416.57 303.7 418.817 302.318 418.99 301.108Z" fill="#342F46"/>
<path d="M418.473 302.145C416.398 304.219 411.213 303.528 409.83 301.108C411.904 299.034 417.09 299.725 418.473 302.145Z" fill="#FD6869"/>
<path d="M418.816 300.071C416.569 300.416 412.248 299.725 410.174 298.861C411.902 297.824 417.606 298.515 418.816 300.071Z" fill="white"/>
<path d="M162.306 294.712C169.22 285.551 183.221 282.785 193.073 288.489C208.457 297.996 208.457 319.257 194.11 329.628C170.084 348.987 148.651 315.108 162.306 294.539V294.712Z" fill="#282B3B"/>
<path d="M223.151 431.092L225.917 456.501L289.699 487.096H256.339C256.339 487.096 204.829 476.725 199.298 467.736C193.766 458.748 200.162 429.19 200.162 429.19L222.978 431.092H223.151Z" fill="#F29F8F"/>
<path d="M228.854 438.697C225.052 441.463 209.841 448.031 199.988 444.747C200.334 448.377 198.778 382.866 210.187 382.348C210.187 382.348 226.435 412.597 228.682 438.697H228.854Z" fill="#FDBA38"/>
<path d="M210.014 401.016C212.261 439.043 202.062 448.031 196.877 456.674C192.728 463.761 193.938 485.713 194.63 493.837H109.414C106.648 442.846 123.588 379.755 125.143 378.545C126.181 377.681 153.318 368.001 153.318 368.001H185.123L210.532 382.175L210.186 401.016H210.014Z" fill="#FDBA38"/>
<path d="M185.469 473.44V489.516C185.469 489.516 110.797 484.33 100.253 480.7C90.9192 478.453 99.0432 446.821 101.463 439.562L132.231 438.524C131.712 441.809 128.946 458.229 128.428 461.168L185.469 473.44Z" fill="#FFAE9A"/>
<g opacity="0.5">
<path d="M132.23 438.524L129.119 456.847C117.365 453.735 103.883 451.834 98.3516 451.143C99.9072 444.747 101.463 439.734 101.463 439.734L132.23 438.697V438.524Z" fill="#FF8389"/>
</g>
<path d="M183.221 472.922L181.492 489.516C181.492 489.516 187.715 489.343 189.789 490.38C191.863 491.417 206.21 489.861 208.976 489.343C211.741 488.824 214.68 491.763 214.68 491.763C219.347 496.602 220.384 495.911 220.384 495.911C223.841 496.257 216.581 487.787 216.581 487.787L212.605 484.33L219.001 486.75L225.396 491.244C225.396 491.244 225.915 491.935 228.162 491.763C230.928 491.59 223.149 483.811 223.149 483.811L215.198 480.182C220.038 481.046 217.964 480.527 224.532 482.256C234.73 489.17 239.052 486.923 232.829 483.12L225.915 477.934L217.618 475.342L219.865 474.996L225.396 476.725C232.311 480.009 232.829 477.934 232.829 477.934C233.866 475.515 220.902 470.848 220.902 470.848C220.902 470.848 213.124 469.292 203.444 469.292C199.987 468.601 187.023 473.095 186.851 473.44H182.702L183.221 472.922Z" fill="#FFAE9A"/>
<path d="M460.995 489.516H146.924V508.011H460.995V489.516Z" fill="#FFAE9A"/>
<path d="M448.029 501.442H30.0742V693.48H448.029V501.442Z" fill="#36517E"/>
<path d="M448.03 501.442H158.504V693.48H448.03V501.442Z" fill="#577BAF"/>
<path d="M461.167 489.516H20.2227V508.011H461.167V489.516Z" fill="#577BAF"/>
<path d="M461.167 489.516H144.33V508.011H461.167V489.516Z" fill="#99AED2"/>
<path d="M125.143 378.718C125.143 378.718 110.104 389.78 93.6836 445.784C93.6836 445.784 112.179 454.6 135.341 448.55L147.959 407.066C147.959 407.066 142.428 376.816 124.97 378.718H125.143Z" fill="#FDBA38"/>
<path d="M169.393 313.725C172.159 311.133 175.961 309.577 179.418 308.367C194.629 302.836 209.667 302.663 214.68 317.874C215.026 318.911 215.199 319.775 215.372 320.639C215.372 320.639 215.372 320.639 215.372 320.985C215.717 322.368 215.717 324.615 216.409 325.652C217.619 327.726 219.866 326.171 218.829 332.22C216.754 342.246 205.173 340.517 197.568 342.246C194.111 343.11 190.481 345.703 187.024 347.086C181.838 349.16 176.653 351.234 171.467 353.308C169.739 348.123 166.109 339.307 165.245 335.85C163.17 328.418 163.689 319.429 169.566 313.898L169.393 313.725Z" fill="#282B3B"/>
<path d="M167.491 357.63C170.603 352.79 169.911 353.654 173.714 344.32C174.924 341.209 174.578 342.246 175.27 340.345C178.035 341.728 184.949 344.839 196.876 350.543C195.147 355.037 192.555 361.605 190.653 366.1C190.653 366.1 189.271 369.384 189.098 369.557C186.159 375.779 190.999 384.076 184.431 388.57C177.517 393.064 162.824 383.039 162.824 368.001C162.824 364.89 163.343 364.025 164.898 361.778C165.763 360.568 166.454 359.013 167.146 357.63H167.491Z" fill="#FFAE9A"/>
<path d="M193.766 360.914L189.963 367.828C189.963 367.828 181.839 373.878 173.023 351.753C172.678 350.716 172.851 349.679 172.678 348.814L175.616 344.32C180.11 345.012 188.407 354.346 193.766 360.914Z" fill="#FF8389"/>
<path d="M165.935 341.555C164.898 339.48 164.898 337.752 165.589 335.505C166.281 332.739 165.589 329.628 167.318 327.035C168.701 324.961 170.602 323.405 172.503 321.677C178.38 316.837 184.43 311.824 191.863 310.787C198.258 309.75 205.172 312.343 209.494 317.01C218.136 326.517 214.161 341.036 210.531 351.753C207.592 360.223 200.332 370.075 189.961 367.655C175.615 364.371 172.158 347.95 172.158 347.95C169.738 346.222 167.318 343.802 166.108 341.382L165.935 341.555Z" fill="#FFAE9A"/>
<path d="M173.022 347.777C172.331 349.678 169.565 348.814 170.084 346.913C170.775 345.011 173.541 345.876 173.022 347.777Z" fill="#FDBA38"/>
<path d="M194.456 337.925C192.036 336.542 189.789 339.999 192.209 341.555C194.629 342.937 196.876 339.48 194.456 337.925Z" fill="#100F36"/>
<path d="M194.456 337.925C192.036 336.542 189.789 339.999 192.209 341.555C194.629 342.937 196.876 339.48 194.456 337.925Z" fill="#1A2B47"/>
<path d="M191.863 338.789C191.172 339.826 192.9 341.036 193.592 339.826C194.283 338.789 192.728 337.579 191.863 338.789Z" fill="white"/>
<path d="M208.976 343.456C206.556 342.073 204.309 345.53 206.729 347.086C209.149 348.469 211.396 345.012 208.976 343.456Z" fill="#1A2B47"/>
<path d="M207.765 343.975C206.728 343.283 205.518 345.012 206.728 345.703C207.765 346.395 208.975 344.666 207.765 343.975Z" fill="white"/>
<path d="M164.207 331.184C164.207 332.393 165.071 336.023 165.244 336.196C165.763 334.122 168.01 331.356 170.43 331.356C176.307 331.356 176.134 338.962 175.27 343.11C174.751 346.567 173.714 354.346 176.48 347.259C179.764 339.308 185.986 331.875 195.148 331.356C202.062 331.702 207.939 328.418 209.667 321.331C213.124 325.479 213.643 329.455 214.853 334.295C216.581 340.517 219.347 330.665 219.865 327.899C220.557 323.924 219.865 320.294 218.31 317.355C215.544 311.651 210.877 305.774 204.827 303.527C193.592 299.379 178.381 299.033 171.986 310.441C170.084 313.726 166.8 315.8 165.244 319.43C163.689 323.06 163.343 327.208 163.861 331.011L164.207 331.184Z" fill="#282B3B"/>
<path d="M170.429 336.715C168.182 338.271 168.528 340.69 170.083 342.592C169.046 341.382 168.009 339.826 168.7 338.27C169.91 335.159 167.145 338.616 170.256 336.369C170.948 336.023 171.639 335.678 172.503 335.505C171.812 335.851 171.12 336.196 170.602 336.715H170.429Z" fill="#FF8389"/>
<path d="M172.158 339.135C171.467 338.789 170.603 338.098 169.738 337.925C169.566 337.925 168.874 337.752 168.528 337.925C168.356 337.925 168.701 338.443 168.528 338.616C168.528 337.406 170.257 337.579 170.948 338.098C171.813 338.443 172.504 339.308 173.023 339.999L171.813 339.135H172.158Z" fill="#FF8389"/>
<path d="M188.58 334.986C188.58 334.986 188.58 334.641 188.58 334.468C193.074 330.319 198.433 334.468 197.914 335.505C197.741 335.505 197.568 335.505 197.396 335.505C197.396 335.505 196.013 333.776 193.766 333.431C191.173 333.085 189.271 335.332 188.753 335.159H188.58V334.986Z" fill="#1A2B47"/>
<path d="M205.864 338.616C205.864 338.443 205.864 338.27 205.864 338.097C208.111 336.542 210.012 336.196 211.568 336.887C213.642 337.752 214.161 339.826 214.161 339.999C214.161 340.517 213.469 340.69 213.297 340.172C213.297 340.172 212.778 338.27 211.05 337.579C209.667 337.06 208.111 337.579 205.864 338.616C205.864 338.616 205.691 338.616 205.518 338.616C205.345 338.616 205.345 338.616 205.518 338.616H205.864Z" fill="#1A2B47"/>
<path d="M202.752 342.419C201.023 345.185 202.406 349.16 202.406 349.679C202.752 352.099 200.332 352.79 198.258 352.099C199.468 352.271 201.023 352.617 201.715 351.58C202.925 349.852 200.851 348.469 202.061 344.147C202.579 342.765 203.098 341.9 204.135 340.863C203.616 341.382 203.271 341.9 202.925 342.419H202.752Z" fill="#FF8389"/>
<path d="M195.838 351.235C195.492 351.062 195.146 350.889 194.801 350.716C195.319 350.543 195.665 350.716 196.011 350.716C196.356 350.889 196.702 351.235 196.875 351.753C196.529 351.753 196.184 351.235 195.838 351.235Z" fill="#FF8389"/>
<path d="M183.74 344.493C184.604 341.9 192.728 344.493 191.864 347.259C191 349.851 182.876 347.259 183.74 344.493Z" fill="#FF8389"/>
<path d="M203.099 350.197C204.136 347.432 210.013 349.333 208.976 352.271C207.939 355.037 202.062 353.136 203.099 350.197Z" fill="#FF8389"/>
<path d="M201.198 357.976C196.877 357.284 193.593 355.901 189.617 354.346C193.074 357.284 197.741 358.494 201.198 357.976Z" fill="#FF8389"/>
<path d="M197.396 359.531C196.705 358.84 195.322 358.667 194.285 359.013C195.149 359.704 196.359 359.877 197.396 359.531Z" fill="#FF8389"/>
<path d="M164.035 363.507L179.938 389.78L164.035 401.016L153.318 368.174L164.035 363.507Z" fill="white"/>
<path d="M189.271 369.557L179.938 389.78L192.21 399.114L196.877 372.495L189.271 369.557Z" fill="white"/>
<path d="M342.417 417.782H251.497L228.854 482.774H184.949C180.455 482.774 180.282 489.688 184.949 489.688H318.045L342.244 417.609L342.417 417.782Z" fill="#25314B"/>
<path d="M618.981 520.802H489.17V602.042H618.981V520.802Z" fill="#D89B3E"/>
<path d="M580.608 520.802H487.096V602.042H580.608V520.802Z" fill="#E4B460"/>
<path d="M544.828 520.802H525.123V539.988H544.828V520.802Z" fill="white"/>
<path d="M608.782 602.215H438.523V693.48H608.782V602.215Z" fill="#D89B3E"/>
<path d="M558.656 602.215H435.932V693.48H558.656V602.215Z" fill="#E4B460"/>
<path d="M511.468 602.215H485.713V623.821H511.468V602.215Z" fill="white"/>
<path d="M874.629 689.851H10.3711V694.69H874.629V689.851Z" fill="#282B3B"/>
</g>
<defs>
<clipPath id="clip0_497_9063">
<rect width="885" height="885" fill="white"/>
</clipPath>
</defs>
</svg>
