<svg width="761" height="538" viewBox="0 0 761 538" fill="none" xmlns="http://www.w3.org/2000/svg">
<g clip-path="url(#clip0_497_9542)">
<path d="M713.363 336.284C713.363 364.752 709.115 388.521 697.274 407.861C676.845 441.661 633.819 461.905 551.925 469.677C405.944 483.595 183.131 485.402 134.049 469.677C108.016 461.272 89.5763 446.993 79.5429 426.388C70.5943 408.222 68.3345 385.086 73.0348 356.889C74.3003 349.569 74.3003 341.978 73.5772 333.934C68.0633 275.733 19.7042 199.909 70.6846 134.116C128.625 59.1956 186.023 41.6629 273.793 59.1956C278.312 60.0993 702.968 203.795 711.646 303.026C712.64 314.775 713.273 325.801 713.273 336.284H713.363Z" fill="#B6F1FF"/>
<path d="M697.274 407.86C676.845 441.661 633.819 461.904 551.925 469.677C405.944 483.594 183.131 485.402 134.049 469.677C108.016 461.272 89.5763 446.993 79.543 426.387C207.627 393.039 522.639 364.842 697.274 407.86Z" fill="#8FCDF7"/>
<g opacity="0.5">
<path d="M365.812 543.603C520.818 543.603 646.475 532.8 646.475 519.473C646.475 506.147 520.818 495.343 365.812 495.343C210.806 495.343 85.1484 506.147 85.1484 519.473C85.1484 532.8 210.806 543.603 365.812 543.603Z" fill="#D6B2B4"/>
</g>
<path d="M519.114 519.654C553.21 519.654 580.851 492.018 580.851 457.928C580.851 423.838 553.21 396.202 519.114 396.202C485.017 396.202 457.377 423.838 457.377 457.928C457.377 492.018 485.017 519.654 519.114 519.654Z" fill="#231F20"/>
<path d="M519.113 495.343C539.781 495.343 556.535 478.592 556.535 457.928C556.535 437.264 539.781 420.513 519.113 420.513C498.446 420.513 481.691 437.264 481.691 457.928C481.691 478.592 498.446 495.343 519.113 495.343Z" fill="white"/>
<path d="M512.786 305.828H368.613C357.947 305.828 349.27 297.152 349.27 286.487V270.22C349.27 259.556 357.947 250.88 368.613 250.88L484.133 246.994C494.799 246.994 508.448 252.055 508.448 262.719L528.063 287.662C528.063 298.326 523.453 305.918 512.696 305.918L512.786 305.828Z" fill="#D8D2CE"/>
<path d="M606.884 151.287L580.399 235.064C580.399 247.807 570.004 258.2 557.259 258.2H459.727C453.4 258.2 447.615 255.67 443.457 251.513C439.209 247.355 436.678 241.481 436.678 235.064V131.766C436.678 123 441.559 115.318 448.79 111.432C452.044 109.624 455.841 108.63 459.818 108.63H557.349C570.095 108.63 606.974 138.544 606.974 151.287H606.884Z" fill="#FEB00E"/>
<path d="M212.147 519.654C246.243 519.654 273.884 492.018 273.884 457.928C273.884 423.838 246.243 396.202 212.147 396.202C178.051 396.202 150.41 423.838 150.41 457.928C150.41 492.018 178.051 519.654 212.147 519.654Z" fill="#231F20"/>
<path d="M212.146 495.343C232.814 495.343 249.568 478.592 249.568 457.928C249.568 437.264 232.814 420.513 212.146 420.513C191.479 420.513 174.725 437.264 174.725 457.928C174.725 478.592 191.479 495.343 212.146 495.343Z" fill="white"/>
<path d="M265.116 233.438C264.664 234.884 243.332 305.737 245.05 335.922C246.767 366.108 264.845 391.051 326.582 382.013C388.319 372.976 366.083 333.211 366.083 324.354C366.083 315.498 354.965 312.696 358.49 299.501C362.015 286.307 511.07 275.191 520.109 293.989C529.148 312.696 545.96 335.38 556.898 346.316C567.835 357.251 575.97 366.469 578.411 378.579C578.411 378.579 602.003 380.658 604.082 439.582H279.127C279.127 439.582 282.291 444.101 273.884 446.902C265.568 449.704 239.174 454.855 232.937 444.824C226.7 434.792 213.142 402.167 163.969 419.519C114.706 436.871 179.245 379.302 213.594 376.862C213.594 376.862 198.498 356.257 208.351 346.316C218.203 336.465 242.338 258.2 246.496 240.939C250.654 223.587 269.274 220.333 265.207 233.438H265.116Z" fill="#FEB00E"/>
<path d="M301.996 191.142C301.996 191.142 278.765 187.527 272.167 191.685C265.568 195.842 257.975 204.518 257.975 207.952C257.975 211.386 257.252 216.447 260.777 215.363C260.777 215.363 259.873 218.164 263.579 218.164C263.579 218.164 264.122 223.225 267.557 222.141C267.557 222.141 268.732 225.394 272.257 225.394C275.782 225.394 276.234 224.852 276.234 222.141C276.234 219.43 282.11 216.809 284.55 216.809C284.55 216.809 289.883 220.424 297.928 212.471C305.973 204.518 302.086 191.142 302.086 191.142H301.996Z" fill="#F28981"/>
<path d="M274.698 233.709C268.822 246.271 239.355 250.699 235.92 250.699C232.485 250.699 235.468 250.519 235.287 250.338C233.028 247.627 231.672 229.913 231.039 217.622C231.581 209.76 232.847 203.885 234.384 202.439C234.655 202.349 234.926 202.259 235.197 202.078C240.169 200.361 248.033 201.084 252.462 201.084C259.151 201.084 276.325 212.29 276.325 212.29C283.737 216.719 280.483 221.056 274.607 233.619L274.698 233.709Z" fill="#FEB00E"/>
<path d="M330.559 354.901C330.559 354.901 325.407 367.915 317.091 372.162C308.775 376.41 296.572 378.941 298.109 385.538C299.645 392.135 319.622 391.954 333.723 391.051C347.824 390.147 360.75 391.503 360.75 387.797C360.75 384.092 358.671 355.805 358.671 355.805L330.559 354.991V354.901Z" fill="#CE242C"/>
<path d="M326.944 258.652C326.944 258.652 333.452 246.542 339.508 244.463C345.564 242.385 386.15 241.571 386.15 241.571L381.54 262.719L359.575 286.578C359.575 286.578 361.112 362.583 359.756 364.029C358.4 365.475 348.005 364.029 348.005 364.029L326.854 258.833L326.944 258.652Z" fill="#EF9E1D"/>
<path d="M296.21 189.696C296.21 189.696 291.329 216.176 296.21 217.26C301.091 218.435 357.134 224.852 363.913 221.869C370.692 218.887 404.408 181.382 404.408 172.886C404.408 164.391 399.798 147.943 384.522 151.829C369.246 155.715 347.1 189.696 344.298 189.696C341.496 189.696 296.21 186.172 296.21 189.696Z" fill="#CE242C"/>
<path d="M351.35 94.0799C351.35 94.0799 347.553 104.744 348.999 110.709C350.446 116.674 348.276 120.288 346.468 121.644C344.661 123 351.078 124.807 351.621 126.705C352.163 128.603 353.609 127.609 356.14 132.037C358.671 136.466 359.846 140.984 366.083 138.454C372.32 135.923 373.405 131.314 377.653 138.454C381.902 145.503 379.009 156.077 379.009 156.077L403.686 137.189C403.686 137.189 397.087 122.006 397.087 114.956C397.087 107.907 372.049 61.8161 351.53 94.1702L351.35 94.0799Z" fill="#FFB6AE"/>
<path d="M309.226 202.71C309.226 202.71 285.996 199.095 279.397 203.252C272.799 207.41 265.206 216.086 265.206 219.52C265.206 222.954 264.483 228.015 268.008 226.931C268.008 226.931 267.104 229.732 270.81 229.732C270.81 229.732 271.352 234.793 274.787 233.709C274.787 233.709 275.962 236.962 279.487 236.962C283.013 236.962 283.465 236.42 283.465 233.709C283.465 230.997 289.34 228.377 291.781 228.377C291.781 228.377 297.114 231.992 305.158 224.039C313.113 216.086 309.316 202.71 309.316 202.71H309.226Z" fill="#FFB6AE"/>
<path d="M349.089 97.2432C348.727 97.7855 345.654 100.949 343.937 106.1C342.219 111.251 354.784 101.129 354.784 101.129C354.784 101.129 350.806 107.636 355.055 106.461C359.303 105.287 373.946 101.672 372.681 96.5202C371.415 91.3689 353.157 91.0978 348.999 97.3336L349.089 97.2432Z" fill="#231F20"/>
<path d="M289.161 240.939C293.304 240.939 296.663 237.58 296.663 233.438C296.663 229.295 293.304 225.937 289.161 225.937C285.017 225.937 281.658 229.295 281.658 233.438C281.658 237.58 285.017 240.939 289.161 240.939Z" fill="#AF8C8F"/>
<path d="M518.571 283.596H362.919C355.38 283.596 349.27 289.705 349.27 297.242C349.27 304.779 355.38 310.889 362.919 310.889H518.571C526.11 310.889 532.22 304.779 532.22 297.242C532.22 289.705 526.11 283.596 518.571 283.596Z" fill="white"/>
<path d="M317.814 386.352C317.814 386.352 312.119 400.721 302.899 405.421C293.68 410.12 280.211 412.831 281.929 420.152C283.646 427.472 305.701 427.291 321.249 426.207C336.886 425.122 351.078 426.749 351.078 422.592C351.078 418.435 348.818 387.255 348.818 387.255L317.814 386.352Z" fill="#F74344"/>
<path d="M443.727 264.798C443.727 264.798 444.179 290.645 430.35 295.887C416.52 301.128 349.269 297.061 349.269 306.099C349.269 315.136 356.41 389.966 349.269 391.774C342.128 393.491 310.13 394.576 310.13 388.972C310.13 383.369 300.187 284.59 312.661 265.43C320.706 253.049 378.917 255.851 383.437 255.851C387.956 255.851 449.964 255.218 443.818 264.888L443.727 264.798Z" fill="#FFE131"/>
<path d="M239.535 226.298C239.535 239.402 237.637 250.067 235.287 250.428H235.197C232.756 250.428 230.768 239.583 230.768 226.298C230.768 213.013 230.858 220.424 231.039 217.712C231.581 209.85 232.847 203.975 234.383 202.529C234.654 202.258 234.926 202.168 235.106 202.168H235.197C237.547 202.529 239.445 213.194 239.445 226.298H239.535Z" fill="#FFE131"/>
<path d="M471.569 141.436L468.405 274.558L444.181 255.308C444.181 255.308 443.91 254.495 443.367 252.959C442.192 249.344 439.661 241.843 436.588 231.992V133.212C436.588 124.446 441.469 116.764 448.7 112.878L471.569 141.436Z" fill="#EA9B0F"/>
<path d="M584.556 134.025H487.025C474.245 134.025 463.885 144.384 463.885 157.161V260.459C463.885 273.237 474.245 283.595 487.025 283.595H584.556C597.336 283.595 607.696 273.237 607.696 260.459V157.161C607.696 144.384 597.336 134.025 584.556 134.025Z" fill="#FFD815"/>
<path d="M373.494 140.804C373.494 140.804 400.34 123.994 402.419 126.073C404.498 128.151 408.385 135.2 414.079 140.804C419.684 146.407 437.852 166.47 444.451 217.441C451.049 268.413 448.79 267.69 445.626 268.955C442.462 270.13 393.922 281.607 376.658 258.923C376.658 258.923 373.675 253.682 376.477 247.807C379.279 241.933 382.171 228.919 378.556 210.392C374.94 191.865 368.974 141.888 373.494 140.894V140.804Z" fill="#F74344"/>
<path d="M303.443 201.264C303.443 201.264 298.562 227.744 303.443 228.828C308.324 229.913 364.366 236.42 371.145 233.437C377.925 230.455 411.641 192.95 411.641 184.454C411.641 175.959 407.031 159.511 391.755 163.397C376.479 167.283 354.333 201.264 351.531 201.264C348.729 201.264 303.443 197.739 303.443 201.264Z" fill="#F74344"/>
<path d="M534.299 169.271H557.801L540.174 203.523H556.445L528.152 248.349L534.299 217.351H515.859L534.299 169.271Z" fill="#F74344"/>
<path d="M583.833 432.442C579.223 398.733 550.027 373.337 515.95 373.337C481.873 373.337 455.298 396.383 448.79 428.104L445.807 427.472C452.586 394.304 482.144 370.265 516.04 370.265C549.937 370.265 582.206 396.835 586.997 432.081L583.924 432.533L583.833 432.442Z" fill="#231F20"/>
<path d="M280.121 401.896C239.626 392.949 241.796 357.16 241.796 356.799L244.869 356.98H243.332C243.332 356.889 244.869 356.98 244.869 356.98C244.779 358.335 242.971 390.418 280.754 398.823L280.121 401.805V401.896Z" fill="#231F20"/>
<path d="M364.184 397.196L361.834 395.208C362.015 395.027 376.929 377.404 373.675 357.16L376.748 356.708C380.274 378.398 364.817 396.473 364.184 397.287V397.196Z" fill="#231F20"/>
<path d="M272.528 427.381C253.275 389.243 219.83 382.465 219.469 382.465L220.011 379.393C220.373 379.393 255.354 386.442 275.24 426.026L272.528 427.381Z" fill="#231F20"/>
<path d="M257.587 244.097L249.125 246.716L250.034 249.652L258.496 247.033L257.587 244.097Z" fill="#231F20"/>
<path d="M383.981 169.181L381.631 167.193C381.902 166.922 387.597 160.144 394.828 159.873C398.353 159.692 401.607 161.048 404.409 163.94L402.24 166.109C399.98 163.849 397.54 162.855 394.918 162.946C389.043 163.217 383.981 169.181 383.981 169.181Z" fill="#231F20"/>
<path d="M387.777 220.243L385.607 218.074C399.076 204.608 406.94 186.533 407.03 186.353L409.832 187.527C409.471 188.25 401.697 206.235 387.777 220.153V220.243Z" fill="#231F20"/>
<path d="M451.879 114.345L449.484 116.271L470.271 142.119L472.666 140.194L451.879 114.345Z" fill="#231F20"/>
<path d="M466.235 151.287H463.162C463.162 150.925 463.433 144.599 469.309 139.267C475.365 133.845 484.856 131.585 497.601 132.489L497.33 135.562C485.489 134.658 476.721 136.646 471.388 141.527C466.416 145.955 466.145 151.106 466.145 151.287H466.235Z" fill="#231F20"/>
<path d="M513.781 309.352H404.408V312.425H513.781V309.352Z" fill="#231F20"/>
<path d="M357.09 115.117C357.684 115.037 358.019 113.889 357.838 112.554C357.658 111.218 357.03 110.201 356.436 110.281C355.843 110.361 355.508 111.509 355.688 112.844C355.869 114.18 356.497 115.197 357.09 115.117Z" fill="#231F20"/>
<path d="M352.705 109.986C352.705 109.715 353.157 107.817 353.157 107.817C353.157 107.817 356.321 107.365 358.671 108.721L352.705 109.896V109.986Z" fill="#231F20"/>
<path d="M357.677 130.23C357.406 130.23 357.134 130.049 356.954 129.868C356.773 129.507 356.954 129.055 357.225 128.784C357.225 128.784 359.485 127.518 360.117 125.35C360.208 124.898 360.66 124.717 361.021 124.807C361.473 124.898 361.654 125.35 361.564 125.711C360.75 128.513 358.038 130.049 357.948 130.139C357.858 130.139 357.677 130.23 357.586 130.23H357.677Z" fill="#231F20"/>
<g opacity="0.5">
<path d="M367.528 122.548C370.474 122.548 372.861 120.161 372.861 117.216C372.861 114.271 370.474 111.884 367.528 111.884C364.583 111.884 362.195 114.271 362.195 117.216C362.195 120.161 364.583 122.548 367.528 122.548Z" fill="#F2807E"/>
</g>
<path d="M346.197 100.045C346.468 101.491 363.28 95.0741 364.998 97.4239C366.715 99.7736 373.585 131.585 376.297 131.405C379.008 131.224 409.199 122.819 410.826 118.933C412.453 115.047 415.165 78.8067 389.946 68.3233C370.331 60.0992 341.406 71.9382 346.106 100.045H346.197Z" fill="#F74344"/>
<path d="M603.99 336.465H528.152V339.538H603.99V336.465Z" fill="#231F20"/>
<path d="M611.584 327.608H535.746V330.681H611.584V327.608Z" fill="#231F20"/>
<path d="M614.838 344.598H539V347.671H614.838V344.598Z" fill="#231F20"/>
<path d="M644.125 252.055H568.287V255.127H644.125V252.055Z" fill="#231F20"/>
<path d="M654.971 260.188H579.133V263.261H654.971V260.188Z" fill="#231F20"/>
<path d="M426.824 83.687H377.109V86.2175H426.824V83.687Z" fill="#231F20"/>
<path d="M433.967 91.8208H384.252V94.3513H433.967V91.8208Z" fill="#231F20"/>
<g opacity="0.3">
<path d="M365.45 97.424C365.45 97.424 355.417 88.1154 345.474 90.8266C335.531 93.5378 323.237 110.257 334.355 136.827L373.133 123.271L365.54 97.3336L365.45 97.424Z" fill="white"/>
</g>
<path d="M268.912 225.666L267.375 225.394C267.375 225.214 268.46 219.972 271.262 217.17L272.346 218.255C269.816 220.785 268.912 225.666 268.821 225.756L268.912 225.666Z" fill="#F2807E"/>
<path d="M272.619 228.648L271.082 228.377C271.082 228.105 272.076 222.593 275.511 220.785L276.234 222.141C273.523 223.496 272.619 228.557 272.619 228.557V228.648Z" fill="#F2807E"/>
<path d="M275.15 232.715C274.879 230.455 275.422 225.756 279.489 224.581L279.941 226.027C276.145 227.112 276.687 232.263 276.687 232.444L275.15 232.624V232.715Z" fill="#F2807E"/>
</g>
<defs>
<clipPath id="clip0_497_9542">
<rect width="761" height="538" fill="white"/>
</clipPath>
</defs>
</svg>
